%TF.GenerationSoftware,KiCad,Pcbnew,7.0.6*%
%TF.CreationDate,2023-11-08T16:20:16-08:00*%
%TF.ProjectId,UGC_SubStick,5547435f-5375-4625-9374-69636b2e6b69,rev?*%
%TF.SameCoordinates,Original*%
%TF.FileFunction,Drillmap*%
%TF.FilePolarity,Positive*%
%FSLAX45Y45*%
G04 Gerber Fmt 4.5, Leading zero omitted, Abs format (unit mm)*
G04 Created by KiCad (PCBNEW 7.0.6) date 2023-11-08 16:20:16*
%MOMM*%
%LPD*%
G01*
G04 APERTURE LIST*
%ADD10C,0.100000*%
%ADD11C,0.200000*%
%ADD12C,0.090000*%
%ADD13C,0.120000*%
G04 APERTURE END LIST*
D10*
X24332077Y-13584767D02*
G75*
G03*
X26172077Y-14981334I389973J-1396603D01*
G01*
X24332077Y-13381334D02*
X24332077Y-13584766D01*
X28311303Y-14111358D02*
X28311303Y-13378061D01*
X24688992Y-13523334D02*
G75*
G03*
X24688992Y-13523334I-90000J0D01*
G01*
X28111311Y-14311363D02*
G75*
G03*
X28311303Y-14111358I-11J200003D01*
G01*
X26762070Y-14311411D02*
X28111311Y-14311358D01*
X26242616Y-14701654D02*
G75*
G03*
X26172077Y-14981334I519484J-279756D01*
G01*
X26458993Y-13970834D02*
G75*
G03*
X26458993Y-13970834I-260000J0D01*
G01*
X26281020Y-14515080D02*
G75*
G03*
X26181736Y-14660590I-50030J-72490D01*
G01*
X26242617Y-14701655D02*
X26181736Y-14660590D01*
X24423993Y-13270444D02*
G75*
G03*
X24332077Y-13381334I20927J-110886D01*
G01*
X27237200Y-13660120D02*
G75*
G03*
X27237200Y-13660120I-110000J0D01*
G01*
X26762070Y-14311409D02*
G75*
G03*
X26281021Y-14515079I30J-670001D01*
G01*
X28204865Y-13270734D02*
X24423993Y-13270445D01*
X28311300Y-13378061D02*
G75*
G03*
X28204865Y-13270734I-107330J1D01*
G01*
D11*
D12*
X23662051Y-14611367D02*
X23752051Y-14701367D01*
X23752051Y-14611367D02*
X23662051Y-14701367D01*
X23662051Y-15261367D02*
X23752051Y-15351367D01*
X23752051Y-15261367D02*
X23662051Y-15351367D01*
X24112051Y-14611367D02*
X24202051Y-14701367D01*
X24202051Y-14611367D02*
X24112051Y-14701367D01*
X24112051Y-15261367D02*
X24202051Y-15351367D01*
X24202051Y-15261367D02*
X24112051Y-15351367D01*
D13*
X24282051Y-14348867D02*
G75*
G03*
X24282051Y-14348867I-60000J0D01*
G01*
X24282051Y-15613867D02*
G75*
G03*
X24282051Y-15613867I-60000J0D01*
G01*
X25282051Y-14348867D02*
G75*
G03*
X25282051Y-14348867I-60000J0D01*
G01*
X25282051Y-15613867D02*
G75*
G03*
X25282051Y-15613867I-60000J0D01*
G01*
D11*
X23527799Y-16747881D02*
X23527799Y-16547881D01*
X23527799Y-16547881D02*
X23575418Y-16547881D01*
X23575418Y-16547881D02*
X23603990Y-16557405D01*
X23603990Y-16557405D02*
X23623038Y-16576452D01*
X23623038Y-16576452D02*
X23632561Y-16595500D01*
X23632561Y-16595500D02*
X23642085Y-16633595D01*
X23642085Y-16633595D02*
X23642085Y-16662167D01*
X23642085Y-16662167D02*
X23632561Y-16700262D01*
X23632561Y-16700262D02*
X23623038Y-16719310D01*
X23623038Y-16719310D02*
X23603990Y-16738357D01*
X23603990Y-16738357D02*
X23575418Y-16747881D01*
X23575418Y-16747881D02*
X23527799Y-16747881D01*
X23727799Y-16747881D02*
X23727799Y-16614548D01*
X23727799Y-16652643D02*
X23737323Y-16633595D01*
X23737323Y-16633595D02*
X23746847Y-16624071D01*
X23746847Y-16624071D02*
X23765895Y-16614548D01*
X23765895Y-16614548D02*
X23784942Y-16614548D01*
X23851609Y-16747881D02*
X23851609Y-16614548D01*
X23851609Y-16547881D02*
X23842085Y-16557405D01*
X23842085Y-16557405D02*
X23851609Y-16566929D01*
X23851609Y-16566929D02*
X23861133Y-16557405D01*
X23861133Y-16557405D02*
X23851609Y-16547881D01*
X23851609Y-16547881D02*
X23851609Y-16566929D01*
X23975418Y-16747881D02*
X23956371Y-16738357D01*
X23956371Y-16738357D02*
X23946847Y-16719310D01*
X23946847Y-16719310D02*
X23946847Y-16547881D01*
X24080180Y-16747881D02*
X24061133Y-16738357D01*
X24061133Y-16738357D02*
X24051609Y-16719310D01*
X24051609Y-16719310D02*
X24051609Y-16547881D01*
X24308752Y-16747881D02*
X24308752Y-16547881D01*
X24308752Y-16547881D02*
X24375419Y-16690738D01*
X24375419Y-16690738D02*
X24442085Y-16547881D01*
X24442085Y-16547881D02*
X24442085Y-16747881D01*
X24623038Y-16747881D02*
X24623038Y-16643119D01*
X24623038Y-16643119D02*
X24613514Y-16624071D01*
X24613514Y-16624071D02*
X24594466Y-16614548D01*
X24594466Y-16614548D02*
X24556371Y-16614548D01*
X24556371Y-16614548D02*
X24537323Y-16624071D01*
X24623038Y-16738357D02*
X24603990Y-16747881D01*
X24603990Y-16747881D02*
X24556371Y-16747881D01*
X24556371Y-16747881D02*
X24537323Y-16738357D01*
X24537323Y-16738357D02*
X24527799Y-16719310D01*
X24527799Y-16719310D02*
X24527799Y-16700262D01*
X24527799Y-16700262D02*
X24537323Y-16681214D01*
X24537323Y-16681214D02*
X24556371Y-16671691D01*
X24556371Y-16671691D02*
X24603990Y-16671691D01*
X24603990Y-16671691D02*
X24623038Y-16662167D01*
X24718276Y-16614548D02*
X24718276Y-16814548D01*
X24718276Y-16624071D02*
X24737323Y-16614548D01*
X24737323Y-16614548D02*
X24775419Y-16614548D01*
X24775419Y-16614548D02*
X24794466Y-16624071D01*
X24794466Y-16624071D02*
X24803990Y-16633595D01*
X24803990Y-16633595D02*
X24813514Y-16652643D01*
X24813514Y-16652643D02*
X24813514Y-16709786D01*
X24813514Y-16709786D02*
X24803990Y-16728833D01*
X24803990Y-16728833D02*
X24794466Y-16738357D01*
X24794466Y-16738357D02*
X24775419Y-16747881D01*
X24775419Y-16747881D02*
X24737323Y-16747881D01*
X24737323Y-16747881D02*
X24718276Y-16738357D01*
X24899228Y-16728833D02*
X24908752Y-16738357D01*
X24908752Y-16738357D02*
X24899228Y-16747881D01*
X24899228Y-16747881D02*
X24889704Y-16738357D01*
X24889704Y-16738357D02*
X24899228Y-16728833D01*
X24899228Y-16728833D02*
X24899228Y-16747881D01*
X24899228Y-16624071D02*
X24908752Y-16633595D01*
X24908752Y-16633595D02*
X24899228Y-16643119D01*
X24899228Y-16643119D02*
X24889704Y-16633595D01*
X24889704Y-16633595D02*
X24899228Y-16624071D01*
X24899228Y-16624071D02*
X24899228Y-16643119D01*
D12*
X23177023Y-17031397D02*
X23267023Y-17121397D01*
X23267023Y-17031397D02*
X23177023Y-17121397D01*
D11*
X23565895Y-16967881D02*
X23584942Y-16967881D01*
X23584942Y-16967881D02*
X23603990Y-16977405D01*
X23603990Y-16977405D02*
X23613514Y-16986929D01*
X23613514Y-16986929D02*
X23623038Y-17005976D01*
X23623038Y-17005976D02*
X23632561Y-17044072D01*
X23632561Y-17044072D02*
X23632561Y-17091691D01*
X23632561Y-17091691D02*
X23623038Y-17129786D01*
X23623038Y-17129786D02*
X23613514Y-17148833D01*
X23613514Y-17148833D02*
X23603990Y-17158357D01*
X23603990Y-17158357D02*
X23584942Y-17167881D01*
X23584942Y-17167881D02*
X23565895Y-17167881D01*
X23565895Y-17167881D02*
X23546847Y-17158357D01*
X23546847Y-17158357D02*
X23537323Y-17148833D01*
X23537323Y-17148833D02*
X23527799Y-17129786D01*
X23527799Y-17129786D02*
X23518276Y-17091691D01*
X23518276Y-17091691D02*
X23518276Y-17044072D01*
X23518276Y-17044072D02*
X23527799Y-17005976D01*
X23527799Y-17005976D02*
X23537323Y-16986929D01*
X23537323Y-16986929D02*
X23546847Y-16977405D01*
X23546847Y-16977405D02*
X23565895Y-16967881D01*
X23718276Y-17148833D02*
X23727799Y-17158357D01*
X23727799Y-17158357D02*
X23718276Y-17167881D01*
X23718276Y-17167881D02*
X23708752Y-17158357D01*
X23708752Y-17158357D02*
X23718276Y-17148833D01*
X23718276Y-17148833D02*
X23718276Y-17167881D01*
X23823038Y-17167881D02*
X23861133Y-17167881D01*
X23861133Y-17167881D02*
X23880180Y-17158357D01*
X23880180Y-17158357D02*
X23889704Y-17148833D01*
X23889704Y-17148833D02*
X23908752Y-17120262D01*
X23908752Y-17120262D02*
X23918276Y-17082167D01*
X23918276Y-17082167D02*
X23918276Y-17005976D01*
X23918276Y-17005976D02*
X23908752Y-16986929D01*
X23908752Y-16986929D02*
X23899228Y-16977405D01*
X23899228Y-16977405D02*
X23880180Y-16967881D01*
X23880180Y-16967881D02*
X23842085Y-16967881D01*
X23842085Y-16967881D02*
X23823038Y-16977405D01*
X23823038Y-16977405D02*
X23813514Y-16986929D01*
X23813514Y-16986929D02*
X23803990Y-17005976D01*
X23803990Y-17005976D02*
X23803990Y-17053595D01*
X23803990Y-17053595D02*
X23813514Y-17072643D01*
X23813514Y-17072643D02*
X23823038Y-17082167D01*
X23823038Y-17082167D02*
X23842085Y-17091691D01*
X23842085Y-17091691D02*
X23880180Y-17091691D01*
X23880180Y-17091691D02*
X23899228Y-17082167D01*
X23899228Y-17082167D02*
X23908752Y-17072643D01*
X23908752Y-17072643D02*
X23918276Y-17053595D01*
X24042085Y-16967881D02*
X24061133Y-16967881D01*
X24061133Y-16967881D02*
X24080180Y-16977405D01*
X24080180Y-16977405D02*
X24089704Y-16986929D01*
X24089704Y-16986929D02*
X24099228Y-17005976D01*
X24099228Y-17005976D02*
X24108752Y-17044072D01*
X24108752Y-17044072D02*
X24108752Y-17091691D01*
X24108752Y-17091691D02*
X24099228Y-17129786D01*
X24099228Y-17129786D02*
X24089704Y-17148833D01*
X24089704Y-17148833D02*
X24080180Y-17158357D01*
X24080180Y-17158357D02*
X24061133Y-17167881D01*
X24061133Y-17167881D02*
X24042085Y-17167881D01*
X24042085Y-17167881D02*
X24023038Y-17158357D01*
X24023038Y-17158357D02*
X24013514Y-17148833D01*
X24013514Y-17148833D02*
X24003990Y-17129786D01*
X24003990Y-17129786D02*
X23994466Y-17091691D01*
X23994466Y-17091691D02*
X23994466Y-17044072D01*
X23994466Y-17044072D02*
X24003990Y-17005976D01*
X24003990Y-17005976D02*
X24013514Y-16986929D01*
X24013514Y-16986929D02*
X24023038Y-16977405D01*
X24023038Y-16977405D02*
X24042085Y-16967881D01*
X24232561Y-16967881D02*
X24251609Y-16967881D01*
X24251609Y-16967881D02*
X24270657Y-16977405D01*
X24270657Y-16977405D02*
X24280180Y-16986929D01*
X24280180Y-16986929D02*
X24289704Y-17005976D01*
X24289704Y-17005976D02*
X24299228Y-17044072D01*
X24299228Y-17044072D02*
X24299228Y-17091691D01*
X24299228Y-17091691D02*
X24289704Y-17129786D01*
X24289704Y-17129786D02*
X24280180Y-17148833D01*
X24280180Y-17148833D02*
X24270657Y-17158357D01*
X24270657Y-17158357D02*
X24251609Y-17167881D01*
X24251609Y-17167881D02*
X24232561Y-17167881D01*
X24232561Y-17167881D02*
X24213514Y-17158357D01*
X24213514Y-17158357D02*
X24203990Y-17148833D01*
X24203990Y-17148833D02*
X24194466Y-17129786D01*
X24194466Y-17129786D02*
X24184942Y-17091691D01*
X24184942Y-17091691D02*
X24184942Y-17044072D01*
X24184942Y-17044072D02*
X24194466Y-17005976D01*
X24194466Y-17005976D02*
X24203990Y-16986929D01*
X24203990Y-16986929D02*
X24213514Y-16977405D01*
X24213514Y-16977405D02*
X24232561Y-16967881D01*
X24384942Y-17167881D02*
X24384942Y-17034548D01*
X24384942Y-17053595D02*
X24394466Y-17044072D01*
X24394466Y-17044072D02*
X24413514Y-17034548D01*
X24413514Y-17034548D02*
X24442085Y-17034548D01*
X24442085Y-17034548D02*
X24461133Y-17044072D01*
X24461133Y-17044072D02*
X24470657Y-17063119D01*
X24470657Y-17063119D02*
X24470657Y-17167881D01*
X24470657Y-17063119D02*
X24480180Y-17044072D01*
X24480180Y-17044072D02*
X24499228Y-17034548D01*
X24499228Y-17034548D02*
X24527799Y-17034548D01*
X24527799Y-17034548D02*
X24546847Y-17044072D01*
X24546847Y-17044072D02*
X24556371Y-17063119D01*
X24556371Y-17063119D02*
X24556371Y-17167881D01*
X24651609Y-17167881D02*
X24651609Y-17034548D01*
X24651609Y-17053595D02*
X24661133Y-17044072D01*
X24661133Y-17044072D02*
X24680180Y-17034548D01*
X24680180Y-17034548D02*
X24708752Y-17034548D01*
X24708752Y-17034548D02*
X24727800Y-17044072D01*
X24727800Y-17044072D02*
X24737323Y-17063119D01*
X24737323Y-17063119D02*
X24737323Y-17167881D01*
X24737323Y-17063119D02*
X24746847Y-17044072D01*
X24746847Y-17044072D02*
X24765895Y-17034548D01*
X24765895Y-17034548D02*
X24794466Y-17034548D01*
X24794466Y-17034548D02*
X24813514Y-17044072D01*
X24813514Y-17044072D02*
X24823038Y-17063119D01*
X24823038Y-17063119D02*
X24823038Y-17167881D01*
X25213514Y-16958357D02*
X25042085Y-17215500D01*
X25470657Y-16967881D02*
X25489704Y-16967881D01*
X25489704Y-16967881D02*
X25508752Y-16977405D01*
X25508752Y-16977405D02*
X25518276Y-16986929D01*
X25518276Y-16986929D02*
X25527800Y-17005976D01*
X25527800Y-17005976D02*
X25537323Y-17044072D01*
X25537323Y-17044072D02*
X25537323Y-17091691D01*
X25537323Y-17091691D02*
X25527800Y-17129786D01*
X25527800Y-17129786D02*
X25518276Y-17148833D01*
X25518276Y-17148833D02*
X25508752Y-17158357D01*
X25508752Y-17158357D02*
X25489704Y-17167881D01*
X25489704Y-17167881D02*
X25470657Y-17167881D01*
X25470657Y-17167881D02*
X25451609Y-17158357D01*
X25451609Y-17158357D02*
X25442085Y-17148833D01*
X25442085Y-17148833D02*
X25432562Y-17129786D01*
X25432562Y-17129786D02*
X25423038Y-17091691D01*
X25423038Y-17091691D02*
X25423038Y-17044072D01*
X25423038Y-17044072D02*
X25432562Y-17005976D01*
X25432562Y-17005976D02*
X25442085Y-16986929D01*
X25442085Y-16986929D02*
X25451609Y-16977405D01*
X25451609Y-16977405D02*
X25470657Y-16967881D01*
X25623038Y-17148833D02*
X25632562Y-17158357D01*
X25632562Y-17158357D02*
X25623038Y-17167881D01*
X25623038Y-17167881D02*
X25613514Y-17158357D01*
X25613514Y-17158357D02*
X25623038Y-17148833D01*
X25623038Y-17148833D02*
X25623038Y-17167881D01*
X25756371Y-16967881D02*
X25775419Y-16967881D01*
X25775419Y-16967881D02*
X25794466Y-16977405D01*
X25794466Y-16977405D02*
X25803990Y-16986929D01*
X25803990Y-16986929D02*
X25813514Y-17005976D01*
X25813514Y-17005976D02*
X25823038Y-17044072D01*
X25823038Y-17044072D02*
X25823038Y-17091691D01*
X25823038Y-17091691D02*
X25813514Y-17129786D01*
X25813514Y-17129786D02*
X25803990Y-17148833D01*
X25803990Y-17148833D02*
X25794466Y-17158357D01*
X25794466Y-17158357D02*
X25775419Y-17167881D01*
X25775419Y-17167881D02*
X25756371Y-17167881D01*
X25756371Y-17167881D02*
X25737323Y-17158357D01*
X25737323Y-17158357D02*
X25727800Y-17148833D01*
X25727800Y-17148833D02*
X25718276Y-17129786D01*
X25718276Y-17129786D02*
X25708752Y-17091691D01*
X25708752Y-17091691D02*
X25708752Y-17044072D01*
X25708752Y-17044072D02*
X25718276Y-17005976D01*
X25718276Y-17005976D02*
X25727800Y-16986929D01*
X25727800Y-16986929D02*
X25737323Y-16977405D01*
X25737323Y-16977405D02*
X25756371Y-16967881D01*
X25889704Y-16967881D02*
X26013514Y-16967881D01*
X26013514Y-16967881D02*
X25946847Y-17044072D01*
X25946847Y-17044072D02*
X25975419Y-17044072D01*
X25975419Y-17044072D02*
X25994466Y-17053595D01*
X25994466Y-17053595D02*
X26003990Y-17063119D01*
X26003990Y-17063119D02*
X26013514Y-17082167D01*
X26013514Y-17082167D02*
X26013514Y-17129786D01*
X26013514Y-17129786D02*
X26003990Y-17148833D01*
X26003990Y-17148833D02*
X25994466Y-17158357D01*
X25994466Y-17158357D02*
X25975419Y-17167881D01*
X25975419Y-17167881D02*
X25918276Y-17167881D01*
X25918276Y-17167881D02*
X25899228Y-17158357D01*
X25899228Y-17158357D02*
X25889704Y-17148833D01*
X26194466Y-16967881D02*
X26099228Y-16967881D01*
X26099228Y-16967881D02*
X26089704Y-17063119D01*
X26089704Y-17063119D02*
X26099228Y-17053595D01*
X26099228Y-17053595D02*
X26118276Y-17044072D01*
X26118276Y-17044072D02*
X26165895Y-17044072D01*
X26165895Y-17044072D02*
X26184943Y-17053595D01*
X26184943Y-17053595D02*
X26194466Y-17063119D01*
X26194466Y-17063119D02*
X26203990Y-17082167D01*
X26203990Y-17082167D02*
X26203990Y-17129786D01*
X26203990Y-17129786D02*
X26194466Y-17148833D01*
X26194466Y-17148833D02*
X26184943Y-17158357D01*
X26184943Y-17158357D02*
X26165895Y-17167881D01*
X26165895Y-17167881D02*
X26118276Y-17167881D01*
X26118276Y-17167881D02*
X26099228Y-17158357D01*
X26099228Y-17158357D02*
X26089704Y-17148833D01*
X26375419Y-17034548D02*
X26375419Y-17167881D01*
X26327800Y-16958357D02*
X26280181Y-17101214D01*
X26280181Y-17101214D02*
X26403990Y-17101214D01*
X26470657Y-16967881D02*
X26470657Y-17005976D01*
X26546847Y-16967881D02*
X26546847Y-17005976D01*
X26842086Y-17244072D02*
X26832562Y-17234548D01*
X26832562Y-17234548D02*
X26813514Y-17205976D01*
X26813514Y-17205976D02*
X26803990Y-17186929D01*
X26803990Y-17186929D02*
X26794466Y-17158357D01*
X26794466Y-17158357D02*
X26784943Y-17110738D01*
X26784943Y-17110738D02*
X26784943Y-17072643D01*
X26784943Y-17072643D02*
X26794466Y-17025024D01*
X26794466Y-17025024D02*
X26803990Y-16996453D01*
X26803990Y-16996453D02*
X26813514Y-16977405D01*
X26813514Y-16977405D02*
X26832562Y-16948833D01*
X26832562Y-16948833D02*
X26842086Y-16939310D01*
X27003990Y-17034548D02*
X27003990Y-17167881D01*
X26956371Y-16958357D02*
X26908752Y-17101214D01*
X26908752Y-17101214D02*
X27032562Y-17101214D01*
X27261133Y-17167881D02*
X27261133Y-16967881D01*
X27346847Y-17167881D02*
X27346847Y-17063119D01*
X27346847Y-17063119D02*
X27337324Y-17044072D01*
X27337324Y-17044072D02*
X27318276Y-17034548D01*
X27318276Y-17034548D02*
X27289705Y-17034548D01*
X27289705Y-17034548D02*
X27270657Y-17044072D01*
X27270657Y-17044072D02*
X27261133Y-17053595D01*
X27470657Y-17167881D02*
X27451609Y-17158357D01*
X27451609Y-17158357D02*
X27442086Y-17148833D01*
X27442086Y-17148833D02*
X27432562Y-17129786D01*
X27432562Y-17129786D02*
X27432562Y-17072643D01*
X27432562Y-17072643D02*
X27442086Y-17053595D01*
X27442086Y-17053595D02*
X27451609Y-17044072D01*
X27451609Y-17044072D02*
X27470657Y-17034548D01*
X27470657Y-17034548D02*
X27499228Y-17034548D01*
X27499228Y-17034548D02*
X27518276Y-17044072D01*
X27518276Y-17044072D02*
X27527800Y-17053595D01*
X27527800Y-17053595D02*
X27537324Y-17072643D01*
X27537324Y-17072643D02*
X27537324Y-17129786D01*
X27537324Y-17129786D02*
X27527800Y-17148833D01*
X27527800Y-17148833D02*
X27518276Y-17158357D01*
X27518276Y-17158357D02*
X27499228Y-17167881D01*
X27499228Y-17167881D02*
X27470657Y-17167881D01*
X27651609Y-17167881D02*
X27632562Y-17158357D01*
X27632562Y-17158357D02*
X27623038Y-17139310D01*
X27623038Y-17139310D02*
X27623038Y-16967881D01*
X27803990Y-17158357D02*
X27784943Y-17167881D01*
X27784943Y-17167881D02*
X27746847Y-17167881D01*
X27746847Y-17167881D02*
X27727800Y-17158357D01*
X27727800Y-17158357D02*
X27718276Y-17139310D01*
X27718276Y-17139310D02*
X27718276Y-17063119D01*
X27718276Y-17063119D02*
X27727800Y-17044072D01*
X27727800Y-17044072D02*
X27746847Y-17034548D01*
X27746847Y-17034548D02*
X27784943Y-17034548D01*
X27784943Y-17034548D02*
X27803990Y-17044072D01*
X27803990Y-17044072D02*
X27813514Y-17063119D01*
X27813514Y-17063119D02*
X27813514Y-17082167D01*
X27813514Y-17082167D02*
X27718276Y-17101214D01*
X27889705Y-17158357D02*
X27908752Y-17167881D01*
X27908752Y-17167881D02*
X27946847Y-17167881D01*
X27946847Y-17167881D02*
X27965895Y-17158357D01*
X27965895Y-17158357D02*
X27975419Y-17139310D01*
X27975419Y-17139310D02*
X27975419Y-17129786D01*
X27975419Y-17129786D02*
X27965895Y-17110738D01*
X27965895Y-17110738D02*
X27946847Y-17101214D01*
X27946847Y-17101214D02*
X27918276Y-17101214D01*
X27918276Y-17101214D02*
X27899228Y-17091691D01*
X27899228Y-17091691D02*
X27889705Y-17072643D01*
X27889705Y-17072643D02*
X27889705Y-17063119D01*
X27889705Y-17063119D02*
X27899228Y-17044072D01*
X27899228Y-17044072D02*
X27918276Y-17034548D01*
X27918276Y-17034548D02*
X27946847Y-17034548D01*
X27946847Y-17034548D02*
X27965895Y-17044072D01*
X28042086Y-17244072D02*
X28051609Y-17234548D01*
X28051609Y-17234548D02*
X28070657Y-17205976D01*
X28070657Y-17205976D02*
X28080181Y-17186929D01*
X28080181Y-17186929D02*
X28089705Y-17158357D01*
X28089705Y-17158357D02*
X28099228Y-17110738D01*
X28099228Y-17110738D02*
X28099228Y-17072643D01*
X28099228Y-17072643D02*
X28089705Y-17025024D01*
X28089705Y-17025024D02*
X28080181Y-16996453D01*
X28080181Y-16996453D02*
X28070657Y-16977405D01*
X28070657Y-16977405D02*
X28051609Y-16948833D01*
X28051609Y-16948833D02*
X28042086Y-16939310D01*
D13*
X23267023Y-17340397D02*
G75*
G03*
X23267023Y-17340397I-60000J0D01*
G01*
D11*
X23632561Y-17431881D02*
X23518276Y-17431881D01*
X23575418Y-17431881D02*
X23575418Y-17231881D01*
X23575418Y-17231881D02*
X23556371Y-17260453D01*
X23556371Y-17260453D02*
X23537323Y-17279500D01*
X23537323Y-17279500D02*
X23518276Y-17289024D01*
X23718276Y-17412833D02*
X23727799Y-17422357D01*
X23727799Y-17422357D02*
X23718276Y-17431881D01*
X23718276Y-17431881D02*
X23708752Y-17422357D01*
X23708752Y-17422357D02*
X23718276Y-17412833D01*
X23718276Y-17412833D02*
X23718276Y-17431881D01*
X23803990Y-17250929D02*
X23813514Y-17241405D01*
X23813514Y-17241405D02*
X23832561Y-17231881D01*
X23832561Y-17231881D02*
X23880180Y-17231881D01*
X23880180Y-17231881D02*
X23899228Y-17241405D01*
X23899228Y-17241405D02*
X23908752Y-17250929D01*
X23908752Y-17250929D02*
X23918276Y-17269976D01*
X23918276Y-17269976D02*
X23918276Y-17289024D01*
X23918276Y-17289024D02*
X23908752Y-17317595D01*
X23908752Y-17317595D02*
X23794466Y-17431881D01*
X23794466Y-17431881D02*
X23918276Y-17431881D01*
X24042085Y-17231881D02*
X24061133Y-17231881D01*
X24061133Y-17231881D02*
X24080180Y-17241405D01*
X24080180Y-17241405D02*
X24089704Y-17250929D01*
X24089704Y-17250929D02*
X24099228Y-17269976D01*
X24099228Y-17269976D02*
X24108752Y-17308072D01*
X24108752Y-17308072D02*
X24108752Y-17355691D01*
X24108752Y-17355691D02*
X24099228Y-17393786D01*
X24099228Y-17393786D02*
X24089704Y-17412833D01*
X24089704Y-17412833D02*
X24080180Y-17422357D01*
X24080180Y-17422357D02*
X24061133Y-17431881D01*
X24061133Y-17431881D02*
X24042085Y-17431881D01*
X24042085Y-17431881D02*
X24023038Y-17422357D01*
X24023038Y-17422357D02*
X24013514Y-17412833D01*
X24013514Y-17412833D02*
X24003990Y-17393786D01*
X24003990Y-17393786D02*
X23994466Y-17355691D01*
X23994466Y-17355691D02*
X23994466Y-17308072D01*
X23994466Y-17308072D02*
X24003990Y-17269976D01*
X24003990Y-17269976D02*
X24013514Y-17250929D01*
X24013514Y-17250929D02*
X24023038Y-17241405D01*
X24023038Y-17241405D02*
X24042085Y-17231881D01*
X24232561Y-17231881D02*
X24251609Y-17231881D01*
X24251609Y-17231881D02*
X24270657Y-17241405D01*
X24270657Y-17241405D02*
X24280180Y-17250929D01*
X24280180Y-17250929D02*
X24289704Y-17269976D01*
X24289704Y-17269976D02*
X24299228Y-17308072D01*
X24299228Y-17308072D02*
X24299228Y-17355691D01*
X24299228Y-17355691D02*
X24289704Y-17393786D01*
X24289704Y-17393786D02*
X24280180Y-17412833D01*
X24280180Y-17412833D02*
X24270657Y-17422357D01*
X24270657Y-17422357D02*
X24251609Y-17431881D01*
X24251609Y-17431881D02*
X24232561Y-17431881D01*
X24232561Y-17431881D02*
X24213514Y-17422357D01*
X24213514Y-17422357D02*
X24203990Y-17412833D01*
X24203990Y-17412833D02*
X24194466Y-17393786D01*
X24194466Y-17393786D02*
X24184942Y-17355691D01*
X24184942Y-17355691D02*
X24184942Y-17308072D01*
X24184942Y-17308072D02*
X24194466Y-17269976D01*
X24194466Y-17269976D02*
X24203990Y-17250929D01*
X24203990Y-17250929D02*
X24213514Y-17241405D01*
X24213514Y-17241405D02*
X24232561Y-17231881D01*
X24384942Y-17431881D02*
X24384942Y-17298548D01*
X24384942Y-17317595D02*
X24394466Y-17308072D01*
X24394466Y-17308072D02*
X24413514Y-17298548D01*
X24413514Y-17298548D02*
X24442085Y-17298548D01*
X24442085Y-17298548D02*
X24461133Y-17308072D01*
X24461133Y-17308072D02*
X24470657Y-17327119D01*
X24470657Y-17327119D02*
X24470657Y-17431881D01*
X24470657Y-17327119D02*
X24480180Y-17308072D01*
X24480180Y-17308072D02*
X24499228Y-17298548D01*
X24499228Y-17298548D02*
X24527799Y-17298548D01*
X24527799Y-17298548D02*
X24546847Y-17308072D01*
X24546847Y-17308072D02*
X24556371Y-17327119D01*
X24556371Y-17327119D02*
X24556371Y-17431881D01*
X24651609Y-17431881D02*
X24651609Y-17298548D01*
X24651609Y-17317595D02*
X24661133Y-17308072D01*
X24661133Y-17308072D02*
X24680180Y-17298548D01*
X24680180Y-17298548D02*
X24708752Y-17298548D01*
X24708752Y-17298548D02*
X24727800Y-17308072D01*
X24727800Y-17308072D02*
X24737323Y-17327119D01*
X24737323Y-17327119D02*
X24737323Y-17431881D01*
X24737323Y-17327119D02*
X24746847Y-17308072D01*
X24746847Y-17308072D02*
X24765895Y-17298548D01*
X24765895Y-17298548D02*
X24794466Y-17298548D01*
X24794466Y-17298548D02*
X24813514Y-17308072D01*
X24813514Y-17308072D02*
X24823038Y-17327119D01*
X24823038Y-17327119D02*
X24823038Y-17431881D01*
X25213514Y-17222357D02*
X25042085Y-17479500D01*
X25470657Y-17231881D02*
X25489704Y-17231881D01*
X25489704Y-17231881D02*
X25508752Y-17241405D01*
X25508752Y-17241405D02*
X25518276Y-17250929D01*
X25518276Y-17250929D02*
X25527800Y-17269976D01*
X25527800Y-17269976D02*
X25537323Y-17308072D01*
X25537323Y-17308072D02*
X25537323Y-17355691D01*
X25537323Y-17355691D02*
X25527800Y-17393786D01*
X25527800Y-17393786D02*
X25518276Y-17412833D01*
X25518276Y-17412833D02*
X25508752Y-17422357D01*
X25508752Y-17422357D02*
X25489704Y-17431881D01*
X25489704Y-17431881D02*
X25470657Y-17431881D01*
X25470657Y-17431881D02*
X25451609Y-17422357D01*
X25451609Y-17422357D02*
X25442085Y-17412833D01*
X25442085Y-17412833D02*
X25432562Y-17393786D01*
X25432562Y-17393786D02*
X25423038Y-17355691D01*
X25423038Y-17355691D02*
X25423038Y-17308072D01*
X25423038Y-17308072D02*
X25432562Y-17269976D01*
X25432562Y-17269976D02*
X25442085Y-17250929D01*
X25442085Y-17250929D02*
X25451609Y-17241405D01*
X25451609Y-17241405D02*
X25470657Y-17231881D01*
X25623038Y-17412833D02*
X25632562Y-17422357D01*
X25632562Y-17422357D02*
X25623038Y-17431881D01*
X25623038Y-17431881D02*
X25613514Y-17422357D01*
X25613514Y-17422357D02*
X25623038Y-17412833D01*
X25623038Y-17412833D02*
X25623038Y-17431881D01*
X25756371Y-17231881D02*
X25775419Y-17231881D01*
X25775419Y-17231881D02*
X25794466Y-17241405D01*
X25794466Y-17241405D02*
X25803990Y-17250929D01*
X25803990Y-17250929D02*
X25813514Y-17269976D01*
X25813514Y-17269976D02*
X25823038Y-17308072D01*
X25823038Y-17308072D02*
X25823038Y-17355691D01*
X25823038Y-17355691D02*
X25813514Y-17393786D01*
X25813514Y-17393786D02*
X25803990Y-17412833D01*
X25803990Y-17412833D02*
X25794466Y-17422357D01*
X25794466Y-17422357D02*
X25775419Y-17431881D01*
X25775419Y-17431881D02*
X25756371Y-17431881D01*
X25756371Y-17431881D02*
X25737323Y-17422357D01*
X25737323Y-17422357D02*
X25727800Y-17412833D01*
X25727800Y-17412833D02*
X25718276Y-17393786D01*
X25718276Y-17393786D02*
X25708752Y-17355691D01*
X25708752Y-17355691D02*
X25708752Y-17308072D01*
X25708752Y-17308072D02*
X25718276Y-17269976D01*
X25718276Y-17269976D02*
X25727800Y-17250929D01*
X25727800Y-17250929D02*
X25737323Y-17241405D01*
X25737323Y-17241405D02*
X25756371Y-17231881D01*
X25994466Y-17298548D02*
X25994466Y-17431881D01*
X25946847Y-17222357D02*
X25899228Y-17365214D01*
X25899228Y-17365214D02*
X26023038Y-17365214D01*
X26080181Y-17231881D02*
X26213514Y-17231881D01*
X26213514Y-17231881D02*
X26127800Y-17431881D01*
X26280181Y-17250929D02*
X26289704Y-17241405D01*
X26289704Y-17241405D02*
X26308752Y-17231881D01*
X26308752Y-17231881D02*
X26356371Y-17231881D01*
X26356371Y-17231881D02*
X26375419Y-17241405D01*
X26375419Y-17241405D02*
X26384943Y-17250929D01*
X26384943Y-17250929D02*
X26394466Y-17269976D01*
X26394466Y-17269976D02*
X26394466Y-17289024D01*
X26394466Y-17289024D02*
X26384943Y-17317595D01*
X26384943Y-17317595D02*
X26270657Y-17431881D01*
X26270657Y-17431881D02*
X26394466Y-17431881D01*
X26470657Y-17231881D02*
X26470657Y-17269976D01*
X26546847Y-17231881D02*
X26546847Y-17269976D01*
X26842086Y-17508072D02*
X26832562Y-17498548D01*
X26832562Y-17498548D02*
X26813514Y-17469976D01*
X26813514Y-17469976D02*
X26803990Y-17450929D01*
X26803990Y-17450929D02*
X26794466Y-17422357D01*
X26794466Y-17422357D02*
X26784943Y-17374738D01*
X26784943Y-17374738D02*
X26784943Y-17336643D01*
X26784943Y-17336643D02*
X26794466Y-17289024D01*
X26794466Y-17289024D02*
X26803990Y-17260453D01*
X26803990Y-17260453D02*
X26813514Y-17241405D01*
X26813514Y-17241405D02*
X26832562Y-17212833D01*
X26832562Y-17212833D02*
X26842086Y-17203310D01*
X27003990Y-17298548D02*
X27003990Y-17431881D01*
X26956371Y-17222357D02*
X26908752Y-17365214D01*
X26908752Y-17365214D02*
X27032562Y-17365214D01*
X27261133Y-17431881D02*
X27261133Y-17231881D01*
X27346847Y-17431881D02*
X27346847Y-17327119D01*
X27346847Y-17327119D02*
X27337324Y-17308072D01*
X27337324Y-17308072D02*
X27318276Y-17298548D01*
X27318276Y-17298548D02*
X27289705Y-17298548D01*
X27289705Y-17298548D02*
X27270657Y-17308072D01*
X27270657Y-17308072D02*
X27261133Y-17317595D01*
X27470657Y-17431881D02*
X27451609Y-17422357D01*
X27451609Y-17422357D02*
X27442086Y-17412833D01*
X27442086Y-17412833D02*
X27432562Y-17393786D01*
X27432562Y-17393786D02*
X27432562Y-17336643D01*
X27432562Y-17336643D02*
X27442086Y-17317595D01*
X27442086Y-17317595D02*
X27451609Y-17308072D01*
X27451609Y-17308072D02*
X27470657Y-17298548D01*
X27470657Y-17298548D02*
X27499228Y-17298548D01*
X27499228Y-17298548D02*
X27518276Y-17308072D01*
X27518276Y-17308072D02*
X27527800Y-17317595D01*
X27527800Y-17317595D02*
X27537324Y-17336643D01*
X27537324Y-17336643D02*
X27537324Y-17393786D01*
X27537324Y-17393786D02*
X27527800Y-17412833D01*
X27527800Y-17412833D02*
X27518276Y-17422357D01*
X27518276Y-17422357D02*
X27499228Y-17431881D01*
X27499228Y-17431881D02*
X27470657Y-17431881D01*
X27651609Y-17431881D02*
X27632562Y-17422357D01*
X27632562Y-17422357D02*
X27623038Y-17403310D01*
X27623038Y-17403310D02*
X27623038Y-17231881D01*
X27803990Y-17422357D02*
X27784943Y-17431881D01*
X27784943Y-17431881D02*
X27746847Y-17431881D01*
X27746847Y-17431881D02*
X27727800Y-17422357D01*
X27727800Y-17422357D02*
X27718276Y-17403310D01*
X27718276Y-17403310D02*
X27718276Y-17327119D01*
X27718276Y-17327119D02*
X27727800Y-17308072D01*
X27727800Y-17308072D02*
X27746847Y-17298548D01*
X27746847Y-17298548D02*
X27784943Y-17298548D01*
X27784943Y-17298548D02*
X27803990Y-17308072D01*
X27803990Y-17308072D02*
X27813514Y-17327119D01*
X27813514Y-17327119D02*
X27813514Y-17346167D01*
X27813514Y-17346167D02*
X27718276Y-17365214D01*
X27889705Y-17422357D02*
X27908752Y-17431881D01*
X27908752Y-17431881D02*
X27946847Y-17431881D01*
X27946847Y-17431881D02*
X27965895Y-17422357D01*
X27965895Y-17422357D02*
X27975419Y-17403310D01*
X27975419Y-17403310D02*
X27975419Y-17393786D01*
X27975419Y-17393786D02*
X27965895Y-17374738D01*
X27965895Y-17374738D02*
X27946847Y-17365214D01*
X27946847Y-17365214D02*
X27918276Y-17365214D01*
X27918276Y-17365214D02*
X27899228Y-17355691D01*
X27899228Y-17355691D02*
X27889705Y-17336643D01*
X27889705Y-17336643D02*
X27889705Y-17327119D01*
X27889705Y-17327119D02*
X27899228Y-17308072D01*
X27899228Y-17308072D02*
X27918276Y-17298548D01*
X27918276Y-17298548D02*
X27946847Y-17298548D01*
X27946847Y-17298548D02*
X27965895Y-17308072D01*
X28042086Y-17508072D02*
X28051609Y-17498548D01*
X28051609Y-17498548D02*
X28070657Y-17469976D01*
X28070657Y-17469976D02*
X28080181Y-17450929D01*
X28080181Y-17450929D02*
X28089705Y-17422357D01*
X28089705Y-17422357D02*
X28099228Y-17374738D01*
X28099228Y-17374738D02*
X28099228Y-17336643D01*
X28099228Y-17336643D02*
X28089705Y-17289024D01*
X28089705Y-17289024D02*
X28080181Y-17260453D01*
X28080181Y-17260453D02*
X28070657Y-17241405D01*
X28070657Y-17241405D02*
X28051609Y-17212833D01*
X28051609Y-17212833D02*
X28042086Y-17203310D01*
M02*
