%TF.GenerationSoftware,KiCad,Pcbnew,7.0.6*%
%TF.CreationDate,2023-11-30T12:51:18-08:00*%
%TF.ProjectId,UGC_SubStick,5547435f-5375-4625-9374-69636b2e6b69,rev?*%
%TF.SameCoordinates,Original*%
%TF.FileFunction,Copper,L2,Bot*%
%TF.FilePolarity,Positive*%
%FSLAX46Y46*%
G04 Gerber Fmt 4.6, Leading zero omitted, Abs format (unit mm)*
G04 Created by KiCad (PCBNEW 7.0.6) date 2023-11-30 12:51:18*
%MOMM*%
%LPD*%
G01*
G04 APERTURE LIST*
%TA.AperFunction,ComponentPad*%
%ADD10C,1.750000*%
%TD*%
%TA.AperFunction,ComponentPad*%
%ADD11C,1.250000*%
%TD*%
G04 APERTURE END LIST*
D10*
%TO.P,SW1,*%
%TO.N,*%
X242207200Y-143363518D03*
X242207200Y-156013518D03*
X252207200Y-143363518D03*
X252207200Y-156013518D03*
D11*
%TO.P,SW1,S1,1*%
%TO.N,unconnected-(SW1-1-PadS1)*%
X241557200Y-146438518D03*
%TO.P,SW1,S2,2*%
%TO.N,unconnected-(SW1-2-PadS2)*%
X241557200Y-152938518D03*
%TO.P,SW1,S3,3*%
%TO.N,unconnected-(SW1-3-PadS3)*%
X237057200Y-146438518D03*
%TO.P,SW1,S4,4*%
%TO.N,unconnected-(SW1-4-PadS4)*%
X237057200Y-152938518D03*
%TD*%
%TA.AperFunction,NonConductor*%
G36*
X280797428Y-133176744D02*
G01*
X280829746Y-133178861D01*
X280879199Y-133182103D01*
X281060859Y-133195096D01*
X281068499Y-133196125D01*
X281185002Y-133219300D01*
X281329036Y-133250633D01*
X281335766Y-133252501D01*
X281423321Y-133282223D01*
X281454965Y-133292965D01*
X281482894Y-133303381D01*
X281587113Y-133342253D01*
X281592847Y-133344729D01*
X281708490Y-133401758D01*
X281754679Y-133426979D01*
X281830244Y-133468242D01*
X281834977Y-133471107D01*
X281942177Y-133542736D01*
X281944877Y-133544647D01*
X282053953Y-133626300D01*
X282057679Y-133629321D01*
X282111691Y-133676689D01*
X282155020Y-133714687D01*
X282157966Y-133717446D01*
X282210739Y-133770219D01*
X282254042Y-133813522D01*
X282256815Y-133816482D01*
X282287200Y-133851129D01*
X282342226Y-133913876D01*
X282345243Y-133917598D01*
X282423542Y-134022193D01*
X282426805Y-134026551D01*
X282428723Y-134029261D01*
X282500447Y-134136605D01*
X282503313Y-134141339D01*
X282569659Y-134262842D01*
X282626823Y-134378761D01*
X282629309Y-134384519D01*
X282678404Y-134516147D01*
X282719041Y-134635866D01*
X282720916Y-134642621D01*
X282752036Y-134785677D01*
X282775401Y-134903142D01*
X282776436Y-134910822D01*
X282789183Y-135089057D01*
X282794777Y-135174407D01*
X282794910Y-135178463D01*
X282794910Y-139796202D01*
X282794777Y-139800259D01*
X282789415Y-139882044D01*
X282776427Y-140063634D01*
X282775392Y-140071313D01*
X282752196Y-140187925D01*
X282720897Y-140331806D01*
X282719022Y-140338562D01*
X282678508Y-140457909D01*
X282629284Y-140589878D01*
X282626798Y-140595636D01*
X282569704Y-140711412D01*
X282503307Y-140833009D01*
X282500440Y-140837744D01*
X282428720Y-140945078D01*
X282426803Y-140947788D01*
X282345269Y-141056704D01*
X282342248Y-141060430D01*
X282256766Y-141157903D01*
X282253992Y-141160865D01*
X282158063Y-141256793D01*
X282155101Y-141259568D01*
X282057589Y-141345082D01*
X282053864Y-141348102D01*
X281945022Y-141429580D01*
X281942312Y-141431498D01*
X281834880Y-141503282D01*
X281830146Y-141506148D01*
X281708753Y-141572435D01*
X281592733Y-141629649D01*
X281586974Y-141632136D01*
X281455436Y-141681197D01*
X281335645Y-141721860D01*
X281328890Y-141723735D01*
X281185854Y-141754851D01*
X281068381Y-141778218D01*
X281060701Y-141779253D01*
X280881964Y-141792036D01*
X280797179Y-141797594D01*
X280793122Y-141797727D01*
X269339168Y-141797727D01*
X269295199Y-141797821D01*
X269295114Y-141797821D01*
X269295004Y-141797822D01*
X269295002Y-141797822D01*
X269199807Y-141798692D01*
X269198992Y-141798634D01*
X269189536Y-141798787D01*
X269189552Y-141798787D01*
X269073306Y-141801022D01*
X269072553Y-141800973D01*
X269062750Y-141801225D01*
X269062132Y-141801060D01*
X269061082Y-141801226D01*
X269062710Y-141801226D01*
X268931449Y-141805205D01*
X268930244Y-141805095D01*
X268916292Y-141805665D01*
X268912547Y-141805784D01*
X268911975Y-141805847D01*
X268756214Y-141812455D01*
X268755535Y-141812437D01*
X268753433Y-141812553D01*
X268753449Y-141812552D01*
X268751759Y-141812645D01*
X268751734Y-141812647D01*
X268751732Y-141812647D01*
X268687546Y-141816214D01*
X268582745Y-141822039D01*
X268582000Y-141822011D01*
X268571222Y-141822679D01*
X268571125Y-141822685D01*
X268571031Y-141822691D01*
X268571030Y-141822691D01*
X268568713Y-141822838D01*
X268568365Y-141822878D01*
X268376032Y-141836318D01*
X268376010Y-141836319D01*
X268375937Y-141836325D01*
X268373891Y-141836471D01*
X268373391Y-141836531D01*
X268285823Y-141843651D01*
X268285213Y-141843640D01*
X268273550Y-141844647D01*
X268273557Y-141844647D01*
X268273327Y-141844667D01*
X268273071Y-141844690D01*
X268273090Y-141844688D01*
X268168402Y-141854049D01*
X268168370Y-141854051D01*
X268167966Y-141854087D01*
X268095864Y-141861145D01*
X268061153Y-141864542D01*
X268060716Y-141864575D01*
X268060328Y-141864617D01*
X268060283Y-141864622D01*
X268044312Y-141866326D01*
X267948883Y-141876514D01*
X267948882Y-141876514D01*
X267948857Y-141876516D01*
X267948837Y-141876518D01*
X267946676Y-141876764D01*
X267946557Y-141876782D01*
X267837583Y-141889423D01*
X267837479Y-141889432D01*
X267835862Y-141889623D01*
X267835714Y-141889641D01*
X267835713Y-141889641D01*
X267835637Y-141889650D01*
X267835521Y-141889664D01*
X267835518Y-141889664D01*
X267832773Y-141889995D01*
X267832490Y-141890045D01*
X267722284Y-141903896D01*
X267721942Y-141903928D01*
X267720451Y-141904126D01*
X267720419Y-141904131D01*
X267720417Y-141904131D01*
X267720319Y-141904144D01*
X267720226Y-141904156D01*
X267720223Y-141904156D01*
X267717771Y-141904472D01*
X267717387Y-141904542D01*
X267694223Y-141907689D01*
X267605249Y-141919775D01*
X267604891Y-141919812D01*
X267603246Y-141920047D01*
X267603214Y-141920052D01*
X267603211Y-141920052D01*
X267603099Y-141920068D01*
X267603021Y-141920079D01*
X267603019Y-141920079D01*
X267594027Y-141921347D01*
X267593410Y-141921487D01*
X267515439Y-141932909D01*
X267486500Y-141937149D01*
X267486186Y-141937183D01*
X267484310Y-141937470D01*
X267484308Y-141937470D01*
X267484203Y-141937486D01*
X267484118Y-141937499D01*
X267484116Y-141937499D01*
X267481888Y-141937840D01*
X267481622Y-141937893D01*
X267374525Y-141954780D01*
X267373514Y-141954850D01*
X267366293Y-141956054D01*
X267366151Y-141956071D01*
X267363888Y-141956455D01*
X267363605Y-141956502D01*
X267363549Y-141956513D01*
X267253126Y-141975223D01*
X267251845Y-141975325D01*
X267245627Y-141976451D01*
X267245603Y-141976454D01*
X267165590Y-141991001D01*
X267122218Y-141998885D01*
X267121752Y-141998950D01*
X267119445Y-141999390D01*
X267115423Y-142000155D01*
X267115168Y-142000223D01*
X267027985Y-142017209D01*
X266998933Y-142022870D01*
X266998642Y-142022913D01*
X266996027Y-142023436D01*
X266996026Y-142023436D01*
X266995926Y-142023456D01*
X266995838Y-142023474D01*
X266995836Y-142023474D01*
X266994305Y-142023787D01*
X266994080Y-142023841D01*
X266874897Y-142048701D01*
X266874426Y-142048775D01*
X266871700Y-142049368D01*
X266870883Y-142049551D01*
X266750488Y-142076412D01*
X266749921Y-142076508D01*
X266747186Y-142077150D01*
X266737853Y-142079270D01*
X266736719Y-142079646D01*
X266625874Y-142106082D01*
X266625146Y-142106213D01*
X266622396Y-142106912D01*
X266619912Y-142107510D01*
X266619274Y-142107707D01*
X266501453Y-142137727D01*
X266501043Y-142137805D01*
X266497781Y-142138662D01*
X266497780Y-142138662D01*
X266497700Y-142138683D01*
X266497597Y-142138710D01*
X266497596Y-142138710D01*
X266495207Y-142139336D01*
X266494732Y-142139490D01*
X266377055Y-142171508D01*
X266376286Y-142171666D01*
X266373274Y-142172537D01*
X266373272Y-142172537D01*
X266373137Y-142172576D01*
X266373090Y-142172589D01*
X266373088Y-142172590D01*
X266373067Y-142172596D01*
X266371153Y-142173124D01*
X266370568Y-142173322D01*
X266317421Y-142188761D01*
X266312595Y-142188747D01*
X266266309Y-142203608D01*
X266253474Y-142207338D01*
X266253321Y-142207371D01*
X266249158Y-142208591D01*
X266246131Y-142209494D01*
X266245583Y-142209699D01*
X266134289Y-142244214D01*
X266132696Y-142244586D01*
X266125712Y-142246875D01*
X266122470Y-142247904D01*
X266121841Y-142248158D01*
X266005933Y-142286594D01*
X266004285Y-142287005D01*
X265996970Y-142289566D01*
X265996968Y-142289566D01*
X265996868Y-142289601D01*
X265996791Y-142289627D01*
X265996789Y-142289628D01*
X265989833Y-142291976D01*
X265988380Y-142292612D01*
X265981360Y-142295103D01*
X265938423Y-142308890D01*
X265932570Y-142312418D01*
X265880050Y-142331056D01*
X265878533Y-142331459D01*
X265870480Y-142334451D01*
X265870479Y-142334451D01*
X265870374Y-142334490D01*
X265870303Y-142334516D01*
X265870301Y-142334516D01*
X265866921Y-142335754D01*
X265866355Y-142336014D01*
X265756397Y-142377722D01*
X265754718Y-142378198D01*
X265746209Y-142381587D01*
X265743836Y-142382518D01*
X265743340Y-142382748D01*
X265627514Y-142429651D01*
X265626879Y-142429871D01*
X265624412Y-142430908D01*
X265621274Y-142432215D01*
X265620659Y-142432529D01*
X265507238Y-142481505D01*
X265506929Y-142481624D01*
X265504901Y-142482514D01*
X265501905Y-142483839D01*
X265501246Y-142484194D01*
X265391119Y-142534853D01*
X265390116Y-142535243D01*
X265387587Y-142536480D01*
X265380914Y-142539552D01*
X265378954Y-142540706D01*
X265275266Y-142591468D01*
X265274383Y-142591849D01*
X265272574Y-142592787D01*
X265269522Y-142594284D01*
X265268554Y-142594879D01*
X265162975Y-142649838D01*
X265162606Y-142650003D01*
X265159804Y-142651487D01*
X265159803Y-142651488D01*
X265159752Y-142651515D01*
X265159639Y-142651575D01*
X265159637Y-142651576D01*
X265156755Y-142653106D01*
X265156024Y-142653576D01*
X265052567Y-142710790D01*
X265051992Y-142711063D01*
X265049096Y-142712711D01*
X265046534Y-142714153D01*
X265045794Y-142714649D01*
X264943791Y-142774532D01*
X264942918Y-142774978D01*
X264940663Y-142776366D01*
X264940662Y-142776367D01*
X264940571Y-142776423D01*
X264940504Y-142776463D01*
X264940503Y-142776463D01*
X264938428Y-142777702D01*
X264937715Y-142778200D01*
X264841921Y-142837857D01*
X264839944Y-142838898D01*
X264834208Y-142842661D01*
X264832540Y-142843710D01*
X264831790Y-142844255D01*
X264733286Y-142909281D01*
X264732626Y-142909660D01*
X264729977Y-142911465D01*
X264727364Y-142913227D01*
X264726702Y-142913755D01*
X264631253Y-142980497D01*
X264630282Y-142981085D01*
X264627800Y-142982914D01*
X264625630Y-142984438D01*
X264624782Y-142985147D01*
X264531013Y-143054559D01*
X264530192Y-143055088D01*
X264527652Y-143057049D01*
X264525122Y-143058969D01*
X264524546Y-143059481D01*
X264496075Y-143081780D01*
X264487411Y-143085228D01*
X264441364Y-143124474D01*
X264438386Y-143126534D01*
X264438434Y-143126592D01*
X264429583Y-143133857D01*
X264427077Y-143135834D01*
X264426272Y-143136598D01*
X264341085Y-143207149D01*
X264339510Y-143208257D01*
X264333557Y-143213381D01*
X264333555Y-143213382D01*
X264333469Y-143213456D01*
X264333415Y-143213502D01*
X264333412Y-143213505D01*
X264331609Y-143215040D01*
X264331117Y-143215516D01*
X264236865Y-143298062D01*
X264236327Y-143298494D01*
X264234850Y-143299827D01*
X264229443Y-143304664D01*
X264228270Y-143305920D01*
X264226754Y-143307324D01*
X264225958Y-143308062D01*
X264181394Y-143346044D01*
X264174171Y-143356018D01*
X264147690Y-143380540D01*
X264145835Y-143382002D01*
X264140446Y-143387246D01*
X264140445Y-143387247D01*
X264140371Y-143387319D01*
X264140312Y-143387374D01*
X264140310Y-143387375D01*
X264138433Y-143389125D01*
X264137712Y-143389918D01*
X264052683Y-143473072D01*
X264052008Y-143473658D01*
X264049940Y-143475755D01*
X264048042Y-143477652D01*
X264047532Y-143478238D01*
X263966371Y-143561957D01*
X263965703Y-143562560D01*
X263963416Y-143565005D01*
X263961796Y-143566714D01*
X263961350Y-143567248D01*
X263883609Y-143651731D01*
X263883037Y-143652273D01*
X263880668Y-143654929D01*
X263878660Y-143657149D01*
X263878151Y-143657807D01*
X263803619Y-143743033D01*
X263803170Y-143743498D01*
X263801553Y-143745397D01*
X263799280Y-143748032D01*
X263798759Y-143748754D01*
X263732308Y-143828617D01*
X263731046Y-143829909D01*
X263725906Y-143836312D01*
X263723706Y-143838988D01*
X263723199Y-143839726D01*
X263656124Y-143924347D01*
X263655808Y-143924698D01*
X263653640Y-143927480D01*
X263648276Y-143934427D01*
X263647660Y-143935392D01*
X263587151Y-144015415D01*
X263586634Y-144016011D01*
X263584595Y-144018797D01*
X263582867Y-144021110D01*
X263582437Y-144021784D01*
X263520019Y-144108211D01*
X263519554Y-144108808D01*
X263518636Y-144110128D01*
X263517173Y-144112169D01*
X263516744Y-144112866D01*
X263457219Y-144199028D01*
X263456898Y-144199452D01*
X263455661Y-144201284D01*
X263451467Y-144207393D01*
X263450616Y-144208907D01*
X263395511Y-144292168D01*
X263395471Y-144292229D01*
X263393715Y-144294929D01*
X263393433Y-144295437D01*
X263339733Y-144379992D01*
X263339320Y-144380573D01*
X263337957Y-144382789D01*
X263336497Y-144385111D01*
X263336178Y-144385701D01*
X263330749Y-144394596D01*
X263284870Y-144469741D01*
X263284424Y-144470387D01*
X263282998Y-144472808D01*
X263282930Y-144472920D01*
X263282919Y-144472939D01*
X263232485Y-144558697D01*
X263232198Y-144559123D01*
X263230473Y-144562120D01*
X263229104Y-144564498D01*
X263228948Y-144564805D01*
X263181709Y-144648015D01*
X263178517Y-144653055D01*
X263127884Y-144725109D01*
X263112174Y-144743391D01*
X263063889Y-144789611D01*
X263044937Y-144804509D01*
X262978442Y-144847021D01*
X262956967Y-144857969D01*
X262894812Y-144882373D01*
X262871502Y-144888982D01*
X262793021Y-144903136D01*
X262768757Y-144905084D01*
X262690900Y-144903668D01*
X262685253Y-144903307D01*
X262601115Y-144894062D01*
X262528388Y-144900032D01*
X262521247Y-144898557D01*
X262507499Y-144901324D01*
X262500333Y-144902335D01*
X262424784Y-144908537D01*
X262346973Y-144930421D01*
X262338081Y-144930319D01*
X262324104Y-144936305D01*
X262316474Y-144938999D01*
X262254473Y-144956436D01*
X262175647Y-144996123D01*
X262165370Y-144998001D01*
X262155926Y-145004611D01*
X262140593Y-145013772D01*
X262096446Y-145035999D01*
X262020898Y-145094474D01*
X262009834Y-145098804D01*
X262001978Y-145107167D01*
X261987503Y-145120322D01*
X261956539Y-145144288D01*
X261888798Y-145221547D01*
X261877650Y-145228618D01*
X261871862Y-145238099D01*
X261859271Y-145255222D01*
X261839902Y-145277312D01*
X261834953Y-145284190D01*
X261829814Y-145290430D01*
X261826483Y-145293974D01*
X261817238Y-145316208D01*
X261784543Y-145372320D01*
X261774077Y-145382219D01*
X261770556Y-145392105D01*
X261760886Y-145412920D01*
X261750834Y-145430171D01*
X261750832Y-145430176D01*
X261750209Y-145431964D01*
X261738950Y-145455768D01*
X261738127Y-145457114D01*
X261733608Y-145479600D01*
X261712278Y-145540808D01*
X261703261Y-145553413D01*
X261701946Y-145563009D01*
X261696188Y-145586976D01*
X261692609Y-145597245D01*
X261691065Y-145607966D01*
X261685143Y-145631893D01*
X261684158Y-145634656D01*
X261684100Y-145656310D01*
X261674878Y-145720333D01*
X261668025Y-145735327D01*
X261668635Y-145744044D01*
X261667671Y-145770369D01*
X261667385Y-145772352D01*
X261667385Y-145772357D01*
X261668370Y-145792367D01*
X261667372Y-145815297D01*
X261666799Y-145819478D01*
X261670683Y-145839346D01*
X261673854Y-145903763D01*
X261669783Y-145920660D01*
X261673119Y-145932448D01*
X261674810Y-145940356D01*
X261676085Y-145949065D01*
X261683149Y-145977751D01*
X261686444Y-145998750D01*
X261686820Y-146004132D01*
X261693904Y-146021427D01*
X261718387Y-146120849D01*
X261734962Y-146156638D01*
X261741756Y-146174980D01*
X261743507Y-146181170D01*
X261752895Y-146195360D01*
X261785704Y-146266200D01*
X261792739Y-146281390D01*
X261821943Y-146321785D01*
X261831336Y-146336974D01*
X261834718Y-146343443D01*
X261845417Y-146354254D01*
X261896394Y-146424766D01*
X261943818Y-146469173D01*
X261949351Y-146475076D01*
X261957007Y-146484395D01*
X261968060Y-146491875D01*
X262025533Y-146545691D01*
X262025535Y-146545692D01*
X262025538Y-146545695D01*
X262057681Y-146565860D01*
X262090338Y-146586348D01*
X262096235Y-146590546D01*
X262106055Y-146598438D01*
X262116910Y-146603018D01*
X262175407Y-146639717D01*
X262246629Y-146667256D01*
X262268054Y-146678027D01*
X262309629Y-146704251D01*
X262318886Y-146710090D01*
X262353749Y-146743057D01*
X262382869Y-146783963D01*
X262401383Y-146822889D01*
X262409608Y-146852694D01*
X262412974Y-146902175D01*
X262392089Y-147057782D01*
X262391469Y-147061531D01*
X262389426Y-147071891D01*
X262389424Y-147071899D01*
X262367564Y-147182735D01*
X262360005Y-147221059D01*
X262344887Y-147297707D01*
X262344887Y-147297708D01*
X262322211Y-147412680D01*
X262322211Y-147412681D01*
X262299534Y-147527652D01*
X262299534Y-147527653D01*
X262276858Y-147642624D01*
X262276858Y-147642625D01*
X262254181Y-147757596D01*
X262254181Y-147757597D01*
X262231505Y-147872569D01*
X262231505Y-147872570D01*
X262208829Y-147987541D01*
X262208829Y-147987542D01*
X262186152Y-148102513D01*
X262186152Y-148102514D01*
X262163476Y-148217486D01*
X262163476Y-148217487D01*
X262140799Y-148332458D01*
X262140799Y-148332459D01*
X262118123Y-148447430D01*
X262118123Y-148447431D01*
X262095446Y-148562402D01*
X262095446Y-148562403D01*
X262078732Y-148647146D01*
X262072770Y-148677375D01*
X262050094Y-148792347D01*
X262044208Y-148822190D01*
X262027417Y-148907319D01*
X262027417Y-148907320D01*
X262004741Y-149022292D01*
X262004741Y-149022293D01*
X261982064Y-149137264D01*
X261982064Y-149137265D01*
X261970241Y-149197209D01*
X261959388Y-149252236D01*
X261959042Y-149253989D01*
X261936711Y-149367208D01*
X261936711Y-149367209D01*
X261933400Y-149383995D01*
X261914035Y-149482181D01*
X261905884Y-149523508D01*
X261891358Y-149597153D01*
X261891358Y-149597154D01*
X261871265Y-149699032D01*
X261846006Y-149827098D01*
X261837214Y-149871673D01*
X261823329Y-149942070D01*
X261823329Y-149942071D01*
X261800653Y-150057042D01*
X261800653Y-150057043D01*
X261777976Y-150172014D01*
X261777976Y-150172015D01*
X261756055Y-150283160D01*
X261755300Y-150286987D01*
X261750926Y-150309162D01*
X261733100Y-150399544D01*
X261732623Y-150401960D01*
X261709947Y-150516932D01*
X261686670Y-150634948D01*
X261686663Y-150634999D01*
X261638405Y-150880471D01*
X261638395Y-150880543D01*
X261581049Y-151173546D01*
X261581046Y-151173609D01*
X261546851Y-151348468D01*
X261502428Y-151574917D01*
X261458815Y-151795588D01*
X261415837Y-152010513D01*
X261373127Y-152220621D01*
X261353903Y-152313239D01*
X261330470Y-152426134D01*
X261287628Y-152627352D01*
X261244352Y-152824664D01*
X261200358Y-153018575D01*
X261155455Y-153209218D01*
X261109341Y-153397186D01*
X261061768Y-153582830D01*
X261012509Y-153766427D01*
X260961337Y-153948288D01*
X260907950Y-154128954D01*
X260852147Y-154308643D01*
X260793645Y-154487838D01*
X260732192Y-154666906D01*
X260667580Y-154846111D01*
X260599477Y-155026034D01*
X260527744Y-155206772D01*
X260452036Y-155388930D01*
X260372162Y-155572738D01*
X260287846Y-155758635D01*
X260198830Y-155947004D01*
X260104901Y-156138145D01*
X260005771Y-156332502D01*
X259901185Y-156530458D01*
X259790957Y-156732266D01*
X259744993Y-156813822D01*
X259621340Y-157030512D01*
X259601274Y-157065097D01*
X259586377Y-157090773D01*
X259496142Y-157242015D01*
X259404128Y-157392043D01*
X259310358Y-157540829D01*
X259214761Y-157688492D01*
X259117512Y-157834770D01*
X259018487Y-157979856D01*
X258917708Y-158123717D01*
X258815243Y-158266262D01*
X258711051Y-158407553D01*
X258605200Y-158547496D01*
X258497674Y-158686118D01*
X258388457Y-158823443D01*
X258277590Y-158959416D01*
X258165122Y-159093980D01*
X258050997Y-159227204D01*
X257935338Y-159358945D01*
X257817965Y-159489406D01*
X257699090Y-159618354D01*
X257578644Y-159745862D01*
X257456559Y-159871997D01*
X257333010Y-159996580D01*
X257207931Y-160119678D01*
X257081293Y-160241314D01*
X256953186Y-160361403D01*
X256843360Y-160461873D01*
X256823553Y-160479993D01*
X256692452Y-160597029D01*
X256559892Y-160712496D01*
X256425895Y-160826379D01*
X256290458Y-160938673D01*
X256153552Y-161049397D01*
X256089218Y-161100144D01*
X255940489Y-161215995D01*
X255875473Y-161266004D01*
X255734453Y-161371761D01*
X255592281Y-161475695D01*
X255448851Y-161577889D01*
X255304361Y-161678208D01*
X255158607Y-161776795D01*
X255011697Y-161873576D01*
X254863841Y-161968421D01*
X254714693Y-162061552D01*
X254564558Y-162152780D01*
X254413356Y-162242157D01*
X254261073Y-162329693D01*
X254107795Y-162415338D01*
X253953470Y-162499123D01*
X253798153Y-162581019D01*
X253641856Y-162661018D01*
X253484599Y-162739113D01*
X253326431Y-162815276D01*
X253167339Y-162889517D01*
X253007340Y-162961826D01*
X252846421Y-163032210D01*
X252684619Y-163100646D01*
X252522046Y-163167091D01*
X252358479Y-163231629D01*
X252194278Y-163294122D01*
X252029204Y-163354657D01*
X251863174Y-163413258D01*
X251696574Y-163469787D01*
X251529198Y-163524315D01*
X251361016Y-163576845D01*
X251192218Y-163627317D01*
X251113251Y-163649883D01*
X250931819Y-163700535D01*
X250852900Y-163722050D01*
X250682565Y-163766262D01*
X250511755Y-163808384D01*
X250340721Y-163848359D01*
X250169114Y-163886272D01*
X249997225Y-163922060D01*
X249824882Y-163955762D01*
X249652292Y-163987340D01*
X249479288Y-164016826D01*
X249306077Y-164044185D01*
X249132503Y-164069446D01*
X248958655Y-164092594D01*
X248784665Y-164113615D01*
X248610441Y-164132523D01*
X248436005Y-164149314D01*
X248261306Y-164163994D01*
X248086448Y-164176552D01*
X247911526Y-164186983D01*
X247736395Y-164195294D01*
X247561240Y-164201478D01*
X247385913Y-164205536D01*
X247210603Y-164207465D01*
X247035243Y-164207268D01*
X246859772Y-164204938D01*
X246684374Y-164200477D01*
X246508903Y-164193879D01*
X246333544Y-164185150D01*
X246158152Y-164174279D01*
X246158152Y-164174278D01*
X245982910Y-164161275D01*
X245807665Y-164146125D01*
X245632618Y-164128842D01*
X245551048Y-164119783D01*
X245364245Y-164097883D01*
X245282823Y-164087835D01*
X245108313Y-164064134D01*
X244934286Y-164038335D01*
X244760659Y-164010431D01*
X244587391Y-163980415D01*
X244414558Y-163948304D01*
X244242284Y-163914123D01*
X244070419Y-163877845D01*
X243899101Y-163839501D01*
X243728340Y-163799098D01*
X243558100Y-163756626D01*
X243388361Y-163712083D01*
X243219279Y-163665510D01*
X243050674Y-163616857D01*
X243050674Y-163616856D01*
X242882781Y-163566193D01*
X242715469Y-163513478D01*
X242548858Y-163458753D01*
X242418595Y-163414206D01*
X242382950Y-163402016D01*
X242217701Y-163343256D01*
X242053116Y-163282469D01*
X241889302Y-163219696D01*
X241889301Y-163219696D01*
X241726205Y-163154913D01*
X241678879Y-163135446D01*
X241563829Y-163088121D01*
X241402306Y-163019373D01*
X241241514Y-162948615D01*
X241081679Y-162875943D01*
X240922547Y-162801243D01*
X240764339Y-162724612D01*
X240606941Y-162645992D01*
X240450502Y-162565456D01*
X240294977Y-162482976D01*
X240222998Y-162443671D01*
X240058280Y-162352417D01*
X239986852Y-162312275D01*
X239986852Y-162312274D01*
X239834505Y-162224196D01*
X239683321Y-162134313D01*
X239533278Y-162042619D01*
X239384465Y-161949168D01*
X239236764Y-161853891D01*
X239090383Y-161756921D01*
X238945295Y-161658252D01*
X238801349Y-161557780D01*
X238801348Y-161557779D01*
X238658687Y-161455603D01*
X238517346Y-161351752D01*
X238377264Y-161246182D01*
X238238584Y-161139004D01*
X238238583Y-161139004D01*
X238101091Y-161030053D01*
X237965032Y-160919520D01*
X237830290Y-160807315D01*
X237696918Y-160693484D01*
X237564977Y-160578074D01*
X237434441Y-160461067D01*
X237305317Y-160342469D01*
X237177577Y-160222247D01*
X237051300Y-160100478D01*
X236926492Y-159977165D01*
X236803214Y-159852366D01*
X236681398Y-159726016D01*
X236561012Y-159598070D01*
X236442224Y-159468705D01*
X236325013Y-159337897D01*
X236209239Y-159205488D01*
X236095104Y-159071698D01*
X235982516Y-158936416D01*
X235930828Y-158872748D01*
X235891297Y-158823443D01*
X235813127Y-158725944D01*
X235762177Y-158661596D01*
X235654660Y-158522350D01*
X235548834Y-158381787D01*
X235444732Y-158239947D01*
X235342561Y-158097124D01*
X235242036Y-157952926D01*
X235143374Y-157807662D01*
X235046531Y-157661279D01*
X234951454Y-157513694D01*
X234858251Y-157365082D01*
X234766867Y-157215359D01*
X234677291Y-157064504D01*
X234589602Y-156912654D01*
X234503708Y-156759649D01*
X234419782Y-156605798D01*
X234337700Y-156450886D01*
X234257493Y-156294960D01*
X234179193Y-156138085D01*
X234118898Y-156013518D01*
X241076878Y-156013518D01*
X241096123Y-156221209D01*
X241096123Y-156221211D01*
X241096124Y-156221214D01*
X241127788Y-156332502D01*
X241153207Y-156421840D01*
X241207513Y-156530900D01*
X241246181Y-156608556D01*
X241371882Y-156775011D01*
X241526029Y-156915534D01*
X241703372Y-157025341D01*
X241897873Y-157100691D01*
X242102907Y-157139018D01*
X242102910Y-157139018D01*
X242311490Y-157139018D01*
X242311493Y-157139018D01*
X242516527Y-157100691D01*
X242711028Y-157025341D01*
X242888371Y-156915534D01*
X243042518Y-156775011D01*
X243168219Y-156608556D01*
X243261194Y-156421837D01*
X243318276Y-156221214D01*
X243337522Y-156013518D01*
X251076878Y-156013518D01*
X251096123Y-156221209D01*
X251096123Y-156221211D01*
X251096124Y-156221214D01*
X251127788Y-156332502D01*
X251153207Y-156421840D01*
X251207513Y-156530900D01*
X251246181Y-156608556D01*
X251371882Y-156775011D01*
X251526029Y-156915534D01*
X251703372Y-157025341D01*
X251897873Y-157100691D01*
X252102907Y-157139018D01*
X252102910Y-157139018D01*
X252311490Y-157139018D01*
X252311493Y-157139018D01*
X252516527Y-157100691D01*
X252711028Y-157025341D01*
X252888371Y-156915534D01*
X253042518Y-156775011D01*
X253168219Y-156608556D01*
X253261194Y-156421837D01*
X253318276Y-156221214D01*
X253337522Y-156013518D01*
X253318276Y-155805822D01*
X253261194Y-155605199D01*
X253168219Y-155418480D01*
X253042518Y-155252025D01*
X252888371Y-155111502D01*
X252711028Y-155001695D01*
X252711027Y-155001694D01*
X252568809Y-154946599D01*
X252516527Y-154926345D01*
X252311493Y-154888018D01*
X252102907Y-154888018D01*
X251897873Y-154926345D01*
X251897870Y-154926345D01*
X251897870Y-154926346D01*
X251703372Y-155001694D01*
X251703371Y-155001695D01*
X251526027Y-155111503D01*
X251371883Y-155252023D01*
X251246181Y-155418479D01*
X251153207Y-155605195D01*
X251096123Y-155805826D01*
X251076878Y-156013517D01*
X251076878Y-156013518D01*
X243337522Y-156013518D01*
X243318276Y-155805822D01*
X243261194Y-155605199D01*
X243168219Y-155418480D01*
X243042518Y-155252025D01*
X242888371Y-155111502D01*
X242711028Y-155001695D01*
X242711027Y-155001694D01*
X242568809Y-154946599D01*
X242516527Y-154926345D01*
X242311493Y-154888018D01*
X242102907Y-154888018D01*
X241897873Y-154926345D01*
X241897870Y-154926345D01*
X241897870Y-154926346D01*
X241703372Y-155001694D01*
X241703371Y-155001695D01*
X241526027Y-155111503D01*
X241371883Y-155252023D01*
X241246181Y-155418479D01*
X241153207Y-155605195D01*
X241096123Y-155805826D01*
X241076878Y-156013517D01*
X241076878Y-156013518D01*
X234118898Y-156013518D01*
X234102812Y-155980286D01*
X234028307Y-155821473D01*
X233955759Y-155661812D01*
X233885132Y-155501223D01*
X233816458Y-155339776D01*
X233749723Y-155177437D01*
X233684975Y-155014314D01*
X233622147Y-154850235D01*
X233561337Y-154685442D01*
X233502514Y-154519856D01*
X233445697Y-154353518D01*
X233390869Y-154186372D01*
X233338048Y-154018456D01*
X233329031Y-153988518D01*
X246151617Y-153988518D01*
X246171899Y-154194450D01*
X246171900Y-154194452D01*
X246231968Y-154392472D01*
X246329515Y-154574968D01*
X246329517Y-154574970D01*
X246460789Y-154734928D01*
X246557409Y-154814220D01*
X246620750Y-154866203D01*
X246803246Y-154963750D01*
X247001266Y-155023818D01*
X247001265Y-155023818D01*
X247028029Y-155026454D01*
X247155592Y-155039018D01*
X247155595Y-155039018D01*
X247258805Y-155039018D01*
X247258808Y-155039018D01*
X247413134Y-155023818D01*
X247611154Y-154963750D01*
X247793650Y-154866203D01*
X247953610Y-154734928D01*
X248084885Y-154574968D01*
X248182432Y-154392472D01*
X248242500Y-154194452D01*
X248262783Y-153988518D01*
X248242500Y-153782584D01*
X248182432Y-153584564D01*
X248084885Y-153402068D01*
X248032902Y-153338727D01*
X247953610Y-153242107D01*
X247835877Y-153145487D01*
X247793650Y-153110833D01*
X247611154Y-153013286D01*
X247413134Y-152953218D01*
X247413132Y-152953217D01*
X247413134Y-152953217D01*
X247294005Y-152941484D01*
X247258808Y-152938018D01*
X247155592Y-152938018D01*
X247117498Y-152941769D01*
X247001267Y-152953217D01*
X246803243Y-153013287D01*
X246693098Y-153072161D01*
X246620750Y-153110833D01*
X246620748Y-153110834D01*
X246620747Y-153110835D01*
X246460789Y-153242107D01*
X246329517Y-153402065D01*
X246231969Y-153584561D01*
X246171899Y-153782585D01*
X246151617Y-153988518D01*
X233329031Y-153988518D01*
X233314386Y-153939897D01*
X233261246Y-153759494D01*
X233244372Y-153700896D01*
X233238595Y-153680832D01*
X233192029Y-153511367D01*
X233147533Y-153341360D01*
X233105149Y-153170983D01*
X233064866Y-153000197D01*
X233051107Y-152938518D01*
X236176878Y-152938518D01*
X236196115Y-153121547D01*
X236196116Y-153121550D01*
X236252983Y-153296571D01*
X236252986Y-153296577D01*
X236345005Y-153455958D01*
X236454526Y-153577595D01*
X236468149Y-153592724D01*
X236468151Y-153592726D01*
X236617034Y-153700896D01*
X236617035Y-153700896D01*
X236617039Y-153700899D01*
X236754153Y-153761946D01*
X236785161Y-153775752D01*
X236785166Y-153775754D01*
X236965181Y-153814018D01*
X237149219Y-153814018D01*
X237329234Y-153775754D01*
X237497361Y-153700899D01*
X237646250Y-153592725D01*
X237769395Y-153455958D01*
X237861414Y-153296577D01*
X237918285Y-153121547D01*
X237937522Y-152938518D01*
X240676878Y-152938518D01*
X240696115Y-153121547D01*
X240696116Y-153121550D01*
X240752983Y-153296571D01*
X240752986Y-153296577D01*
X240845005Y-153455958D01*
X240954526Y-153577595D01*
X240968149Y-153592724D01*
X240968151Y-153592726D01*
X241117034Y-153700896D01*
X241117035Y-153700896D01*
X241117039Y-153700899D01*
X241254153Y-153761946D01*
X241285161Y-153775752D01*
X241285166Y-153775754D01*
X241465181Y-153814018D01*
X241649219Y-153814018D01*
X241829234Y-153775754D01*
X241997361Y-153700899D01*
X242146250Y-153592725D01*
X242269395Y-153455958D01*
X242361414Y-153296577D01*
X242418285Y-153121547D01*
X242437522Y-152938518D01*
X242418285Y-152755489D01*
X242376667Y-152627402D01*
X242361416Y-152580464D01*
X242361413Y-152580458D01*
X242269395Y-152421078D01*
X242146250Y-152284311D01*
X242146248Y-152284309D01*
X241997365Y-152176139D01*
X241997362Y-152176137D01*
X241997361Y-152176137D01*
X241917434Y-152140551D01*
X241829238Y-152101283D01*
X241829233Y-152101281D01*
X241649219Y-152063018D01*
X241465181Y-152063018D01*
X241285166Y-152101281D01*
X241285161Y-152101283D01*
X241117039Y-152176137D01*
X241117034Y-152176139D01*
X240968151Y-152284309D01*
X240968149Y-152284311D01*
X240845004Y-152421079D01*
X240752986Y-152580458D01*
X240752983Y-152580464D01*
X240696116Y-152755485D01*
X240696115Y-152755489D01*
X240679831Y-152910420D01*
X240676931Y-152938018D01*
X240676878Y-152938518D01*
X237937522Y-152938518D01*
X237918285Y-152755489D01*
X237876667Y-152627402D01*
X237861416Y-152580464D01*
X237861413Y-152580458D01*
X237769395Y-152421078D01*
X237646250Y-152284311D01*
X237646248Y-152284309D01*
X237497365Y-152176139D01*
X237497362Y-152176137D01*
X237497361Y-152176137D01*
X237417434Y-152140551D01*
X237329238Y-152101283D01*
X237329233Y-152101281D01*
X237149219Y-152063018D01*
X236965181Y-152063018D01*
X236785166Y-152101281D01*
X236785161Y-152101283D01*
X236617039Y-152176137D01*
X236617034Y-152176139D01*
X236468151Y-152284309D01*
X236468149Y-152284311D01*
X236345004Y-152421079D01*
X236252986Y-152580458D01*
X236252983Y-152580464D01*
X236196116Y-152755485D01*
X236196115Y-152755489D01*
X236179831Y-152910420D01*
X236176931Y-152938018D01*
X236176878Y-152938518D01*
X233051107Y-152938518D01*
X233026677Y-152829003D01*
X232990568Y-152657324D01*
X232956575Y-152485356D01*
X232924722Y-152313239D01*
X232924675Y-152312986D01*
X232894874Y-152140257D01*
X232867194Y-151967299D01*
X232841621Y-151794049D01*
X232818148Y-151620467D01*
X232796796Y-151446689D01*
X232777548Y-151272612D01*
X232760422Y-151098370D01*
X232745408Y-150923898D01*
X232732517Y-150749313D01*
X232721742Y-150574477D01*
X232713093Y-150399608D01*
X232706566Y-150224531D01*
X232702166Y-150049435D01*
X232699893Y-149874180D01*
X232699751Y-149698946D01*
X232699869Y-149688518D01*
X242176922Y-149688518D01*
X242195962Y-149845336D01*
X242244190Y-149972500D01*
X242251980Y-149993041D01*
X242341717Y-150123048D01*
X242459960Y-150227801D01*
X242599835Y-150301214D01*
X242623549Y-150307058D01*
X242627840Y-150308283D01*
X242630536Y-150309158D01*
X242630541Y-150309161D01*
X242630545Y-150309161D01*
X242630546Y-150309162D01*
X242635727Y-150310151D01*
X242638945Y-150310854D01*
X242753214Y-150339018D01*
X242775052Y-150339018D01*
X242780143Y-150340513D01*
X242801955Y-150339140D01*
X242805850Y-150339018D01*
X242911183Y-150339018D01*
X242911185Y-150339018D01*
X242930496Y-150334258D01*
X242938834Y-150334624D01*
X242947047Y-150331956D01*
X242947067Y-150331951D01*
X242954481Y-150329542D01*
X242954482Y-150329542D01*
X242967581Y-150325285D01*
X242971885Y-150324056D01*
X243064565Y-150301214D01*
X243081632Y-150292256D01*
X243092620Y-150290053D01*
X243103448Y-150283183D01*
X243103489Y-150283160D01*
X243110052Y-150278994D01*
X243110056Y-150278993D01*
X243123012Y-150270770D01*
X243127359Y-150268256D01*
X243204440Y-150227801D01*
X243219098Y-150214814D01*
X243231678Y-150208901D01*
X243242820Y-150197037D01*
X243242850Y-150197009D01*
X243248169Y-150191343D01*
X243248172Y-150191342D01*
X243258996Y-150179814D01*
X243263049Y-150175877D01*
X243322683Y-150123048D01*
X243334347Y-150106148D01*
X243347120Y-150095796D01*
X243356384Y-150078945D01*
X243356398Y-150078924D01*
X243360151Y-150072097D01*
X243367633Y-150058486D01*
X243370925Y-150053156D01*
X243412420Y-149993041D01*
X243420211Y-149972496D01*
X243431578Y-149957483D01*
X243435061Y-149943918D01*
X243446504Y-149915014D01*
X243452400Y-149904289D01*
X243458447Y-149871676D01*
X243468437Y-149845336D01*
X243475185Y-149789755D01*
X243476675Y-149781843D01*
X243479637Y-149770308D01*
X243479637Y-149770304D01*
X243481331Y-149763710D01*
X243481335Y-149763688D01*
X243486214Y-149744684D01*
X243484361Y-149714185D01*
X243484611Y-149712126D01*
X243487478Y-149688518D01*
X250926922Y-149688518D01*
X250945962Y-149845336D01*
X250994190Y-149972500D01*
X251001980Y-149993041D01*
X251091717Y-150123048D01*
X251209960Y-150227801D01*
X251349835Y-150301214D01*
X251373549Y-150307058D01*
X251377840Y-150308283D01*
X251380536Y-150309158D01*
X251380541Y-150309161D01*
X251380545Y-150309161D01*
X251380546Y-150309162D01*
X251385727Y-150310151D01*
X251388945Y-150310854D01*
X251503214Y-150339018D01*
X251525052Y-150339018D01*
X251530143Y-150340513D01*
X251551955Y-150339140D01*
X251555850Y-150339018D01*
X251661183Y-150339018D01*
X251661185Y-150339018D01*
X251680496Y-150334258D01*
X251688834Y-150334624D01*
X251697047Y-150331956D01*
X251697067Y-150331951D01*
X251704481Y-150329542D01*
X251704482Y-150329542D01*
X251717581Y-150325285D01*
X251721885Y-150324056D01*
X251814565Y-150301214D01*
X251831632Y-150292256D01*
X251842620Y-150290053D01*
X251853448Y-150283183D01*
X251853489Y-150283160D01*
X251860052Y-150278994D01*
X251860056Y-150278993D01*
X251873012Y-150270770D01*
X251877359Y-150268256D01*
X251954440Y-150227801D01*
X251969098Y-150214814D01*
X251981678Y-150208901D01*
X251992820Y-150197037D01*
X251992850Y-150197009D01*
X251998169Y-150191343D01*
X251998172Y-150191342D01*
X252008996Y-150179814D01*
X252013049Y-150175877D01*
X252072683Y-150123048D01*
X252084347Y-150106148D01*
X252097120Y-150095796D01*
X252106384Y-150078945D01*
X252106398Y-150078924D01*
X252110151Y-150072097D01*
X252117633Y-150058486D01*
X252120925Y-150053156D01*
X252162420Y-149993041D01*
X252170211Y-149972496D01*
X252181578Y-149957483D01*
X252185061Y-149943918D01*
X252196504Y-149915014D01*
X252202400Y-149904289D01*
X252208447Y-149871676D01*
X252218437Y-149845336D01*
X252225185Y-149789755D01*
X252226675Y-149781843D01*
X252229637Y-149770308D01*
X252229637Y-149770304D01*
X252231331Y-149763710D01*
X252231335Y-149763688D01*
X252236214Y-149744684D01*
X252234361Y-149714185D01*
X252234611Y-149712126D01*
X252237478Y-149688518D01*
X252234360Y-149662844D01*
X252238166Y-149639952D01*
X252231334Y-149613342D01*
X252231332Y-149613332D01*
X252229637Y-149606730D01*
X252229637Y-149606728D01*
X252226678Y-149595206D01*
X252225183Y-149587265D01*
X252218437Y-149531700D01*
X252208446Y-149505358D01*
X252206509Y-149480217D01*
X252196505Y-149462020D01*
X252185062Y-149433118D01*
X252183161Y-149425715D01*
X252170212Y-149404540D01*
X252162420Y-149383995D01*
X252150834Y-149367210D01*
X252120934Y-149323891D01*
X252117631Y-149318546D01*
X252106393Y-149298103D01*
X252099799Y-149286109D01*
X252084348Y-149270888D01*
X252072684Y-149253989D01*
X252070706Y-149252237D01*
X252013061Y-149201168D01*
X252008986Y-149197209D01*
X252003723Y-149191605D01*
X251995283Y-149182616D01*
X251995253Y-149182588D01*
X251984894Y-149171557D01*
X251969101Y-149162224D01*
X251954440Y-149149235D01*
X251954436Y-149149233D01*
X251954435Y-149149232D01*
X251877381Y-149108789D01*
X251872975Y-149106241D01*
X251856136Y-149095555D01*
X251856128Y-149095551D01*
X251845825Y-149089013D01*
X251831639Y-149084783D01*
X251814565Y-149075822D01*
X251814564Y-149075821D01*
X251814563Y-149075821D01*
X251721900Y-149052981D01*
X251717574Y-149051747D01*
X251706980Y-149048304D01*
X251691521Y-149043281D01*
X251680503Y-149042779D01*
X251669012Y-149039947D01*
X251661185Y-149038018D01*
X251555805Y-149038018D01*
X251551931Y-149037896D01*
X251541224Y-149037223D01*
X251541223Y-149037223D01*
X251537124Y-149036965D01*
X251537084Y-149036965D01*
X251531901Y-149036639D01*
X251525050Y-149038018D01*
X251503212Y-149038018D01*
X251388963Y-149066177D01*
X251385744Y-149066880D01*
X251380553Y-149067870D01*
X251377849Y-149068749D01*
X251373529Y-149069981D01*
X251349832Y-149075822D01*
X251349831Y-149075823D01*
X251209962Y-149149233D01*
X251183124Y-149173009D01*
X251093694Y-149252237D01*
X251091716Y-149253989D01*
X251001981Y-149383993D01*
X251001980Y-149383994D01*
X250945962Y-149531699D01*
X250926922Y-149688517D01*
X250926922Y-149688518D01*
X243487478Y-149688518D01*
X243484360Y-149662844D01*
X243488166Y-149639952D01*
X243481334Y-149613342D01*
X243481332Y-149613332D01*
X243479637Y-149606730D01*
X243479637Y-149606728D01*
X243476678Y-149595206D01*
X243475183Y-149587265D01*
X243468437Y-149531700D01*
X243458446Y-149505358D01*
X243456509Y-149480217D01*
X243446505Y-149462020D01*
X243435062Y-149433118D01*
X243433161Y-149425715D01*
X243420212Y-149404540D01*
X243412420Y-149383995D01*
X243400834Y-149367210D01*
X243370934Y-149323891D01*
X243367631Y-149318546D01*
X243356393Y-149298103D01*
X243349799Y-149286109D01*
X243334348Y-149270888D01*
X243322684Y-149253989D01*
X243320706Y-149252237D01*
X243263061Y-149201168D01*
X243258986Y-149197209D01*
X243253723Y-149191605D01*
X243245283Y-149182616D01*
X243245253Y-149182588D01*
X243234894Y-149171557D01*
X243219101Y-149162224D01*
X243204440Y-149149235D01*
X243204436Y-149149233D01*
X243204435Y-149149232D01*
X243127381Y-149108789D01*
X243122975Y-149106241D01*
X243106136Y-149095555D01*
X243106128Y-149095551D01*
X243095825Y-149089013D01*
X243081639Y-149084783D01*
X243064565Y-149075822D01*
X243064564Y-149075821D01*
X243064563Y-149075821D01*
X242971900Y-149052981D01*
X242967574Y-149051747D01*
X242956980Y-149048304D01*
X242941521Y-149043281D01*
X242930503Y-149042779D01*
X242919012Y-149039947D01*
X242911185Y-149038018D01*
X242805805Y-149038018D01*
X242801931Y-149037896D01*
X242791224Y-149037223D01*
X242791223Y-149037223D01*
X242787124Y-149036965D01*
X242787084Y-149036965D01*
X242781901Y-149036639D01*
X242775050Y-149038018D01*
X242753212Y-149038018D01*
X242638963Y-149066177D01*
X242635744Y-149066880D01*
X242630553Y-149067870D01*
X242627849Y-149068749D01*
X242623529Y-149069981D01*
X242599832Y-149075822D01*
X242599831Y-149075823D01*
X242459962Y-149149233D01*
X242433124Y-149173009D01*
X242343694Y-149252237D01*
X242341716Y-149253989D01*
X242251981Y-149383993D01*
X242251980Y-149383994D01*
X242195962Y-149531699D01*
X242176922Y-149688517D01*
X242176922Y-149688518D01*
X232699869Y-149688518D01*
X232701738Y-149523670D01*
X232705858Y-149348292D01*
X232712112Y-149172998D01*
X232720507Y-148997634D01*
X232731036Y-148822382D01*
X232743708Y-148647126D01*
X232758526Y-148471929D01*
X232760899Y-148447428D01*
X232766421Y-148390423D01*
X232785663Y-148203647D01*
X232794577Y-148122016D01*
X232815788Y-147947516D01*
X232839116Y-147773337D01*
X232864550Y-147599562D01*
X232892070Y-147426268D01*
X232921720Y-147253202D01*
X232953422Y-147080776D01*
X232987236Y-146908653D01*
X233023110Y-146737100D01*
X233061059Y-146566020D01*
X233090971Y-146438518D01*
X236176878Y-146438518D01*
X236196115Y-146621547D01*
X236196116Y-146621550D01*
X236252983Y-146796571D01*
X236252986Y-146796577D01*
X236345005Y-146955958D01*
X236436687Y-147057782D01*
X236468149Y-147092724D01*
X236468151Y-147092726D01*
X236617034Y-147200896D01*
X236617035Y-147200896D01*
X236617039Y-147200899D01*
X236754153Y-147261946D01*
X236785161Y-147275752D01*
X236785166Y-147275754D01*
X236965181Y-147314018D01*
X237149219Y-147314018D01*
X237329234Y-147275754D01*
X237497361Y-147200899D01*
X237646250Y-147092725D01*
X237769395Y-146955958D01*
X237861414Y-146796577D01*
X237918285Y-146621547D01*
X237937522Y-146438518D01*
X240676878Y-146438518D01*
X240696115Y-146621547D01*
X240696116Y-146621550D01*
X240752983Y-146796571D01*
X240752986Y-146796577D01*
X240845005Y-146955958D01*
X240936687Y-147057782D01*
X240968149Y-147092724D01*
X240968151Y-147092726D01*
X241117034Y-147200896D01*
X241117035Y-147200896D01*
X241117039Y-147200899D01*
X241254153Y-147261946D01*
X241285161Y-147275752D01*
X241285166Y-147275754D01*
X241465181Y-147314018D01*
X241649219Y-147314018D01*
X241829234Y-147275754D01*
X241997361Y-147200899D01*
X242146250Y-147092725D01*
X242269395Y-146955958D01*
X242361414Y-146796577D01*
X242418285Y-146621547D01*
X242437522Y-146438518D01*
X242418285Y-146255489D01*
X242361414Y-146080459D01*
X242269395Y-145921078D01*
X242146250Y-145784311D01*
X242146248Y-145784309D01*
X241997365Y-145676139D01*
X241997362Y-145676137D01*
X241997361Y-145676137D01*
X241936312Y-145648956D01*
X241829238Y-145601283D01*
X241829233Y-145601281D01*
X241649219Y-145563018D01*
X241465181Y-145563018D01*
X241285166Y-145601281D01*
X241285161Y-145601283D01*
X241117039Y-145676137D01*
X241117034Y-145676139D01*
X240968151Y-145784309D01*
X240968149Y-145784311D01*
X240845004Y-145921079D01*
X240752986Y-146080458D01*
X240752983Y-146080464D01*
X240705964Y-146225177D01*
X240696115Y-146255489D01*
X240676878Y-146438518D01*
X237937522Y-146438518D01*
X237918285Y-146255489D01*
X237861414Y-146080459D01*
X237769395Y-145921078D01*
X237646250Y-145784311D01*
X237646248Y-145784309D01*
X237497365Y-145676139D01*
X237497362Y-145676137D01*
X237497361Y-145676137D01*
X237436312Y-145648956D01*
X237329238Y-145601283D01*
X237329233Y-145601281D01*
X237149219Y-145563018D01*
X236965181Y-145563018D01*
X236785166Y-145601281D01*
X236785161Y-145601283D01*
X236617039Y-145676137D01*
X236617034Y-145676139D01*
X236468151Y-145784309D01*
X236468149Y-145784311D01*
X236345004Y-145921079D01*
X236252986Y-146080458D01*
X236252983Y-146080464D01*
X236205964Y-146225177D01*
X236196115Y-146255489D01*
X236176878Y-146438518D01*
X233090971Y-146438518D01*
X233101075Y-146395451D01*
X233143167Y-146225351D01*
X233187320Y-146055779D01*
X233233497Y-145886873D01*
X233281723Y-145718529D01*
X233331986Y-145550790D01*
X233382766Y-145388518D01*
X246151617Y-145388518D01*
X246171899Y-145594450D01*
X246190664Y-145656310D01*
X246231968Y-145792472D01*
X246329515Y-145974968D01*
X246329517Y-145974970D01*
X246460789Y-146134928D01*
X246517136Y-146181170D01*
X246620750Y-146266203D01*
X246803246Y-146363750D01*
X247001266Y-146423818D01*
X247001265Y-146423818D01*
X247010911Y-146424768D01*
X247155592Y-146439018D01*
X247155595Y-146439018D01*
X247258805Y-146439018D01*
X247258808Y-146439018D01*
X247413134Y-146423818D01*
X247611154Y-146363750D01*
X247793650Y-146266203D01*
X247953610Y-146134928D01*
X248084885Y-145974968D01*
X248182432Y-145792472D01*
X248242500Y-145594452D01*
X248262783Y-145388518D01*
X248242500Y-145182584D01*
X248182432Y-144984564D01*
X248084885Y-144802068D01*
X248018916Y-144721684D01*
X247953610Y-144642107D01*
X247793652Y-144510835D01*
X247793653Y-144510835D01*
X247793650Y-144510833D01*
X247611154Y-144413286D01*
X247413134Y-144353218D01*
X247413132Y-144353217D01*
X247413134Y-144353217D01*
X247294005Y-144341484D01*
X247258808Y-144338018D01*
X247155592Y-144338018D01*
X247117498Y-144341769D01*
X247001267Y-144353217D01*
X246803243Y-144413287D01*
X246697627Y-144469741D01*
X246620750Y-144510833D01*
X246620748Y-144510834D01*
X246620747Y-144510835D01*
X246460789Y-144642107D01*
X246329517Y-144802065D01*
X246329515Y-144802068D01*
X246305487Y-144847021D01*
X246231969Y-144984561D01*
X246171899Y-145182585D01*
X246151617Y-145388518D01*
X233382766Y-145388518D01*
X233384306Y-145383596D01*
X233438621Y-145217144D01*
X233494997Y-145051227D01*
X233553386Y-144886005D01*
X233613709Y-144721685D01*
X233676103Y-144557898D01*
X233740499Y-144394835D01*
X233806844Y-144232632D01*
X233875218Y-144071099D01*
X233945545Y-143910421D01*
X234017857Y-143750527D01*
X234092147Y-143591444D01*
X234168347Y-143433316D01*
X234203035Y-143363518D01*
X241076878Y-143363518D01*
X241096123Y-143571209D01*
X241096123Y-143571211D01*
X241096124Y-143571214D01*
X241147056Y-143750223D01*
X241153207Y-143771840D01*
X241229147Y-143924347D01*
X241246181Y-143958556D01*
X241371882Y-144125011D01*
X241526029Y-144265534D01*
X241703372Y-144375341D01*
X241897873Y-144450691D01*
X242102907Y-144489018D01*
X242102910Y-144489018D01*
X242311490Y-144489018D01*
X242311493Y-144489018D01*
X242516527Y-144450691D01*
X242711028Y-144375341D01*
X242888371Y-144265534D01*
X243042518Y-144125011D01*
X243168219Y-143958556D01*
X243261194Y-143771837D01*
X243318276Y-143571214D01*
X243337522Y-143363518D01*
X251076878Y-143363518D01*
X251096123Y-143571209D01*
X251096123Y-143571211D01*
X251096124Y-143571214D01*
X251147056Y-143750223D01*
X251153207Y-143771840D01*
X251229147Y-143924347D01*
X251246181Y-143958556D01*
X251371882Y-144125011D01*
X251526029Y-144265534D01*
X251703372Y-144375341D01*
X251897873Y-144450691D01*
X252102907Y-144489018D01*
X252102910Y-144489018D01*
X252311490Y-144489018D01*
X252311493Y-144489018D01*
X252516527Y-144450691D01*
X252711028Y-144375341D01*
X252888371Y-144265534D01*
X253042518Y-144125011D01*
X253168219Y-143958556D01*
X253261194Y-143771837D01*
X253318276Y-143571214D01*
X253337522Y-143363518D01*
X253318276Y-143155822D01*
X253261194Y-142955199D01*
X253168219Y-142768480D01*
X253042518Y-142602025D01*
X253034026Y-142594284D01*
X252888372Y-142461503D01*
X252888371Y-142461502D01*
X252711028Y-142351695D01*
X252711027Y-142351694D01*
X252553189Y-142290548D01*
X252516527Y-142276345D01*
X252311493Y-142238018D01*
X252102907Y-142238018D01*
X251897873Y-142276345D01*
X251897870Y-142276345D01*
X251897870Y-142276346D01*
X251703372Y-142351694D01*
X251703371Y-142351695D01*
X251526027Y-142461503D01*
X251371883Y-142602023D01*
X251246181Y-142768479D01*
X251153207Y-142955195D01*
X251150852Y-142963471D01*
X251102390Y-143133801D01*
X251096123Y-143155826D01*
X251076878Y-143363517D01*
X251076878Y-143363518D01*
X243337522Y-143363518D01*
X243318276Y-143155822D01*
X243261194Y-142955199D01*
X243168219Y-142768480D01*
X243042518Y-142602025D01*
X243034026Y-142594284D01*
X242888372Y-142461503D01*
X242888371Y-142461502D01*
X242711028Y-142351695D01*
X242711027Y-142351694D01*
X242553189Y-142290548D01*
X242516527Y-142276345D01*
X242311493Y-142238018D01*
X242102907Y-142238018D01*
X241897873Y-142276345D01*
X241897870Y-142276345D01*
X241897870Y-142276346D01*
X241703372Y-142351694D01*
X241703371Y-142351695D01*
X241526027Y-142461503D01*
X241371883Y-142602023D01*
X241246181Y-142768479D01*
X241153207Y-142955195D01*
X241150852Y-142963471D01*
X241102390Y-143133801D01*
X241096123Y-143155826D01*
X241076878Y-143363517D01*
X241076878Y-143363518D01*
X234203035Y-143363518D01*
X234246569Y-143275921D01*
X234277513Y-143215516D01*
X234326711Y-143119477D01*
X234331608Y-143110196D01*
X234360977Y-143054545D01*
X234463613Y-142863235D01*
X234489791Y-142815146D01*
X234502911Y-142791047D01*
X234599243Y-142619688D01*
X234697939Y-142449594D01*
X234798939Y-142280867D01*
X234902155Y-142113648D01*
X235007646Y-141947840D01*
X235115374Y-141783500D01*
X235225338Y-141620630D01*
X235337497Y-141459287D01*
X235451848Y-141299481D01*
X235568350Y-141141265D01*
X235687037Y-140984594D01*
X235807877Y-140829516D01*
X235930839Y-140676072D01*
X236055885Y-140524312D01*
X236062735Y-140516226D01*
X236103370Y-140468257D01*
X236264048Y-140281181D01*
X236312187Y-140225900D01*
X236443350Y-140079356D01*
X236576392Y-139934727D01*
X236711325Y-139791990D01*
X236848198Y-139651094D01*
X236879499Y-139619738D01*
X259502420Y-139619738D01*
X259521621Y-139924950D01*
X259539488Y-140018610D01*
X259578930Y-140225369D01*
X259673436Y-140516229D01*
X259803651Y-140792951D01*
X259803653Y-140792954D01*
X259803654Y-140792956D01*
X259967518Y-141051165D01*
X259967520Y-141051167D01*
X259967522Y-141051170D01*
X260162464Y-141286815D01*
X260385404Y-141496169D01*
X260385409Y-141496172D01*
X260385412Y-141496175D01*
X260632812Y-141675922D01*
X260632830Y-141675934D01*
X260802958Y-141769462D01*
X260900823Y-141823264D01*
X260951292Y-141843246D01*
X260953075Y-141844035D01*
X260953090Y-141844043D01*
X260956131Y-141845162D01*
X261185175Y-141935847D01*
X261239616Y-141949825D01*
X261245596Y-141951688D01*
X261246199Y-141951910D01*
X261246222Y-141951917D01*
X261279976Y-141964339D01*
X261301335Y-141965671D01*
X261481395Y-142011903D01*
X261541120Y-142019447D01*
X261547101Y-142020506D01*
X261549499Y-142021054D01*
X261549507Y-142021054D01*
X261550870Y-142021366D01*
X261550900Y-142021372D01*
X261582421Y-142028566D01*
X261602912Y-142027254D01*
X261658332Y-142034255D01*
X261784802Y-142050232D01*
X261784808Y-142050232D01*
X261784812Y-142050233D01*
X261784814Y-142050233D01*
X261848966Y-142050233D01*
X261854924Y-142050520D01*
X261890485Y-142053950D01*
X261909801Y-142050233D01*
X262090640Y-142050233D01*
X262158345Y-142041679D01*
X262164100Y-142041224D01*
X262171302Y-142040994D01*
X262171310Y-142040992D01*
X262172826Y-142040944D01*
X262172863Y-142040942D01*
X262199284Y-142040094D01*
X262217108Y-142034256D01*
X262394057Y-142011903D01*
X262464157Y-141993904D01*
X262469610Y-141992766D01*
X262479009Y-141991247D01*
X262479021Y-141991243D01*
X262480520Y-141991001D01*
X262480590Y-141990988D01*
X262503755Y-141987243D01*
X262519877Y-141979597D01*
X262690277Y-141935847D01*
X262761423Y-141907678D01*
X262766552Y-141905905D01*
X262777827Y-141902559D01*
X262777830Y-141902557D01*
X262778914Y-141902236D01*
X262799019Y-141896268D01*
X262813275Y-141887148D01*
X262974629Y-141823264D01*
X263045390Y-141784362D01*
X263050096Y-141782033D01*
X263062851Y-141776387D01*
X263062861Y-141776380D01*
X263064223Y-141775778D01*
X263064287Y-141775748D01*
X263078486Y-141769462D01*
X263088148Y-141761051D01*
X263091043Y-141759296D01*
X263091619Y-141758947D01*
X263242628Y-141675930D01*
X263311392Y-141625969D01*
X263315655Y-141623135D01*
X263329401Y-141614803D01*
X263329410Y-141614795D01*
X263330505Y-141614132D01*
X263330543Y-141614108D01*
X263341855Y-141607250D01*
X263349120Y-141599077D01*
X263355369Y-141594093D01*
X263357503Y-141592467D01*
X263490048Y-141496169D01*
X263555183Y-141435002D01*
X263558933Y-141431756D01*
X263573099Y-141420460D01*
X263573102Y-141420456D01*
X263582495Y-141412966D01*
X263587610Y-141405475D01*
X263596500Y-141396296D01*
X263598521Y-141394306D01*
X263712988Y-141286815D01*
X263772741Y-141214585D01*
X263775967Y-141210982D01*
X263789944Y-141196550D01*
X263789946Y-141196547D01*
X263796518Y-141189761D01*
X263799768Y-141183386D01*
X263810090Y-141169555D01*
X263811930Y-141167213D01*
X263907930Y-141051170D01*
X263960586Y-140968196D01*
X263963213Y-140964385D01*
X263976377Y-140946747D01*
X263976379Y-140946742D01*
X263976653Y-140946376D01*
X263976666Y-140946357D01*
X263980475Y-140941253D01*
X263982229Y-140936356D01*
X263992785Y-140917612D01*
X263994384Y-140914940D01*
X264049046Y-140828807D01*
X264071792Y-140792967D01*
X264071797Y-140792956D01*
X264071801Y-140792951D01*
X264115586Y-140699901D01*
X264117647Y-140695906D01*
X264129334Y-140675156D01*
X264129335Y-140675152D01*
X264131397Y-140671492D01*
X264132087Y-140668353D01*
X264141672Y-140644680D01*
X264143008Y-140641626D01*
X264202016Y-140516229D01*
X264235250Y-140413944D01*
X264236714Y-140409925D01*
X264246306Y-140386234D01*
X264246306Y-140386232D01*
X264246309Y-140386226D01*
X264246323Y-140386184D01*
X264246877Y-140384813D01*
X264246980Y-140383661D01*
X264254440Y-140355213D01*
X264255429Y-140351839D01*
X264296522Y-140225369D01*
X264317577Y-140114995D01*
X264318486Y-140110977D01*
X264325370Y-140084727D01*
X264329346Y-140053887D01*
X264329919Y-140050295D01*
X264353829Y-139924958D01*
X264361194Y-139807889D01*
X264361571Y-139803959D01*
X264365230Y-139775584D01*
X264365891Y-139734278D01*
X264366003Y-139731441D01*
X264373032Y-139619733D01*
X264366004Y-139508028D01*
X264365891Y-139505183D01*
X264365230Y-139463882D01*
X264361572Y-139435517D01*
X264361192Y-139431547D01*
X264353875Y-139315236D01*
X264353830Y-139314515D01*
X264339462Y-139239197D01*
X264329928Y-139189215D01*
X264329340Y-139185531D01*
X264325540Y-139156060D01*
X264325370Y-139154739D01*
X264318489Y-139128501D01*
X264317572Y-139124448D01*
X264296522Y-139014097D01*
X264255437Y-138887650D01*
X264254437Y-138884240D01*
X264248003Y-138859702D01*
X264247705Y-138858569D01*
X264246984Y-138855817D01*
X264247008Y-138854971D01*
X264246721Y-138854261D01*
X264246707Y-138854223D01*
X264243441Y-138846155D01*
X264236726Y-138829569D01*
X264235243Y-138825500D01*
X264202016Y-138723237D01*
X264159648Y-138633201D01*
X264143019Y-138597861D01*
X264141650Y-138594729D01*
X264133917Y-138575630D01*
X264132092Y-138571122D01*
X264131860Y-138568793D01*
X264117656Y-138543573D01*
X264115577Y-138539545D01*
X264087361Y-138479583D01*
X264071801Y-138446515D01*
X263994411Y-138324569D01*
X263992744Y-138321781D01*
X263986000Y-138309807D01*
X263982229Y-138303111D01*
X263981374Y-138299414D01*
X263963232Y-138275105D01*
X263960570Y-138271242D01*
X263907934Y-138188301D01*
X263907929Y-138188294D01*
X263811970Y-138072299D01*
X263810058Y-138069867D01*
X263799770Y-138056082D01*
X263797950Y-138051182D01*
X263775971Y-138028487D01*
X263772736Y-138024874D01*
X263712989Y-137952652D01*
X263654619Y-137897839D01*
X263598544Y-137845181D01*
X263596478Y-137843146D01*
X263587608Y-137833988D01*
X263584522Y-137828114D01*
X263558938Y-137807712D01*
X263555151Y-137804433D01*
X263529375Y-137780228D01*
X263490048Y-137743297D01*
X263357525Y-137647013D01*
X263355352Y-137645358D01*
X263349107Y-137640378D01*
X263344504Y-137633819D01*
X263330526Y-137625345D01*
X263330518Y-137625340D01*
X263323983Y-137621378D01*
X268208947Y-137621378D01*
X268228192Y-137829069D01*
X268228192Y-137829071D01*
X268228193Y-137829074D01*
X268263353Y-137952649D01*
X268285276Y-138029700D01*
X268334275Y-138128103D01*
X268378250Y-138216416D01*
X268503951Y-138382871D01*
X268658098Y-138523394D01*
X268758308Y-138585442D01*
X268835437Y-138633199D01*
X268835439Y-138633199D01*
X268835441Y-138633201D01*
X268867509Y-138645624D01*
X268870832Y-138647025D01*
X268870850Y-138647033D01*
X268870864Y-138647041D01*
X268871446Y-138647242D01*
X268873702Y-138648024D01*
X268954534Y-138679338D01*
X269029942Y-138708551D01*
X269029944Y-138708551D01*
X269029946Y-138708552D01*
X269035270Y-138709547D01*
X269063399Y-138714805D01*
X269066585Y-138715489D01*
X269073429Y-138717149D01*
X269073437Y-138717152D01*
X269084325Y-138718716D01*
X269234976Y-138746878D01*
X269234978Y-138746878D01*
X269271320Y-138746878D01*
X269279723Y-138747478D01*
X269279728Y-138747378D01*
X269285616Y-138747658D01*
X269285618Y-138747659D01*
X269285620Y-138747658D01*
X269285622Y-138747659D01*
X269294904Y-138747216D01*
X269296870Y-138747123D01*
X269296884Y-138747126D01*
X269300613Y-138746948D01*
X269303566Y-138746878D01*
X269443561Y-138746878D01*
X269443562Y-138746878D01*
X269487778Y-138738612D01*
X269496213Y-138737627D01*
X269499737Y-138737460D01*
X269499744Y-138737458D01*
X269501979Y-138737352D01*
X269502021Y-138737348D01*
X269534051Y-138735821D01*
X269564108Y-138724344D01*
X269648596Y-138708551D01*
X269694543Y-138690750D01*
X269702319Y-138688314D01*
X269708057Y-138686922D01*
X269708058Y-138686921D01*
X269709700Y-138686523D01*
X269709752Y-138686507D01*
X269739300Y-138679338D01*
X269765412Y-138663296D01*
X269843097Y-138633201D01*
X269888720Y-138604951D01*
X269895567Y-138601288D01*
X269903048Y-138597872D01*
X269903052Y-138597868D01*
X269903396Y-138597712D01*
X269908426Y-138595415D01*
X269908430Y-138595413D01*
X269911560Y-138593984D01*
X269912184Y-138593894D01*
X269913814Y-138592953D01*
X269930260Y-138585442D01*
X269951781Y-138565905D01*
X270020440Y-138523394D01*
X270063387Y-138484242D01*
X270069161Y-138479583D01*
X270077663Y-138473530D01*
X270077663Y-138473529D01*
X270079583Y-138472163D01*
X270081876Y-138471369D01*
X270087320Y-138466652D01*
X270100191Y-138457487D01*
X270116737Y-138435607D01*
X270174587Y-138382871D01*
X270212348Y-138332866D01*
X270216948Y-138327451D01*
X270222729Y-138321387D01*
X270226269Y-138319343D01*
X270233769Y-138309807D01*
X270243101Y-138300019D01*
X270254553Y-138276978D01*
X270300288Y-138216416D01*
X270330320Y-138156103D01*
X270333644Y-138150251D01*
X270335971Y-138146630D01*
X270340223Y-138142946D01*
X270347876Y-138128103D01*
X270353929Y-138118683D01*
X270360443Y-138095607D01*
X270393263Y-138029697D01*
X270411367Y-137966065D01*
X270417958Y-137955616D01*
X270418909Y-137950686D01*
X270425554Y-137928056D01*
X270428809Y-137919926D01*
X270430777Y-137897847D01*
X270450345Y-137829074D01*
X270457470Y-137752173D01*
X270458319Y-137746212D01*
X270461722Y-137728559D01*
X270461722Y-137728550D01*
X270461922Y-137727514D01*
X270461928Y-137727474D01*
X270465145Y-137710781D01*
X270463176Y-137690603D01*
X270469591Y-137621378D01*
X270463175Y-137552149D01*
X270466127Y-137537061D01*
X270462116Y-137516247D01*
X270462115Y-137516240D01*
X270461722Y-137514200D01*
X270461722Y-137514197D01*
X270458325Y-137496570D01*
X270457468Y-137490554D01*
X270457334Y-137489108D01*
X270450345Y-137413682D01*
X270432425Y-137350698D01*
X277708308Y-137350698D01*
X277713735Y-137377979D01*
X277715683Y-137397764D01*
X277716552Y-137402132D01*
X277722322Y-137421153D01*
X277727749Y-137448436D01*
X277727749Y-137448437D01*
X277727750Y-137448438D01*
X277738219Y-137464106D01*
X277743205Y-137471568D01*
X277752580Y-137489108D01*
X277755049Y-137492803D01*
X277767658Y-137508166D01*
X277783115Y-137531299D01*
X277806246Y-137546754D01*
X277821609Y-137559363D01*
X277823461Y-137560600D01*
X277823463Y-137560602D01*
X277823464Y-137560602D01*
X277825318Y-137561841D01*
X277842843Y-137571207D01*
X277865976Y-137586664D01*
X277893266Y-137592092D01*
X277912278Y-137597861D01*
X277916644Y-137598729D01*
X277936433Y-137600679D01*
X277963715Y-137606106D01*
X277963716Y-137606106D01*
X277963717Y-137606106D01*
X277990999Y-137600679D01*
X278010780Y-137598730D01*
X278012960Y-137598296D01*
X278012966Y-137598296D01*
X278012971Y-137598293D01*
X278015165Y-137597857D01*
X278034165Y-137592092D01*
X278061456Y-137586664D01*
X278084593Y-137571204D01*
X278102120Y-137561837D01*
X278103967Y-137560602D01*
X278103969Y-137560602D01*
X278103970Y-137560600D01*
X278105818Y-137559366D01*
X278121181Y-137546757D01*
X278144317Y-137531299D01*
X278159775Y-137508163D01*
X278172384Y-137492800D01*
X278174855Y-137489102D01*
X278184222Y-137471575D01*
X278199682Y-137448438D01*
X278205109Y-137421150D01*
X278210662Y-137402851D01*
X278211313Y-137399950D01*
X278211312Y-137399950D01*
X278211314Y-137399948D01*
X278211512Y-137395871D01*
X278213746Y-137377731D01*
X278219124Y-137350698D01*
X278213746Y-137323664D01*
X278211512Y-137305526D01*
X278211314Y-137301448D01*
X278211312Y-137301445D01*
X278210664Y-137298552D01*
X278205109Y-137280243D01*
X278199682Y-137252958D01*
X278184225Y-137229825D01*
X278174859Y-137212300D01*
X278172381Y-137208591D01*
X278159772Y-137193228D01*
X278144317Y-137170097D01*
X278121184Y-137154640D01*
X278105821Y-137142031D01*
X278102126Y-137139562D01*
X278084586Y-137130187D01*
X278083166Y-137129238D01*
X278061456Y-137114732D01*
X278061455Y-137114731D01*
X278061454Y-137114731D01*
X278034171Y-137109304D01*
X278015150Y-137103534D01*
X278010780Y-137102665D01*
X277990999Y-137100717D01*
X277963717Y-137095290D01*
X277963715Y-137095290D01*
X277936433Y-137100717D01*
X277916647Y-137102665D01*
X277912292Y-137103532D01*
X277893261Y-137109304D01*
X277865980Y-137114730D01*
X277865973Y-137114733D01*
X277842837Y-137130191D01*
X277825303Y-137139563D01*
X277821622Y-137142023D01*
X277806251Y-137154637D01*
X277783114Y-137170096D01*
X277767655Y-137193233D01*
X277755041Y-137208604D01*
X277752581Y-137212285D01*
X277743209Y-137229819D01*
X277727751Y-137252955D01*
X277727748Y-137252962D01*
X277722322Y-137280243D01*
X277716550Y-137299274D01*
X277715683Y-137303630D01*
X277713735Y-137323414D01*
X277708308Y-137350697D01*
X277708308Y-137350698D01*
X270432425Y-137350698D01*
X270430778Y-137344910D01*
X270430919Y-137328096D01*
X270425553Y-137314694D01*
X270418909Y-137292068D01*
X270418748Y-137291235D01*
X270411367Y-137276689D01*
X270410545Y-137273801D01*
X270393263Y-137213059D01*
X270360443Y-137147148D01*
X270357250Y-137129238D01*
X270347878Y-137114654D01*
X270341841Y-137102945D01*
X270335962Y-137096110D01*
X270333651Y-137092514D01*
X270330308Y-137086629D01*
X270312151Y-137050165D01*
X270300288Y-137026340D01*
X270254556Y-136965781D01*
X270247653Y-136947510D01*
X270233770Y-136932949D01*
X270227887Y-136925469D01*
X270222743Y-136921382D01*
X270216955Y-136915312D01*
X270212357Y-136909901D01*
X270174587Y-136859885D01*
X270174586Y-136859884D01*
X270174586Y-136859883D01*
X270116740Y-136807150D01*
X270105923Y-136789349D01*
X270087316Y-136776099D01*
X270083064Y-136772414D01*
X270079574Y-136770587D01*
X270069170Y-136763177D01*
X270063358Y-136758487D01*
X270020441Y-136719363D01*
X270020440Y-136719362D01*
X269951783Y-136676851D01*
X269937045Y-136660409D01*
X269913815Y-136649800D01*
X269912546Y-136649067D01*
X269911552Y-136648767D01*
X269895585Y-136641475D01*
X269888694Y-136637787D01*
X269843098Y-136609555D01*
X269843096Y-136609554D01*
X269765408Y-136579458D01*
X269746943Y-136565269D01*
X269711382Y-136556641D01*
X269711370Y-136556638D01*
X269702310Y-136554439D01*
X269694529Y-136551999D01*
X269648599Y-136534206D01*
X269648598Y-136534205D01*
X269648596Y-136534205D01*
X269564098Y-136518409D01*
X269542294Y-136507322D01*
X269496226Y-136505128D01*
X269487775Y-136504142D01*
X269443564Y-136495878D01*
X269443562Y-136495878D01*
X269303499Y-136495878D01*
X269300549Y-136495808D01*
X269285618Y-136495096D01*
X269279728Y-136495378D01*
X269279723Y-136495277D01*
X269271320Y-136495878D01*
X269234976Y-136495878D01*
X269194267Y-136503487D01*
X269084342Y-136524035D01*
X269073438Y-136525603D01*
X269066593Y-136527264D01*
X269063371Y-136527956D01*
X269029940Y-136534205D01*
X268873701Y-136594732D01*
X268870852Y-136595719D01*
X268870796Y-136595745D01*
X268867479Y-136597142D01*
X268835445Y-136609552D01*
X268658096Y-136719363D01*
X268503952Y-136859883D01*
X268378250Y-137026339D01*
X268285276Y-137213055D01*
X268228192Y-137413686D01*
X268208947Y-137621377D01*
X268208947Y-137621378D01*
X263323983Y-137621378D01*
X263315673Y-137616340D01*
X263311371Y-137613480D01*
X263242639Y-137563543D01*
X263242632Y-137563538D01*
X263242628Y-137563536D01*
X263091623Y-137480520D01*
X263088107Y-137478389D01*
X263081770Y-137471455D01*
X263065168Y-137464106D01*
X263065126Y-137464086D01*
X263050116Y-137457441D01*
X263045362Y-137455088D01*
X262974629Y-137416202D01*
X262974627Y-137416201D01*
X262974623Y-137416199D01*
X262813276Y-137352317D01*
X262803161Y-137344424D01*
X262766585Y-137333569D01*
X262761400Y-137331778D01*
X262690276Y-137303618D01*
X262519880Y-137259868D01*
X262508256Y-137252949D01*
X262482073Y-137248715D01*
X262482050Y-137248711D01*
X262469634Y-137246702D01*
X262464117Y-137245550D01*
X262394056Y-137227562D01*
X262217104Y-137205208D01*
X262204062Y-137199520D01*
X262164105Y-137198239D01*
X262158319Y-137197782D01*
X262090653Y-137189234D01*
X262090642Y-137189233D01*
X262090640Y-137189233D01*
X261909804Y-137189233D01*
X261895503Y-137185033D01*
X261861649Y-137188299D01*
X261861636Y-137188300D01*
X261854938Y-137188946D01*
X261848980Y-137189233D01*
X261784812Y-137189233D01*
X261784810Y-137189233D01*
X261784798Y-137189234D01*
X261602898Y-137212212D01*
X261587527Y-137209732D01*
X261551752Y-137217898D01*
X261551728Y-137217902D01*
X261547084Y-137218961D01*
X261541075Y-137220023D01*
X261481404Y-137227561D01*
X261481397Y-137227562D01*
X261481395Y-137227563D01*
X261301309Y-137273801D01*
X261285086Y-137273244D01*
X261245609Y-137287772D01*
X261239614Y-137289640D01*
X261185173Y-137303618D01*
X261185170Y-137303619D01*
X260956136Y-137394301D01*
X260953084Y-137395424D01*
X260951255Y-137396233D01*
X260900820Y-137416203D01*
X260632830Y-137563531D01*
X260632812Y-137563543D01*
X260385412Y-137743290D01*
X260385402Y-137743298D01*
X260162466Y-137952649D01*
X260162464Y-137952651D01*
X260160011Y-137955616D01*
X259967518Y-138188300D01*
X259803654Y-138446509D01*
X259803651Y-138446513D01*
X259803651Y-138446515D01*
X259785886Y-138484267D01*
X259673435Y-138723239D01*
X259630876Y-138854223D01*
X259578930Y-139014097D01*
X259557106Y-139128501D01*
X259521621Y-139314515D01*
X259502420Y-139619727D01*
X259502420Y-139619738D01*
X236879499Y-139619738D01*
X236986958Y-139512092D01*
X237127584Y-139375003D01*
X237270058Y-139239845D01*
X237414356Y-139106639D01*
X237560464Y-138975401D01*
X237708352Y-138846155D01*
X237858017Y-138718909D01*
X238009377Y-138593730D01*
X238162507Y-138470561D01*
X238317354Y-138349447D01*
X238473886Y-138230417D01*
X238534802Y-138187247D01*
X238955217Y-137893520D01*
X238957568Y-137891959D01*
X239144886Y-137773753D01*
X239470133Y-137577537D01*
X239679375Y-137460677D01*
X240017081Y-137286646D01*
X240218454Y-137187942D01*
X240220965Y-137186782D01*
X240398868Y-137109304D01*
X240571573Y-137034089D01*
X240747358Y-136959323D01*
X240750690Y-136958250D01*
X240755856Y-136955804D01*
X240759793Y-136954103D01*
X240785414Y-136944069D01*
X240799708Y-136935769D01*
X240809685Y-136930935D01*
X240829339Y-136922116D01*
X240829382Y-136922213D01*
X240831122Y-136921053D01*
X240887975Y-136896293D01*
X240895470Y-136890471D01*
X240901270Y-136887519D01*
X240901271Y-136887519D01*
X240901381Y-136887463D01*
X240901437Y-136887437D01*
X240901437Y-136887435D01*
X240915687Y-136880820D01*
X240918410Y-136878880D01*
X240989336Y-136843141D01*
X240992793Y-136841752D01*
X240997488Y-136839111D01*
X241000163Y-136837691D01*
X241007217Y-136834163D01*
X241010516Y-136831827D01*
X241017025Y-136828189D01*
X241093369Y-136785532D01*
X241097179Y-136783760D01*
X241099682Y-136782154D01*
X241103348Y-136779975D01*
X241107525Y-136777682D01*
X241111117Y-136774942D01*
X241193525Y-136723135D01*
X241196695Y-136721480D01*
X241200658Y-136718736D01*
X241203428Y-136716925D01*
X241208746Y-136713648D01*
X241225001Y-136709206D01*
X241284774Y-136661917D01*
X241287144Y-136660132D01*
X241294424Y-136654918D01*
X241304616Y-136648081D01*
X241306443Y-136646439D01*
X241377662Y-136596202D01*
X241379977Y-136594712D01*
X241381928Y-136592802D01*
X241438017Y-136542161D01*
X241441448Y-136539538D01*
X241444061Y-136536882D01*
X241447282Y-136533832D01*
X241451495Y-136530121D01*
X241454012Y-136528019D01*
X241498435Y-136492872D01*
X241509373Y-136477535D01*
X241508981Y-136477290D01*
X241510287Y-136475206D01*
X241519596Y-136463201D01*
X241522307Y-136459401D01*
X241523275Y-136458457D01*
X241525430Y-136455678D01*
X241574194Y-136404319D01*
X241576086Y-136402804D01*
X241585939Y-136391951D01*
X241595739Y-136381735D01*
X241597083Y-136379821D01*
X241598308Y-136378487D01*
X241602919Y-136375712D01*
X241644092Y-136328659D01*
X241647676Y-136324759D01*
X241649006Y-136323628D01*
X241658080Y-136313437D01*
X241672089Y-136298444D01*
X241673161Y-136296712D01*
X241724930Y-136239304D01*
X241727303Y-136236967D01*
X241729697Y-136234042D01*
X241730428Y-136233238D01*
X241738820Y-136221182D01*
X241738823Y-136221181D01*
X241738878Y-136221102D01*
X241738931Y-136221031D01*
X241738932Y-136221024D01*
X241739535Y-136220163D01*
X241743718Y-136214814D01*
X241785368Y-136167218D01*
X241793212Y-136150262D01*
X241792481Y-136149961D01*
X241793595Y-136147256D01*
X241803876Y-136127529D01*
X241846529Y-136061038D01*
X241848445Y-136058596D01*
X241852944Y-136051039D01*
X241859429Y-136041101D01*
X241868899Y-136033010D01*
X241905187Y-135965116D01*
X241912168Y-135953122D01*
X241919396Y-135941293D01*
X241920222Y-135939349D01*
X241960792Y-135869987D01*
X241962495Y-135867490D01*
X241963776Y-135865092D01*
X241964913Y-135862283D01*
X242001201Y-135787573D01*
X242003201Y-135784327D01*
X242006052Y-135777741D01*
X242007382Y-135774872D01*
X242013759Y-135761984D01*
X242049586Y-135694953D01*
X242058098Y-135667048D01*
X242094832Y-135607006D01*
X242109349Y-135587766D01*
X242115973Y-135580566D01*
X242133929Y-135564507D01*
X242196454Y-135518692D01*
X242217195Y-135506402D01*
X242226057Y-135502256D01*
X242248770Y-135494214D01*
X242324009Y-135475568D01*
X242347850Y-135472074D01*
X242357575Y-135471605D01*
X242381767Y-135472811D01*
X242459051Y-135484303D01*
X242499867Y-135497920D01*
X242567568Y-135534590D01*
X242572655Y-135537670D01*
X242587619Y-135547743D01*
X242592253Y-135551227D01*
X242593306Y-135552062D01*
X242664378Y-135611537D01*
X242680590Y-135620376D01*
X242729969Y-135647299D01*
X242735105Y-135652428D01*
X242747814Y-135657521D01*
X242754437Y-135660640D01*
X242825104Y-135699170D01*
X242905024Y-135723917D01*
X242911847Y-135728444D01*
X242925330Y-135730756D01*
X242933195Y-135732640D01*
X242999974Y-135753318D01*
X243090724Y-135762551D01*
X243099394Y-135766085D01*
X243109026Y-135765685D01*
X243126721Y-135766214D01*
X243182095Y-135771849D01*
X243279913Y-135762283D01*
X243290272Y-135764255D01*
X243299515Y-135761867D01*
X243318469Y-135758513D01*
X243364282Y-135754033D01*
X243364285Y-135754032D01*
X243364288Y-135754032D01*
X243464841Y-135723325D01*
X243476516Y-135723199D01*
X243484799Y-135719053D01*
X243504099Y-135711338D01*
X243539368Y-135700568D01*
X243637802Y-135647397D01*
X243650253Y-135644747D01*
X243657126Y-135639241D01*
X243675717Y-135626917D01*
X243700434Y-135613566D01*
X243700439Y-135613561D01*
X243700442Y-135613560D01*
X243705550Y-135610106D01*
X243705904Y-135610629D01*
X243719139Y-135601966D01*
X243734875Y-135584900D01*
X243773445Y-135552797D01*
X243791552Y-135537725D01*
X243804135Y-135532278D01*
X243809312Y-135525929D01*
X243826088Y-135508980D01*
X243841135Y-135496457D01*
X243843182Y-135493913D01*
X243862162Y-135474976D01*
X243873333Y-135456457D01*
X243919632Y-135398941D01*
X243931632Y-135390600D01*
X243935027Y-135383961D01*
X243948835Y-135362663D01*
X243955925Y-135353856D01*
X243961137Y-135343816D01*
X243975080Y-135322601D01*
X243975759Y-135321766D01*
X243982606Y-135302465D01*
X244016649Y-135236894D01*
X244027339Y-135225747D01*
X244029051Y-135219349D01*
X244038792Y-135194245D01*
X244040276Y-135191387D01*
X244045678Y-135172601D01*
X244054445Y-135150414D01*
X244055428Y-135148489D01*
X244058092Y-135129425D01*
X244078515Y-135058403D01*
X244087199Y-135044722D01*
X244087485Y-135039019D01*
X244090384Y-135021640D01*
X244089756Y-135021526D01*
X244090860Y-135015469D01*
X244090865Y-135015454D01*
X244093136Y-134987514D01*
X244096937Y-134965533D01*
X244097751Y-134962486D01*
X244096622Y-134944623D01*
X244105696Y-134832994D01*
X244101372Y-134796457D01*
X244100669Y-134775691D01*
X244100870Y-134771677D01*
X244096564Y-134755818D01*
X244084185Y-134651201D01*
X244069890Y-134607580D01*
X244065333Y-134588877D01*
X244064573Y-134584211D01*
X244057891Y-134570961D01*
X244027180Y-134477244D01*
X244027178Y-134477241D01*
X243999818Y-134428959D01*
X243992209Y-134412966D01*
X243990304Y-134408093D01*
X243982153Y-134397785D01*
X243936927Y-134317975D01*
X243891244Y-134265301D01*
X243886361Y-134258866D01*
X243881064Y-134250850D01*
X243872351Y-134243516D01*
X243816989Y-134179683D01*
X243816986Y-134179679D01*
X243761195Y-134136605D01*
X243753450Y-134130625D01*
X243747929Y-134125817D01*
X243741057Y-134119080D01*
X243732409Y-134114380D01*
X243672087Y-134067808D01*
X243672084Y-134067806D01*
X243647440Y-134055601D01*
X243647035Y-134055228D01*
X243598005Y-134031094D01*
X243582765Y-134022193D01*
X243572677Y-134015293D01*
X243517466Y-133975599D01*
X243494101Y-133953711D01*
X243477954Y-133934088D01*
X243475309Y-133930633D01*
X243447688Y-133891777D01*
X243434846Y-133868927D01*
X243434154Y-133867319D01*
X243422794Y-133840901D01*
X243420315Y-133834050D01*
X243407300Y-133790188D01*
X243403126Y-133770225D01*
X243399708Y-133742731D01*
X243398866Y-133722370D01*
X243400742Y-133676689D01*
X243401466Y-133669467D01*
X243406305Y-133639237D01*
X243413155Y-133613957D01*
X243430347Y-133569703D01*
X243432054Y-133565733D01*
X243443016Y-133542515D01*
X243460298Y-133515588D01*
X243503520Y-133464277D01*
X243509369Y-133457656D01*
X243528703Y-133439954D01*
X243540754Y-133431067D01*
X243660384Y-133346070D01*
X243666841Y-133342058D01*
X243724170Y-133311169D01*
X243726978Y-133309752D01*
X243825184Y-133263369D01*
X243830167Y-133261279D01*
X243895595Y-133237173D01*
X243900762Y-133235524D01*
X244005587Y-133207105D01*
X244008734Y-133206340D01*
X244072259Y-133192680D01*
X244079800Y-133191539D01*
X244226402Y-133178567D01*
X244246802Y-133177124D01*
X244251878Y-133176766D01*
X244256253Y-133176611D01*
X280793373Y-133176611D01*
X280797428Y-133176744D01*
G37*
%TD.AperFunction*%
M02*
