0
SECTION
2
HEADER
9
$INSUNITS
70
4
9
$ACADVER
1
AC1014
9
$HANDSEED
5
FFFF
0
ENDSEC
0
SECTION
2
TABLES
0
TABLE
2
VPORT
5
8
100
AcDbSymbolTable
0
ENDTAB
0
TABLE
2
LTYPE
5
5
100
AcDbSymbolTable
0
LTYPE
5
14
100
AcDbSymbolTableRecord
100
AcDbLinetypeTableRecord
2
BYBLOCK
70
0
0
LTYPE
5
15
100
AcDbSymbolTableRecord
100
AcDbLinetypeTableRecord
2
BYLAYER
70
0
0
ENDTAB
0
TABLE
2
LAYER
5
2
100
AcDbSymbolTable
70
2
0
LAYER
5
50
100
AcDbSymbolTableRecord
100
AcDbLayerTableRecord
2
0
70
0
6
CONTINUOUS
0
ENDTAB
0
TABLE
2
STYLE
5
3
100
AcDbSymbolTable
70
1
0
STYLE
5
11
100
AcDbSymbolTableRecord
100
AcDbTextStyleTableRecord
2
STANDARD
70
0
0
ENDTAB
0
TABLE
2
VIEW
5
6
100
AcDbSymbolTable
70
0
0
ENDTAB
0
TABLE
2
UCS
5
7
100
AcDbSymbolTable
70
0
0
ENDTAB
0
TABLE
2
APPID
5
9
100
AcDbSymbolTable
70
2
0
APPID
5
12
100
AcDbSymbolTableRecord
100
AcDbRegAppTableRecord
2
ACAD
70
0
0
ENDTAB
0
TABLE
2
DIMSTYLE
5
A
100
AcDbSymbolTable
70
1
0
ENDTAB
0
TABLE
2
BLOCK_RECORD
5
1
100
AcDbSymbolTable
70
1
0
BLOCK_RECORD
5
1F
100
AcDbSymbolTableRecord
100
AcDbBlockTableRecord
2
*MODEL_SPACE
0
BLOCK_RECORD
5
1B
100
AcDbSymbolTableRecord
100
AcDbBlockTableRecord
2
*PAPER_SPACE
0
ENDTAB
0
ENDSEC
0
SECTION
2
BLOCKS
0
BLOCK
5
20
100
AcDbEntity
100
AcDbBlockBegin
2
*MODEL_SPACE
0
ENDBLK
5
21
100
AcDbEntity
100
AcDbBlockEnd
0
BLOCK
5
1C
100
AcDbEntity
100
AcDbBlockBegin
2
*PAPER_SPACE
0
ENDBLK
5
1D
100
AcDbEntity
100
AcDbBlockEnd
0
ENDSEC
0
SECTION
2
ENTITIES
0
CIRCLE
5
100
100
AcDbEntity
8
0
100
AcDbCircle
10
-53.006516096143379
20
9.2221798339553107
30
0
40
0.24999999999999467
210
0
220
-0
230
1
0
CIRCLE
5
101
100
AcDbEntity
8
0
100
AcDbCircle
10
-17.874999999999947
20
21.559999999999981
30
0
40
0.64999999999999825
210
-1.2325951644078309e-32
220
-1.0838697312385812e-64
230
1
0
CIRCLE
5
102
100
AcDbEntity
8
0
100
AcDbCircle
10
-26.624999999999947
20
21.559999999999981
30
0
40
0.64999999999999825
210
-1.2325951644078309e-32
220
-1.0838697312385812e-64
230
1
0
ARC
5
103
100
AcDbEntity
8
0
100
AcDbCircle
10
-18.787570272349104
20
5.585273000888594
30
-1.1973985901213036e-47
40
0.35000000000000114
210
-2.7561308650119514e-32
220
-1.4030379049598357e-34
230
1
100
AcDbArc
50
-49.549763398644338
51
63.726616599230837
0
ARC
5
104
100
AcDbEntity
8
0
100
AcDbCircle
10
-18.226726789384593
20
6.7213819690849714
30
0
40
0.91700000000000026
210
3.0402181257974205e-33
220
-3.4730242515779054e-32
230
1
100
AcDbArc
50
50.002808817738426
51
243.72661659923097
0
SPLINE
5
105
100
AcDbEntity
8
0
100
AcDbSpline
70
0
71
3
72
16
73
12
74
0
42
0.000000001
43
0.0000000001
44
0.0000000001
40
0
40
0
40
0
40
0
40
0.013672556568542875
40
0.013672556568542875
40
0.02734511313708534
40
0.02734511313708534
40
0.04101766970562775
40
0.04101766970562775
40
0.053255805155555197
40
0.053255805155555197
40
0.065493940605483345
40
0.065493940605483345
40
0.065493940605483345
40
0.065493940605483345
10
-17.090410385057556
20
7.5547163532855723
30
0
10
-17.108286777366406
20
7.51279341910314
30
0
10
-17.134180742894653
20
7.4747629479510271
30
0
10
-17.199088833040655
20
7.41076817407553
30
0
10
-17.237482400938966
20
7.3854156962702397
30
0
10
-17.32182646476398
20
7.3508545888334211
30
0
10
-17.366970585469453
20
7.3419763822262487
30
0
10
-17.4533395470201
20
7.3420216144266206
30
0
10
-17.493817270714921
20
7.3491748120133424
30
0
10
-17.570477882761764
20
7.3770975999228252
30
0
10
-17.606073851305499
20
7.3976534111367496
30
0
10
-17.637324988924547
20
7.4238736185829932
30
0
0
SPLINE
5
106
100
AcDbEntity
8
0
100
AcDbSpline
70
4
71
5
72
15
73
9
74
0
42
0.000000001
43
0.0000000001
44
0.0000000001
40
-0.7220866944145562
40
-0.7220866944145562
40
-0.7220866944145562
40
-0.7220866944145562
40
-0.7220866944145562
40
-0.7220866944145562
40
-0.60000000000000009
40
-0.40000000000000002
40
-0.20000000000000001
40
0
40
0
40
0
40
0
40
0
40
0
41
1
41
1
41
1
41
1
41
1
41
1
41
1
41
1
41
1
10
-17.090410385057556
20
7.5547163532855706
30
0
10
-17.063586936115154
20
7.6176215337677409
30
0
10
-16.988777829757385
20
7.778179036869961
30
0
10
-16.850841531220393
20
8.0164895783463272
30
0
10
-16.625953038425735
20
8.3033824587200549
30
0
10
-16.355226763817857
20
8.5390403646764987
30
0
10
-16.093595665799437
20
8.697966171528261
30
0
10
-15.901143405838438
20
8.7862121392898676
30
0
10
-15.800405772783568
20
8.8259056502030546
30
0
0
ARC
5
107
100
AcDbEntity
8
0
100
AcDbCircle
10
-19.390005439894225
20
17.935902870407304
30
3.6691713940145662e-46
40
9.7916941906010369
210
2.7646302793175748e-33
220
1.0893434641574504e-33
230
1
100
AcDbArc
50
291.50585986804185
51
306.85972244962034
0
SPLINE
5
108
100
AcDbEntity
8
0
100
AcDbSpline
70
0
71
3
72
30
73
26
74
0
42
0.000000001
43
0.0000000001
44
0.0000000001
40
-6.6808719623364361
40
-6.6808719623364361
40
-6.6808719623364361
40
-6.6808719623364361
40
-6.3478638033740875
40
-6.3478638033740875
40
-6.014648056109575
40
-6.014648056109575
40
-5.4187918742656231
40
-5.4187918742656231
40
-4.8230118707727998
40
-4.8230118707727998
40
-4.2264672976690427
40
-4.2264672976690427
40
-3.6300524061659782
40
-3.6300524061659782
40
-3.0334086259884887
40
-3.0334086259884887
40
-2.4371769804575525
40
-2.4371769804575525
40
-1.8399818021458691
40
-1.8399818021458691
40
-1.2434624954994646
40
-1.2434624954994646
40
-0.43062622340504714
40
-0.43062622340504714
40
-0.055627061608225163
40
-0.055627061608225163
40
-0.055627061608225163
40
-0.055627061608225163
10
-13.516380149044231
20
10.101504293302773
30
0
10
-12.677101694031078
20
10.73073027803084
30
0
10
-11.908938342165648
20
11.449605721270427
30
0
10
-10.54166759044479
20
13.041495899444747
30
0
10
-9.9466865840978063
20
13.909925196653052
30
0
10
-8.5650911671708059
20
16.489646642790497
30
0
10
-8.0101271059514225
20
18.301375240575879
30
0
10
-7.6254605713930612
20
22.035091170941183
30
0
10
-7.7993484587855502
20
23.921374332443214
30
0
10
-8.8605001176541993
20
27.523875551972292
30
0
10
-9.7384801974231276
20
29.205401984460124
30
0
10
-12.089157206607712
20
32.137294491364187
30
0
10
-13.539326877015426
20
33.359914226986504
30
0
10
-16.827163546405121
20
35.181380643260489
30
0
10
-18.633495541901087
20
35.762536236944371
30
0
10
-22.365963414033303
20
36.2000887471971
30
0
10
-24.256401443093189
20
36.052811005698821
30
0
10
-27.877793302590604
20
35.041820848572925
30
0
10
-29.573941390830075
20
34.186652610367688
30
0
10
-32.541100644478377
20
31.87538675594347
30
0
10
-33.784626800945794
20
30.44175285008788
30
0
10
-35.989843688198015
20
26.58691217257433
30
0
10
-36.206285170457456
20
25.161629072866802
30
0
10
-36.972462876797763
20
21.277014873496807
30
0
10
-37.214344866059349
20
20.050643755828027
30
0
10
-37.456226855320949
20
18.824272638159243
30
0
0
SPLINE
5
109
100
AcDbEntity
8
0
100
AcDbSpline
70
0
71
3
72
14
73
10
74
0
42
0.000000001
43
0.0000000001
44
0.0000000001
40
0
40
0
40
0
40
0
40
0.0097661118346732481
40
0.0097661118346732481
40
0.019532223669346409
40
0.019532223669346409
40
0.027281032393901276
40
0.027281032393901276
40
0.03502984111845607
40
0.03502984111845607
40
0.03502984111845607
40
0.03502984111845607
10
-37.300894294903323
20
18.54263576559687
30
0
10
-37.33126825259135
20
18.554347574860394
30
0
10
-37.359064241907717
20
18.571880122196788
30
0
10
-37.406371178016457
20
18.616612983981401
30
0
10
-37.425429844715353
20
18.643385627889668
30
0
10
-37.449445976655873
20
18.696600363609047
30
0
10
-37.456358527649193
20
18.721648245987378
30
0
10
-37.462265797109779
20
18.772968105872412
30
0
10
-37.461224992542704
20
18.798931474273434
30
0
10
-37.456226855320949
20
18.824272638159243
30
0
0
ARC
5
110
100
AcDbEntity
8
0
100
AcDbCircle
10
-37.630802326158538
20
17.687036740987036
30
8.5528470722950261e-48
40
0.91699999999999726
210
4.4344933917610564e-33
220
1.1500623995704949e-32
230
1
100
AcDbArc
50
-96.323414274232547
51
68.913999287467746
0
SPLINE
5
111
100
AcDbEntity
8
0
100
AcDbSpline
70
0
71
3
72
12
73
8
74
0
42
0.000000001
43
0.0000000001
44
0.0000000001
40
0
40
0
40
0
40
0
40
0.019532223669346409
40
0.019532223669346409
40
0.039064447338692909
40
0.039064447338692909
40
0.058788515612268194
40
0.058788515612268194
40
0.058788515612268194
40
0.058788515612268194
10
-38.223461945483734
20
16.522355689249849
30
0
10
-38.191728858250414
20
16.579206250391142
30
0
10
-38.149194977867516
20
16.629315111606374
30
0
10
-38.047313839974251
20
16.710408479099179
30
0
10
-37.988940621671652
20
16.740617688584223
30
0
10
-37.863286122524251
20
16.777138865556449
30
0
10
-37.797148047711111
20
16.782857137686872
30
0
10
-37.731801155673217
20
16.775615742525481
30
0
0
SPLINE
5
112
100
AcDbEntity
8
0
100
AcDbSpline
70
0
71
3
72
12
73
8
74
0
42
0.000000001
43
0.0000000001
44
0.0000000001
40
-0.27543770876597162
40
-0.27543770876597162
40
-0.27543770876597162
40
-0.27543770876597162
40
-0.20156944452432352
40
-0.20156944452432352
40
-0.13185536857477795
40
-0.13185536857477795
40
0
40
0
40
0
40
0
10
-38.223461945483734
20
16.522355689249846
30
0
10
-38.485641015458768
20
16.052655809815086
30
0
10
-38.839220613424189
20
15.542857745691098
30
0
10
-39.883778712587436
20
14.653486101892536
30
0
10
-40.475145365764376
20
14.341017986772023
30
0
10
-42.480437920047322
20
13.698578917325236
30
0
10
-43.942550867822447
20
13.669709197944538
30
0
10
-44.382068763071707
20
13.669709197944538
30
0
0
LINE
5
113
100
AcDbEntity
8
0
100
AcDbLine
10
-44.382068763071707
20
13.669709197944538
30
0
11
-55.838209994759126
21
13.669709197944538
31
0
0
ARC
5
114
100
AcDbEntity
8
0
100
AcDbCircle
10
-55.838209994759119
20
11.669709197944533
30
0
40
2.000000000000004
210
0
220
0
230
1
100
AcDbArc
50
90.000000000000199
51
180
0
LINE
5
115
100
AcDbEntity
8
0
100
AcDbLine
10
-57.838209994759126
20
11.669709197944538
30
0
11
-57.838209994759133
21
7.0475930061793512
31
0
0
ARC
5
116
100
AcDbEntity
8
0
100
AcDbCircle
10
-55.838209994759119
20
7.0475930061793584
30
0
40
2.0000000000000107
210
0
220
0
230
1
100
AcDbArc
50
180
51
269.99999999999983
0
LINE
5
117
100
AcDbEntity
8
0
100
AcDbLine
10
-55.838209994759126
20
5.0475930061793477
30
0
11
-19.296980305742704
21
5.0475930061793326
31
0
0
ARC
5
118
100
AcDbEntity
8
0
100
AcDbCircle
10
-19.296980305742707
20
6.1827655627768143
30
0
40
1.1351725565974813
210
1.2325951644078309e-32
220
4.8220176698737519e-47
230
1
100
AcDbArc
50
270.00000000000023
51
310.45023660135536
0
CIRCLE
5
119
100
AcDbEntity
8
0
100
AcDbCircle
10
-22.249999999999947
20
17.259999999999973
30
0
40
0.75000000000000178
210
0
220
-0
230
1
0
CIRCLE
5
120
100
AcDbEntity
8
0
100
AcDbCircle
10
-22.249999999999947
20
25.859999999999985
30
0
40
0.75000000000000178
210
0
220
-0
230
1
0
CIRCLE
5
121
100
AcDbEntity
8
0
100
AcDbCircle
10
-36.980526241266837
20
11.491215015048761
30
0
40
2.4300000000000006
210
1.2325951644078309e-32
220
1.0838697312385812e-64
230
1
0
CIRCLE
5
122
100
AcDbEntity
8
0
100
AcDbCircle
10
-44.382068763071707
20
9.4928598897752074
30
0
40
1.1249999999999982
210
-1.2325951644078309e-32
220
1.6867516709168837e-80
230
1
0
ENDSEC
0
SECTION
2
OBJECTS
0
DICTIONARY
5
C
100
AcDbDictionary
3
ACAD_GROUP
350
D
3
ACAD_MLINESTYLE
350
17
0
DICTIONARY
5
D
100
AcDbDictionary
0
DICTIONARY
5
1A
330
C
100
AcDbDictionary
0
DICTIONARY
5
17
100
AcDbDictionary
0
ENDSEC
0
EOF
