0
SECTION
2
HEADER
9
$INSUNITS
70
4
9
$ACADVER
1
AC1014
9
$HANDSEED
5
FFFF
0
ENDSEC
0
SECTION
2
TABLES
0
TABLE
2
VPORT
5
8
100
AcDbSymbolTable
0
ENDTAB
0
TABLE
2
LTYPE
5
5
100
AcDbSymbolTable
0
LTYPE
5
14
100
AcDbSymbolTableRecord
100
AcDbLinetypeTableRecord
2
BYBLOCK
70
0
0
LTYPE
5
15
100
AcDbSymbolTableRecord
100
AcDbLinetypeTableRecord
2
BYLAYER
70
0
0
ENDTAB
0
TABLE
2
LAYER
5
2
100
AcDbSymbolTable
70
2
0
LAYER
5
50
100
AcDbSymbolTableRecord
100
AcDbLayerTableRecord
2
0
70
0
6
CONTINUOUS
0
ENDTAB
0
TABLE
2
STYLE
5
3
100
AcDbSymbolTable
70
1
0
STYLE
5
11
100
AcDbSymbolTableRecord
100
AcDbTextStyleTableRecord
2
STANDARD
70
0
0
ENDTAB
0
TABLE
2
VIEW
5
6
100
AcDbSymbolTable
70
0
0
ENDTAB
0
TABLE
2
UCS
5
7
100
AcDbSymbolTable
70
0
0
ENDTAB
0
TABLE
2
APPID
5
9
100
AcDbSymbolTable
70
2
0
APPID
5
12
100
AcDbSymbolTableRecord
100
AcDbRegAppTableRecord
2
ACAD
70
0
0
ENDTAB
0
TABLE
2
DIMSTYLE
5
A
100
AcDbSymbolTable
70
1
0
ENDTAB
0
TABLE
2
BLOCK_RECORD
5
1
100
AcDbSymbolTable
70
1
0
BLOCK_RECORD
5
1F
100
AcDbSymbolTableRecord
100
AcDbBlockTableRecord
2
*MODEL_SPACE
0
BLOCK_RECORD
5
1B
100
AcDbSymbolTableRecord
100
AcDbBlockTableRecord
2
*PAPER_SPACE
0
ENDTAB
0
ENDSEC
0
SECTION
2
BLOCKS
0
BLOCK
5
20
100
AcDbEntity
100
AcDbBlockBegin
2
*MODEL_SPACE
0
ENDBLK
5
21
100
AcDbEntity
100
AcDbBlockEnd
0
BLOCK
5
1C
100
AcDbEntity
100
AcDbBlockBegin
2
*PAPER_SPACE
0
ENDBLK
5
1D
100
AcDbEntity
100
AcDbBlockEnd
0
ENDSEC
0
SECTION
2
ENTITIES
0
CIRCLE
5
100
100
AcDbEntity
8
0
100
AcDbCircle
10
3.7249999995595178
20
-36.12999999993702
30
0
40
0.30000000000000027
210
0
220
-0
230
1
0
CIRCLE
5
101
100
AcDbEntity
8
0
100
AcDbCircle
10
-3.7250000004399659
20
-36.129999999937027
30
0
40
0.30000000000000027
210
0
220
-0
230
1
0
CIRCLE
5
102
100
AcDbEntity
8
0
100
AcDbCircle
10
24.850726427965991
20
-8.6118129875843099
30
0
40
0.9000000000000018
210
0
220
-0
230
1
0
CIRCLE
5
103
100
AcDbEntity
8
0
100
AcDbCircle
10
57.34967737482981
20
-8.6118129875843099
30
0
40
0.9000000000000018
210
0
220
-0
230
1
0
CIRCLE
5
104
100
AcDbEntity
8
0
100
AcDbCircle
10
-58.382068763071715
20
9.4928598897752057
30
0
40
1.1249999999999982
210
0
220
-0
230
1
0
CIRCLE
5
105
100
AcDbEntity
8
0
100
AcDbCircle
10
58.382068763071715
20
9.4928598897752039
30
0
40
1.1249999999999982
210
0
220
-0
230
1
0
ARC
5
106
100
AcDbEntity
8
0
100
AcDbCircle
10
-33.136662365299799
20
6.9938916577469614
30
0
40
2.0000000000000115
210
0
220
-0
230
1
100
AcDbArc
50
56.468882086029119
51
90.000000000000199
0
LINE
5
107
100
AcDbEntity
8
0
100
AcDbLine
10
-33.136662365299806
20
8.993891657746973
30
0
11
-37.100000000000001
21
8.9938916577469481
31
0
0
ARC
5
108
100
AcDbEntity
8
0
100
AcDbCircle
10
-37.100000000000001
20
11.600000000000001
30
0
40
2.6061083422530507
210
0
220
0
230
1
100
AcDbArc
50
180
51
270
0
LINE
5
109
100
AcDbEntity
8
0
100
AcDbLine
10
-39.706108342253053
20
11.6
30
0
11
-39.706108342253046
21
13.586950635620148
31
0
0
ARC
5
110
100
AcDbEntity
8
0
100
AcDbCircle
10
-41.706108342253032
20
13.586950635620152
30
0
40
1.999999999999984
210
-0
220
0
230
1
100
AcDbArc
50
0
51
89.999999999999588
0
LINE
5
111
100
AcDbEntity
8
0
100
AcDbLine
10
-41.706108342253017
20
15.586950635620136
30
0
11
-43.012863558964618
21
15.586950635643467
31
0
0
ARC
5
112
100
AcDbEntity
8
0
100
AcDbCircle
10
-43.012863558964618
20
17.436436515637574
30
0
40
1.8494858799941039
210
0
220
0
230
1
100
AcDbArc
50
180
51
270
0
LINE
5
113
100
AcDbEntity
8
0
100
AcDbLine
10
-44.862349438958724
20
17.436436515637578
30
0
11
-44.862349438958724
21
17.536436515637572
31
0
0
ARC
5
114
100
AcDbEntity
8
0
100
AcDbCircle
10
-45.512349438958715
20
17.53643651563759
30
0
40
0.64999999999999503
210
-0
220
0
230
1
100
AcDbArc
50
0
51
90
0
LINE
5
115
100
AcDbEntity
8
0
100
AcDbLine
10
-45.512349438958715
20
18.186436515637581
30
0
11
-60.838209994759126
21
18.186436515637574
31
0
0
ARC
5
116
100
AcDbEntity
8
0
100
AcDbCircle
10
-60.838209994759119
20
16.186436515637567
30
0
40
2.0000000000000084
210
0
220
0
230
1
100
AcDbArc
50
90.000000000000199
51
180
0
LINE
5
117
100
AcDbEntity
8
0
100
AcDbLine
10
-62.838209994759133
20
16.186436515637567
30
0
11
-62.838209994759133
21
-10.96359960404323
31
0
0
SPLINE
5
118
100
AcDbEntity
8
0
100
AcDbSpline
70
0
71
3
72
12
73
8
74
0
42
0.000000001
43
0.0000000001
44
0.0000000001
40
0
40
0
40
0
40
0
40
0.83868856779615886
40
0.83868856779615886
40
1.269311635548811
40
1.269311635548811
40
1.768020783191002
40
1.768020783191002
40
1.768020783191002
40
1.768020783191002
10
-62.838209994759133
20
-10.96359960404323
30
0
10
-62.292939216905395
20
-13.705536660306077
30
0
10
-61.770732469535062
20
-15.63462531248614
30
0
10
-60.636293041051289
20
-18.227070583622151
30
0
10
-60.095575275601007
20
-19.272262411790638
30
0
10
-58.194496150077043
20
-21.839897487496739
30
0
10
-56.946405186700588
20
-23.100690115731307
30
0
10
-55.635910037733822
20
-24.202714809092289
30
0
0
LINE
5
119
100
AcDbEntity
8
0
100
AcDbLine
10
-55.635910037733822
20
-24.202714809092289
30
0
11
-49.433207431204721
21
-27.772017244964282
31
0
0
ARC
5
120
100
AcDbEntity
8
0
100
AcDbCircle
10
-39.458012942657874
20
-10.43721136443423
30
0
40
19.999999999999861
210
0
220
0
230
1
100
AcDbArc
50
240.08202210339229
51
270.00000000000011
0
LINE
5
121
100
AcDbEntity
8
0
100
AcDbLine
10
-39.458012942657838
20
-30.437211364434088
30
0
11
-30.009054576025385
21
-30.437211364434088
31
0
0
ARC
5
122
100
AcDbEntity
8
0
100
AcDbCircle
10
-30.009054576025388
20
-32.437211364434134
30
0
40
2.0000000000000511
210
0
220
-0
230
1
100
AcDbArc
50
78.159279732404045
51
89.999999999999901
0
LINE
5
123
100
AcDbEntity
8
0
100
AcDbLine
10
-29.598671208275363
20
-30.479767753120047
30
0
11
-25.17362308463148
21
-31.407491106651449
31
0
0
ARC
5
124
100
AcDbEntity
8
0
100
AcDbCircle
10
-24.763239716881497
20
-29.450047495337568
30
0
40
1.9999999999998375
210
0
220
0
230
1
100
AcDbArc
50
258.15927973240406
51
267.02125657897039
0
ARC
5
125
100
AcDbEntity
8
0
100
AcDbCircle
10
-25.000000000000004
20
-34
30
0
40
2.5561083422530517
210
0
220
0
230
1
100
AcDbArc
50
0
51
87.0212565789694
0
LINE
5
126
100
AcDbEntity
8
0
100
AcDbLine
10
-22.443891657746953
20
-34
30
0
11
-22.443891657746953
21
-37.954087877238265
31
0
0
ARC
5
127
100
AcDbEntity
8
0
100
AcDbCircle
10
-21.787260131605173
20
-37.954087877238265
30
0
40
0.65663152614177989
210
0
220
0
230
1
100
AcDbArc
50
180
51
249.6533870213955
0
SPLINE
5
128
100
AcDbEntity
8
0
100
AcDbSpline
70
0
71
3
72
10
73
6
74
0
42
0.000000001
43
0.0000000001
44
0.0000000001
40
0
40
0
40
0
40
0
40
0.74384327599817646
40
0.74384327599817646
40
1.6006897631354968
40
1.6006897631354968
40
1.6006897631354968
40
1.6006897631354968
10
-22.015569997856623
20
-38.569749870141123
30
0
10
-19.603373047842396
20
-39.143435304063118
30
0
10
-16.588288914774061
20
-39.756466281988764
30
0
10
-8.622044018659782
20
-40.713180084518797
30
0
10
-4.202591372997369
20
-40.900102791180224
30
0
10
-1.5514117768233859e-11
20
-40.895835361300044
30
0
0
SPLINE
5
129
100
AcDbEntity
8
0
100
AcDbSpline
70
0
71
3
72
10
73
6
74
0
42
0.000000001
43
0.0000000001
44
0.0000000001
40
0
40
0
40
0
40
0
40
1.2607780618846984
40
1.2607780618846984
40
2.3552813339844159
40
2.3552813339844159
40
2.3552813339844159
40
2.3552813339844159
10
1.5514117768233859e-11
20
-40.895835361300044
30
0
10
4.202591372997369
20
-40.900102791180224
30
0
10
8.622044018659782
20
-40.713180084518797
30
0
10
16.588288914774061
20
-39.756466281988764
30
0
10
19.603373047842396
20
-39.143435304063118
30
0
10
22.015569997856623
20
-38.569749870141123
30
0
0
ARC
5
130
100
AcDbEntity
8
0
100
AcDbCircle
10
21.787260131605173
20
-37.954087877238265
30
0
40
0.65663162011349807
210
-0
220
0
230
1
100
AcDbArc
50
-69.653387021395488
51
0
0
LINE
5
131
100
AcDbEntity
8
0
100
AcDbLine
10
22.443891751718667
20
-37.954087877238265
30
0
11
22.443891657746953
21
-34
31
0
0
ARC
5
132
100
AcDbEntity
8
0
100
AcDbCircle
10
25.000000000000004
20
-34
30
0
40
2.5561083422530473
210
0
220
0
230
1
100
AcDbArc
50
92.9787434210306
51
180
0
ARC
5
133
100
AcDbEntity
8
0
100
AcDbCircle
10
24.763239716881497
20
-29.450047495337568
30
0
40
1.9999999999998372
210
-0
220
0
230
1
100
AcDbArc
50
272.97874342102961
51
281.84072026759594
0
LINE
5
134
100
AcDbEntity
8
0
100
AcDbLine
10
25.17362308463148
20
-31.407491106651449
30
0
11
29.598671208275363
21
-30.479767753120047
31
0
0
ARC
5
135
100
AcDbEntity
8
0
100
AcDbCircle
10
30.009054576025402
20
-32.437211364434084
30
0
40
2.0000000000000018
210
0
220
0
230
1
100
AcDbArc
50
90.000000000000512
51
101.84072026759665
0
LINE
5
136
100
AcDbEntity
8
0
100
AcDbLine
10
30.009054576025385
20
-30.437211364434084
30
0
11
39.458012942657845
21
-30.437211364434088
31
0
0
ARC
5
137
100
AcDbEntity
8
0
100
AcDbCircle
10
39.458012942657845
20
-10.43721136443407
30
0
40
20.000000000000018
210
0
220
0
230
1
100
AcDbArc
50
270
51
299.91797789660757
0
LINE
5
138
100
AcDbEntity
8
0
100
AcDbLine
10
49.433207431204728
20
-27.772017244964271
30
0
11
55.635910037733822
21
-24.202714809092289
31
0
0
SPLINE
5
139
100
AcDbEntity
8
0
100
AcDbSpline
70
0
71
3
72
10
73
6
74
0
42
0.000000001
43
0.0000000001
44
0.0000000001
40
0
40
0
40
0
40
0
40
1.1824262243846082
40
1.1824262243846082
40
3.2589929357699368
40
3.2589929357699368
40
3.2589929357699368
40
3.2589929357699368
10
55.635910037733822
20
-24.202714809092289
30
0
10
58.652504303125426
20
-21.665993194415798
30
0
10
59.991227789753424
20
-19.421024839771217
30
0
10
61.629334346465548
20
-16.236135443671426
30
0
10
62.247525515029409
20
-13.933903037330692
30
0
10
62.838209994759133
20
-10.96359960404323
30
0
0
LINE
5
140
100
AcDbEntity
8
0
100
AcDbLine
10
62.838209994759133
20
-10.96359960404323
30
0
11
62.838209994759133
21
16.186436515637567
31
0
0
ARC
5
141
100
AcDbEntity
8
0
100
AcDbCircle
10
60.838209994759119
20
16.186436515637567
30
0
40
2.0000000000000107
210
0
220
-0
230
1
100
AcDbArc
50
0
51
89.999999999999801
0
LINE
5
142
100
AcDbEntity
8
0
100
AcDbLine
10
60.838209994759126
20
18.186436515637578
30
0
11
45.512349438958715
21
18.186436515637581
31
0
0
ARC
5
143
100
AcDbEntity
8
0
100
AcDbCircle
10
45.512349438958715
20
17.53643651563759
30
0
40
0.64999999999999503
210
0
220
-0
230
1
100
AcDbArc
50
90
51
180
0
LINE
5
144
100
AcDbEntity
8
0
100
AcDbLine
10
44.862349438958724
20
17.536436515637568
30
0
11
44.862349438958724
21
17.436436515637578
31
0
0
ARC
5
145
100
AcDbEntity
8
0
100
AcDbCircle
10
43.012863558964682
20
17.43643651563756
30
0
40
1.849485880005739
210
0
220
0
230
1
100
AcDbArc
50
-27.008094246009794
51
0
0
SPLINE
5
146
100
AcDbEntity
8
0
100
AcDbSpline
70
0
71
3
72
12
73
8
74
0
42
0.000000001
43
0.0000000001
44
0.0000000001
40
0
40
0
40
0
40
0
40
0.068082523004692017
40
0.068082523004692017
40
0.10779302599425589
40
0.10779302599425589
40
0.14676075387329351
40
0.14676075387329351
40
0.14676075387329351
40
0.14676075387329351
10
44.6606489097395
20
16.596554703647033
30
0
10
44.559374138709686
20
16.393463651093924
30
0
10
44.420243763801835
20
16.211540338064097
30
0
10
44.152802904797369
20
15.971459374070031
30
0
10
44.045034489042095
20
15.894074148190453
30
0
10
43.816371662747862
20
15.764637310683776
30
0
10
43.696748858163261
20
15.712701899164152
30
0
10
43.572618905526426
20
15.673690937757742
30
0
0
SPLINE
5
147
100
AcDbEntity
8
0
100
AcDbSpline
70
0
71
3
72
12
73
8
74
0
42
0.000000001
43
0.0000000001
44
0.0000000001
40
0
40
0
40
0
40
0
40
0.07224978651434899
40
0.07224978651434899
40
0.13109978481954368
40
0.13109978481954368
40
0.19158818471855507
40
0.19158818471855507
40
0.19158818471855507
40
0.19158818471855507
10
43.572618905526426
20
15.673690937757744
30
0
10
43.342865404360765
20
15.601485118158481
30
0
10
43.100717308135998
20
15.574536385394346
30
0
10
42.665338877091131
20
15.61031188819879
30
0
10
42.473777056470432
20
15.657133727603531
30
0
10
42.107684325156384
20
15.811031590140225
30
0
10
41.936095194855135
20
15.918835891491758
30
0
10
41.785510779621561
20
16.052713535754727
30
0
0
SPLINE
5
148
100
AcDbEntity
8
0
100
AcDbSpline
70
0
71
3
72
10
73
6
74
0
42
0.000000001
43
0.0000000001
44
0.0000000001
40
0
40
0
40
0
40
0
40
0.53103750878614897
40
0.53103750878614897
40
5.5815979024466031
40
5.5815979024466031
40
5.5815979024466031
40
5.5815979024466031
10
41.785510779621546
20
16.052713535754741
30
0
10
40.462611161127583
20
17.228842448203284
30
0
10
39.632969790146362
20
18.290114272564249
30
0
10
38.355712231761629
20
19.926827694113175
30
0
10
37.191325365747936
20
21.892568401762638
30
0
10
36.428567901042811
20
24.402886622752241
30
0
0
ARC
5
149
100
AcDbEntity
8
0
100
AcDbCircle
10
37.194013284722971
20
24.635466373840693
30
0
40
0.79999998500852532
210
0
220
0
230
1
100
AcDbArc
50
191.37400440365707
51
196.90134738925494
0
SPLINE
5
150
100
AcDbEntity
8
0
100
AcDbSpline
70
0
71
3
72
22
73
18
74
0
42
0.000000001
43
0.0000000001
44
0.0000000001
40
0
40
0
40
0
40
0
40
0.56495814364723529
40
0.56495814364723529
40
1.1287050209067759
40
1.1287050209067759
40
1.6943520130756275
40
1.6943520130756275
40
2.2602846627574786
40
2.2602846627574786
40
2.8243054589182952
40
2.8243054589182952
40
3.3886526500261058
40
3.3886526500261058
40
3.7276868004858117
40
3.7276868004858117
40
4.0664956016776692
40
4.0664956016776692
40
4.0664956016776692
40
4.0664956016776692
10
36.409724697349851
20
24.477696326842175
30
0
10
36.038335220076128
20
26.323905629797409
30
0
10
35.309751250972504
20
28.079389422024455
30
0
10
33.221390977851406
20
31.209281886407226
30
0
10
31.883230988839824
20
32.554137693792292
30
0
10
28.763476397828637
20
34.661211348037632
30
0
10
27.009211205992006
20
35.40199273892383
30
0
10
23.315972921733742
20
36.169723379247074
30
0
10
21.411803064489092
20
36.189090002631019
30
0
10
17.709289347838528
20
35.494937872834754
30
0
10
15.946513769920704
20
34.790602792715568
30
0
10
12.789282472394126
20
32.746273002214927
30
0
10
11.424843282389281
20
31.425137699169706
30
0
10
9.7072297956197744
20
28.952152439593494
30
0
10
9.1736633890571149
20
27.951742955695593
30
0
10
8.3506352660334588
20
25.847836507031854
30
0
10
8.0638289218695789
20
24.751593452022021
30
0
10
7.907558114625183
20
23.633176512421596
30
0
0
ARC
5
151
100
AcDbEntity
8
0
100
AcDbCircle
10
7.1152556525840929
20
23.743880971508418
30
0
40
0.80000000000030369
210
0
220
0
230
1
100
AcDbArc
50
316.07336663588859
51
352.04584381234412
0
SPLINE
5
152
100
AcDbEntity
8
0
100
AcDbSpline
70
0
71
3
72
14
73
10
74
0
42
0.000000001
43
0.0000000001
44
0.0000000001
40
0
40
0
40
0
40
0
40
0.41577249187667875
40
0.41577249187667875
40
0.83133036708374652
40
0.83133036708374652
40
1.0529708250629541
40
1.0529708250629541
40
1.2750605355774898
40
1.2750605355774898
40
1.2750605355774898
40
1.2750605355774898
10
7.6914386229940748
20
23.188891616105977
30
0
10
6.7299829642081841
20
22.190720864412235
30
0
10
5.58278298137982
20
21.389683698434343
30
0
10
3.0466635537659115
20
20.272674680641877
30
0
10
1.6819716612830207
20
19.967053251569212
30
0
10
-0.44148831474034378
20
19.912519834003547
30
0
10
-1.1800920962184231
20
19.970519584726183
30
0
10
-2.6347457588923788
20
20.238809006638668
30
0
10
-3.3468045958802795
20
20.448680915647877
30
0
10
-4.0313096927926102
20
20.730728166337926
30
0
0
ARC
5
153
100
AcDbEntity
8
0
100
AcDbCircle
10
-4.4926942687468259
20
19.266666138220625
30
0
40
1.5350418069562113
210
0
220
-0
230
1
100
AcDbArc
50
72.5082732026804
51
153.81000963653904
0
SPLINE
5
154
100
AcDbEntity
8
0
100
AcDbSpline
70
0
71
3
72
12
73
8
74
0
42
0.000000001
43
0.0000000001
44
0.0000000001
40
0
40
0
40
0
40
0
40
0.6420778751497348
40
0.6420778751497348
40
0.98333618274584822
40
0.98333618274584822
40
1.3241358222176018
40
1.3241358222176018
40
1.3241358222176018
40
1.3241358222176018
10
-5.8701417569953138
20
19.944155449000156
30
0
10
-6.0884465042050326
20
17.815058428305154
30
0
10
-6.7203530783644077
20
15.75308456337866
30
0
10
-8.270049629175821
20
12.863798636807147
30
0
10
-8.9121644526440527
20
11.916294082492096
30
0
10
-10.381728371110535
20
10.172492210671347
30
0
10
-11.206533848551135
20
9.3781584177773887
30
0
10
-12.10486361336935
20
8.6771779861506069
30
0
0
ARC
5
155
100
AcDbEntity
8
0
100
AcDbCircle
10
-11.797270432865714
20
8.2829871246283311
30
0
40
0.50000000000001754
210
0
220
0
230
1
100
AcDbArc
50
127.96546285926919
51
169.29761656090554
0
LINE
5
156
100
AcDbEntity
8
0
100
AcDbLine
10
-12.2885729689527
20
8.3758408700267353
30
0
11
-12.486114190945699
21
7.3306218222795732
31
0
0
ARC
5
157
100
AcDbEntity
8
0
100
AcDbCircle
10
-14.451324335121988
20
7.7020368038445781
30
0
40
1.9999999998260822
210
-0
220
0
230
1
100
AcDbArc
50
270.34399223669993
51
349.29761656079768
0
LINE
5
158
100
AcDbEntity
8
0
100
AcDbLine
10
-14.439316812996259
20
5.702072849490218
30
0
11
-21.950732350463383
21
5.6569752925729606
31
0
0
ARC
5
159
100
AcDbEntity
8
0
100
AcDbCircle
10
-22.059123318906209
20
23.710494378125677
30
0
40
18.053844465222802
210
0
220
0
230
1
100
AcDbArc
50
236.46888208602917
51
270.34399223669379
0
CIRCLE
5
160
100
AcDbEntity
8
0
100
AcDbCircle
10
-46.382068763071715
20
8.4928598897752057
30
0
40
2.3249999999999993
210
0
220
-0
230
1
0
CIRCLE
5
161
100
AcDbEntity
8
0
100
AcDbCircle
10
-26.022583129535825
20
-0.84694254997699558
30
0
40
0.49999999999999822
210
0
220
-0
230
1
0
LWPOLYLINE
5
162
100
AcDbEntity
8
0
100
AcDbPolyline
90
4
70
1
43
0.0
10
-59.500000000000028
20
15.396770158776892
10
-60.100000000000016
20
15.396770158776896
42
-0.99999999999999989
10
-60.100000000000016
20
17.603229841223119
10
-59.500000000000028
20
17.603229841223115
42
-0.99999999999999989
0
CIRCLE
5
163
100
AcDbEntity
8
0
100
AcDbCircle
10
37.100000000000001
20
11.6
30
0
40
2.6061083422530507
210
0
220
-0
230
1
0
CIRCLE
5
164
100
AcDbEntity
8
0
100
AcDbCircle
10
-47.000000000000021
20
-18.499999999999986
30
0
40
1.2224722900014662
210
0
220
-0
230
1
0
CIRCLE
5
165
100
AcDbEntity
8
0
100
AcDbCircle
10
0
20
-8.5
30
0
40
2.5285834573410222
210
0
220
-0
230
1
0
CIRCLE
5
166
100
AcDbEntity
8
0
100
AcDbCircle
10
-27.399999999999984
20
-23.499999999999993
30
0
40
0.40000000000000036
210
0
220
-0
230
1
0
LWPOLYLINE
5
167
100
AcDbEntity
8
0
100
AcDbPolyline
90
4
70
1
43
0.0
10
-26.899999999999995
20
-25.899999999999999
10
-23.100000000000005
20
-25.899999999999999
10
-23.100000000000005
20
-28.499999999999996
10
-26.899999999999995
20
-28.499999999999996
0
CIRCLE
5
168
100
AcDbEntity
8
0
100
AcDbCircle
10
-6.6000000000000014
20
-8.4999999999999911
30
0
40
0.82179498500027148
210
0
220
-0
230
1
0
CIRCLE
5
169
100
AcDbEntity
8
0
100
AcDbCircle
10
-25.000000000000018
20
-23.499999999999993
30
0
40
0.40000000000000036
210
0
220
-0
230
1
0
CIRCLE
5
170
100
AcDbEntity
8
0
100
AcDbCircle
10
-52.100000158510028
20
-22.999999999999989
30
0
40
0.54999999999999716
210
0
220
-0
230
1
0
CIRCLE
5
171
100
AcDbEntity
8
0
100
AcDbCircle
10
-55.662960446570011
20
-11.890398125739992
30
0
40
0.49999999999999822
210
0
220
-0
230
1
0
CIRCLE
5
172
100
AcDbEntity
8
0
100
AcDbCircle
10
52.100000158510028
20
-23
30
0
40
0.54999999999999716
210
0
220
-0
230
1
0
CIRCLE
5
173
100
AcDbEntity
8
0
100
AcDbCircle
10
27.399999999999984
20
-23.499999999999993
30
0
40
0.40000000000000036
210
0
220
-0
230
1
0
LWPOLYLINE
5
174
100
AcDbEntity
8
0
100
AcDbPolyline
90
4
70
1
43
0.0
10
26.899999999999995
20
-25.899999999999999
10
26.899999999999995
20
-28.499999999999996
10
23.100000000000005
20
-28.499999999999996
10
23.100000000000005
20
-25.899999999999999
0
CIRCLE
5
175
100
AcDbEntity
8
0
100
AcDbCircle
10
22.221125695945364
20
27.694740626523174
30
0
40
0.49999999999999822
210
0
220
-0
230
1
0
CIRCLE
5
176
100
AcDbEntity
8
0
100
AcDbCircle
10
22.221125695945361
20
15.069740626523176
30
0
40
0.49999999999999822
210
0
220
-0
230
1
0
CIRCLE
5
177
100
AcDbEntity
8
0
100
AcDbCircle
10
22.600000000000016
20
-23.499999999999993
30
0
40
0.40000000000000036
210
0
220
-0
230
1
0
CIRCLE
5
178
100
AcDbEntity
8
0
100
AcDbCircle
10
-48.202885841480011
20
-25.249999999999986
30
0
40
0.54999999999999716
210
0
220
-0
230
1
0
CIRCLE
5
179
100
AcDbEntity
8
0
100
AcDbCircle
10
25.000000000000018
20
-23.499999999999993
30
0
40
0.40000000000000036
210
0
220
-0
230
1
0
CIRCLE
5
180
100
AcDbEntity
8
0
100
AcDbCircle
10
48.202885841480011
20
-25.249999999999993
30
0
40
0.54999999999999716
210
0
220
-0
230
1
0
CIRCLE
5
181
100
AcDbEntity
8
0
100
AcDbCircle
10
6.6000000000000014
20
-8.4999999999999929
30
0
40
0.82179498500027148
210
0
220
-0
230
1
0
CIRCLE
5
182
100
AcDbEntity
8
0
100
AcDbCircle
10
15.908625695945362
20
21.382240626523178
30
0
40
0.49999999999999822
210
0
220
-0
230
1
0
CIRCLE
5
183
100
AcDbEntity
8
0
100
AcDbCircle
10
41.325246513242526
20
-4.3177059881395188
30
0
40
0.75000000000000178
210
0
220
-0
230
1
0
CIRCLE
5
184
100
AcDbEntity
8
0
100
AcDbCircle
10
-41.241524515860284
20
-8.5340464155735223
30
0
40
0.49999999999999822
210
0
220
-0
230
1
0
CIRCLE
5
185
100
AcDbEntity
8
0
100
AcDbCircle
10
1.4921397450962101e-15
20
4.9399999999999977
30
0
40
0.49999999999999989
210
0
220
-0
230
1
0
CIRCLE
5
186
100
AcDbEntity
8
0
100
AcDbCircle
10
28.533625695945354
20
21.382240626523171
30
0
40
0.49999999999999822
210
0
220
-0
230
1
0
CIRCLE
5
187
100
AcDbEntity
8
0
100
AcDbCircle
10
-22.600000000000016
20
-23.499999999999993
30
0
40
0.40000000000000036
210
0
220
-0
230
1
0
CIRCLE
5
188
100
AcDbEntity
8
0
100
AcDbCircle
10
40.875157289553236
20
-12.905919987029105
30
0
40
0.75000000000000178
210
0
220
-0
230
1
0
CIRCLE
5
189
100
AcDbEntity
8
0
100
AcDbCircle
10
-37.407874841174205
20
-22.771774396215694
30
0
40
0.50000000000000266
210
0
220
-0
230
1
0
ENDSEC
0
SECTION
2
OBJECTS
0
DICTIONARY
5
C
100
AcDbDictionary
3
ACAD_GROUP
350
D
3
ACAD_MLINESTYLE
350
17
0
DICTIONARY
5
D
100
AcDbDictionary
0
DICTIONARY
5
1A
330
C
100
AcDbDictionary
0
DICTIONARY
5
17
100
AcDbDictionary
0
ENDSEC
0
EOF
