0
SECTION
2
HEADER
9
$INSUNITS
70
4
9
$ACADVER
1
AC1014
9
$HANDSEED
5
FFFF
0
ENDSEC
0
SECTION
2
TABLES
0
TABLE
2
VPORT
5
8
100
AcDbSymbolTable
0
ENDTAB
0
TABLE
2
LTYPE
5
5
100
AcDbSymbolTable
0
LTYPE
5
14
100
AcDbSymbolTableRecord
100
AcDbLinetypeTableRecord
2
BYBLOCK
70
0
0
LTYPE
5
15
100
AcDbSymbolTableRecord
100
AcDbLinetypeTableRecord
2
BYLAYER
70
0
0
ENDTAB
0
TABLE
2
LAYER
5
2
100
AcDbSymbolTable
70
2
0
LAYER
5
50
100
AcDbSymbolTableRecord
100
AcDbLayerTableRecord
2
0
70
0
6
CONTINUOUS
0
ENDTAB
0
TABLE
2
STYLE
5
3
100
AcDbSymbolTable
70
1
0
STYLE
5
11
100
AcDbSymbolTableRecord
100
AcDbTextStyleTableRecord
2
STANDARD
70
0
0
ENDTAB
0
TABLE
2
VIEW
5
6
100
AcDbSymbolTable
70
0
0
ENDTAB
0
TABLE
2
UCS
5
7
100
AcDbSymbolTable
70
0
0
ENDTAB
0
TABLE
2
APPID
5
9
100
AcDbSymbolTable
70
2
0
APPID
5
12
100
AcDbSymbolTableRecord
100
AcDbRegAppTableRecord
2
ACAD
70
0
0
ENDTAB
0
TABLE
2
DIMSTYLE
5
A
100
AcDbSymbolTable
70
1
0
ENDTAB
0
TABLE
2
BLOCK_RECORD
5
1
100
AcDbSymbolTable
70
1
0
BLOCK_RECORD
5
1F
100
AcDbSymbolTableRecord
100
AcDbBlockTableRecord
2
*MODEL_SPACE
0
BLOCK_RECORD
5
1B
100
AcDbSymbolTableRecord
100
AcDbBlockTableRecord
2
*PAPER_SPACE
0
ENDTAB
0
ENDSEC
0
SECTION
2
BLOCKS
0
BLOCK
5
20
100
AcDbEntity
100
AcDbBlockBegin
2
*MODEL_SPACE
0
ENDBLK
5
21
100
AcDbEntity
100
AcDbBlockEnd
0
BLOCK
5
1C
100
AcDbEntity
100
AcDbBlockBegin
2
*PAPER_SPACE
0
ENDBLK
5
1D
100
AcDbEntity
100
AcDbBlockEnd
0
ENDSEC
0
SECTION
2
ENTITIES
0
CIRCLE
5
100
100
AcDbEntity
8
0
100
AcDbCircle
10
7.2249999995595378
20
-31.879999999937016
30
0
40
0.50000000000000044
210
0
220
0
230
1
0
CIRCLE
5
101
100
AcDbEntity
8
0
100
AcDbCircle
10
7.2249999995595378
20
-36.879999999937013
30
0
40
0.50000000000000044
210
0
220
0
230
1
0
CIRCLE
5
102
100
AcDbEntity
8
0
100
AcDbCircle
10
-11.832860423237825
20
-31.629999999937016
30
0
40
0.874999999999999
210
1.0795210693868061e-78
220
-6.1629758220391561e-33
230
1
0
CIRCLE
5
103
100
AcDbEntity
8
0
100
AcDbCircle
10
-7.2250000141706172
20
-39.379999999937013
30
0
40
0.50000000000000044
210
0
220
0
230
1
0
CIRCLE
5
104
100
AcDbEntity
8
0
100
AcDbCircle
10
-3.7249781697494289
20
-36.129999999937034
30
0
40
0.29999999999999971
210
0
220
6.1629758220391547e-33
230
1
0
CIRCLE
5
105
100
AcDbEntity
8
0
100
AcDbCircle
10
-7.2250000141706172
20
-31.879999999937016
30
0
40
0.50000000000000044
210
0
220
0
230
1
0
CIRCLE
5
106
100
AcDbEntity
8
0
100
AcDbCircle
10
-11.832860423238396
20
-35.629999999937013
30
0
40
1.0749999999999993
210
0
220
0
230
1
0
CIRCLE
5
107
100
AcDbEntity
8
0
100
AcDbCircle
10
-7.2250000141706172
20
-34.379999999937013
30
0
40
0.50000000000000044
210
0
220
0
230
1
0
CIRCLE
5
108
100
AcDbEntity
8
0
100
AcDbCircle
10
11.832860408627258
20
-31.629999999937016
30
0
40
0.874999999999999
210
1.0795210693868061e-78
220
-6.1629758220391561e-33
230
1
0
CIRCLE
5
109
100
AcDbEntity
8
0
100
AcDbCircle
10
3.7250218302500708
20
-36.129999999937041
30
0
40
0.29999999999999971
210
0
220
6.1629758220391547e-33
230
1
0
CIRCLE
5
110
100
AcDbEntity
8
0
100
AcDbCircle
10
-7.2250000141706172
20
-36.879999999937013
30
0
40
0.50000000000000044
210
0
220
0
230
1
0
CIRCLE
5
111
100
AcDbEntity
8
0
100
AcDbCircle
10
11.832860408632097
20
-35.629999999937013
30
0
40
1.0750000000000013
210
6.3108872417680958e-30
220
-6.1629758220391561e-33
230
1
0
CIRCLE
5
112
100
AcDbEntity
8
0
100
AcDbCircle
10
7.2249999995595378
20
-34.379999999937013
30
0
40
0.50000000000000044
210
0
220
0
230
1
0
CIRCLE
5
113
100
AcDbEntity
8
0
100
AcDbCircle
10
7.2249999995595378
20
-39.379999999937013
30
0
40
0.50000000000000044
210
0
220
0
230
1
0
SPLINE
5
114
100
AcDbEntity
8
0
100
AcDbSpline
70
0
71
3
72
17
73
13
74
0
42
0.000000001
43
0.0000000001
44
0.0000000001
40
-1.5439665371920412
40
-1.5439665371920412
40
-1.5439665371920412
40
-1.5439665371920412
40
-1.3031987166162846
40
-1.3031987166162846
40
-1.3031987166162846
40
-0.75246227044299308
40
-0.75246227044299308
40
-0.75246227044299308
40
-0.37134260891107312
40
-0.37134260891107312
40
-0.37134260891107312
40
0
40
0
40
0
40
0
10
14.999999992694462
20
-40.003859516599611
30
0
10
14.241421928284936
20
-40.142999233201486
30
0
10
13.487977768318558
20
-40.266228453548258
30
0
10
12.724895062421282
20
-40.374671329151759
30
0
10
10.980158640782353
20
-40.62261854807111
30
0
10
9.3173205942976161
20
-40.772495443188248
30
0
10
7.4984173963274072
20
-40.875855492949199
30
0
10
6.2412562535043845
20
-40.947294280029638
30
0
10
4.976888643826662
20
-40.989594667700977
30
0
10
3.7117110107399527
20
-41.014147080315091
30
0
10
2.4790412739135457
20
-41.038068635047019
30
0
10
1.2339215619769734
20
-41.045275394995258
30
0
10
-7.2622655843724971e-09
20
-41.045275394953535
30
0
0
LINE
5
115
100
AcDbEntity
8
0
100
AcDbLine
10
14.999999992694462
20
-40.003859516599611
30
0
11
14.999999992694462
21
-33.003859516598979
31
0
0
ARC
5
116
100
AcDbEntity
8
0
100
AcDbCircle
10
10.999999992694461
20
-33.003859516598986
30
0
40
4.0000000000000018
210
0
220
-0
230
1
100
AcDbArc
50
0
51
89.999999999999972
0
LINE
5
117
100
AcDbEntity
8
0
100
AcDbLine
10
10.999999992694462
20
-29.003859516598986
30
0
11
-11.000000007305539
21
-29.003859516598979
31
0
0
ARC
5
118
100
AcDbEntity
8
0
100
AcDbCircle
10
-11.000000007305534
20
-33.003859516598979
30
0
40
3.9999999999999991
210
0
220
0
230
1
100
AcDbArc
50
90.000000000000071
51
180
0
LINE
5
119
100
AcDbEntity
8
0
100
AcDbLine
10
-15.000000007305538
20
-33.003859516598979
30
0
11
-15.000000007305538
21
-40.003859516599611
31
0
0
SPLINE
5
120
100
AcDbEntity
8
0
100
AcDbSpline
70
0
71
3
72
17
73
13
74
0
42
0.000000001
43
0.0000000001
44
0.0000000001
40
-1.5439665371920412
40
-1.5439665371920412
40
-1.5439665371920412
40
-1.5439665371920412
40
-1.3031987166162846
40
-1.3031987166162846
40
-1.3031987166162846
40
-0.75246227044299308
40
-0.75246227044299308
40
-0.75246227044299308
40
-0.37134260891107312
40
-0.37134260891107312
40
-0.37134260891107312
40
0
40
0
40
0
40
0
10
-15.000000007305538
20
-40.003859516599611
30
0
10
-14.241421942896013
20
-40.142999233201486
30
0
10
-13.487977782929635
20
-40.266228453548258
30
0
10
-12.724895077032359
20
-40.374671329151759
30
0
10
-10.980158655393431
20
-40.62261854807111
30
0
10
-9.3173206089086928
20
-40.772495443188248
30
0
10
-7.498417410938484
20
-40.875855492949199
30
0
10
-6.2412562681154613
20
-40.947294280029638
30
0
10
-4.9768886584377388
20
-40.989594667700977
30
0
10
-3.7117110253510299
20
-41.014147080315091
30
0
10
-2.4790412885246242
20
-41.038068635047019
30
0
10
-1.2339215765880516
20
-41.045275394995258
30
0
10
-7.3488124021867826e-09
20
-41.045275394953535
30
0
0
ENDSEC
0
SECTION
2
OBJECTS
0
DICTIONARY
5
C
100
AcDbDictionary
3
ACAD_GROUP
350
D
3
ACAD_MLINESTYLE
350
17
0
DICTIONARY
5
D
100
AcDbDictionary
0
DICTIONARY
5
1A
330
C
100
AcDbDictionary
0
DICTIONARY
5
17
100
AcDbDictionary
0
ENDSEC
0
EOF
