0
SECTION
2
HEADER
9
$INSUNITS
70
4
9
$ACADVER
1
AC1014
9
$HANDSEED
5
FFFF
0
ENDSEC
0
SECTION
2
TABLES
0
TABLE
2
VPORT
5
8
100
AcDbSymbolTable
0
ENDTAB
0
TABLE
2
LTYPE
5
5
100
AcDbSymbolTable
0
LTYPE
5
14
100
AcDbSymbolTableRecord
100
AcDbLinetypeTableRecord
2
BYBLOCK
70
0
0
LTYPE
5
15
100
AcDbSymbolTableRecord
100
AcDbLinetypeTableRecord
2
BYLAYER
70
0
0
ENDTAB
0
TABLE
2
LAYER
5
2
100
AcDbSymbolTable
70
2
0
LAYER
5
50
100
AcDbSymbolTableRecord
100
AcDbLayerTableRecord
2
0
70
0
6
CONTINUOUS
0
ENDTAB
0
TABLE
2
STYLE
5
3
100
AcDbSymbolTable
70
1
0
STYLE
5
11
100
AcDbSymbolTableRecord
100
AcDbTextStyleTableRecord
2
STANDARD
70
0
0
ENDTAB
0
TABLE
2
VIEW
5
6
100
AcDbSymbolTable
70
0
0
ENDTAB
0
TABLE
2
UCS
5
7
100
AcDbSymbolTable
70
0
0
ENDTAB
0
TABLE
2
APPID
5
9
100
AcDbSymbolTable
70
2
0
APPID
5
12
100
AcDbSymbolTableRecord
100
AcDbRegAppTableRecord
2
ACAD
70
0
0
ENDTAB
0
TABLE
2
DIMSTYLE
5
A
100
AcDbSymbolTable
70
1
0
ENDTAB
0
TABLE
2
BLOCK_RECORD
5
1
100
AcDbSymbolTable
70
1
0
BLOCK_RECORD
5
1F
100
AcDbSymbolTableRecord
100
AcDbBlockTableRecord
2
*MODEL_SPACE
0
BLOCK_RECORD
5
1B
100
AcDbSymbolTableRecord
100
AcDbBlockTableRecord
2
*PAPER_SPACE
0
ENDTAB
0
ENDSEC
0
SECTION
2
BLOCKS
0
BLOCK
5
20
100
AcDbEntity
100
AcDbBlockBegin
2
*MODEL_SPACE
0
ENDBLK
5
21
100
AcDbEntity
100
AcDbBlockEnd
0
BLOCK
5
1C
100
AcDbEntity
100
AcDbBlockBegin
2
*PAPER_SPACE
0
ENDBLK
5
1D
100
AcDbEntity
100
AcDbBlockEnd
0
ENDSEC
0
SECTION
2
ENTITIES
0
ARC
5
100
100
AcDbEntity
8
0
100
AcDbCircle
10
48.058321073774323
20
-1.5200000000000058
30
0
40
0.500000000000006
210
0
220
0
230
1
100
AcDbArc
50
90.000000000001634
51
170.57757239722415
0
ARC
5
101
100
AcDbEntity
8
0
100
AcDbCircle
10
46.920998995212557
20
-1.3312601318977468
30
0
40
0.65287651038404293
210
0
220
0
230
1
100
AcDbArc
50
189.42242760277531
51
350.57757239722474
0
ARC
5
102
100
AcDbEntity
8
0
100
AcDbCircle
10
45.783676916650791
20
-1.5200000000000053
30
0
40
0.50000000000000933
210
0
220
-0
230
1
100
AcDbArc
50
9.4224276027757696
51
89.99999999999919
0
LINE
5
103
100
AcDbEntity
8
0
100
AcDbLine
10
45.783676916650798
20
-1.019999999999996
30
0
11
40.600000000000009
21
-1.0199999999999989
31
0
0
LINE
5
104
100
AcDbEntity
8
0
100
AcDbLine
10
40.350000000000001
20
-1.27
30
0
11
40.350000000000001
21
-4.2699999999999996
31
0
0
LINE
5
105
100
AcDbEntity
8
0
100
AcDbLine
10
40.600000000000009
20
-4.5199999999999996
30
0
11
41.349999999999994
21
-4.5199999999999996
31
0
0
LINE
5
106
100
AcDbEntity
8
0
100
AcDbLine
10
41.349999999999994
20
-4.5199999999999996
30
0
11
41.349999999999994
21
-18.822524730159948
31
0
0
SPLINE
5
107
100
AcDbEntity
8
0
100
AcDbSpline
70
0
71
3
72
11
73
7
74
0
42
0.000000001
43
0.0000000001
44
0.0000000001
40
-0.48007832358601688
40
-0.48007832358601688
40
-0.48007832358601688
40
-0.48007832358601688
40
-0.084665142227955598
40
-0.084665142227955598
40
-0.084665142227955598
40
0.47311190201821007
40
0.47311190201821007
40
0.47311190201821007
40
0.47311190201821007
10
48.380581069756012
20
-19.245404052018323
30
0
10
47.518982441919782
20
-19.693200234866676
30
0
10
46.567416708707142
20
-19.97107994852675
30
0
10
45.60190889735324
20
-20.052042239610945
30
0
10
44.239945971980006
20
-20.166249123815568
30
0
10
42.842527571264888
20
-19.888830622390344
30
0
10
41.623171651013912
20
-19.268112993129531
30
0
0
LINE
5
108
100
AcDbEntity
8
0
100
AcDbLine
10
48.650000000000006
20
-18.801746109149974
30
0
11
48.650000000000006
21
-4.5199999999999996
31
0
0
LINE
5
109
100
AcDbEntity
8
0
100
AcDbLine
10
48.650000000000006
20
-4.5199999999999996
30
0
11
49.399999999999991
21
-4.5199999999999996
31
0
0
LINE
5
110
100
AcDbEntity
8
0
100
AcDbLine
10
49.649999999999999
20
-4.2699999999999996
30
0
11
49.649999999999999
21
-1.2699999999999989
31
0
0
LINE
5
111
100
AcDbEntity
8
0
100
AcDbLine
10
49.399999999999991
20
-1.0199999999999985
30
0
11
48.058321073774309
21
-1.0199999999999998
31
0
0
CIRCLE
5
112
100
AcDbEntity
8
0
100
AcDbCircle
10
45
20
-13.670000000000002
30
0
40
0.49999999999999822
210
0
220
-0
230
1
0
SPLINE
5
113
100
AcDbEntity
8
0
100
AcDbSpline
70
0
71
3
72
12
73
8
74
0
42
0.000000001
43
0.0000000001
44
0.0000000001
40
0
40
0
40
0
40
0
40
0.019532223669346063
40
0.019532223669346063
40
0.037128997473091563
40
0.037128997473091563
40
0.054725771276836636
40
0.054725771276836636
40
0.054725771276836636
40
0.054725771276836636
10
48.650000000000006
20
-18.801746109149978
30
0
10
48.650000000000006
20
-18.866853521381131
30
0
10
48.637283074617692
20
-18.931338471265072
30
0
10
48.590296282477112
20
-19.045835641348845
30
0
10
48.558651489916613
20
-19.095760523560482
30
0
10
48.479510126958232
20
-19.182355610245509
30
0
10
48.432627392868625
20
-19.218354165832167
30
0
10
48.380581069756026
20
-19.245404052018316
30
0
0
ARC
5
114
100
AcDbEntity
8
0
100
AcDbCircle
10
49.400000000000006
20
-4.2699999999999996
30
0
40
0.25000000000000022
210
0
220
0
230
1
100
AcDbArc
50
-90.000000000003254
51
0
0
ARC
5
115
100
AcDbEntity
8
0
100
AcDbCircle
10
49.400000000000006
20
-1.2699999999999991
30
0
40
0.24999999999999467
210
0
220
-0
230
1
100
AcDbArc
50
0
51
90.000000000003254
0
ARC
5
116
100
AcDbEntity
8
0
100
AcDbCircle
10
40.599999999999994
20
-1.27
30
0
40
0.25000000000000105
210
0
220
-0
230
1
100
AcDbArc
50
89.999999999996746
51
180
0
ARC
5
117
100
AcDbEntity
8
0
100
AcDbCircle
10
40.599999999999994
20
-4.2699999999999996
30
0
40
0.24999999999999467
210
0
220
0
230
1
100
AcDbArc
50
180
51
270.00000000000324
0
SPLINE
5
118
100
AcDbEntity
8
0
100
AcDbSpline
70
0
71
3
72
12
73
8
74
0
42
0.000000001
43
0.0000000001
44
0.0000000001
40
0
40
0
40
0
40
0
40
0.019532223669346139
40
0.019532223669346139
40
0.037341639000529503
40
0.037341639000529503
40
0.055151054331712537
40
0.055151054331712537
40
0.055151054331712537
40
0.055151054331712537
10
41.623171651013919
20
-19.268112993129527
30
0
10
41.565149453568878
20
-19.238576579483233
30
0
10
41.513451098333235
20
-19.197989524667143
30
0
10
41.432267481882612
20
-19.103636297021378
30
0
10
41.40187030897031
20
-19.052098138318691
30
0
10
41.36057250914795
20
-18.940782503326254
30
0
10
41.349999999999994
20
-18.881889447930554
30
0
10
41.349999999999994
20
-18.822524730159948
30
0
0
ENDSEC
0
SECTION
2
OBJECTS
0
DICTIONARY
5
C
100
AcDbDictionary
3
ACAD_GROUP
350
D
3
ACAD_MLINESTYLE
350
17
0
DICTIONARY
5
D
100
AcDbDictionary
0
DICTIONARY
5
1A
330
C
100
AcDbDictionary
0
DICTIONARY
5
17
100
AcDbDictionary
0
ENDSEC
0
EOF
