0
SECTION
2
HEADER
9
$INSUNITS
70
4
9
$ACADVER
1
AC1014
9
$HANDSEED
5
FFFF
0
ENDSEC
0
SECTION
2
TABLES
0
TABLE
2
VPORT
5
8
100
AcDbSymbolTable
0
ENDTAB
0
TABLE
2
LTYPE
5
5
100
AcDbSymbolTable
0
LTYPE
5
14
100
AcDbSymbolTableRecord
100
AcDbLinetypeTableRecord
2
BYBLOCK
70
0
0
LTYPE
5
15
100
AcDbSymbolTableRecord
100
AcDbLinetypeTableRecord
2
BYLAYER
70
0
0
ENDTAB
0
TABLE
2
LAYER
5
2
100
AcDbSymbolTable
70
2
0
LAYER
5
50
100
AcDbSymbolTableRecord
100
AcDbLayerTableRecord
2
0
70
0
6
CONTINUOUS
0
ENDTAB
0
TABLE
2
STYLE
5
3
100
AcDbSymbolTable
70
1
0
STYLE
5
11
100
AcDbSymbolTableRecord
100
AcDbTextStyleTableRecord
2
STANDARD
70
0
0
ENDTAB
0
TABLE
2
VIEW
5
6
100
AcDbSymbolTable
70
0
0
ENDTAB
0
TABLE
2
UCS
5
7
100
AcDbSymbolTable
70
0
0
ENDTAB
0
TABLE
2
APPID
5
9
100
AcDbSymbolTable
70
2
0
APPID
5
12
100
AcDbSymbolTableRecord
100
AcDbRegAppTableRecord
2
ACAD
70
0
0
ENDTAB
0
TABLE
2
DIMSTYLE
5
A
100
AcDbSymbolTable
70
1
0
ENDTAB
0
TABLE
2
BLOCK_RECORD
5
1
100
AcDbSymbolTable
70
1
0
BLOCK_RECORD
5
1F
100
AcDbSymbolTableRecord
100
AcDbBlockTableRecord
2
*MODEL_SPACE
0
BLOCK_RECORD
5
1B
100
AcDbSymbolTableRecord
100
AcDbBlockTableRecord
2
*PAPER_SPACE
0
ENDTAB
0
ENDSEC
0
SECTION
2
BLOCKS
0
BLOCK
5
20
100
AcDbEntity
100
AcDbBlockBegin
2
*MODEL_SPACE
0
ENDBLK
5
21
100
AcDbEntity
100
AcDbBlockEnd
0
BLOCK
5
1C
100
AcDbEntity
100
AcDbBlockBegin
2
*PAPER_SPACE
0
ENDBLK
5
1D
100
AcDbEntity
100
AcDbBlockEnd
0
ENDSEC
0
SECTION
2
ENTITIES
0
ARC
5
100
100
AcDbEntity
8
0
100
AcDbCircle
10
-45.739688771282928
20
-1.3199999999999972
30
0
40
0.49999999999999722
210
0
220
-0
230
1
100
AcDbArc
50
90
51
180
0
LINE
5
101
100
AcDbEntity
8
0
100
AcDbLine
10
-46.239688771282921
20
-1.3200000000000001
30
0
11
-46.239688771282921
21
-1.7200000000000004
31
0
0
ARC
5
102
100
AcDbEntity
8
0
100
AcDbCircle
10
-46.839688771282923
20
-1.7200000000000004
30
0
40
0.59999999999999998
210
-0
220
0
230
1
100
AcDbArc
50
-90
51
0
0
LINE
5
103
100
AcDbEntity
8
0
100
AcDbLine
10
-46.839688771282923
20
-2.3200000000000003
30
0
11
-47.139688771282934
21
-2.3200000000000003
31
0
0
ARC
5
104
100
AcDbEntity
8
0
100
AcDbCircle
10
-47.139688771282934
20
-1.7200000000000004
30
0
40
0.59999999999999609
210
0
220
0
230
1
100
AcDbArc
50
180
51
270
0
LINE
5
105
100
AcDbEntity
8
0
100
AcDbLine
10
-47.739688771282928
20
-1.7200000000000004
30
0
11
-47.739688771282928
21
-1.3200000000000001
31
0
0
ARC
5
106
100
AcDbEntity
8
0
100
AcDbCircle
10
-48.239688771282928
20
-1.3199999999999972
30
0
40
0.49999999999999822
210
0
220
0
230
1
100
AcDbArc
50
0
51
90
0
LINE
5
107
100
AcDbEntity
8
0
100
AcDbLine
10
-48.239688771282928
20
-0.81999999999999906
30
0
11
-49.588454511238503
21
-0.82000000000000017
31
0
0
LINE
5
108
100
AcDbEntity
8
0
100
AcDbLine
10
-49.588454511238503
20
-0.82000000000000017
30
0
11
-49.588454511238503
21
-4.5200000000000005
31
0
0
LINE
5
109
100
AcDbEntity
8
0
100
AcDbLine
10
-49.588454511238503
20
-4.5200000000000005
30
0
11
-49.050000000000004
21
-4.5200000000000005
31
0
0
LINE
5
110
100
AcDbEntity
8
0
100
AcDbLine
10
-49.050000000000004
20
-4.5200000000000005
30
0
11
-49.050000000000004
21
-16.986547622084395
31
0
0
LINE
5
111
100
AcDbEntity
8
0
100
AcDbLine
10
-46.716547622084398
20
-19.32
30
0
11
-43.283452377915609
21
-19.32
31
0
0
LINE
5
112
100
AcDbEntity
8
0
100
AcDbLine
10
-40.950000000000003
20
-16.986547622084398
30
0
11
-40.950000000000003
21
-4.5199999999999996
31
0
0
LINE
5
113
100
AcDbEntity
8
0
100
AcDbLine
10
-40.950000000000003
20
-4.5199999999999996
30
0
11
-40.411545488761504
21
-4.5200000000000005
31
0
0
LINE
5
114
100
AcDbEntity
8
0
100
AcDbLine
10
-40.411545488761504
20
-4.5200000000000005
30
0
11
-40.411545488761504
21
-0.82000000000000017
31
0
0
LINE
5
115
100
AcDbEntity
8
0
100
AcDbLine
10
-40.411545488761504
20
-0.82000000000000017
30
0
11
-45.739688771282928
21
-0.82000000000000006
31
0
0
CIRCLE
5
116
100
AcDbEntity
8
0
100
AcDbCircle
10
-45.205671848803362
20
-1.8986220379101679
30
0
40
0.49999999999999889
210
0
220
0
230
1
0
CIRCLE
5
117
100
AcDbEntity
8
0
100
AcDbCircle
10
-42.605671848803368
20
-1.8986220379101679
30
0
40
0.49999999999999889
210
0
220
0
230
1
0
SPLINE
5
118
100
AcDbEntity
8
0
100
AcDbSpline
70
0
71
3
72
16
73
12
74
0
42
0.000000001
43
0.0000000001
44
0.0000000001
40
0
40
0
40
0
40
0
40
0.063912789573066092
40
0.063912789573066092
40
0.14488781852529345
40
0.14488781852529345
40
0.23410725645164315
40
0.23410725645164315
40
0.27276351262059528
40
0.27276351262059528
40
0.30534121609353299
40
0.30534121609353299
40
0.30534121609353299
40
0.30534121609353299
10
-40.950000000000003
20
-16.986547622084398
30
0
10
-40.950000000000003
20
-17.199590253994618
30
0
10
-40.995122169548324
20
-17.42653051736729
30
0
10
-41.196179880028573
20
-17.946231087923714
30
0
10
-41.374406400698916
20
-18.22924908813637
30
0
10
-41.853047032129815
20
-18.754079658731115
30
0
10
-42.154402891075065
20
-18.978105029485075
30
0
10
-42.610334724516285
20
-19.189902647201709
30
0
10
-42.754999853349517
20
-19.241317551240151
30
0
10
-43.027650606968315
20
-19.303719325429771
30
0
10
-43.155681011448372
20
-19.32
30
0
10
-43.283452377915609
20
-19.32
30
0
0
SPLINE
5
119
100
AcDbEntity
8
0
100
AcDbSpline
70
0
71
3
72
16
73
12
74
0
42
0.000000001
43
0.0000000001
44
0.0000000001
40
0
40
0
40
0
40
0
40
0.063912789572896964
40
0.063912789572896964
40
0.14488781852482746
40
0.14488781852482746
40
0.23410725645102776
40
0.23410725645102776
40
0.2727635126199191
40
0.2727635126199191
40
0.30534121609279463
40
0.30534121609279463
40
0.30534121609279463
40
0.30534121609279463
10
-46.716547622084398
20
-19.32
30
0
10
-46.92959025399405
20
-19.32
30
0
10
-47.156530517366654
20
-19.274877830451942
30
0
10
-47.676231087924272
20
-19.073820119971234
30
0
10
-47.959249088136858
20
-18.895593599300643
30
0
10
-48.48407965873114
20
-18.416952967870188
30
0
10
-48.708105029485075
20
-18.115597108924931
30
0
10
-48.919902647201702
20
-17.659665275483746
30
0
10
-48.971317551240148
20
-17.515000146650507
30
0
10
-49.033719325429757
20
-17.242349393031734
30
0
10
-49.050000000000004
20
-17.114318988551652
30
0
10
-49.050000000000004
20
-16.986547622084395
30
0
0
CIRCLE
5
120
100
AcDbEntity
8
0
100
AcDbCircle
10
-45.062586753637113
20
-13.670000000000002
30
0
40
2.525003807838571
210
0
220
-0
230
1
0
ENDSEC
0
SECTION
2
OBJECTS
0
DICTIONARY
5
C
100
AcDbDictionary
3
ACAD_GROUP
350
D
3
ACAD_MLINESTYLE
350
17
0
DICTIONARY
5
D
100
AcDbDictionary
0
DICTIONARY
5
1A
330
C
100
AcDbDictionary
0
DICTIONARY
5
17
100
AcDbDictionary
0
ENDSEC
0
EOF
