0
SECTION
2
HEADER
9
$INSUNITS
70
4
9
$ACADVER
1
AC1014
9
$HANDSEED
5
FFFF
0
ENDSEC
0
SECTION
2
TABLES
0
TABLE
2
VPORT
5
8
100
AcDbSymbolTable
0
ENDTAB
0
TABLE
2
LTYPE
5
5
100
AcDbSymbolTable
0
LTYPE
5
14
100
AcDbSymbolTableRecord
100
AcDbLinetypeTableRecord
2
BYBLOCK
70
0
0
LTYPE
5
15
100
AcDbSymbolTableRecord
100
AcDbLinetypeTableRecord
2
BYLAYER
70
0
0
ENDTAB
0
TABLE
2
LAYER
5
2
100
AcDbSymbolTable
70
2
0
LAYER
5
50
100
AcDbSymbolTableRecord
100
AcDbLayerTableRecord
2
0
70
0
6
CONTINUOUS
0
ENDTAB
0
TABLE
2
STYLE
5
3
100
AcDbSymbolTable
70
1
0
STYLE
5
11
100
AcDbSymbolTableRecord
100
AcDbTextStyleTableRecord
2
STANDARD
70
0
0
ENDTAB
0
TABLE
2
VIEW
5
6
100
AcDbSymbolTable
70
0
0
ENDTAB
0
TABLE
2
UCS
5
7
100
AcDbSymbolTable
70
0
0
ENDTAB
0
TABLE
2
APPID
5
9
100
AcDbSymbolTable
70
2
0
APPID
5
12
100
AcDbSymbolTableRecord
100
AcDbRegAppTableRecord
2
ACAD
70
0
0
ENDTAB
0
TABLE
2
DIMSTYLE
5
A
100
AcDbSymbolTable
70
1
0
ENDTAB
0
TABLE
2
BLOCK_RECORD
5
1
100
AcDbSymbolTable
70
1
0
BLOCK_RECORD
5
1F
100
AcDbSymbolTableRecord
100
AcDbBlockTableRecord
2
*MODEL_SPACE
0
BLOCK_RECORD
5
1B
100
AcDbSymbolTableRecord
100
AcDbBlockTableRecord
2
*PAPER_SPACE
0
ENDTAB
0
ENDSEC
0
SECTION
2
BLOCKS
0
BLOCK
5
20
100
AcDbEntity
100
AcDbBlockBegin
2
*MODEL_SPACE
0
ENDBLK
5
21
100
AcDbEntity
100
AcDbBlockEnd
0
BLOCK
5
1C
100
AcDbEntity
100
AcDbBlockBegin
2
*PAPER_SPACE
0
ENDBLK
5
1D
100
AcDbEntity
100
AcDbBlockEnd
0
ENDSEC
0
SECTION
2
ENTITIES
0
CIRCLE
5
100
100
AcDbEntity
8
0
100
AcDbCircle
10
-53.006516096143379
20
16.222179833955309
30
0
40
0.24999999999999467
210
0
220
-0
230
1
0
CIRCLE
5
101
100
AcDbEntity
8
0
100
AcDbCircle
10
58.854706235651939
20
15.220293764724818
30
0
40
0.30000000000000249
210
0
220
-0
230
1
0
CIRCLE
5
102
100
AcDbEntity
8
0
100
AcDbCircle
10
51.404706235652434
20
15.220293764724817
30
0
40
0.30000000000000249
210
0
220
-0
230
1
0
ARC
5
103
100
AcDbEntity
8
0
100
AcDbCircle
10
50.357492698463837
20
19.132079748125914
30
0
40
3.0000000000000027
210
0
220
-0
230
1
100
AcDbArc
50
89.999999999999872
51
180
0
LINE
5
104
100
AcDbEntity
8
0
100
AcDbLine
10
47.357492698463837
20
19.132079748125971
30
0
11
47.357492698463794
21
16.336522631094017
31
0
0
ARC
5
105
100
AcDbEntity
8
0
100
AcDbCircle
10
44.357492698463794
20
16.336522631094027
30
0
40
3.0000000000000027
210
0
220
0
230
1
100
AcDbArc
50
270
51
360
0
LINE
5
106
100
AcDbEntity
8
0
100
AcDbLine
10
44.357492698463794
20
13.336522631094024
30
0
11
42.45650946986531
21
13.33652263109402
31
0
0
SPLINE
5
107
100
AcDbEntity
8
0
100
AcDbSpline
70
4
71
5
72
21
73
15
74
0
42
0.000000001
43
0.0000000001
44
0.0000000001
40
0
40
0
40
0
40
0
40
0
40
0
40
0.10000000000000001
40
0.20000000000000001
40
0.30000000000000004
40
0.40000000000000002
40
0.5
40
0.59999999999999998
40
0.69999999999999996
40
0.79999999999999993
40
0.89999999999999991
40
1
40
1
40
1
40
1
40
1
40
1
41
1
41
1
41
1
41
1
41
1
41
1
41
1
41
1
41
1
41
1
41
1
41
1
41
1
41
1
41
1
10
35.784270592980455
20
24.339219522909602
30
0
10
35.861453325634741
20
24.047747496261568
30
0
10
36.005709640964113
20
23.464970285311413
30
0
10
36.191766677953993
20
22.591305906325381
30
0
10
36.392946404678042
20
21.428241787621381
30
0
10
36.641355572202052
20
19.985828822557
30
0
10
36.978334181948611
20
18.571855544555575
30
0
10
37.486667513240796
20
17.214904742722219
30
0
10
38.218001810087777
20
15.957452898335823
30
0
10
39.155364780608998
20
14.860061339028032
30
0
10
40.230460459904819
20
13.995080593654723
30
0
10
41.133762286943764
20
13.546990069324389
30
0
10
41.802517352307277
20
13.374790942461184
30
0
10
42.239919140794768
20
13.336522631094024
30
0
10
42.45650946986531
20
13.33652263109402
30
0
0
SPLINE
5
108
100
AcDbEntity
8
0
100
AcDbSpline
70
0
71
3
72
14
73
10
74
0
42
0.000000001
43
0.0000000001
44
0.0000000001
40
2.0428063975194504
40
2.0428063975194504
40
2.0428063975194504
40
2.0428063975194504
40
2.0715241771227166
40
2.0715241771227166
40
2.0715241771227166
40
2.2372626850793131
40
2.2372626850793131
40
2.2372626850793131
40
2.3158423109196402
40
2.3158423109196402
40
2.3158423109196402
40
2.3158423109196402
10
35.784270592980455
20
24.339219522909602
30
0
10
35.756787327272789
20
24.474049305073606
30
0
10
35.72650946426117
20
24.612103401613918
30
0
10
35.693072154080753
20
24.753417108007973
30
0
10
35.500090893885158
20
25.568999970256307
30
0
10
35.23172101023912
20
26.367045346891263
30
0
10
34.891182900213707
20
27.13825214378739
30
0
10
34.72975792943447
20
27.503826600767901
30
0
10
34.552607183703671
20
27.862159258748559
30
0
10
34.360178439655037
20
28.212410982121384
30
0
0
SPLINE
5
109
100
AcDbEntity
8
0
100
AcDbSpline
70
0
71
3
72
35
73
31
74
0
42
0.000000001
43
0.0000000001
44
0.0000000001
40
9.5640945117255391
40
9.5640945117255391
40
9.5640945117255391
40
9.5640945117255391
40
9.9675171894041377
40
9.9675171894041377
40
9.9675171894041377
40
10.495774003775139
40
10.495774003775139
40
10.495774003775139
40
11.050721049865071
40
11.050721049865071
40
11.050721049865071
40
11.629642349882332
40
11.629642349882332
40
11.629642349882332
40
12.223114386112108
40
12.223114386112108
40
12.223114386112108
40
12.813877574898122
40
12.813877574898122
40
12.813877574898122
40
12.842192641041843
40
12.842192641041843
40
12.842192641041843
40
13.321272497369064
40
13.321272497369064
40
13.321272497369064
40
13.32936642088576
40
13.32936642088576
40
13.32936642088576
40
13.369440533453641
40
13.369440533453641
40
13.369440533453641
40
13.369440533453641
10
34.360178794022296
20
28.21241117681442
30
0
10
33.771503400919059
20
29.28176754082207
30
0
10
33.041216133543713
20
30.275899727407602
30
0
10
32.181013365222775
20
31.167391104529642
30
0
10
31.054889219155754
20
32.334476357867374
30
0
10
29.733136107448914
20
33.296364367654931
30
0
10
28.274870477743441
20
34.007040943484874
30
0
10
26.742927111714003
20
34.753623900360218
30
0
10
25.086358505129191
20
35.210339114057028
30
0
10
23.387660746843132
20
35.353144976456591
30
0
10
21.615585259739913
20
35.502119546499145
30
0
10
19.831857949590528
20
35.306571587988998
30
0
10
18.134533369482416
20
34.777351409567743
30
0
10
16.394559714173816
20
34.234833390856174
30
0
10
14.779685459054754
20
33.352310516634887
30
0
10
13.383386577735042
20
32.18137469986916
30
0
10
11.993454834456443
20
31.015778363126216
30
0
10
10.847212666672368
20
29.587136730532549
30
0
10
10.010490724199927
20
27.977772479688863
30
0
10
9.9703870828004639
20
27.900636499955578
30
0
10
9.9310286006368642
20
27.823150927668916
30
0
10
9.8924188576822143
20
27.745326726928802
30
0
10
9.2391583497493386
20
26.428574192091432
30
0
10
8.8007068746790225
20
25.015814209410845
30
0
10
8.5936907588053639
20
23.560544535397856
30
0
10
8.5901932560246568
20
23.535957996760221
30
0
10
8.5867624740432902
20
23.511364001554913
30
0
10
8.583398418602199
20
23.486762829107526
30
0
10
8.5652322830882248
20
23.353914771069281
30
0
10
8.5470661475742506
20
23.221066713031036
30
0
10
8.5289000120602765
20
23.088218654992794
30
0
0
SPLINE
5
110
100
AcDbEntity
8
0
100
AcDbSpline
70
0
71
3
72
17
73
13
74
0
42
0.000000001
43
0.0000000001
44
0.0000000001
40
-3.4837166869534228
40
-3.4837166869534228
40
-3.4837166869534228
40
-3.4837166869534228
40
-3.1058236777839165
40
-3.1058236777839165
40
-3.1058236777839165
40
-2.7321440753043014
40
-2.7321440753043014
40
-2.7321440753043014
40
-2.6594985359890937
40
-2.6594985359890937
40
-2.6594985359890937
40
-2.6191348596213566
40
-2.6191348596213566
40
-2.6191348596213566
40
-2.6191348596213566
10
-0.0029625299986805725
20
19.268536959912545
30
0
10
1.4107647230043532
20
19.262210236246517
30
0
10
2.8133668351803638
20
19.520920825390277
30
0
10
4.1326737536944238
20
20.032216939922996
30
0
10
5.4373488079710608
20
20.537842489685694
30
0
10
6.6371273573001517
20
21.281456856652884
30
0
10
7.6706781068286967
20
22.225382087965055
30
0
10
7.8716062233648092
20
22.408886496398782
30
0
10
8.0655504934644942
20
22.599320781801243
30
0
10
8.252194989910496
20
22.796256558559783
30
0
10
8.3444299972937568
20
22.893577257370783
30
0
10
8.4366650046770175
20
22.990897956181783
30
0
10
8.5289000120602854
20
23.08821865499279
30
0
0
SPLINE
5
111
100
AcDbEntity
8
0
100
AcDbSpline
70
0
71
3
72
11
73
7
74
0
42
0.000000001
43
0.0000000001
44
0.0000000001
40
-4.8282536659009807
40
-4.8282536659009807
40
-4.8282536659009807
40
-4.8282536659009807
40
-4.5085128124934997
40
-4.5085128124934997
40
-4.5085128124934997
40
-4.4853245665742927
40
-4.4853245665742927
40
-4.4853245665742927
40
-4.4853245665742927
10
-3.7677402875879911
20
19.914807200561718
30
0
10
-2.6423734924898818
20
19.516987187325686
30
0
10
-1.4596464199895043
20
19.29944723342803
30
0
10
-0.26318600646109636
20
19.271599322416336
30
0
10
-0.17641560953804336
20
19.269579720042
30
0
10
-0.089668781764541711
20
19.26855992933611
30
0
10
-0.0029625299986322596
20
19.26853695992342
30
0
0
ARC
5
112
100
AcDbEntity
8
0
100
AcDbCircle
10
-4.1343679465302161
20
17.431025025469559
30
0
40
2.510695069817718
210
0
220
-0
230
1
100
AcDbArc
50
81.603282137822561
51
153.6936514377964
0
SPLINE
5
113
100
AcDbEntity
8
0
100
AcDbSpline
70
0
71
3
72
11
73
7
74
0
42
0.000000001
43
0.0000000001
44
0.0000000001
40
-1.3762994879624277
40
-1.3762994879624277
40
-1.3762994879624277
40
-1.3762994879624277
40
-1.024197680674737
40
-1.024197680674737
40
-1.024197680674737
40
-1.0107820878621694
40
-1.0107820878621694
40
-1.0107820878621694
40
-1.0107820878621694
10
-6.3850487308868429
20
18.543691067937814
30
0
10
-6.7510922011923649
20
16.688758306392952
30
0
10
-7.4377866680324054
20
14.896944610917146
30
0
10
-8.4206481162561957
20
13.281547158780057
30
0
10
-8.4580965720937638
20
13.219998157895143
30
0
10
-8.4959623251617487
20
13.158704083167869
30
0
10
-8.5342410358452465
20
13.097669719923985
30
0
0
SPLINE
5
114
100
AcDbEntity
8
0
100
AcDbSpline
70
0
71
3
72
10
73
6
74
0
42
0.000000001
43
0.0000000001
44
0.0000000001
40
0
40
0
40
0
40
0
40
0.14026740177384189
40
0.14026740177384189
40
0.2805348035476839
40
0.2805348035476839
40
0.2805348035476839
40
0.2805348035476839
10
-9.2983792279988702
20
10.441078904921373
30
0
10
-9.2983792282369588
20
10.908636910834179
30
0
10
-9.232796081805926
20
11.373892287387594
30
0
10
-8.974301498904925
20
12.272570486846933
30
0
10
-8.7826630964049368
20
12.701567499884213
30
0
10
-8.5342410358452447
20
13.097669719923985
30
0
0
LINE
5
115
100
AcDbEntity
8
0
100
AcDbLine
10
-9.2983792279988702
20
10.441078904921373
30
0
11
-9.2983792268859915
21
8.2556144187940195
31
0
0
SPLINE
5
116
100
AcDbEntity
8
0
100
AcDbSpline
70
0
71
3
72
14
73
10
74
0
42
0.000000001
43
0.0000000001
44
0.0000000001
40
0
40
0
40
0
40
0
40
0.058596671008039065
40
0.058596671008039065
40
0.11719334201607816
40
0.11719334201607816
40
0.1618044881201906
40
0.1618044881201906
40
0.20641563422430315
40
0.20641563422430315
40
0.20641563422430315
40
0.20641563422430315
10
-10.502974361081643
20
6.7849900726383794
30
0
10
-10.31147727009645
20
6.8234561653844059
30
0
10
-10.129324278947065
20
6.8989581414496604
30
0
10
-9.8042121876657173
20
7.1155343005494505
30
0
10
-9.6643613363261824
20
7.2545378974598673
30
0
10
-9.4718944674864165
20
7.539687739335772
30
0
10
-9.4074904791610088
20
7.6746313566266764
30
0
10
-9.3204920529207804
20
7.9590299828099695
30
0
10
-9.2983792268102796
20
8.1069105984469783
30
0
10
-9.2983792268860022
20
8.2556144187940195
30
0
0
SPLINE
5
117
100
AcDbEntity
8
0
100
AcDbSpline
70
0
71
3
72
17
73
13
74
0
42
0.000000001
43
0.0000000001
44
0.0000000001
40
-0.95247689481790743
40
-0.95247689481790743
40
-0.95247689481790743
40
-0.95247689481790743
40
-0.64664492906109761
40
-0.64664492906109761
40
-0.64664492906109761
40
-0.38814371916504475
40
-0.38814371916504475
40
-0.38814371916504475
40
-0.18711522617071027
40
-0.18711522617071027
40
-0.18711522617071027
40
0
40
0
40
0
40
0
10
-10.502974361081643
20
6.7849900726383785
30
0
10
-13.177929266807048
20
6.2476708738677331
30
0
10
-16.009931534536367
20
5.8316020849315597
30
0
10
-18.916066639953755
20
5.6618864545744652
30
0
10
-21.372446367994201
20
5.518436126623901
30
0
10
-23.897443191801244
20
5.5531357744323415
30
0
10
-26.101952116979884
20
6.0618822178936576
30
0
10
-27.816331354119342
20
6.4575187833332572
30
0
10
-29.296918038645995
20
7.1733533908957909
30
0
10
-30.494143602414749
20
7.784089482348949
30
0
10
-31.608508679748638
20
8.3525562712140182
30
0
10
-32.492880392198614
20
8.7662150150487577
30
0
10
-33.157442323605402
20
8.7662150150487612
30
0
0
LINE
5
118
100
AcDbEntity
8
0
100
AcDbLine
10
-33.157442323605402
20
8.7662150150487612
30
0
11
-36.980526241266837
21
8.7662150150487612
31
0
0
ARC
5
119
100
AcDbEntity
8
0
100
AcDbCircle
10
-36.980526241266837
20
11.341215015048757
30
0
40
2.5749999999999984
210
0
220
0
230
1
100
AcDbArc
50
180
51
270
0
LINE
5
120
100
AcDbEntity
8
0
100
AcDbLine
10
-39.555526241266833
20
11.341215015048757
30
0
11
-39.555526241266833
21
12.33652263109402
31
0
0
ARC
5
121
100
AcDbEntity
8
0
100
AcDbCircle
10
-40.555526241266833
20
12.33652263109402
30
0
40
0.99999999999999645
210
0
220
0
230
1
100
AcDbArc
50
0
51
90
0
LINE
5
122
100
AcDbEntity
8
0
100
AcDbLine
10
-40.555526241266833
20
13.336522631094017
30
0
11
-44.357492698463794
21
13.33652263109402
31
0
0
ARC
5
123
100
AcDbEntity
8
0
100
AcDbCircle
10
-44.357492698463787
20
16.336522631094027
30
0
40
3.0000000000000071
210
0
220
0
230
1
100
AcDbArc
50
180
51
269.99999999999983
0
LINE
5
124
100
AcDbEntity
8
0
100
AcDbLine
10
-47.357492698463794
20
16.336522631094017
30
0
11
-47.357492698463808
21
17.382079748125918
31
0
0
ARC
5
125
100
AcDbEntity
8
0
100
AcDbCircle
10
-50.357492698463808
20
17.382079748125921
30
0
40
2.9999999999999982
210
0
220
0
230
1
100
AcDbArc
50
0
51
90
0
LINE
5
126
100
AcDbEntity
8
0
100
AcDbLine
10
-50.357492698463808
20
20.382079748125925
30
0
11
-59.838209994759154
21
20.382079748125896
31
0
0
ARC
5
127
100
AcDbEntity
8
0
100
AcDbCircle
10
-59.838209994759161
20
17.382079748125925
30
0
40
2.9999999999999716
210
0
220
-0
230
1
100
AcDbArc
50
89.999999999999872
51
180
0
LINE
5
128
100
AcDbEntity
8
0
100
AcDbLine
10
-62.838209994759133
20
17.382079748125893
30
0
11
-62.838209994759133
21
-10.96359960404323
31
0
0
SPLINE
5
129
100
AcDbEntity
8
0
100
AcDbSpline
70
0
71
3
72
12
73
8
74
0
42
0.000000001
43
0.0000000001
44
0.0000000001
40
-1.768020783191002
40
-1.768020783191002
40
-1.768020783191002
40
-1.768020783191002
40
-1.269311635548811
40
-1.269311635548811
40
-0.83868856779615886
40
-0.83868856779615886
40
0
40
0
40
0
40
0
10
-55.635910037733822
20
-24.202714809092289
30
0
10
-56.946405186700588
20
-23.100690115731307
30
0
10
-58.194496150077043
20
-21.839897487496739
30
0
10
-60.095575275601007
20
-19.272262411790638
30
0
10
-60.636293041051289
20
-18.227070583622151
30
0
10
-61.770732469535062
20
-15.63462531248614
30
0
10
-62.292939216905395
20
-13.705536660306077
30
0
10
-62.838209994759133
20
-10.96359960404323
30
0
0
LINE
5
130
100
AcDbEntity
8
0
100
AcDbLine
10
-55.635910037733822
20
-24.202714809092289
30
0
11
-49.433207431204721
21
-27.772017244964282
31
0
0
ARC
5
131
100
AcDbEntity
8
0
100
AcDbCircle
10
-39.45801294265781
20
-10.437211364433981
30
0
40
20.00000000000011
210
0
220
0
230
1
100
AcDbArc
50
240.08202210339249
51
269.99999999999989
0
LINE
5
132
100
AcDbEntity
8
0
100
AcDbLine
10
-39.458012942657838
20
-30.437211364434091
30
0
11
-10.582860423238575
21
-30.437211364434098
31
0
0
ARC
5
133
100
AcDbEntity
8
0
100
AcDbCircle
10
-10.582860423238573
20
-31.937211364434095
30
0
40
1.4999999999999925
210
0
220
-0
230
1
100
AcDbArc
50
0
51
90.000000000000071
0
LINE
5
134
100
AcDbEntity
8
0
100
AcDbLine
10
-9.0828604232385821
20
-31.937211364434091
30
0
11
-9.0828604232385715
21
-39.838599286449757
31
0
0
SPLINE
5
135
100
AcDbEntity
8
0
100
AcDbSpline
70
0
71
3
72
14
73
10
74
0
42
0.000000001
43
0.0000000001
44
0.0000000001
40
0
40
0
40
0
40
0
40
0.039064447338692916
40
0.039064447338692916
40
0.078128894677385402
40
0.078128894677385402
40
0.1146020676323512
40
0.1146020676323512
40
0.15107524058731769
40
0.15107524058731769
40
0.15107524058731769
40
0.15107524058731769
10
-8.1473110911627629
20
-40.836520180811689
30
0
10
-8.2772551852493734
20
-40.828127748401464
30
0
10
-8.4043177143018468
20
-40.794434581117201
30
0
10
-8.6383757048301355
20
-40.680239751510697
30
0
10
-8.7431334443450393
20
-40.600829854000473
30
0
10
-8.9105696128696064
20
-40.412775673512449
30
0
10
-8.9741831096885551
20
-40.307987073550812
30
0
10
-9.060688884148524
20
-40.080740829962032
30
0
10
-9.0828604232385715
20
-39.960176529632975
30
0
10
-9.0828604232385715
20
-39.838599286449757
30
0
0
SPLINE
5
136
100
AcDbEntity
8
0
100
AcDbSpline
70
0
71
3
72
14
73
10
74
0
42
0.000000001
43
0.0000000001
44
0.0000000001
40
0
40
0
40
0
40
0
40
0.37134260891107312
40
0.37134260891107312
40
0.37134260891107312
40
0.75246227044299308
40
0.75246227044299308
40
0.75246227044299308
40
0.81859377466105498
40
0.81859377466105498
40
0.81859377466105498
40
0.81859377466105498
10
-7.3489883848949638e-09
20
-41.045275394953535
30
0
10
-1.2339215765882274
20
-41.045275394995258
30
0
10
-2.4790412885248001
20
-41.038068635047019
30
0
10
-3.7117110253512058
20
-41.014147080315091
30
0
10
-4.9768886584379155
20
-40.989594667700977
30
0
10
-6.2412562681156381
20
-40.947294280029638
30
0
10
-7.4984174109386608
20
-40.875855492949199
30
0
10
-7.7168282412815721
20
-40.863444192382033
30
0
10
-7.9329887991645931
20
-40.850362174649455
30
0
10
-8.1473110911627646
20
-40.836520180811689
30
0
0
SPLINE
5
137
100
AcDbEntity
8
0
100
AcDbSpline
70
0
71
3
72
14
73
10
74
0
42
0.000000001
43
0.0000000001
44
0.0000000001
40
0
40
0
40
0
40
0
40
0.37134260891107312
40
0.37134260891107312
40
0.37134260891107312
40
0.75246227044299308
40
0.75246227044299308
40
0.75246227044299308
40
0.81859377466105498
40
0.81859377466105498
40
0.81859377466105498
40
0.81859377466105498
10
7.3489928257870623e-09
20
-41.045275394953535
30
0
10
1.2339215765882319
20
-41.045275394995258
30
0
10
2.4790412885248045
20
-41.038068635047019
30
0
10
3.7117110253512102
20
-41.014147080315091
30
0
10
4.9768886584379199
20
-40.989594667700977
30
0
10
6.2412562681156425
20
-40.947294280029638
30
0
10
7.4984174109386643
20
-40.875855492949199
30
0
10
7.7168282412815774
20
-40.863444192382033
30
0
10
7.9329887991645966
20
-40.850362174649455
30
0
10
8.1473110911627682
20
-40.836520180811689
30
0
0
SPLINE
5
138
100
AcDbEntity
8
0
100
AcDbSpline
70
0
71
3
72
14
73
10
74
0
42
0.000000001
43
0.0000000001
44
0.0000000001
40
0
40
0
40
0
40
0
40
0.039064447338693187
40
0.039064447338693187
40
0.078128894677385582
40
0.078128894677385582
40
0.11460206763235142
40
0.11460206763235142
40
0.15107524058731756
40
0.15107524058731756
40
0.15107524058731756
40
0.15107524058731756
10
9.0828604232385732
20
-39.838599286449757
30
0
10
9.0828604232385732
20
-39.968814110912071
30
0
10
9.0574265724739487
20
-40.097784010679959
30
0
10
8.9585543598040545
20
-40.338715302962136
30
0
10
8.8860612701414272
20
-40.448373261004498
30
0
10
8.709189447056394
20
-40.62758152958547
30
0
10
8.6087186460227088
20
-40.697816462482884
30
0
10
8.3875202263234545
20
-40.798788554482009
30
0
10
8.2686355624142251
20
-40.828684446284157
30
0
10
8.1473110911627682
20
-40.836520180811689
30
0
0
LINE
5
139
100
AcDbEntity
8
0
100
AcDbLine
10
9.0828604232385732
20
-39.838599286449757
30
0
11
9.0828604232385768
21
-31.937211364434084
31
0
0
ARC
5
140
100
AcDbEntity
8
0
100
AcDbCircle
10
10.582860423238573
20
-31.937211364434084
30
0
40
1.4999999999999991
210
0
220
-0
230
1
100
AcDbArc
50
89.99999999999973
51
180
0
LINE
5
141
100
AcDbEntity
8
0
100
AcDbLine
10
10.58286042323858
20
-30.437211364434088
30
0
11
39.458012942657852
21
-30.437211364434091
31
0
0
ARC
5
142
100
AcDbEntity
8
0
100
AcDbCircle
10
39.458012942657867
20
-10.437211364434162
30
0
40
19.999999999999929
210
0
220
0
230
1
100
AcDbArc
50
269.99999999999994
51
299.91797789660762
0
LINE
5
143
100
AcDbEntity
8
0
100
AcDbLine
10
49.433207431204721
20
-27.772017244964275
30
0
11
55.635910037733822
21
-24.202714809092289
31
0
0
SPLINE
5
144
100
AcDbEntity
8
0
100
AcDbSpline
70
0
71
3
72
10
73
6
74
0
42
0.000000001
43
0.0000000001
44
0.0000000001
40
-3.2589929357699368
40
-3.2589929357699368
40
-3.2589929357699368
40
-3.2589929357699368
40
-1.1824262243846082
40
-1.1824262243846082
40
0
40
0
40
0
40
0
10
62.838209994759133
20
-10.96359960404323
30
0
10
62.247525515029409
20
-13.933903037330692
30
0
10
61.629334346465548
20
-16.236135443671426
30
0
10
59.991227789753424
20
-19.421024839771217
30
0
10
58.652504303125426
20
-21.665993194415798
30
0
10
55.635910037733822
20
-24.202714809092289
30
0
0
LINE
5
145
100
AcDbEntity
8
0
100
AcDbLine
10
62.838209994759133
20
-10.96359960404323
30
0
11
62.838209994759133
21
19.132079748125921
31
0
0
ARC
5
146
100
AcDbEntity
8
0
100
AcDbCircle
10
59.838209994759168
20
19.132079748125935
30
0
40
2.9999999999999627
210
0
220
0
230
1
100
AcDbArc
50
0
51
90
0
LINE
5
147
100
AcDbEntity
8
0
100
AcDbLine
10
59.838209994759168
20
22.132079748125896
30
0
11
50.357492698463844
21
22.132079748125918
31
0
0
CIRCLE
5
148
100
AcDbEntity
8
0
100
AcDbCircle
10
-55.049999999999997
20
1
30
0
40
1.086002651214246
210
0
220
0
230
1
0
CIRCLE
5
149
100
AcDbEntity
8
0
100
AcDbCircle
10
55.049999999999997
20
1
30
0
40
1.086002651214246
210
0
220
0
230
1
0
CIRCLE
5
150
100
AcDbEntity
8
0
100
AcDbCircle
10
-4.6193402039517581e-10
20
-38.795275394953535
30
0
40
0.92500000000000016
210
0
220
0
230
1
0
CIRCLE
5
151
100
AcDbEntity
8
0
100
AcDbCircle
10
2.7755575615628914e-15
20
-8.4499999999999993
30
0
40
2.6995428417758838
210
0
220
0
230
1
0
CIRCLE
5
152
100
AcDbEntity
8
0
100
AcDbCircle
10
36.980526241266837
20
11.491215015048761
30
0
40
2.5749999999999984
210
0
220
0
230
1
0
CIRCLE
5
153
100
AcDbEntity
8
0
100
AcDbCircle
10
52.100000158510028
20
-23
30
0
40
0.54999999999999716
210
0
220
0
230
1
0
CIRCLE
5
154
100
AcDbEntity
8
0
100
AcDbCircle
10
48.202885841480011
20
-25.249999999999993
30
0
40
0.54999999999999716
210
0
220
0
230
1
0
CIRCLE
5
155
100
AcDbEntity
8
0
100
AcDbCircle
10
58.382068763071715
20
9.4928598897752039
30
0
40
1.1249999999999982
210
0
220
0
230
1
0
LWPOLYLINE
5
156
100
AcDbEntity
8
0
100
AcDbPolyline
90
4
70
1
43
0.0
10
-59.500000000000028
20
15.296770158776891
10
-60.100000000000016
20
15.296770158776896
42
-0.99999999999999989
10
-60.100000000000016
20
17.70322984122312
10
-59.500000000000028
20
17.703229841223116
42
-0.99999999999999989
0
CIRCLE
5
157
100
AcDbEntity
8
0
100
AcDbCircle
10
-58.382068763071715
20
9.4928598897752057
30
0
40
1.1249999999999982
210
0
220
0
230
1
0
CIRCLE
5
158
100
AcDbEntity
8
0
100
AcDbCircle
10
-48.202885841480011
20
-25.249999999999986
30
0
40
0.54999999999999716
210
0
220
0
230
1
0
CIRCLE
5
159
100
AcDbEntity
8
0
100
AcDbCircle
10
-52.100000158510028
20
-22.999999999999989
30
0
40
0.54999999999999716
210
0
220
0
230
1
0
CIRCLE
5
160
100
AcDbEntity
8
0
100
AcDbCircle
10
6.6499999999999106
20
-8.4499999999997897
30
0
40
0.77882478585491566
210
0
220
0
230
1
0
CIRCLE
5
161
100
AcDbEntity
8
0
100
AcDbCircle
10
-6.6499999999999106
20
-8.4500000000002107
30
0
40
0.77882478585491455
210
0
220
0
230
1
0
CIRCLE
5
162
100
AcDbEntity
8
0
100
AcDbCircle
10
-7.2250000004406374
20
-31.879999999937013
30
0
40
0.40000000000000036
210
0
220
0
230
1
0
CIRCLE
5
163
100
AcDbEntity
8
0
100
AcDbCircle
10
-7.2250000004406374
20
-34.379999999937013
30
0
40
0.40000000000000036
210
0
220
0
230
1
0
CIRCLE
5
164
100
AcDbEntity
8
0
100
AcDbCircle
10
-7.2250000004406374
20
-36.879999999937013
30
0
40
0.40000000000000036
210
0
220
0
230
1
0
CIRCLE
5
165
100
AcDbEntity
8
0
100
AcDbCircle
10
-7.2250000004406374
20
-39.379999999937013
30
0
40
0.40000000000000036
210
0
220
0
230
1
0
CIRCLE
5
166
100
AcDbEntity
8
0
100
AcDbCircle
10
7.2249999995593628
20
-39.379999999937013
30
0
40
0.40000000000000036
210
0
220
0
230
1
0
CIRCLE
5
167
100
AcDbEntity
8
0
100
AcDbCircle
10
7.2249999995593628
20
-36.879999999937013
30
0
40
0.40000000000000036
210
0
220
0
230
1
0
CIRCLE
5
168
100
AcDbEntity
8
0
100
AcDbCircle
10
7.2249999995593628
20
-34.379999999937013
30
0
40
0.40000000000000036
210
0
220
0
230
1
0
CIRCLE
5
169
100
AcDbEntity
8
0
100
AcDbCircle
10
7.2249999995593628
20
-31.879999999937013
30
0
40
0.40000000000000036
210
0
220
0
230
1
0
CIRCLE
5
170
100
AcDbEntity
8
0
100
AcDbCircle
10
27.399999999999984
20
-23.499999999999993
30
0
40
0.40000000000000036
210
0
220
0
230
1
0
CIRCLE
5
171
100
AcDbEntity
8
0
100
AcDbCircle
10
22.600000000000016
20
-23.499999999999993
30
0
40
0.40000000000000036
210
0
220
0
230
1
0
CIRCLE
5
172
100
AcDbEntity
8
0
100
AcDbCircle
10
25.000000000000018
20
-23.499999999999993
30
0
40
0.40000000000000036
210
0
220
0
230
1
0
LWPOLYLINE
5
173
100
AcDbEntity
8
0
100
AcDbPolyline
90
4
70
1
43
0.0
10
26.899999999999999
20
-25.899999999999999
10
26.899999999999999
20
-28.499999999999996
10
23.100000000000009
20
-28.499999999999996
10
23.100000000000009
20
-25.899999999999999
0
CIRCLE
5
174
100
AcDbEntity
8
0
100
AcDbCircle
10
-22.600000000000016
20
-23.499999999999993
30
0
40
0.40000000000000036
210
0
220
0
230
1
0
CIRCLE
5
175
100
AcDbEntity
8
0
100
AcDbCircle
10
-27.399999999999984
20
-23.499999999999993
30
0
40
0.40000000000000036
210
0
220
0
230
1
0
CIRCLE
5
176
100
AcDbEntity
8
0
100
AcDbCircle
10
-25.000000000000018
20
-23.499999999999993
30
0
40
0.40000000000000036
210
0
220
0
230
1
0
LWPOLYLINE
5
177
100
AcDbEntity
8
0
100
AcDbPolyline
90
4
70
1
43
0.0
10
-23.100000000000005
20
-25.899999999999999
10
-23.100000000000005
20
-28.499999999999996
10
-26.899999999999995
20
-28.499999999999996
10
-26.899999999999995
20
-25.899999999999999
0
CIRCLE
5
178
100
AcDbEntity
8
0
100
AcDbCircle
10
-46.949999999995697
20
-18.4400000000002
30
0
40
1.1000000000000032
210
0
220
0
230
1
0
CIRCLE
5
179
100
AcDbEntity
8
0
100
AcDbCircle
10
-25.973655796223699
20
-0.79186024152525114
30
0
40
2.7499999999999991
210
0
220
0
230
1
0
CIRCLE
5
180
100
AcDbEntity
8
0
100
AcDbCircle
10
-41.149999999995607
20
-8.3500000000001826
30
0
40
2.7499999999999991
210
0
220
0
230
1
0
CIRCLE
5
181
100
AcDbEntity
8
0
100
AcDbCircle
10
-37.407874841174198
20
-22.7217743962157
30
0
40
2.7499999999999991
210
0
220
0
230
1
0
CIRCLE
5
182
100
AcDbEntity
8
0
100
AcDbCircle
10
-55.662960446570004
20
-11.840398125740002
30
0
40
2.7500000000000036
210
0
220
0
230
1
0
CIRCLE
5
183
100
AcDbEntity
8
0
100
AcDbCircle
10
22.25
20
21.560000000000002
30
0
40
2.0000000000000018
210
0
220
0
230
1
0
CIRCLE
5
184
100
AcDbEntity
8
0
100
AcDbCircle
10
22.25
20
29.410000000000004
30
0
40
2.0000000000000018
210
0
220
0
230
1
0
CIRCLE
5
185
100
AcDbEntity
8
0
100
AcDbCircle
10
30.100000000000001
20
21.560000000000002
30
0
40
2.0000000000000018
210
0
220
0
230
1
0
CIRCLE
5
186
100
AcDbEntity
8
0
100
AcDbCircle
10
14.400000000000002
20
21.560000000000002
30
0
40
1.9999999999999996
210
0
220
0
230
1
0
CIRCLE
5
187
100
AcDbEntity
8
0
100
AcDbCircle
10
22.25
20
13.710000000000003
30
0
40
2.0000000000000018
210
0
220
0
230
1
0
CIRCLE
5
188
100
AcDbEntity
8
0
100
AcDbCircle
10
3.4123553275822685e-15
20
10.549999999999997
30
0
40
2.6995428417758838
210
0
220
0
230
1
0
CIRCLE
5
189
100
AcDbEntity
8
0
100
AcDbCircle
10
-44.382068763071707
20
9.4928598897752057
30
0
40
2.4750000000000023
210
0
220
0
230
1
0
CIRCLE
5
190
100
AcDbEntity
8
0
100
AcDbCircle
10
51.756596342689846
20
-18.956601245440556
30
0
40
1.2249999999999963
210
0
220
0
230
1
0
CIRCLE
5
191
100
AcDbEntity
8
0
100
AcDbCircle
10
30.543392907093427
20
2.2566021901558679
30
0
40
1.2250000000000005
210
0
220
0
230
1
0
CIRCLE
5
192
100
AcDbEntity
8
0
100
AcDbCircle
10
60.338209994759133
20
0.52056813333308138
30
0
40
0.49999999999999822
210
0
220
-0
230
1
0
CIRCLE
5
193
100
AcDbEntity
8
0
100
AcDbCircle
10
-60.338341180479119
20
3.5205681304648002
30
0
40
0.49999999999999822
210
0
220
-0
230
1
0
CIRCLE
5
194
100
AcDbEntity
8
0
100
AcDbCircle
10
23.58820999475914
20
6.289930684321301
30
0
40
1.4999999999999991
210
0
220
-0
230
1
0
CIRCLE
5
195
100
AcDbEntity
8
0
100
AcDbCircle
10
60.338341180479119
20
3.5205681304648007
30
0
40
0.49999999999999822
210
0
220
-0
230
1
0
CIRCLE
5
196
100
AcDbEntity
8
0
100
AcDbCircle
10
-60.338209994759133
20
0.5205681333330815
30
0
40
0.49999999999999822
210
0
220
-0
230
1
0
CIRCLE
5
197
100
AcDbEntity
8
0
100
AcDbCircle
10
28.08820999475914
20
6.289930684321301
30
0
40
1.4999999999999991
210
0
220
-0
230
1
0
CIRCLE
5
198
100
AcDbEntity
8
0
100
AcDbCircle
10
40.924950013046981
20
-12.64410652708702
30
0
40
0.75000000000000178
210
0
220
-0
230
1
0
CIRCLE
5
199
100
AcDbEntity
8
0
100
AcDbCircle
10
41.375039236736285
20
-4.0558925281976732
30
0
40
0.75000000000000178
210
0
220
-0
230
1
0
ENDSEC
0
SECTION
2
OBJECTS
0
DICTIONARY
5
C
100
AcDbDictionary
3
ACAD_GROUP
350
D
3
ACAD_MLINESTYLE
350
17
0
DICTIONARY
5
D
100
AcDbDictionary
0
DICTIONARY
5
1A
330
C
100
AcDbDictionary
0
DICTIONARY
5
17
100
AcDbDictionary
0
ENDSEC
0
EOF
