M48
; DRILL file {KiCad 7.0.6} date Wed Nov  8 16:21:40 2023
; FORMAT={-:-/ absolute / inch / decimal}
; #@! TF.CreationDate,2023-11-08T16:21:40-08:00
; #@! TF.GenerationSoftware,Kicad,Pcbnew,7.0.6
; #@! TF.FileFunction,Plated,1,2,PTH
FMAT,2
INCH
; #@! TA.AperFunction,Plated,PTH,ComponentDrill
T1C0.0157
; #@! TA.AperFunction,Plated,PTH,ComponentDrill
T2C0.0197
; #@! TA.AperFunction,Plated,PTH,ComponentDrill
T3C0.0236
; #@! TA.AperFunction,Plated,PTH,ComponentDrill
T4C0.0315
; #@! TA.AperFunction,Plated,PTH,ComponentDrill
T5C0.0354
; #@! TA.AperFunction,Plated,PTH,ComponentDrill
T6C0.0433
; #@! TA.AperFunction,Plated,PTH,ComponentDrill
T7C0.0472
; #@! TA.AperFunction,Plated,PTH,ComponentDrill
T8C0.0591
%
G90
G05
T1
X8.4847Y-3.523
X8.5103Y-3.4954
X8.5418Y-3.4954
X8.5576Y-3.523
X8.5733Y-3.4954
X8.5891Y-3.523
X8.6206Y-3.523
X8.6363Y-3.4954
X8.6521Y-3.523
X8.6678Y-3.4954
X8.6993Y-3.4954
X8.7249Y-3.523
T2
X8.4454Y-3.5387
X8.7643Y-3.5387
T3
X8.4277Y-3.5604
X8.782Y-3.5604
T4
X7.5221Y-3.9927
X7.6206Y-3.9927
X7.719Y-3.9927
X9.4906Y-3.9927
X9.5891Y-3.9927
X9.6875Y-3.9927
T5
X6.5809Y-4.6857
X6.5943Y-4.4301
X6.7579Y-4.6949
X6.7713Y-4.4394
T6
X6.5536Y-4.0123
X6.7071Y-3.9238
X10.5026Y-3.9238
X10.656Y-4.0123
T7
X6.7771Y-4.8172
X6.8032Y-4.3198
X7.1702Y-4.8378
X7.1963Y-4.3404
T8
X6.5602Y-4.1222
X6.7989Y-3.9844
X10.4107Y-3.9844
X10.6494Y-4.1222
T3
G00X8.4277Y-3.3163
M15
G01X8.4277Y-3.3517
M16
G05
G00X8.782Y-3.3163
M15
G01X8.782Y-3.3517
M16
G05
T4
G00X7.4493Y-4.4316
M15
G01X7.4493Y-4.4592
M16
G05
G00X7.7918Y-4.4316
M15
G01X7.7918Y-4.4592
M16
G05
G00X9.4178Y-4.4316
M15
G01X9.4178Y-4.4592
M16
G05
G00X9.7603Y-4.4316
M15
G01X9.7603Y-4.4592
M16
G05
T0
M30
