M48
; DRILL file {KiCad 7.0.6} date Thu Nov 30 12:48:32 2023
; FORMAT={-:-/ absolute / inch / decimal}
; #@! TF.CreationDate,2023-11-30T12:48:32-08:00
; #@! TF.GenerationSoftware,Kicad,Pcbnew,7.0.6
; #@! TF.FileFunction,Plated,1,2,PTH
FMAT,2
INCH
; #@! TA.AperFunction,Plated,PTH,ComponentDrill
T1C0.0157
; #@! TA.AperFunction,Plated,PTH,ComponentDrill
T2C0.0197
; #@! TA.AperFunction,Plated,PTH,ComponentDrill
T3C0.0236
; #@! TA.AperFunction,Plated,PTH,ComponentDrill
T4C0.0315
; #@! TA.AperFunction,Plated,PTH,ComponentDrill
T5C0.0354
; #@! TA.AperFunction,Plated,PTH,ComponentDrill
T6C0.0374
; #@! TA.AperFunction,Plated,PTH,ComponentDrill
T7C0.0433
; #@! TA.AperFunction,Plated,PTH,ComponentDrill
T8C0.0472
%
G90
G05
T1
X6.3112Y-5.4903
X6.3368Y-5.5179
X6.3683Y-5.5179
X6.384Y-5.4903
X6.3998Y-5.5179
X6.4155Y-5.4903
X6.447Y-5.4903
X6.4628Y-5.5179
X6.4785Y-5.4903
X6.4943Y-5.5179
X6.5257Y-5.5179
X6.5513Y-5.4903
T2
X6.2718Y-5.4746
X6.5907Y-5.4746
T3
X6.2541Y-5.4529
X6.6084Y-5.4529
T4
X7.519Y-3.9935
X7.6175Y-3.9935
X7.7159Y-3.9935
X9.4875Y-3.9935
X9.586Y-3.9935
X9.6844Y-3.9935
T5
X6.5759Y-4.6968
X6.5893Y-4.4412
X6.7528Y-4.7061
X6.7662Y-4.4505
T6
X8.3173Y-3.3683
X8.3173Y-3.4667
X8.3173Y-3.5651
X8.3173Y-3.6636
X8.8862Y-3.3683
X8.8862Y-3.4667
X8.8862Y-3.5651
X8.8862Y-3.6636
T7
X6.5505Y-4.0132
X6.704Y-3.9246
X10.4995Y-3.9246
X10.6529Y-4.0132
T8
X6.772Y-4.8283
X6.7981Y-4.331
X7.1652Y-4.8489
X7.1913Y-4.3516
T3
G00X6.2541Y-5.697
M15
G01X6.2541Y-5.6616
M16
G05
G00X6.6084Y-5.697
M15
G01X6.6084Y-5.6616
M16
G05
T4
G00X7.4462Y-4.4325
M15
G01X7.4462Y-4.46
M16
G05
G00X7.7887Y-4.4325
M15
G01X7.7887Y-4.46
M16
G05
G00X9.4147Y-4.4325
M15
G01X9.4147Y-4.46
M16
G05
G00X9.7572Y-4.4325
M15
G01X9.7572Y-4.46
M16
G05
T0
M30
