%TF.GenerationSoftware,KiCad,Pcbnew,7.0.6*%
%TF.CreationDate,2023-11-30T12:48:28-08:00*%
%TF.ProjectId,UGC_Main,5547435f-4d61-4696-9e2e-6b696361645f,rev?*%
%TF.SameCoordinates,Original*%
%TF.FileFunction,Soldermask,Bot*%
%TF.FilePolarity,Negative*%
%FSLAX46Y46*%
G04 Gerber Fmt 4.6, Leading zero omitted, Abs format (unit mm)*
G04 Created by KiCad (PCBNEW 7.0.6) date 2023-11-30 12:48:28*
%MOMM*%
%LPD*%
G01*
G04 APERTURE LIST*
G04 Aperture macros list*
%AMRoundRect*
0 Rectangle with rounded corners*
0 $1 Rounding radius*
0 $2 $3 $4 $5 $6 $7 $8 $9 X,Y pos of 4 corners*
0 Add a 4 corners polygon primitive as box body*
4,1,4,$2,$3,$4,$5,$6,$7,$8,$9,$2,$3,0*
0 Add four circle primitives for the rounded corners*
1,1,$1+$1,$2,$3*
1,1,$1+$1,$4,$5*
1,1,$1+$1,$6,$7*
1,1,$1+$1,$8,$9*
0 Add four rect primitives between the rounded corners*
20,1,$1+$1,$2,$3,$4,$5,0*
20,1,$1+$1,$4,$5,$6,$7,0*
20,1,$1+$1,$6,$7,$8,$9,0*
20,1,$1+$1,$8,$9,$2,$3,0*%
%AMHorizOval*
0 Thick line with rounded ends*
0 $1 width*
0 $2 $3 position (X,Y) of the first rounded end (center of the circle)*
0 $4 $5 position (X,Y) of the second rounded end (center of the circle)*
0 Add line between two ends*
20,1,$1,$2,$3,$4,$5,0*
0 Add two circle primitives to create the rounded ends*
1,1,$1,$2,$3*
1,1,$1,$4,$5*%
G04 Aperture macros list end*
%ADD10C,2.050000*%
%ADD11C,1.750000*%
%ADD12C,1.600000*%
%ADD13C,1.250000*%
%ADD14HorizOval,2.250000X-0.250000X0.433013X0.250000X-0.433013X0*%
%ADD15HorizOval,1.700000X0.259808X0.150000X-0.259808X-0.150000X0*%
%ADD16HorizOval,2.250000X-0.250000X-0.433013X0.250000X0.433013X0*%
%ADD17HorizOval,1.700000X0.259808X-0.150000X-0.259808X0.150000X0*%
%ADD18C,0.700000*%
%ADD19RoundRect,0.102000X0.175000X-0.445000X0.175000X0.445000X-0.175000X0.445000X-0.175000X-0.445000X0*%
%ADD20C,0.804000*%
%ADD21O,1.204000X2.204000*%
%ADD22C,1.104000*%
%ADD23O,1.600000X2.500000*%
%ADD24O,1.250000X2.500000*%
%ADD25O,2.250000X3.250000*%
%ADD26O,3.250000X2.250000*%
G04 APERTURE END LIST*
D10*
%TO.C,J7*%
X211258657Y-88054400D03*
%TD*%
%TO.C,J8*%
X225708657Y-88054400D03*
%TD*%
%TO.C,J12*%
X225708657Y-93054400D03*
%TD*%
%TO.C,J6*%
X225708657Y-85554400D03*
%TD*%
%TO.C,J10*%
X225708657Y-90554400D03*
%TD*%
D11*
%TO.C,SW6*%
X172671539Y-110006388D03*
X172009489Y-122639052D03*
D12*
X177558707Y-112290293D03*
X177108617Y-120878507D03*
D11*
X182657835Y-110529748D03*
X181995785Y-123162412D03*
D13*
X171861497Y-113043156D03*
X171521313Y-119534248D03*
X167367664Y-112807644D03*
X167027480Y-119298736D03*
%TD*%
D10*
%TO.C,J11*%
X211258657Y-93054400D03*
%TD*%
D14*
%TO.C,SW7*%
X163618112Y-100644336D03*
X170546316Y-96644336D03*
D15*
X166643465Y-101784400D03*
X170020963Y-99834400D03*
%TD*%
D16*
%TO.C,SW8*%
X266420998Y-96644336D03*
X273349202Y-100644336D03*
D17*
X266946351Y-99834400D03*
X270323849Y-101784400D03*
%TD*%
D10*
%TO.C,J9*%
X211258657Y-90554400D03*
%TD*%
%TO.C,J5*%
X211258657Y-85554400D03*
%TD*%
D18*
%TO.C,J4*%
X167078951Y-140154694D03*
X159628951Y-140154694D03*
D19*
X166103951Y-138249694D03*
X165603951Y-138249694D03*
X165103951Y-138249694D03*
X164603951Y-138249694D03*
X164103951Y-138249694D03*
X163603951Y-138249694D03*
X163103951Y-138249694D03*
X162603951Y-138249694D03*
X162103951Y-138249694D03*
X161603951Y-138249694D03*
X161103951Y-138249694D03*
X160603951Y-138249694D03*
D20*
X160303951Y-139454694D03*
X160953951Y-140154694D03*
X161753951Y-140154694D03*
X162153951Y-139454694D03*
X162553951Y-140154694D03*
X162953951Y-139454694D03*
X163753951Y-139454694D03*
X164153951Y-140154694D03*
X164553951Y-139454694D03*
X164953951Y-140154694D03*
X165753951Y-140154694D03*
X166403951Y-139454694D03*
D21*
X167853951Y-144254694D03*
D22*
X167403951Y-139054694D03*
D21*
X167853951Y-138504694D03*
X158853951Y-144254694D03*
D22*
X159303951Y-139054694D03*
D21*
X158853951Y-138504694D03*
%TD*%
D23*
%TO.C,RV2*%
X247833657Y-112934400D03*
X239133657Y-112934400D03*
D24*
X245983657Y-101434400D03*
X243483657Y-101434400D03*
X240983657Y-101434400D03*
%TD*%
D25*
%TO.C,J1*%
X194594000Y-131306000D03*
X190694000Y-131306000D03*
%TD*%
D26*
%TO.C,J3*%
X279259600Y-128960400D03*
X279259600Y-125060400D03*
%TD*%
%TO.C,J2*%
X157518800Y-124988800D03*
X157518800Y-128888800D03*
%TD*%
D23*
%TO.C,RV1*%
X197833657Y-112934400D03*
X189133657Y-112934400D03*
D24*
X195983657Y-101434400D03*
X193483657Y-101434400D03*
X190983657Y-101434400D03*
%TD*%
M02*
