%TF.GenerationSoftware,KiCad,Pcbnew,7.0.6*%
%TF.CreationDate,2023-11-30T12:48:28-08:00*%
%TF.ProjectId,UGC_Main,5547435f-4d61-4696-9e2e-6b696361645f,rev?*%
%TF.SameCoordinates,Original*%
%TF.FileFunction,Legend,Bot*%
%TF.FilePolarity,Positive*%
%FSLAX46Y46*%
G04 Gerber Fmt 4.6, Leading zero omitted, Abs format (unit mm)*
G04 Created by KiCad (PCBNEW 7.0.6) date 2023-11-30 12:48:28*
%MOMM*%
%LPD*%
G01*
G04 APERTURE LIST*
%ADD10C,0.150000*%
%ADD11C,0.127000*%
%ADD12C,0.200000*%
%ADD13C,0.100000*%
G04 APERTURE END LIST*
D10*
X164914979Y-135313852D02*
X164914979Y-136029521D01*
X164914979Y-136029521D02*
X164962691Y-136172655D01*
X164962691Y-136172655D02*
X165058113Y-136268078D01*
X165058113Y-136268078D02*
X165201247Y-136315789D01*
X165201247Y-136315789D02*
X165296670Y-136315789D01*
X164008465Y-135647831D02*
X164008465Y-136315789D01*
X164247021Y-135266141D02*
X164485577Y-135981810D01*
X164485577Y-135981810D02*
X163865331Y-135981810D01*
D11*
%TO.C,J4*%
X168178951Y-147904694D02*
X168178951Y-145654694D01*
X168178951Y-142904694D02*
X168178951Y-139904694D01*
X167103951Y-137904694D02*
X166603951Y-137904694D01*
X160103951Y-137904694D02*
X159603951Y-137904694D01*
X158528951Y-147904694D02*
X168178951Y-147904694D01*
X158528951Y-145654694D02*
X158528951Y-147904694D01*
X158528951Y-139904694D02*
X158528951Y-142904694D01*
D12*
X166203951Y-137404694D02*
G75*
G03*
X166203951Y-137404694I-100000J0D01*
G01*
D13*
%TO.C,RV2*%
X248483657Y-114684400D02*
X248483657Y-114059400D01*
X248483657Y-114684400D02*
X238483657Y-114684400D01*
X248483657Y-97934400D02*
X248483657Y-111874400D01*
X248483657Y-97934400D02*
X246073657Y-97934400D01*
X240893657Y-97934400D02*
X238483657Y-97934400D01*
X238483657Y-114684400D02*
X238483657Y-114054400D01*
X238483657Y-97934400D02*
X238483657Y-111874400D01*
D12*
%TO.C,J1*%
X194594000Y-134718000D02*
X194594000Y-133818000D01*
X190244000Y-134268000D02*
X191144000Y-134268000D01*
X194152000Y-134268000D02*
X195052000Y-134268000D01*
%TO.C,J3*%
X275847600Y-128960400D02*
X276747600Y-128960400D01*
X276297600Y-124610400D02*
X276297600Y-125510400D01*
X276297600Y-128518400D02*
X276297600Y-129418400D01*
%TO.C,J2*%
X160930800Y-124988800D02*
X160030800Y-124988800D01*
X160480800Y-129338800D02*
X160480800Y-128438800D01*
X160480800Y-125430800D02*
X160480800Y-124530800D01*
D13*
%TO.C,RV1*%
X198483657Y-114684400D02*
X198483657Y-114059400D01*
X198483657Y-114684400D02*
X188483657Y-114684400D01*
X198483657Y-97934400D02*
X198483657Y-111874400D01*
X198483657Y-97934400D02*
X196073657Y-97934400D01*
X190893657Y-97934400D02*
X188483657Y-97934400D01*
X188483657Y-114684400D02*
X188483657Y-114054400D01*
X188483657Y-97934400D02*
X188483657Y-111874400D01*
%TD*%
M02*
