%TF.GenerationSoftware,KiCad,Pcbnew,7.0.6*%
%TF.CreationDate,2023-11-08T16:21:37-08:00*%
%TF.ProjectId,UGC_Main,5547435f-4d61-4696-9e2e-6b696361645f,rev?*%
%TF.SameCoordinates,Original*%
%TF.FileFunction,Soldermask,Bot*%
%TF.FilePolarity,Negative*%
%FSLAX46Y46*%
G04 Gerber Fmt 4.6, Leading zero omitted, Abs format (unit mm)*
G04 Created by KiCad (PCBNEW 7.0.6) date 2023-11-08 16:21:37*
%MOMM*%
%LPD*%
G01*
G04 APERTURE LIST*
G04 Aperture macros list*
%AMRoundRect*
0 Rectangle with rounded corners*
0 $1 Rounding radius*
0 $2 $3 $4 $5 $6 $7 $8 $9 X,Y pos of 4 corners*
0 Add a 4 corners polygon primitive as box body*
4,1,4,$2,$3,$4,$5,$6,$7,$8,$9,$2,$3,0*
0 Add four circle primitives for the rounded corners*
1,1,$1+$1,$2,$3*
1,1,$1+$1,$4,$5*
1,1,$1+$1,$6,$7*
1,1,$1+$1,$8,$9*
0 Add four rect primitives between the rounded corners*
20,1,$1+$1,$2,$3,$4,$5,0*
20,1,$1+$1,$4,$5,$6,$7,0*
20,1,$1+$1,$6,$7,$8,$9,0*
20,1,$1+$1,$8,$9,$2,$3,0*%
%AMHorizOval*
0 Thick line with rounded ends*
0 $1 width*
0 $2 $3 position (X,Y) of the first rounded end (center of the circle)*
0 $4 $5 position (X,Y) of the second rounded end (center of the circle)*
0 Add line between two ends*
20,1,$1,$2,$3,$4,$5,0*
0 Add two circle primitives to create the rounded ends*
1,1,$1,$2,$3*
1,1,$1,$4,$5*%
G04 Aperture macros list end*
%ADD10C,1.750000*%
%ADD11C,1.600000*%
%ADD12C,1.250000*%
%ADD13HorizOval,2.250000X-0.250000X0.433013X0.250000X-0.433013X0*%
%ADD14HorizOval,1.700000X0.259808X0.150000X-0.259808X-0.150000X0*%
%ADD15C,2.500000*%
%ADD16HorizOval,2.250000X-0.250000X-0.433013X0.250000X0.433013X0*%
%ADD17HorizOval,1.700000X0.259808X-0.150000X-0.259808X0.150000X0*%
%ADD18C,1.000000*%
%ADD19RoundRect,0.102000X-0.175000X0.445000X-0.175000X-0.445000X0.175000X-0.445000X0.175000X0.445000X0*%
%ADD20C,0.804000*%
%ADD21O,1.204000X2.204000*%
%ADD22C,1.104000*%
%ADD23O,1.600000X2.500000*%
%ADD24O,1.250000X2.500000*%
%ADD25O,2.250000X3.250000*%
%ADD26O,3.250000X2.250000*%
G04 APERTURE END LIST*
D10*
%TO.C,SW6*%
X172800078Y-109723772D03*
X172138028Y-122356436D03*
D11*
X177687246Y-112007677D03*
X177237156Y-120595891D03*
D10*
X182786374Y-110247132D03*
X182124324Y-122879796D03*
D12*
X171990036Y-112760540D03*
X171649852Y-119251632D03*
X167496203Y-112525028D03*
X167156019Y-119016120D03*
%TD*%
D13*
%TO.C,SW7*%
X163696858Y-100623533D03*
X170625062Y-96623533D03*
D14*
X166722211Y-101763597D03*
X170099709Y-99813597D03*
D15*
X166629871Y-104703661D03*
X172692049Y-101203661D03*
%TD*%
D16*
%TO.C,SW8*%
X266499744Y-96623533D03*
X273427948Y-100623533D03*
D17*
X267025097Y-99813597D03*
X270402595Y-101763597D03*
D15*
X264432757Y-101203661D03*
X270494935Y-104703661D03*
%TD*%
D18*
%TO.C,J4*%
X214837403Y-88783597D03*
X222287403Y-88783597D03*
D19*
X215812403Y-90688597D03*
X216312403Y-90688597D03*
X216812403Y-90688597D03*
X217312403Y-90688597D03*
X217812403Y-90688597D03*
X218312403Y-90688597D03*
X218812403Y-90688597D03*
X219312403Y-90688597D03*
X219812403Y-90688597D03*
X220312403Y-90688597D03*
X220812403Y-90688597D03*
X221312403Y-90688597D03*
D20*
X221612403Y-89483597D03*
X220962403Y-88783597D03*
X220162403Y-88783597D03*
X219762403Y-89483597D03*
X219362403Y-88783597D03*
X218962403Y-89483597D03*
X218162403Y-89483597D03*
X217762403Y-88783597D03*
X217362403Y-89483597D03*
X216962403Y-88783597D03*
X216162403Y-88783597D03*
X215512403Y-89483597D03*
D21*
X214062403Y-84683597D03*
D22*
X214512403Y-89883597D03*
D21*
X214062403Y-90433597D03*
X223062403Y-84683597D03*
D22*
X222612403Y-89883597D03*
D21*
X223062403Y-90433597D03*
%TD*%
D23*
%TO.C,RV2*%
X247912403Y-112913597D03*
X239212403Y-112913597D03*
D24*
X246062403Y-101413597D03*
X243562403Y-101413597D03*
X241062403Y-101413597D03*
%TD*%
D25*
%TO.C,J1*%
X198157142Y-137045300D03*
X194257142Y-137045300D03*
%TD*%
D26*
%TO.C,J3*%
X277338900Y-125812000D03*
X277338900Y-129712000D03*
%TD*%
%TO.C,J2*%
X159676400Y-130687600D03*
X159676400Y-126787600D03*
%TD*%
D23*
%TO.C,RV1*%
X197912403Y-112913597D03*
X189212403Y-112913597D03*
D24*
X196062403Y-101413597D03*
X193562403Y-101413597D03*
X191062403Y-101413597D03*
%TD*%
M02*
