%TF.GenerationSoftware,KiCad,Pcbnew,7.0.6*%
%TF.CreationDate,2023-11-08T16:21:37-08:00*%
%TF.ProjectId,UGC_Main,5547435f-4d61-4696-9e2e-6b696361645f,rev?*%
%TF.SameCoordinates,Original*%
%TF.FileFunction,Legend,Bot*%
%TF.FilePolarity,Positive*%
%FSLAX46Y46*%
G04 Gerber Fmt 4.6, Leading zero omitted, Abs format (unit mm)*
G04 Created by KiCad (PCBNEW 7.0.6) date 2023-11-08 16:21:37*
%MOMM*%
%LPD*%
G01*
G04 APERTURE LIST*
%ADD10C,0.150000*%
%ADD11C,0.127000*%
%ADD12C,0.200000*%
%ADD13C,0.100000*%
G04 APERTURE END LIST*
D10*
X217669331Y-92531995D02*
X217669331Y-93247664D01*
X217669331Y-93247664D02*
X217717043Y-93390798D01*
X217717043Y-93390798D02*
X217812465Y-93486221D01*
X217812465Y-93486221D02*
X217955599Y-93533932D01*
X217955599Y-93533932D02*
X218051022Y-93533932D01*
X216762817Y-92865974D02*
X216762817Y-93533932D01*
X217001373Y-92484284D02*
X217239929Y-93199953D01*
X217239929Y-93199953D02*
X216619683Y-93199953D01*
D11*
%TO.C,J4*%
X213737403Y-81033597D02*
X213737403Y-83283597D01*
X213737403Y-86033597D02*
X213737403Y-89033597D01*
X214812403Y-91033597D02*
X215312403Y-91033597D01*
X221812403Y-91033597D02*
X222312403Y-91033597D01*
X223387403Y-81033597D02*
X213737403Y-81033597D01*
X223387403Y-83283597D02*
X223387403Y-81033597D01*
X223387403Y-89033597D02*
X223387403Y-86033597D01*
D12*
X215912403Y-91533597D02*
G75*
G03*
X215912403Y-91533597I-100000J0D01*
G01*
D13*
%TO.C,RV2*%
X248562403Y-114663597D02*
X248562403Y-114038597D01*
X248562403Y-114663597D02*
X238562403Y-114663597D01*
X248562403Y-97913597D02*
X248562403Y-111853597D01*
X248562403Y-97913597D02*
X246152403Y-97913597D01*
X240972403Y-97913597D02*
X238562403Y-97913597D01*
X238562403Y-114663597D02*
X238562403Y-114033597D01*
X238562403Y-97913597D02*
X238562403Y-111853597D01*
D12*
%TO.C,J1*%
X198157142Y-140457300D02*
X198157142Y-139557300D01*
X193807142Y-140007300D02*
X194707142Y-140007300D01*
X197715142Y-140007300D02*
X198615142Y-140007300D01*
%TO.C,J3*%
X280750900Y-125812000D02*
X279850900Y-125812000D01*
X280300900Y-130162000D02*
X280300900Y-129262000D01*
X280300900Y-126254000D02*
X280300900Y-125354000D01*
%TO.C,J2*%
X156264400Y-130687600D02*
X157164400Y-130687600D01*
X156714400Y-126337600D02*
X156714400Y-127237600D01*
X156714400Y-130245600D02*
X156714400Y-131145600D01*
D13*
%TO.C,RV1*%
X198562403Y-114663597D02*
X198562403Y-114038597D01*
X198562403Y-114663597D02*
X188562403Y-114663597D01*
X198562403Y-97913597D02*
X198562403Y-111853597D01*
X198562403Y-97913597D02*
X196152403Y-97913597D01*
X190972403Y-97913597D02*
X188562403Y-97913597D01*
X188562403Y-114663597D02*
X188562403Y-114033597D01*
X188562403Y-97913597D02*
X188562403Y-111853597D01*
%TD*%
M02*
