%TF.GenerationSoftware,KiCad,Pcbnew,7.0.6*%
%TF.CreationDate,2023-11-08T16:21:37-08:00*%
%TF.ProjectId,UGC_Main,5547435f-4d61-4696-9e2e-6b696361645f,rev?*%
%TF.SameCoordinates,Original*%
%TF.FileFunction,Legend,Top*%
%TF.FilePolarity,Positive*%
%FSLAX46Y46*%
G04 Gerber Fmt 4.6, Leading zero omitted, Abs format (unit mm)*
G04 Created by KiCad (PCBNEW 7.0.6) date 2023-11-08 16:21:37*
%MOMM*%
%LPD*%
G01*
G04 APERTURE LIST*
%ADD10C,0.100000*%
%ADD11C,0.150000*%
%ADD12C,0.127000*%
%ADD13C,0.120000*%
G04 APERTURE END LIST*
D10*
X243251653Y-129759654D02*
X243394510Y-129807273D01*
X243394510Y-129807273D02*
X243632605Y-129807273D01*
X243632605Y-129807273D02*
X243727843Y-129759654D01*
X243727843Y-129759654D02*
X243775462Y-129712034D01*
X243775462Y-129712034D02*
X243823081Y-129616796D01*
X243823081Y-129616796D02*
X243823081Y-129521558D01*
X243823081Y-129521558D02*
X243775462Y-129426320D01*
X243775462Y-129426320D02*
X243727843Y-129378701D01*
X243727843Y-129378701D02*
X243632605Y-129331082D01*
X243632605Y-129331082D02*
X243442129Y-129283463D01*
X243442129Y-129283463D02*
X243346891Y-129235844D01*
X243346891Y-129235844D02*
X243299272Y-129188225D01*
X243299272Y-129188225D02*
X243251653Y-129092987D01*
X243251653Y-129092987D02*
X243251653Y-128997749D01*
X243251653Y-128997749D02*
X243299272Y-128902511D01*
X243299272Y-128902511D02*
X243346891Y-128854892D01*
X243346891Y-128854892D02*
X243442129Y-128807273D01*
X243442129Y-128807273D02*
X243680224Y-128807273D01*
X243680224Y-128807273D02*
X243823081Y-128854892D01*
X244156415Y-128807273D02*
X244394510Y-129807273D01*
X244394510Y-129807273D02*
X244584986Y-129092987D01*
X244584986Y-129092987D02*
X244775462Y-129807273D01*
X244775462Y-129807273D02*
X245013558Y-128807273D01*
X245346891Y-128902511D02*
X245394510Y-128854892D01*
X245394510Y-128854892D02*
X245489748Y-128807273D01*
X245489748Y-128807273D02*
X245727843Y-128807273D01*
X245727843Y-128807273D02*
X245823081Y-128854892D01*
X245823081Y-128854892D02*
X245870700Y-128902511D01*
X245870700Y-128902511D02*
X245918319Y-128997749D01*
X245918319Y-128997749D02*
X245918319Y-129092987D01*
X245918319Y-129092987D02*
X245870700Y-129235844D01*
X245870700Y-129235844D02*
X245299272Y-129807273D01*
X245299272Y-129807273D02*
X245918319Y-129807273D01*
X258470595Y-122072551D02*
X258613452Y-122120170D01*
X258613452Y-122120170D02*
X258851547Y-122120170D01*
X258851547Y-122120170D02*
X258946785Y-122072551D01*
X258946785Y-122072551D02*
X258994404Y-122024931D01*
X258994404Y-122024931D02*
X259042023Y-121929693D01*
X259042023Y-121929693D02*
X259042023Y-121834455D01*
X259042023Y-121834455D02*
X258994404Y-121739217D01*
X258994404Y-121739217D02*
X258946785Y-121691598D01*
X258946785Y-121691598D02*
X258851547Y-121643979D01*
X258851547Y-121643979D02*
X258661071Y-121596360D01*
X258661071Y-121596360D02*
X258565833Y-121548741D01*
X258565833Y-121548741D02*
X258518214Y-121501122D01*
X258518214Y-121501122D02*
X258470595Y-121405884D01*
X258470595Y-121405884D02*
X258470595Y-121310646D01*
X258470595Y-121310646D02*
X258518214Y-121215408D01*
X258518214Y-121215408D02*
X258565833Y-121167789D01*
X258565833Y-121167789D02*
X258661071Y-121120170D01*
X258661071Y-121120170D02*
X258899166Y-121120170D01*
X258899166Y-121120170D02*
X259042023Y-121167789D01*
X259375357Y-121120170D02*
X259613452Y-122120170D01*
X259613452Y-122120170D02*
X259803928Y-121405884D01*
X259803928Y-121405884D02*
X259994404Y-122120170D01*
X259994404Y-122120170D02*
X260232500Y-121120170D01*
X261137261Y-122120170D02*
X260565833Y-122120170D01*
X260851547Y-122120170D02*
X260851547Y-121120170D01*
X260851547Y-121120170D02*
X260756309Y-121263027D01*
X260756309Y-121263027D02*
X260661071Y-121358265D01*
X260661071Y-121358265D02*
X260565833Y-121405884D01*
X272892030Y-118716199D02*
X273034887Y-118763818D01*
X273034887Y-118763818D02*
X273272982Y-118763818D01*
X273272982Y-118763818D02*
X273368220Y-118716199D01*
X273368220Y-118716199D02*
X273415839Y-118668579D01*
X273415839Y-118668579D02*
X273463458Y-118573341D01*
X273463458Y-118573341D02*
X273463458Y-118478103D01*
X273463458Y-118478103D02*
X273415839Y-118382865D01*
X273415839Y-118382865D02*
X273368220Y-118335246D01*
X273368220Y-118335246D02*
X273272982Y-118287627D01*
X273272982Y-118287627D02*
X273082506Y-118240008D01*
X273082506Y-118240008D02*
X272987268Y-118192389D01*
X272987268Y-118192389D02*
X272939649Y-118144770D01*
X272939649Y-118144770D02*
X272892030Y-118049532D01*
X272892030Y-118049532D02*
X272892030Y-117954294D01*
X272892030Y-117954294D02*
X272939649Y-117859056D01*
X272939649Y-117859056D02*
X272987268Y-117811437D01*
X272987268Y-117811437D02*
X273082506Y-117763818D01*
X273082506Y-117763818D02*
X273320601Y-117763818D01*
X273320601Y-117763818D02*
X273463458Y-117811437D01*
X273796792Y-117763818D02*
X274034887Y-118763818D01*
X274034887Y-118763818D02*
X274225363Y-118049532D01*
X274225363Y-118049532D02*
X274415839Y-118763818D01*
X274415839Y-118763818D02*
X274653935Y-117763818D01*
X274939649Y-117763818D02*
X275558696Y-117763818D01*
X275558696Y-117763818D02*
X275225363Y-118144770D01*
X275225363Y-118144770D02*
X275368220Y-118144770D01*
X275368220Y-118144770D02*
X275463458Y-118192389D01*
X275463458Y-118192389D02*
X275511077Y-118240008D01*
X275511077Y-118240008D02*
X275558696Y-118335246D01*
X275558696Y-118335246D02*
X275558696Y-118573341D01*
X275558696Y-118573341D02*
X275511077Y-118668579D01*
X275511077Y-118668579D02*
X275463458Y-118716199D01*
X275463458Y-118716199D02*
X275368220Y-118763818D01*
X275368220Y-118763818D02*
X275082506Y-118763818D01*
X275082506Y-118763818D02*
X274987268Y-118716199D01*
X274987268Y-118716199D02*
X274939649Y-118668579D01*
D11*
X175577651Y-126784720D02*
X175717820Y-126839751D01*
X175717820Y-126839751D02*
X175955589Y-126852211D01*
X175955589Y-126852211D02*
X176053189Y-126809642D01*
X176053189Y-126809642D02*
X176103235Y-126764580D01*
X176103235Y-126764580D02*
X176155773Y-126671965D01*
X176155773Y-126671965D02*
X176160757Y-126576858D01*
X176160757Y-126576858D02*
X176118188Y-126479258D01*
X176118188Y-126479258D02*
X176073126Y-126429212D01*
X176073126Y-126429212D02*
X175980511Y-126376674D01*
X175980511Y-126376674D02*
X175792788Y-126319151D01*
X175792788Y-126319151D02*
X175700172Y-126266613D01*
X175700172Y-126266613D02*
X175655111Y-126216567D01*
X175655111Y-126216567D02*
X175612541Y-126118967D01*
X175612541Y-126118967D02*
X175617526Y-126023860D01*
X175617526Y-126023860D02*
X175670064Y-125931244D01*
X175670064Y-125931244D02*
X175720110Y-125886183D01*
X175720110Y-125886183D02*
X175817710Y-125843613D01*
X175817710Y-125843613D02*
X176055479Y-125856074D01*
X176055479Y-125856074D02*
X176195648Y-125911104D01*
X176531017Y-125880996D02*
X176716450Y-126892087D01*
X176716450Y-126892087D02*
X176944048Y-126188748D01*
X176944048Y-126188748D02*
X177096880Y-126912024D01*
X177096880Y-126912024D02*
X177386985Y-125925855D01*
X178195399Y-125968223D02*
X178005184Y-125958254D01*
X178005184Y-125958254D02*
X177907584Y-126000823D01*
X177907584Y-126000823D02*
X177857538Y-126045885D01*
X177857538Y-126045885D02*
X177754954Y-126183562D01*
X177754954Y-126183562D02*
X177697431Y-126371285D01*
X177697431Y-126371285D02*
X177677494Y-126751715D01*
X177677494Y-126751715D02*
X177720063Y-126849315D01*
X177720063Y-126849315D02*
X177765125Y-126899361D01*
X177765125Y-126899361D02*
X177857740Y-126951899D01*
X177857740Y-126951899D02*
X178047955Y-126961868D01*
X178047955Y-126961868D02*
X178145555Y-126919298D01*
X178145555Y-126919298D02*
X178195601Y-126874237D01*
X178195601Y-126874237D02*
X178248139Y-126781621D01*
X178248139Y-126781621D02*
X178260600Y-126543852D01*
X178260600Y-126543852D02*
X178218031Y-126446253D01*
X178218031Y-126446253D02*
X178172969Y-126396207D01*
X178172969Y-126396207D02*
X178080354Y-126343669D01*
X178080354Y-126343669D02*
X177890139Y-126333700D01*
X177890139Y-126333700D02*
X177792539Y-126376269D01*
X177792539Y-126376269D02*
X177742493Y-126421331D01*
X177742493Y-126421331D02*
X177689955Y-126513946D01*
X169129680Y-105896433D02*
X169224183Y-105877094D01*
X169224183Y-105877094D02*
X169356269Y-105800835D01*
X169356269Y-105800835D02*
X169393851Y-105743914D01*
X169393851Y-105743914D02*
X169405016Y-105702245D01*
X169405016Y-105702245D02*
X169400929Y-105634159D01*
X169400929Y-105634159D02*
X169370426Y-105581325D01*
X169370426Y-105581325D02*
X169313505Y-105543742D01*
X169313505Y-105543742D02*
X169271836Y-105532577D01*
X169271836Y-105532577D02*
X169203750Y-105536664D01*
X169203750Y-105536664D02*
X169082829Y-105571255D01*
X169082829Y-105571255D02*
X169014743Y-105575341D01*
X169014743Y-105575341D02*
X168973074Y-105564176D01*
X168973074Y-105564176D02*
X168916154Y-105526594D01*
X168916154Y-105526594D02*
X168885650Y-105473760D01*
X168885650Y-105473760D02*
X168881563Y-105405674D01*
X168881563Y-105405674D02*
X168892728Y-105364005D01*
X168892728Y-105364005D02*
X168930310Y-105307084D01*
X168930310Y-105307084D02*
X169062396Y-105230824D01*
X169062396Y-105230824D02*
X169156899Y-105211486D01*
X169326566Y-105078305D02*
X169778942Y-105556804D01*
X169778942Y-105556804D02*
X169655831Y-105099541D01*
X169655831Y-105099541D02*
X169990278Y-105434789D01*
X169990278Y-105434789D02*
X169802074Y-104803771D01*
X170232118Y-105365608D02*
X170654791Y-105121578D01*
X170756373Y-104992484D02*
X170436083Y-104437726D01*
X170436083Y-104437726D02*
X170647420Y-104315710D01*
X170647420Y-104315710D02*
X170715506Y-104311624D01*
X170715506Y-104311624D02*
X170757175Y-104322789D01*
X170757175Y-104322789D02*
X170814096Y-104360371D01*
X170814096Y-104360371D02*
X170859851Y-104439622D01*
X170859851Y-104439622D02*
X170863938Y-104507708D01*
X170863938Y-104507708D02*
X170852773Y-104549377D01*
X170852773Y-104549377D02*
X170815191Y-104606298D01*
X170815191Y-104606298D02*
X170603854Y-104728313D01*
X171335359Y-104165088D02*
X171548885Y-104534927D01*
X171097605Y-104302355D02*
X171265376Y-104592943D01*
X171265376Y-104592943D02*
X171322297Y-104630525D01*
X171322297Y-104630525D02*
X171390383Y-104626438D01*
X171390383Y-104626438D02*
X171469634Y-104580683D01*
X171469634Y-104580683D02*
X171507216Y-104523762D01*
X171507216Y-104523762D02*
X171518382Y-104482093D01*
X171771387Y-104371243D02*
X171839473Y-104367156D01*
X171839473Y-104367156D02*
X171945141Y-104306149D01*
X171945141Y-104306149D02*
X171982723Y-104249228D01*
X171982723Y-104249228D02*
X171978637Y-104181142D01*
X171978637Y-104181142D02*
X171963385Y-104154725D01*
X171963385Y-104154725D02*
X171906464Y-104117142D01*
X171906464Y-104117142D02*
X171838378Y-104121229D01*
X171838378Y-104121229D02*
X171759127Y-104166985D01*
X171759127Y-104166985D02*
X171691040Y-104171072D01*
X171691040Y-104171072D02*
X171634120Y-104133489D01*
X171634120Y-104133489D02*
X171618868Y-104107072D01*
X171618868Y-104107072D02*
X171614781Y-104038986D01*
X171614781Y-104038986D02*
X171652363Y-103982065D01*
X171652363Y-103982065D02*
X171731614Y-103936310D01*
X171731614Y-103936310D02*
X171799700Y-103932223D01*
X172262146Y-104123126D02*
X171941856Y-103568367D01*
X172499900Y-103985858D02*
X172332129Y-103695271D01*
X172332129Y-103695271D02*
X172275208Y-103657688D01*
X172275208Y-103657688D02*
X172207122Y-103661775D01*
X172207122Y-103661775D02*
X172127871Y-103707531D01*
X172127871Y-103707531D02*
X172090288Y-103764452D01*
X172090288Y-103764452D02*
X172079123Y-103806121D01*
X264649690Y-103964945D02*
X264713689Y-104037118D01*
X264713689Y-104037118D02*
X264845775Y-104113377D01*
X264845775Y-104113377D02*
X264913861Y-104117464D01*
X264913861Y-104117464D02*
X264955530Y-104106299D01*
X264955530Y-104106299D02*
X265012451Y-104068717D01*
X265012451Y-104068717D02*
X265042955Y-104015883D01*
X265042955Y-104015883D02*
X265047041Y-103947797D01*
X265047041Y-103947797D02*
X265035876Y-103906128D01*
X265035876Y-103906128D02*
X264998294Y-103849207D01*
X264998294Y-103849207D02*
X264907878Y-103761782D01*
X264907878Y-103761782D02*
X264870295Y-103704861D01*
X264870295Y-103704861D02*
X264859130Y-103663192D01*
X264859130Y-103663192D02*
X264863217Y-103595106D01*
X264863217Y-103595106D02*
X264893721Y-103542272D01*
X264893721Y-103542272D02*
X264950642Y-103504690D01*
X264950642Y-103504690D02*
X264992311Y-103493525D01*
X264992311Y-103493525D02*
X265060397Y-103497611D01*
X265060397Y-103497611D02*
X265192482Y-103573871D01*
X265192482Y-103573871D02*
X265256481Y-103646044D01*
X265456653Y-103726390D02*
X265268448Y-104357408D01*
X265268448Y-104357408D02*
X265602895Y-104022159D01*
X265602895Y-104022159D02*
X265479784Y-104479423D01*
X265479784Y-104479423D02*
X265932160Y-104000924D01*
X265660617Y-104654272D02*
X266083290Y-104898303D01*
X266245879Y-104921728D02*
X266566169Y-104366970D01*
X266566169Y-104366970D02*
X266777506Y-104488985D01*
X266777506Y-104488985D02*
X266815088Y-104545906D01*
X266815088Y-104545906D02*
X266826253Y-104587575D01*
X266826253Y-104587575D02*
X266822167Y-104655661D01*
X266822167Y-104655661D02*
X266776411Y-104734912D01*
X266776411Y-104734912D02*
X266719490Y-104772494D01*
X266719490Y-104772494D02*
X266677821Y-104783659D01*
X266677821Y-104783659D02*
X266609735Y-104779573D01*
X266609735Y-104779573D02*
X266398398Y-104657557D01*
X267251918Y-105009446D02*
X267038392Y-105379285D01*
X267014165Y-104872179D02*
X266846394Y-105162767D01*
X266846394Y-105162767D02*
X266842307Y-105230853D01*
X266842307Y-105230853D02*
X266879889Y-105287774D01*
X266879889Y-105287774D02*
X266959140Y-105333530D01*
X266959140Y-105333530D02*
X267027226Y-105337616D01*
X267027226Y-105337616D02*
X267068895Y-105326451D01*
X267291397Y-105490135D02*
X267328979Y-105547056D01*
X267328979Y-105547056D02*
X267434647Y-105608064D01*
X267434647Y-105608064D02*
X267502733Y-105612150D01*
X267502733Y-105612150D02*
X267559654Y-105574568D01*
X267559654Y-105574568D02*
X267574906Y-105548151D01*
X267574906Y-105548151D02*
X267578993Y-105480065D01*
X267578993Y-105480065D02*
X267541411Y-105423144D01*
X267541411Y-105423144D02*
X267462159Y-105377388D01*
X267462159Y-105377388D02*
X267424577Y-105320468D01*
X267424577Y-105320468D02*
X267428664Y-105252382D01*
X267428664Y-105252382D02*
X267443916Y-105225964D01*
X267443916Y-105225964D02*
X267500837Y-105188382D01*
X267500837Y-105188382D02*
X267568923Y-105192469D01*
X267568923Y-105192469D02*
X267648174Y-105238225D01*
X267648174Y-105238225D02*
X267685756Y-105295146D01*
X267751652Y-105791087D02*
X268071942Y-105236328D01*
X267989406Y-105928354D02*
X268157177Y-105637766D01*
X268157177Y-105637766D02*
X268161264Y-105569680D01*
X268161264Y-105569680D02*
X268123681Y-105512759D01*
X268123681Y-105512759D02*
X268044430Y-105467003D01*
X268044430Y-105467003D02*
X267976344Y-105462917D01*
X267976344Y-105462917D02*
X267934675Y-105474082D01*
D10*
X254636945Y-107834823D02*
X254779802Y-107882442D01*
X254779802Y-107882442D02*
X255017897Y-107882442D01*
X255017897Y-107882442D02*
X255113135Y-107834823D01*
X255113135Y-107834823D02*
X255160754Y-107787203D01*
X255160754Y-107787203D02*
X255208373Y-107691965D01*
X255208373Y-107691965D02*
X255208373Y-107596727D01*
X255208373Y-107596727D02*
X255160754Y-107501489D01*
X255160754Y-107501489D02*
X255113135Y-107453870D01*
X255113135Y-107453870D02*
X255017897Y-107406251D01*
X255017897Y-107406251D02*
X254827421Y-107358632D01*
X254827421Y-107358632D02*
X254732183Y-107311013D01*
X254732183Y-107311013D02*
X254684564Y-107263394D01*
X254684564Y-107263394D02*
X254636945Y-107168156D01*
X254636945Y-107168156D02*
X254636945Y-107072918D01*
X254636945Y-107072918D02*
X254684564Y-106977680D01*
X254684564Y-106977680D02*
X254732183Y-106930061D01*
X254732183Y-106930061D02*
X254827421Y-106882442D01*
X254827421Y-106882442D02*
X255065516Y-106882442D01*
X255065516Y-106882442D02*
X255208373Y-106930061D01*
X255541707Y-106882442D02*
X255779802Y-107882442D01*
X255779802Y-107882442D02*
X255970278Y-107168156D01*
X255970278Y-107168156D02*
X256160754Y-107882442D01*
X256160754Y-107882442D02*
X256398850Y-106882442D01*
X257208373Y-107215775D02*
X257208373Y-107882442D01*
X256970278Y-106834823D02*
X256732183Y-107549108D01*
X256732183Y-107549108D02*
X257351230Y-107549108D01*
D11*
X217237091Y-133285380D02*
X217379948Y-133332999D01*
X217379948Y-133332999D02*
X217618043Y-133332999D01*
X217618043Y-133332999D02*
X217713281Y-133285380D01*
X217713281Y-133285380D02*
X217760900Y-133237760D01*
X217760900Y-133237760D02*
X217808519Y-133142522D01*
X217808519Y-133142522D02*
X217808519Y-133047284D01*
X217808519Y-133047284D02*
X217760900Y-132952046D01*
X217760900Y-132952046D02*
X217713281Y-132904427D01*
X217713281Y-132904427D02*
X217618043Y-132856808D01*
X217618043Y-132856808D02*
X217427567Y-132809189D01*
X217427567Y-132809189D02*
X217332329Y-132761570D01*
X217332329Y-132761570D02*
X217284710Y-132713951D01*
X217284710Y-132713951D02*
X217237091Y-132618713D01*
X217237091Y-132618713D02*
X217237091Y-132523475D01*
X217237091Y-132523475D02*
X217284710Y-132428237D01*
X217284710Y-132428237D02*
X217332329Y-132380618D01*
X217332329Y-132380618D02*
X217427567Y-132332999D01*
X217427567Y-132332999D02*
X217665662Y-132332999D01*
X217665662Y-132332999D02*
X217808519Y-132380618D01*
X218141853Y-132332999D02*
X218379948Y-133332999D01*
X218379948Y-133332999D02*
X218570424Y-132618713D01*
X218570424Y-132618713D02*
X218760900Y-133332999D01*
X218760900Y-133332999D02*
X218998996Y-132332999D01*
X219427567Y-133332999D02*
X219618043Y-133332999D01*
X219618043Y-133332999D02*
X219713281Y-133285380D01*
X219713281Y-133285380D02*
X219760900Y-133237760D01*
X219760900Y-133237760D02*
X219856138Y-133094903D01*
X219856138Y-133094903D02*
X219903757Y-132904427D01*
X219903757Y-132904427D02*
X219903757Y-132523475D01*
X219903757Y-132523475D02*
X219856138Y-132428237D01*
X219856138Y-132428237D02*
X219808519Y-132380618D01*
X219808519Y-132380618D02*
X219713281Y-132332999D01*
X219713281Y-132332999D02*
X219522805Y-132332999D01*
X219522805Y-132332999D02*
X219427567Y-132380618D01*
X219427567Y-132380618D02*
X219379948Y-132428237D01*
X219379948Y-132428237D02*
X219332329Y-132523475D01*
X219332329Y-132523475D02*
X219332329Y-132761570D01*
X219332329Y-132761570D02*
X219379948Y-132856808D01*
X219379948Y-132856808D02*
X219427567Y-132904427D01*
X219427567Y-132904427D02*
X219522805Y-132952046D01*
X219522805Y-132952046D02*
X219713281Y-132952046D01*
X219713281Y-132952046D02*
X219808519Y-132904427D01*
X219808519Y-132904427D02*
X219856138Y-132856808D01*
X219856138Y-132856808D02*
X219903757Y-132761570D01*
D12*
%TO.C,SW7*%
X164697240Y-101466245D02*
X165898740Y-103547304D01*
X167262240Y-105908955D02*
X173419680Y-102353955D01*
X172059546Y-99996134D02*
X170854680Y-97911245D01*
%TO.C,SW8*%
X266270126Y-97911245D02*
X265068626Y-99992304D01*
X263705126Y-102353955D02*
X269862566Y-105908955D01*
X271224432Y-103552134D02*
X272427566Y-101466245D01*
D13*
%TO.C,SW9*%
X214062403Y-127853597D02*
X214062403Y-131853597D01*
X214062403Y-127853597D02*
X223062403Y-127853597D01*
X214062403Y-131853597D02*
X223062403Y-131853597D01*
X223062403Y-127853597D02*
X223062403Y-131853597D01*
%TD*%
M02*
