%TF.GenerationSoftware,KiCad,Pcbnew,7.0.6*%
%TF.CreationDate,2023-11-08T16:21:41-08:00*%
%TF.ProjectId,UGC_Main,5547435f-4d61-4696-9e2e-6b696361645f,rev?*%
%TF.SameCoordinates,Original*%
%TF.FileFunction,Drillmap*%
%TF.FilePolarity,Positive*%
%FSLAX45Y45*%
G04 Gerber Fmt 4.5, Leading zero omitted, Abs format (unit mm)*
G04 Created by KiCad (PCBNEW 7.0.6) date 2023-11-08 16:21:41*
%MOMM*%
%LPD*%
G01*
G04 APERTURE LIST*
%ADD10C,0.100000*%
%ADD11C,0.200000*%
%ADD12C,0.040000*%
%ADD13C,0.050000*%
%ADD14C,0.060000*%
%ADD15C,0.080000*%
%ADD16C,0.090000*%
%ADD17C,0.110000*%
%ADD18C,0.120000*%
%ADD19C,0.150000*%
G04 APERTURE END LIST*
D10*
X25169906Y-13390749D02*
X25566240Y-13390749D01*
X27806240Y-14031037D02*
X27866240Y-14031037D01*
X27806947Y-13440646D02*
G75*
G03*
X27806947Y-13440646I-112500J0D01*
G01*
X17305005Y-14310005D02*
G75*
G03*
X17370005Y-14245003I-5J65005D01*
G01*
X20980039Y-15181304D02*
X20983859Y-15171432D01*
X20987606Y-15161534D01*
X20991280Y-15151611D01*
X20994881Y-15141664D01*
X20998408Y-15131691D01*
X21001861Y-15121695D01*
X21005241Y-15111675D01*
X21008547Y-15101631D01*
X21011780Y-15091565D01*
X21014938Y-15081477D01*
X21018022Y-15071366D01*
X21021032Y-15061233D01*
X21023968Y-15051080D01*
X21026829Y-15040905D01*
X21029616Y-15030711D01*
X21032328Y-15020496D01*
X21034966Y-15010262D01*
X21037528Y-15000008D01*
X21040016Y-14989736D01*
X21042429Y-14979445D01*
X21044766Y-14969137D01*
X21047028Y-14958811D01*
X21049215Y-14948468D01*
X21051326Y-14938108D01*
X21053362Y-14927732D01*
X21055321Y-14917340D01*
X21057206Y-14906932D01*
X21059014Y-14896510D01*
X21060746Y-14886072D01*
X21062402Y-14875621D01*
X21063981Y-14865156D01*
X21065485Y-14854677D01*
X28140061Y-11395000D02*
X28134955Y-11369530D01*
X28129858Y-11344526D01*
X28124766Y-11319977D01*
X28119673Y-11295871D01*
X28114575Y-11272197D01*
X28109468Y-11248945D01*
X28104347Y-11226104D01*
X28099207Y-11203663D01*
X28094044Y-11181611D01*
X28088853Y-11159936D01*
X28083631Y-11138629D01*
X28078371Y-11117677D01*
X28073069Y-11097071D01*
X28067722Y-11076799D01*
X28062323Y-11056850D01*
X28056870Y-11037214D01*
X28051357Y-11017879D01*
X28045779Y-10998835D01*
X28040132Y-10980070D01*
X28034412Y-10961574D01*
X28028613Y-10943336D01*
X28022732Y-10925345D01*
X28016763Y-10907589D01*
X28010702Y-10890059D01*
X28004545Y-10872742D01*
X27998287Y-10855629D01*
X27991923Y-10838708D01*
X27985448Y-10821968D01*
X27978859Y-10805399D01*
X27972150Y-10788989D01*
X27965318Y-10772727D01*
X27958356Y-10756603D01*
X24816107Y-9443383D02*
X24373603Y-9350611D01*
X24546240Y-9901360D02*
X24166240Y-9901360D01*
X19339935Y-16069936D02*
X19357267Y-16073429D01*
X19374632Y-16076708D01*
X19392025Y-16079773D01*
X19409447Y-16082625D01*
X19426894Y-16085263D01*
X19444365Y-16087687D01*
X19461857Y-16089897D01*
X19479369Y-16091893D01*
X19496899Y-16093675D01*
X19514445Y-16095243D01*
X19532005Y-16096597D01*
X19549576Y-16097737D01*
X19567158Y-16098663D01*
X19584747Y-16099375D01*
X19602343Y-16099872D01*
X19619943Y-16100155D01*
X19637545Y-16100224D01*
X19655147Y-16100078D01*
X19672747Y-16099718D01*
X19690344Y-16099143D01*
X19707934Y-16098354D01*
X19725518Y-16097350D01*
X19743091Y-16096132D01*
X19760653Y-16094699D01*
X19778202Y-16093051D01*
X19795735Y-16091189D01*
X19813251Y-16089112D01*
X19830747Y-16086820D01*
X19848222Y-16084313D01*
X19865673Y-16081591D01*
X19883100Y-16078654D01*
X19900499Y-16075502D01*
X15772419Y-14310003D02*
X17305005Y-14310003D01*
X21424801Y-14574463D02*
X21436714Y-14569303D01*
X21448682Y-14564290D01*
X21460705Y-14559427D01*
X21472780Y-14554713D01*
X21484906Y-14550148D01*
X21497083Y-14545732D01*
X21509307Y-14541467D01*
X21521579Y-14537352D01*
X21533896Y-14533388D01*
X21546257Y-14529574D01*
X21558661Y-14525912D01*
X21571106Y-14522401D01*
X21583591Y-14519043D01*
X21596115Y-14515836D01*
X21608676Y-14512782D01*
X21621272Y-14509881D01*
X21633903Y-14507133D01*
X21646567Y-14504538D01*
X21659262Y-14502098D01*
X21671988Y-14499811D01*
X21684742Y-14497679D01*
X21697523Y-14495702D01*
X21710330Y-14493879D01*
X21723162Y-14492212D01*
X21736017Y-14490701D01*
X21748893Y-14489346D01*
X21761790Y-14488147D01*
X21774705Y-14487105D01*
X21787638Y-14486219D01*
X21800587Y-14485491D01*
X21813551Y-14484921D01*
X21826528Y-14484509D01*
X23085098Y-13328944D02*
X23104852Y-13224422D01*
X27958356Y-10756603D02*
X27950953Y-10739919D01*
X27943157Y-10722849D01*
X27934942Y-10705397D01*
X27926281Y-10687567D01*
X27921775Y-10678510D01*
X27917146Y-10669360D01*
X27912393Y-10660117D01*
X27907512Y-10650780D01*
X27902498Y-10641352D01*
X27897350Y-10631831D01*
X27892062Y-10622219D01*
X27886633Y-10612515D01*
X27881059Y-10602720D01*
X27875336Y-10592835D01*
X27869460Y-10582860D01*
X27863430Y-10572795D01*
X27857240Y-10562641D01*
X27850888Y-10552398D01*
X27844371Y-10542066D01*
X27837685Y-10531646D01*
X27830826Y-10521138D01*
X27823792Y-10510543D01*
X27816579Y-10499861D01*
X27809183Y-10489092D01*
X27801601Y-10478236D01*
X27793831Y-10467295D01*
X27785867Y-10456269D01*
X27777708Y-10445157D01*
X24816107Y-9443382D02*
G75*
G03*
X24857146Y-9447639I41043J195752D01*
G01*
X21856240Y-8401776D02*
X21816779Y-8401793D01*
X21777197Y-8401923D01*
X21737501Y-8402171D01*
X21697699Y-8402539D01*
X21657797Y-8403028D01*
X21617803Y-8403641D01*
X21577721Y-8404381D01*
X21537561Y-8405250D01*
X21497328Y-8406251D01*
X21457029Y-8407386D01*
X21416672Y-8408658D01*
X21376262Y-8410069D01*
X21335806Y-8411621D01*
X21295313Y-8413317D01*
X21254787Y-8415159D01*
X21214237Y-8417150D01*
X21173669Y-8419293D01*
X21133089Y-8421589D01*
X21092505Y-8424042D01*
X21051923Y-8426653D01*
X21011350Y-8429425D01*
X20970794Y-8432361D01*
X20930260Y-8435463D01*
X20889756Y-8438733D01*
X20849288Y-8442174D01*
X20808863Y-8445789D01*
X20768488Y-8449579D01*
X20728171Y-8453548D01*
X20687917Y-8457697D01*
X20647733Y-8462030D01*
X20607626Y-8466548D01*
X20567604Y-8471254D01*
X15572419Y-11395000D02*
X15572419Y-14110003D01*
X19369523Y-9346626D02*
G75*
G03*
X19611851Y-9091360I-13283J255266D01*
G01*
X23300172Y-13061567D02*
G75*
G03*
X23104852Y-13224422I1198J-199993D01*
G01*
X19900499Y-16075502D02*
X19917800Y-16072149D01*
X19935049Y-16068587D01*
X19952244Y-16064817D01*
X19969384Y-16060839D01*
X19986467Y-16056655D01*
X20003490Y-16052265D01*
X20020453Y-16047669D01*
X20037353Y-16042869D01*
X20054188Y-16037865D01*
X20070957Y-16032658D01*
X20087658Y-16027249D01*
X20104289Y-16021638D01*
X20120848Y-16015827D01*
X20137333Y-16009815D01*
X20153743Y-16003604D01*
X20170076Y-15997194D01*
X20186329Y-15990587D01*
X20202502Y-15983782D01*
X20218592Y-15976781D01*
X20234597Y-15969585D01*
X20250516Y-15962193D01*
X20266347Y-15954607D01*
X20282087Y-15946828D01*
X20297736Y-15938856D01*
X20313292Y-15930693D01*
X20328752Y-15922338D01*
X20344114Y-15913792D01*
X20359378Y-15905057D01*
X20374540Y-15896132D01*
X20389600Y-15887020D01*
X20404556Y-15877720D01*
X20419405Y-15868233D01*
X16912920Y-9714158D02*
X16292649Y-10071088D01*
X16211273Y-11630178D02*
G75*
G03*
X16211273Y-11630178I-90000J0D01*
G01*
X18406851Y-13651360D02*
G75*
G03*
X18406851Y-13651360I-260611J0D01*
G01*
X19369523Y-9346625D02*
G75*
G03*
X19338878Y-9350611I10377J-199595D01*
G01*
X24166240Y-9641360D02*
X24546240Y-9641360D01*
X17910439Y-9447637D02*
G75*
G03*
X16912920Y-9714158I1J-1999993D01*
G01*
X18215268Y-14939129D02*
G75*
G03*
X18213383Y-14931648I-78488J-15791D01*
G01*
X23066727Y-13359077D02*
G75*
G03*
X23085098Y-13328944I-30757J39418D01*
G01*
X17905095Y-14335943D02*
X17915932Y-14349969D01*
X17926765Y-14364281D01*
X17937589Y-14378879D01*
X17948396Y-14393764D01*
X17959177Y-14408938D01*
X17969926Y-14424401D01*
X17980635Y-14440155D01*
X17991297Y-14456200D01*
X18001903Y-14472538D01*
X18012447Y-14489170D01*
X18022921Y-14506097D01*
X18033317Y-14523321D01*
X18043628Y-14540841D01*
X18053847Y-14558659D01*
X18063965Y-14576777D01*
X18073976Y-14595196D01*
X18083872Y-14613916D01*
X18093645Y-14632939D01*
X18103288Y-14652265D01*
X18112793Y-14671896D01*
X18122153Y-14691834D01*
X18131361Y-14712078D01*
X18140408Y-14732630D01*
X18149287Y-14753492D01*
X18157991Y-14774664D01*
X18166513Y-14796147D01*
X18174844Y-14817943D01*
X18182978Y-14840052D01*
X18190906Y-14862477D01*
X18198621Y-14885217D01*
X18206116Y-14908273D01*
X18213384Y-14931648D01*
X27866240Y-14251683D02*
G75*
G03*
X27866240Y-14031037I0J110323D01*
G01*
X27940061Y-14310001D02*
G75*
G03*
X28140061Y-14110003I-1J200001D01*
G01*
X22598420Y-11641360D02*
G75*
G03*
X22598420Y-11641360I-82180J0D01*
G01*
X20567604Y-8471254D02*
X20533100Y-8475471D01*
X20498996Y-8479783D01*
X20465292Y-8484185D01*
X20431985Y-8488675D01*
X20399075Y-8493249D01*
X20366559Y-8497902D01*
X20334437Y-8502631D01*
X20302707Y-8507432D01*
X20271366Y-8512301D01*
X20240415Y-8517235D01*
X20209850Y-8522230D01*
X20179671Y-8527281D01*
X20149876Y-8532385D01*
X20120463Y-8537539D01*
X20091431Y-8542738D01*
X20062779Y-8547978D01*
X20034504Y-8553257D01*
X20006606Y-8558569D01*
X19979083Y-8563912D01*
X19951932Y-8569281D01*
X19925154Y-8574673D01*
X19898746Y-8580083D01*
X19872706Y-8585509D01*
X19847033Y-8590945D01*
X19821726Y-8596389D01*
X19796783Y-8601837D01*
X19772203Y-8607284D01*
X19747983Y-8612728D01*
X19724123Y-8618163D01*
X19700621Y-8623587D01*
X19677475Y-8628996D01*
X19654683Y-8634385D01*
X24546240Y-9641360D02*
X24546240Y-9901360D01*
X15572417Y-14110003D02*
G75*
G03*
X15772419Y-14310003I200003J3D01*
G01*
X25826851Y-13651360D02*
G75*
G03*
X25566240Y-13390749I-260611J0D01*
G01*
X23144876Y-8471254D02*
X23104854Y-8466548D01*
X23064748Y-8462030D01*
X23024564Y-8457697D01*
X22984310Y-8453548D01*
X22943992Y-8449579D01*
X22903617Y-8445789D01*
X22863193Y-8442174D01*
X22822725Y-8438733D01*
X22782221Y-8435463D01*
X22741687Y-8432361D01*
X22701130Y-8429425D01*
X22660558Y-8426653D01*
X22619976Y-8424042D01*
X22579392Y-8421589D01*
X22538812Y-8419293D01*
X22498244Y-8417150D01*
X22457693Y-8415159D01*
X22417168Y-8413317D01*
X22376674Y-8411621D01*
X22336219Y-8410069D01*
X22295809Y-8408658D01*
X22255451Y-8407386D01*
X22215153Y-8406251D01*
X22174920Y-8405250D01*
X22134759Y-8404381D01*
X22094678Y-8403641D01*
X22054683Y-8403028D01*
X22014781Y-8402539D01*
X21974979Y-8402171D01*
X21935284Y-8401923D01*
X21895702Y-8401793D01*
X21856240Y-8401776D01*
X27777708Y-10445157D02*
X27768077Y-10432274D01*
X27758316Y-10419460D01*
X27748428Y-10406717D01*
X27738415Y-10394044D01*
X27728281Y-10381443D01*
X27718028Y-10368914D01*
X27707660Y-10356459D01*
X27697180Y-10344077D01*
X27686590Y-10331770D01*
X27675894Y-10319539D01*
X27665095Y-10307384D01*
X27654195Y-10295306D01*
X27643199Y-10283305D01*
X27632108Y-10271384D01*
X27620926Y-10259541D01*
X27609656Y-10247778D01*
X27598301Y-10236097D01*
X27586864Y-10224497D01*
X27575348Y-10212979D01*
X27563756Y-10201544D01*
X27552092Y-10190193D01*
X27540357Y-10178927D01*
X27528555Y-10167746D01*
X27516690Y-10156652D01*
X27504763Y-10145644D01*
X27492779Y-10134724D01*
X27480740Y-10123893D01*
X27468650Y-10113150D01*
X27456511Y-10102498D01*
X27444326Y-10091936D01*
X27432098Y-10081466D01*
X27419831Y-10071088D01*
X26342475Y-14235003D02*
G75*
G03*
X26157527Y-14050055I-184945J3D01*
G01*
X27806240Y-14031037D02*
G75*
G03*
X27806240Y-14251683I0J-110323D01*
G01*
X17390175Y-14151015D02*
X17395197Y-14141654D01*
X17400754Y-14132623D01*
X17406829Y-14123945D01*
X17413404Y-14115639D01*
X17420458Y-14107726D01*
X17427976Y-14100228D01*
X17431108Y-14097350D01*
X19166240Y-9641360D02*
X19546240Y-9641360D01*
X17626916Y-14064662D02*
X17637202Y-14069362D01*
X17647165Y-14074675D01*
X17656778Y-14080588D01*
X17666013Y-14087085D01*
X17674841Y-14094151D01*
X17677689Y-14096631D01*
X26799561Y-9714159D02*
G75*
G03*
X25802042Y-9447639I-997521J-1733481D01*
G01*
X24057797Y-8634385D02*
X24035006Y-8628996D01*
X24011860Y-8623587D01*
X23988358Y-8618163D01*
X23964497Y-8612728D01*
X23940278Y-8607284D01*
X23915697Y-8601837D01*
X23890754Y-8596389D01*
X23865447Y-8590945D01*
X23839775Y-8585509D01*
X23813735Y-8580083D01*
X23787326Y-8574673D01*
X23760548Y-8569281D01*
X23733398Y-8563912D01*
X23705874Y-8558569D01*
X23677976Y-8553257D01*
X23649702Y-8547978D01*
X23621049Y-8542738D01*
X23592018Y-8537539D01*
X23562605Y-8532385D01*
X23532810Y-8527281D01*
X23502631Y-8522230D01*
X23472066Y-8517235D01*
X23441114Y-8512301D01*
X23409774Y-8507432D01*
X23378043Y-8502631D01*
X23345921Y-8497902D01*
X23313406Y-8493249D01*
X23280495Y-8488675D01*
X23247189Y-8484185D01*
X23213485Y-8479783D01*
X23179381Y-8475471D01*
X23144876Y-8471254D01*
X17570163Y-14050785D02*
X17581110Y-14052012D01*
X17591948Y-14053880D01*
X17602648Y-14056385D01*
X17613180Y-14059518D01*
X17623518Y-14063273D01*
X17626916Y-14064662D01*
X16130533Y-13440646D02*
G75*
G03*
X16130533Y-13440646I-112500J0D01*
G01*
X19166240Y-9901360D02*
X19166240Y-9641360D01*
X22443254Y-14485775D02*
X22445422Y-14465835D01*
X22447831Y-14445936D01*
X22450482Y-14426080D01*
X22453373Y-14406270D01*
X22456504Y-14386507D01*
X22459874Y-14366793D01*
X22463483Y-14347130D01*
X22467330Y-14327521D01*
X22471414Y-14307966D01*
X22475735Y-14288469D01*
X22480292Y-14269031D01*
X22485085Y-14249654D01*
X22490113Y-14230341D01*
X22495375Y-14211092D01*
X22500871Y-14191911D01*
X22506600Y-14172798D01*
X22512561Y-14153757D01*
X22518755Y-14134788D01*
X22525179Y-14115895D01*
X22531835Y-14097079D01*
X22538720Y-14078341D01*
X22545835Y-14059685D01*
X22553178Y-14041111D01*
X22560750Y-14022623D01*
X22568549Y-14004221D01*
X22576575Y-13985908D01*
X22584828Y-13967687D01*
X22593306Y-13949558D01*
X22602010Y-13931523D01*
X22610938Y-13913586D01*
X22620089Y-13895747D01*
X22629464Y-13878010D01*
X17390176Y-14151016D02*
G75*
G03*
X17370005Y-14235003I164754J-83984D01*
G01*
X24373603Y-9350610D02*
G75*
G03*
X24342957Y-9346625I-41033J-195740D01*
G01*
X20821056Y-15479385D02*
X20827067Y-15470663D01*
X20833012Y-15461899D01*
X20838892Y-15453093D01*
X20844706Y-15444246D01*
X20850455Y-15435358D01*
X20856137Y-15426430D01*
X20861753Y-15417461D01*
X20867303Y-15408453D01*
X20872786Y-15399406D01*
X20878202Y-15390319D01*
X20883551Y-15381194D01*
X20888833Y-15372031D01*
X20894047Y-15362829D01*
X20899194Y-15353590D01*
X20904273Y-15344315D01*
X20909284Y-15335002D01*
X20914226Y-15325653D01*
X20919100Y-15316268D01*
X20923906Y-15306847D01*
X20928642Y-15297391D01*
X20933310Y-15287900D01*
X20937908Y-15278374D01*
X20942437Y-15268815D01*
X20946896Y-15259221D01*
X20951286Y-15249595D01*
X20955605Y-15239935D01*
X20959854Y-15230242D01*
X20964033Y-15220518D01*
X20968141Y-15210761D01*
X20972178Y-15200973D01*
X20976144Y-15191154D01*
X20980039Y-15181304D01*
X21087098Y-14810251D02*
G75*
G03*
X21065484Y-14854677I57632J-55509D01*
G01*
X19546240Y-9901360D02*
X19166240Y-9901360D01*
X22820984Y-13595740D02*
X22827895Y-13587594D01*
X22834858Y-13579494D01*
X22841873Y-13571439D01*
X22848941Y-13563430D01*
X22856061Y-13555467D01*
X22863231Y-13547552D01*
X22870454Y-13539682D01*
X22877727Y-13531861D01*
X22885050Y-13524086D01*
X22892424Y-13516360D01*
X22899847Y-13508681D01*
X22907321Y-13501051D01*
X22914843Y-13493470D01*
X22922415Y-13485938D01*
X22930035Y-13478455D01*
X22937704Y-13471021D01*
X22945421Y-13463638D01*
X22953185Y-13456304D01*
X22960997Y-13449022D01*
X22968856Y-13441790D01*
X22976762Y-13434609D01*
X22984714Y-13427479D01*
X22992713Y-13420401D01*
X23000757Y-13413376D01*
X23008847Y-13406402D01*
X23016982Y-13399481D01*
X23025162Y-13392613D01*
X23033387Y-13385799D01*
X23041656Y-13379037D01*
X23049969Y-13372330D01*
X23058326Y-13365676D01*
X23066727Y-13359077D01*
X18855335Y-9447639D02*
X17910439Y-9447639D01*
X25059428Y-13357467D02*
G75*
G03*
X24051313Y-13057057I-997278J-1504943D01*
G01*
X28140061Y-14110003D02*
X28140061Y-11395000D01*
X18855335Y-9447639D02*
G75*
G03*
X18896373Y-9443383I5J199949D01*
G01*
X21278420Y-11641360D02*
G75*
G03*
X21278420Y-11641360I-82180J0D01*
G01*
X19654684Y-8634387D02*
G75*
G03*
X19611851Y-8695951I22826J-61564D01*
G01*
X21826528Y-14484509D02*
X21840376Y-14484243D01*
X21854223Y-14484158D01*
X21868067Y-14484253D01*
X21881905Y-14484527D01*
X21895736Y-14484982D01*
X21909558Y-14485617D01*
X21923370Y-14486430D01*
X21937169Y-14487424D01*
X21950954Y-14488596D01*
X21964724Y-14489948D01*
X21978475Y-14491479D01*
X21992208Y-14493188D01*
X22005919Y-14495077D01*
X22019607Y-14497144D01*
X22033271Y-14499389D01*
X22046909Y-14501812D01*
X26026851Y-14050055D02*
X26157527Y-14050055D01*
X21087096Y-14810249D02*
X21096164Y-14800949D01*
X21105340Y-14791765D01*
X21114622Y-14782699D01*
X21124009Y-14773750D01*
X21133500Y-14764921D01*
X21143095Y-14756211D01*
X21152791Y-14747621D01*
X21162587Y-14739153D01*
X21172483Y-14730807D01*
X21182478Y-14722584D01*
X21192569Y-14714484D01*
X21202756Y-14706510D01*
X21213038Y-14698661D01*
X21223413Y-14690938D01*
X21233880Y-14683342D01*
X21244439Y-14675874D01*
X21255087Y-14668535D01*
X21265824Y-14661325D01*
X21276649Y-14654246D01*
X21287560Y-14647298D01*
X21298556Y-14640482D01*
X21309637Y-14633800D01*
X21320800Y-14627250D01*
X21332045Y-14620836D01*
X21343370Y-14614557D01*
X21354775Y-14608414D01*
X21366257Y-14602408D01*
X21377817Y-14596540D01*
X21389452Y-14590810D01*
X21401162Y-14585221D01*
X21412945Y-14579771D01*
X21424801Y-14574463D01*
X27866240Y-14251683D02*
X27806240Y-14251683D01*
X26342477Y-14245003D02*
G75*
G03*
X26407475Y-14310003I65003J3D01*
G01*
X17370005Y-14245003D02*
X17370005Y-14235003D01*
X18215268Y-14939129D02*
X18218854Y-14956411D01*
X18222649Y-14973637D01*
X18226652Y-14990807D01*
X18230861Y-15007918D01*
X18235277Y-15024968D01*
X18239899Y-15041957D01*
X18244726Y-15058882D01*
X18249756Y-15075740D01*
X18254990Y-15092532D01*
X18260427Y-15109254D01*
X18266065Y-15125905D01*
X18271905Y-15142483D01*
X18277945Y-15158986D01*
X18284185Y-15175413D01*
X18290623Y-15191761D01*
X18297260Y-15208030D01*
X18304094Y-15224216D01*
X18311125Y-15240319D01*
X18318352Y-15256336D01*
X18325774Y-15272266D01*
X18333390Y-15288107D01*
X18341201Y-15303856D01*
X18349204Y-15319514D01*
X18357399Y-15335076D01*
X18365786Y-15350543D01*
X18374364Y-15365911D01*
X18383132Y-15381180D01*
X18392089Y-15396347D01*
X18401235Y-15411410D01*
X18410568Y-15426368D01*
X18420088Y-15441219D01*
X18429795Y-15455961D01*
X24100629Y-9091360D02*
X24100629Y-8695951D01*
X24100631Y-8695951D02*
G75*
G03*
X24057797Y-8634385I-65661J1D01*
G01*
X25826851Y-13651360D02*
X25826851Y-13850055D01*
X19611851Y-8695951D02*
X19611851Y-9091360D01*
X24166240Y-9901360D02*
X24166240Y-9641360D01*
X22046909Y-14501812D02*
X22060541Y-14504419D01*
X22074134Y-14507202D01*
X22087686Y-14510161D01*
X22101195Y-14513295D01*
X22114660Y-14516605D01*
X22128080Y-14520090D01*
X22141451Y-14523749D01*
X22154773Y-14527581D01*
X22168045Y-14531587D01*
X22181263Y-14535765D01*
X22194427Y-14540115D01*
X22207535Y-14544637D01*
X22220585Y-14549331D01*
X22233575Y-14554195D01*
X22246505Y-14559229D01*
X22259371Y-14564432D01*
X20419405Y-15868233D02*
X20434145Y-15858560D01*
X20448759Y-15848714D01*
X20463244Y-15838695D01*
X20477599Y-15828505D01*
X20491823Y-15818146D01*
X20505913Y-15807619D01*
X20519870Y-15796925D01*
X20533691Y-15786065D01*
X20547375Y-15775042D01*
X20560920Y-15763856D01*
X20574326Y-15752508D01*
X20587591Y-15741001D01*
X20600712Y-15729335D01*
X20613690Y-15717512D01*
X20626523Y-15705533D01*
X20639208Y-15693400D01*
X20651745Y-15681113D01*
X20664133Y-15668675D01*
X20676369Y-15656087D01*
X20688453Y-15643350D01*
X20700384Y-15630465D01*
X20712158Y-15617434D01*
X20723777Y-15604258D01*
X20735237Y-15590939D01*
X20746537Y-15577477D01*
X20757677Y-15563875D01*
X20768654Y-15550134D01*
X20779468Y-15536254D01*
X20790116Y-15522238D01*
X20800598Y-15508087D01*
X20810912Y-15493802D01*
X20821056Y-15479385D01*
X17677689Y-14096631D02*
X17689946Y-14107621D01*
X17701910Y-14118529D01*
X17713577Y-14129342D01*
X17724944Y-14140043D01*
X17736005Y-14150619D01*
X17746758Y-14161056D01*
X17757199Y-14171338D01*
X17767322Y-14181452D01*
X17777126Y-14191382D01*
X17786604Y-14201115D01*
X17795755Y-14210636D01*
X17804573Y-14219930D01*
X17813055Y-14228983D01*
X17821197Y-14237781D01*
X17828994Y-14246309D01*
X17836444Y-14254552D01*
X17843542Y-14262497D01*
X17850283Y-14270128D01*
X17862683Y-14284391D01*
X17873613Y-14297227D01*
X17883040Y-14308520D01*
X17890933Y-14318154D01*
X17897261Y-14326013D01*
X17903749Y-14334220D01*
X17905095Y-14335943D01*
X23300172Y-13061567D02*
X24051313Y-13057057D01*
X17431108Y-14097350D02*
X17439636Y-14090152D01*
X17448583Y-14083492D01*
X17457925Y-14077384D01*
X17463278Y-14074234D01*
X26678487Y-10641360D02*
G75*
G03*
X26678487Y-10641360I-122247J0D01*
G01*
X19461168Y-11630178D02*
G75*
G03*
X19461168Y-11630178I-90000J0D01*
G01*
X27419831Y-10071088D02*
X26799561Y-9714158D01*
X18429795Y-15455961D02*
X18439660Y-15470553D01*
X18449697Y-15485015D01*
X18459903Y-15499346D01*
X18470278Y-15513545D01*
X18480821Y-15527611D01*
X18491530Y-15541542D01*
X18502403Y-15555337D01*
X18513439Y-15568994D01*
X18524637Y-15582513D01*
X18535996Y-15595891D01*
X18547513Y-15609127D01*
X18559188Y-15622221D01*
X18571019Y-15635170D01*
X18583006Y-15647973D01*
X18595145Y-15660629D01*
X18607437Y-15673137D01*
X18619879Y-15685495D01*
X18632470Y-15697701D01*
X18645210Y-15709755D01*
X18658095Y-15721655D01*
X18671126Y-15733400D01*
X18684301Y-15744988D01*
X18697618Y-15756418D01*
X18711075Y-15767689D01*
X18724673Y-15778798D01*
X18738408Y-15789746D01*
X18752280Y-15800530D01*
X18766287Y-15811149D01*
X18780429Y-15821602D01*
X18794703Y-15831888D01*
X18809108Y-15842004D01*
X18823643Y-15851950D01*
X22629464Y-13878010D02*
X22634537Y-13868626D01*
X22639670Y-13859274D01*
X22644864Y-13849956D01*
X22650119Y-13840671D01*
X22655434Y-13831420D01*
X22660809Y-13822203D01*
X22666244Y-13813020D01*
X22671738Y-13803873D01*
X22677292Y-13794761D01*
X22682906Y-13785684D01*
X22688578Y-13776643D01*
X22694309Y-13767639D01*
X22700099Y-13758671D01*
X22705948Y-13749741D01*
X22711855Y-13740847D01*
X22717819Y-13731992D01*
X22723842Y-13723175D01*
X22729922Y-13714396D01*
X22736060Y-13705656D01*
X22742255Y-13696955D01*
X22748507Y-13688294D01*
X22754815Y-13679673D01*
X22761181Y-13671093D01*
X22767603Y-13662552D01*
X22774081Y-13654053D01*
X22780615Y-13645596D01*
X22787205Y-13637180D01*
X22793850Y-13628806D01*
X22800551Y-13620475D01*
X22807307Y-13612187D01*
X22814118Y-13603942D01*
X22820984Y-13595740D01*
X19546240Y-9641360D02*
X19546240Y-9901360D01*
X25826845Y-13850055D02*
G75*
G03*
X26026851Y-14050055I200005J5D01*
G01*
X25059430Y-13357464D02*
G75*
G03*
X25169906Y-13390749I110480J166714D01*
G01*
X16292649Y-10071088D02*
X16264857Y-10094782D01*
X16238032Y-10118290D01*
X16212155Y-10141599D01*
X16187210Y-10164692D01*
X16163179Y-10187556D01*
X16140047Y-10210176D01*
X16117795Y-10232537D01*
X16096406Y-10254626D01*
X16075864Y-10276426D01*
X16056151Y-10297924D01*
X16037250Y-10319105D01*
X16019145Y-10339955D01*
X16001817Y-10360458D01*
X15985251Y-10380600D01*
X15969428Y-10400367D01*
X15954332Y-10419744D01*
X15939945Y-10438716D01*
X15926252Y-10457269D01*
X15913233Y-10475388D01*
X15900873Y-10493059D01*
X15889154Y-10510267D01*
X15878060Y-10526997D01*
X15867572Y-10543234D01*
X15857675Y-10558965D01*
X15848350Y-10574175D01*
X15839581Y-10588848D01*
X15831351Y-10602970D01*
X15823643Y-10616528D01*
X15816439Y-10629505D01*
X15809723Y-10641888D01*
X15803477Y-10653661D01*
X15797684Y-10664811D01*
X18823643Y-15851950D02*
X18838347Y-15861751D01*
X18853162Y-15871367D01*
X18868085Y-15880798D01*
X18883116Y-15890041D01*
X18898251Y-15899098D01*
X18913490Y-15907966D01*
X18928830Y-15916645D01*
X18944270Y-15925134D01*
X18959807Y-15933433D01*
X18975440Y-15941541D01*
X18991168Y-15949456D01*
X19006987Y-15957179D01*
X19022897Y-15964708D01*
X19038896Y-15972043D01*
X19054981Y-15979182D01*
X19071152Y-15986126D01*
X19087405Y-15992872D01*
X19103740Y-15999422D01*
X19120154Y-16005772D01*
X19136645Y-16011924D01*
X19153213Y-16017876D01*
X19169854Y-16023628D01*
X19186568Y-16029178D01*
X19203352Y-16034525D01*
X19220204Y-16039670D01*
X19237123Y-16044611D01*
X19254107Y-16049348D01*
X19271154Y-16053879D01*
X19288262Y-16058204D01*
X19305429Y-16062323D01*
X19322654Y-16066233D01*
X19339935Y-16069936D01*
X22259371Y-14564434D02*
G75*
G03*
X22443254Y-14485775I46139J146404D01*
G01*
X24100629Y-9091360D02*
G75*
G03*
X24342957Y-9346625I255611J0D01*
G01*
X15797684Y-10664811D02*
X15788022Y-10683918D01*
X15778602Y-10703191D01*
X15769417Y-10722639D01*
X15760460Y-10742268D01*
X15751722Y-10762086D01*
X15743198Y-10782101D01*
X15734879Y-10802318D01*
X15726759Y-10822746D01*
X15718829Y-10843392D01*
X15711084Y-10864263D01*
X15703514Y-10885367D01*
X15696115Y-10906709D01*
X15688876Y-10928299D01*
X15681793Y-10950142D01*
X15674857Y-10972247D01*
X15668061Y-10994620D01*
X15661397Y-11017268D01*
X15654859Y-11040200D01*
X15648440Y-11063422D01*
X15642131Y-11086941D01*
X15635926Y-11110765D01*
X15629817Y-11134900D01*
X15623797Y-11159355D01*
X15617858Y-11184136D01*
X15611994Y-11209250D01*
X15606198Y-11234706D01*
X15600461Y-11260509D01*
X15594777Y-11286668D01*
X15589138Y-11313189D01*
X15583536Y-11340080D01*
X15577966Y-11367348D01*
X15572419Y-11395000D01*
X26726947Y-13340646D02*
G75*
G03*
X26726947Y-13340646I-232500J0D01*
G01*
X17463278Y-14074234D02*
X17472981Y-14069116D01*
X17482961Y-14064585D01*
X17493194Y-14060652D01*
X17498978Y-14058729D01*
X19338878Y-9350611D02*
X18896373Y-9443383D01*
X26342475Y-14235003D02*
X26342475Y-14245003D01*
X25802042Y-9447639D02*
X24857146Y-9447639D01*
X17498978Y-14058729D02*
X17509833Y-14055676D01*
X17520836Y-14053290D01*
X17531954Y-14051572D01*
X17543153Y-14050528D01*
X17554400Y-14050159D01*
X17565661Y-14050470D01*
X17570163Y-14050785D01*
X26407475Y-14310003D02*
X27940061Y-14310003D01*
D11*
D12*
X21531240Y-8928360D02*
X21571240Y-8968360D01*
X21571240Y-8928360D02*
X21531240Y-8968360D01*
X21596240Y-8858360D02*
X21636240Y-8898360D01*
X21636240Y-8858360D02*
X21596240Y-8898360D01*
X21676240Y-8858360D02*
X21716240Y-8898360D01*
X21716240Y-8858360D02*
X21676240Y-8898360D01*
X21716240Y-8928360D02*
X21756240Y-8968360D01*
X21756240Y-8928360D02*
X21716240Y-8968360D01*
X21756240Y-8858360D02*
X21796240Y-8898360D01*
X21796240Y-8858360D02*
X21756240Y-8898360D01*
X21796240Y-8928360D02*
X21836240Y-8968360D01*
X21836240Y-8928360D02*
X21796240Y-8968360D01*
X21876240Y-8928360D02*
X21916240Y-8968360D01*
X21916240Y-8928360D02*
X21876240Y-8968360D01*
X21916240Y-8858360D02*
X21956240Y-8898360D01*
X21956240Y-8858360D02*
X21916240Y-8898360D01*
X21956240Y-8928360D02*
X21996240Y-8968360D01*
X21996240Y-8928360D02*
X21956240Y-8968360D01*
X21996240Y-8858360D02*
X22036240Y-8898360D01*
X22036240Y-8858360D02*
X21996240Y-8898360D01*
X22076240Y-8858360D02*
X22116240Y-8898360D01*
X22116240Y-8858360D02*
X22076240Y-8898360D01*
X22141240Y-8928360D02*
X22181240Y-8968360D01*
X22181240Y-8928360D02*
X22141240Y-8968360D01*
D13*
X21476240Y-8988360D02*
G75*
G03*
X21476240Y-8988360I-25000J0D01*
G01*
X22286240Y-8988360D02*
G75*
G03*
X22286240Y-8988360I-25000J0D01*
G01*
D14*
X21406240Y-8438360D02*
X21406240Y-8498360D01*
X21376240Y-8468360D02*
X21436240Y-8468360D01*
D11*
X21376240Y-8423360D02*
X21376240Y-8513360D01*
X21376240Y-8513360D02*
G75*
G03*
X21436240Y-8513360I30000J0D01*
G01*
X21436240Y-8513360D02*
X21436240Y-8423360D01*
X21436240Y-8423360D02*
G75*
G03*
X21376240Y-8423360I-30000J0D01*
G01*
D14*
X21406240Y-9013360D02*
X21406240Y-9073360D01*
X21376240Y-9043360D02*
X21436240Y-9043360D01*
X22306240Y-8438360D02*
X22306240Y-8498360D01*
X22276240Y-8468360D02*
X22336240Y-8468360D01*
D11*
X22276240Y-8423360D02*
X22276240Y-8513360D01*
X22276240Y-8513360D02*
G75*
G03*
X22336240Y-8513360I30000J0D01*
G01*
X22336240Y-8513360D02*
X22336240Y-8423360D01*
X22336240Y-8423360D02*
G75*
G03*
X22276240Y-8423360I-30000J0D01*
G01*
D14*
X22306240Y-9013360D02*
X22306240Y-9073360D01*
X22276240Y-9043360D02*
X22336240Y-9043360D01*
D15*
X18949525Y-11319644D02*
X18949525Y-11263075D01*
X18892956Y-11263075D01*
X18892956Y-11319644D01*
X18949525Y-11319644D01*
D11*
X18881240Y-11256360D02*
X18881240Y-11326360D01*
X18881240Y-11326360D02*
G75*
G03*
X18961240Y-11326360I40000J0D01*
G01*
X18961240Y-11326360D02*
X18961240Y-11256360D01*
X18961240Y-11256360D02*
G75*
G03*
X18881240Y-11256360I-40000J0D01*
G01*
D15*
X19134525Y-10169644D02*
X19134525Y-10113075D01*
X19077956Y-10113075D01*
X19077956Y-10169644D01*
X19134525Y-10169644D01*
X19384525Y-10169644D02*
X19384525Y-10113075D01*
X19327956Y-10113075D01*
X19327956Y-10169644D01*
X19384525Y-10169644D01*
X19634525Y-10169644D02*
X19634525Y-10113075D01*
X19577956Y-10113075D01*
X19577956Y-10169644D01*
X19634525Y-10169644D01*
X19819525Y-11319644D02*
X19819525Y-11263075D01*
X19762956Y-11263075D01*
X19762956Y-11319644D01*
X19819525Y-11319644D01*
D11*
X19751240Y-11256360D02*
X19751240Y-11326360D01*
X19751240Y-11326360D02*
G75*
G03*
X19831240Y-11326360I40000J0D01*
G01*
X19831240Y-11326360D02*
X19831240Y-11256360D01*
X19831240Y-11256360D02*
G75*
G03*
X19751240Y-11256360I-40000J0D01*
G01*
D15*
X23949525Y-11319644D02*
X23949525Y-11263075D01*
X23892956Y-11263075D01*
X23892956Y-11319644D01*
X23949525Y-11319644D01*
D11*
X23881240Y-11256360D02*
X23881240Y-11326360D01*
X23881240Y-11326360D02*
G75*
G03*
X23961240Y-11326360I40000J0D01*
G01*
X23961240Y-11326360D02*
X23961240Y-11256360D01*
X23961240Y-11256360D02*
G75*
G03*
X23881240Y-11256360I-40000J0D01*
G01*
D15*
X24134525Y-10169644D02*
X24134525Y-10113075D01*
X24077956Y-10113075D01*
X24077956Y-10169644D01*
X24134525Y-10169644D01*
X24384525Y-10169644D02*
X24384525Y-10113075D01*
X24327956Y-10113075D01*
X24327956Y-10169644D01*
X24384525Y-10169644D01*
X24634525Y-10169644D02*
X24634525Y-10113075D01*
X24577956Y-10113075D01*
X24577956Y-10169644D01*
X24634525Y-10169644D01*
X24819525Y-11319644D02*
X24819525Y-11263075D01*
X24762956Y-11263075D01*
X24762956Y-11319644D01*
X24819525Y-11319644D01*
D11*
X24751240Y-11256360D02*
X24751240Y-11326360D01*
X24751240Y-11326360D02*
G75*
G03*
X24831240Y-11326360I40000J0D01*
G01*
X24831240Y-11326360D02*
X24831240Y-11256360D01*
X24831240Y-11256360D02*
G75*
G03*
X24751240Y-11256360I-40000J0D01*
G01*
D16*
X16715602Y-11946612D02*
X16760602Y-11901612D01*
X16715602Y-11856612D01*
X16670602Y-11901612D01*
X16715602Y-11946612D01*
X16749620Y-11297503D02*
X16794620Y-11252503D01*
X16749620Y-11207503D01*
X16704620Y-11252503D01*
X16749620Y-11297503D01*
X17164985Y-11970163D02*
X17209985Y-11925163D01*
X17164985Y-11880163D01*
X17119985Y-11925163D01*
X17164985Y-11970163D01*
X17199004Y-11321054D02*
X17244004Y-11276054D01*
X17199004Y-11231054D01*
X17154004Y-11276054D01*
X17199004Y-11321054D01*
D17*
X16591240Y-10136360D02*
X16701240Y-10246360D01*
X16701240Y-10136360D02*
X16591240Y-10246360D01*
X16701240Y-10191360D02*
G75*
G03*
X16701240Y-10191360I-55000J0D01*
G01*
X16980952Y-9911360D02*
X17090952Y-10021360D01*
X17090952Y-9911360D02*
X16980952Y-10021360D01*
X17090952Y-9966360D02*
G75*
G03*
X17090952Y-9966360I-55000J0D01*
G01*
X26621529Y-9911360D02*
X26731529Y-10021360D01*
X26731529Y-9911360D02*
X26621529Y-10021360D01*
X26731529Y-9966360D02*
G75*
G03*
X26731529Y-9966360I-55000J0D01*
G01*
X27011240Y-10136360D02*
X27121240Y-10246360D01*
X27121240Y-10136360D02*
X27011240Y-10246360D01*
X27121240Y-10191360D02*
G75*
G03*
X27121240Y-10191360I-55000J0D01*
G01*
D18*
X17153803Y-12175644D02*
X17273803Y-12295644D01*
X17273803Y-12175644D02*
X17153803Y-12295644D01*
X17213803Y-12175644D02*
X17213803Y-12295644D01*
X17153803Y-12235644D02*
X17273803Y-12235644D01*
X17220008Y-10912377D02*
X17340008Y-11032377D01*
X17340008Y-10912377D02*
X17220008Y-11032377D01*
X17280008Y-10912377D02*
X17280008Y-11032377D01*
X17220008Y-10972377D02*
X17340008Y-10972377D01*
X18152432Y-12227980D02*
X18272432Y-12347980D01*
X18272432Y-12227980D02*
X18152432Y-12347980D01*
X18212432Y-12227980D02*
X18212432Y-12347980D01*
X18152432Y-12287980D02*
X18272432Y-12287980D01*
X18218637Y-10964713D02*
X18338637Y-11084713D01*
X18338637Y-10964713D02*
X18218637Y-11084713D01*
X18278637Y-10964713D02*
X18278637Y-11084713D01*
X18218637Y-11024713D02*
X18338637Y-11024713D01*
D19*
X16587987Y-10395366D02*
X16737987Y-10545366D01*
X16737987Y-10395366D02*
X16587987Y-10545366D01*
X16716021Y-10523400D02*
X16716021Y-10417333D01*
X16609954Y-10417333D01*
X16609954Y-10523400D01*
X16716021Y-10523400D01*
X17194205Y-10045366D02*
X17344205Y-10195366D01*
X17344205Y-10045366D02*
X17194205Y-10195366D01*
X17322238Y-10173400D02*
X17322238Y-10067333D01*
X17216171Y-10067333D01*
X17216171Y-10173400D01*
X17322238Y-10173400D01*
X26368276Y-10045366D02*
X26518276Y-10195366D01*
X26518276Y-10045366D02*
X26368276Y-10195366D01*
X26496309Y-10173400D02*
X26496309Y-10067333D01*
X26390242Y-10067333D01*
X26390242Y-10173400D01*
X26496309Y-10173400D01*
X26974493Y-10395366D02*
X27124493Y-10545366D01*
X27124493Y-10395366D02*
X26974493Y-10545366D01*
X27102527Y-10523400D02*
X27102527Y-10417333D01*
X26996460Y-10417333D01*
X26996460Y-10523400D01*
X27102527Y-10523400D01*
D11*
X15828196Y-16426752D02*
X15828196Y-16226752D01*
X15828196Y-16226752D02*
X15875815Y-16226752D01*
X15875815Y-16226752D02*
X15904387Y-16236276D01*
X15904387Y-16236276D02*
X15923434Y-16255324D01*
X15923434Y-16255324D02*
X15932958Y-16274371D01*
X15932958Y-16274371D02*
X15942482Y-16312467D01*
X15942482Y-16312467D02*
X15942482Y-16341038D01*
X15942482Y-16341038D02*
X15932958Y-16379133D01*
X15932958Y-16379133D02*
X15923434Y-16398181D01*
X15923434Y-16398181D02*
X15904387Y-16417229D01*
X15904387Y-16417229D02*
X15875815Y-16426752D01*
X15875815Y-16426752D02*
X15828196Y-16426752D01*
X16028196Y-16426752D02*
X16028196Y-16293419D01*
X16028196Y-16331514D02*
X16037720Y-16312467D01*
X16037720Y-16312467D02*
X16047244Y-16302943D01*
X16047244Y-16302943D02*
X16066291Y-16293419D01*
X16066291Y-16293419D02*
X16085339Y-16293419D01*
X16152006Y-16426752D02*
X16152006Y-16293419D01*
X16152006Y-16226752D02*
X16142482Y-16236276D01*
X16142482Y-16236276D02*
X16152006Y-16245800D01*
X16152006Y-16245800D02*
X16161529Y-16236276D01*
X16161529Y-16236276D02*
X16152006Y-16226752D01*
X16152006Y-16226752D02*
X16152006Y-16245800D01*
X16275815Y-16426752D02*
X16256767Y-16417229D01*
X16256767Y-16417229D02*
X16247244Y-16398181D01*
X16247244Y-16398181D02*
X16247244Y-16226752D01*
X16380577Y-16426752D02*
X16361529Y-16417229D01*
X16361529Y-16417229D02*
X16352006Y-16398181D01*
X16352006Y-16398181D02*
X16352006Y-16226752D01*
X16609148Y-16426752D02*
X16609148Y-16226752D01*
X16609148Y-16226752D02*
X16675815Y-16369610D01*
X16675815Y-16369610D02*
X16742482Y-16226752D01*
X16742482Y-16226752D02*
X16742482Y-16426752D01*
X16923434Y-16426752D02*
X16923434Y-16321991D01*
X16923434Y-16321991D02*
X16913910Y-16302943D01*
X16913910Y-16302943D02*
X16894863Y-16293419D01*
X16894863Y-16293419D02*
X16856768Y-16293419D01*
X16856768Y-16293419D02*
X16837720Y-16302943D01*
X16923434Y-16417229D02*
X16904387Y-16426752D01*
X16904387Y-16426752D02*
X16856768Y-16426752D01*
X16856768Y-16426752D02*
X16837720Y-16417229D01*
X16837720Y-16417229D02*
X16828196Y-16398181D01*
X16828196Y-16398181D02*
X16828196Y-16379133D01*
X16828196Y-16379133D02*
X16837720Y-16360086D01*
X16837720Y-16360086D02*
X16856768Y-16350562D01*
X16856768Y-16350562D02*
X16904387Y-16350562D01*
X16904387Y-16350562D02*
X16923434Y-16341038D01*
X17018672Y-16293419D02*
X17018672Y-16493419D01*
X17018672Y-16302943D02*
X17037720Y-16293419D01*
X17037720Y-16293419D02*
X17075815Y-16293419D01*
X17075815Y-16293419D02*
X17094863Y-16302943D01*
X17094863Y-16302943D02*
X17104387Y-16312467D01*
X17104387Y-16312467D02*
X17113910Y-16331514D01*
X17113910Y-16331514D02*
X17113910Y-16388657D01*
X17113910Y-16388657D02*
X17104387Y-16407705D01*
X17104387Y-16407705D02*
X17094863Y-16417229D01*
X17094863Y-16417229D02*
X17075815Y-16426752D01*
X17075815Y-16426752D02*
X17037720Y-16426752D01*
X17037720Y-16426752D02*
X17018672Y-16417229D01*
X17199625Y-16407705D02*
X17209149Y-16417229D01*
X17209149Y-16417229D02*
X17199625Y-16426752D01*
X17199625Y-16426752D02*
X17190101Y-16417229D01*
X17190101Y-16417229D02*
X17199625Y-16407705D01*
X17199625Y-16407705D02*
X17199625Y-16426752D01*
X17199625Y-16302943D02*
X17209149Y-16312467D01*
X17209149Y-16312467D02*
X17199625Y-16321991D01*
X17199625Y-16321991D02*
X17190101Y-16312467D01*
X17190101Y-16312467D02*
X17199625Y-16302943D01*
X17199625Y-16302943D02*
X17199625Y-16321991D01*
D12*
X15527419Y-16735269D02*
X15567419Y-16775269D01*
X15567419Y-16735269D02*
X15527419Y-16775269D01*
D11*
X15866291Y-16646752D02*
X15885339Y-16646752D01*
X15885339Y-16646752D02*
X15904387Y-16656276D01*
X15904387Y-16656276D02*
X15913910Y-16665800D01*
X15913910Y-16665800D02*
X15923434Y-16684848D01*
X15923434Y-16684848D02*
X15932958Y-16722943D01*
X15932958Y-16722943D02*
X15932958Y-16770562D01*
X15932958Y-16770562D02*
X15923434Y-16808657D01*
X15923434Y-16808657D02*
X15913910Y-16827705D01*
X15913910Y-16827705D02*
X15904387Y-16837229D01*
X15904387Y-16837229D02*
X15885339Y-16846753D01*
X15885339Y-16846753D02*
X15866291Y-16846753D01*
X15866291Y-16846753D02*
X15847244Y-16837229D01*
X15847244Y-16837229D02*
X15837720Y-16827705D01*
X15837720Y-16827705D02*
X15828196Y-16808657D01*
X15828196Y-16808657D02*
X15818672Y-16770562D01*
X15818672Y-16770562D02*
X15818672Y-16722943D01*
X15818672Y-16722943D02*
X15828196Y-16684848D01*
X15828196Y-16684848D02*
X15837720Y-16665800D01*
X15837720Y-16665800D02*
X15847244Y-16656276D01*
X15847244Y-16656276D02*
X15866291Y-16646752D01*
X16018672Y-16827705D02*
X16028196Y-16837229D01*
X16028196Y-16837229D02*
X16018672Y-16846753D01*
X16018672Y-16846753D02*
X16009148Y-16837229D01*
X16009148Y-16837229D02*
X16018672Y-16827705D01*
X16018672Y-16827705D02*
X16018672Y-16846753D01*
X16199625Y-16713419D02*
X16199625Y-16846753D01*
X16152006Y-16637229D02*
X16104387Y-16780086D01*
X16104387Y-16780086D02*
X16228196Y-16780086D01*
X16342482Y-16646752D02*
X16361529Y-16646752D01*
X16361529Y-16646752D02*
X16380577Y-16656276D01*
X16380577Y-16656276D02*
X16390101Y-16665800D01*
X16390101Y-16665800D02*
X16399625Y-16684848D01*
X16399625Y-16684848D02*
X16409148Y-16722943D01*
X16409148Y-16722943D02*
X16409148Y-16770562D01*
X16409148Y-16770562D02*
X16399625Y-16808657D01*
X16399625Y-16808657D02*
X16390101Y-16827705D01*
X16390101Y-16827705D02*
X16380577Y-16837229D01*
X16380577Y-16837229D02*
X16361529Y-16846753D01*
X16361529Y-16846753D02*
X16342482Y-16846753D01*
X16342482Y-16846753D02*
X16323434Y-16837229D01*
X16323434Y-16837229D02*
X16313910Y-16827705D01*
X16313910Y-16827705D02*
X16304387Y-16808657D01*
X16304387Y-16808657D02*
X16294863Y-16770562D01*
X16294863Y-16770562D02*
X16294863Y-16722943D01*
X16294863Y-16722943D02*
X16304387Y-16684848D01*
X16304387Y-16684848D02*
X16313910Y-16665800D01*
X16313910Y-16665800D02*
X16323434Y-16656276D01*
X16323434Y-16656276D02*
X16342482Y-16646752D01*
X16532958Y-16646752D02*
X16552006Y-16646752D01*
X16552006Y-16646752D02*
X16571053Y-16656276D01*
X16571053Y-16656276D02*
X16580577Y-16665800D01*
X16580577Y-16665800D02*
X16590101Y-16684848D01*
X16590101Y-16684848D02*
X16599625Y-16722943D01*
X16599625Y-16722943D02*
X16599625Y-16770562D01*
X16599625Y-16770562D02*
X16590101Y-16808657D01*
X16590101Y-16808657D02*
X16580577Y-16827705D01*
X16580577Y-16827705D02*
X16571053Y-16837229D01*
X16571053Y-16837229D02*
X16552006Y-16846753D01*
X16552006Y-16846753D02*
X16532958Y-16846753D01*
X16532958Y-16846753D02*
X16513910Y-16837229D01*
X16513910Y-16837229D02*
X16504387Y-16827705D01*
X16504387Y-16827705D02*
X16494863Y-16808657D01*
X16494863Y-16808657D02*
X16485339Y-16770562D01*
X16485339Y-16770562D02*
X16485339Y-16722943D01*
X16485339Y-16722943D02*
X16494863Y-16684848D01*
X16494863Y-16684848D02*
X16504387Y-16665800D01*
X16504387Y-16665800D02*
X16513910Y-16656276D01*
X16513910Y-16656276D02*
X16532958Y-16646752D01*
X16685339Y-16846753D02*
X16685339Y-16713419D01*
X16685339Y-16732467D02*
X16694863Y-16722943D01*
X16694863Y-16722943D02*
X16713910Y-16713419D01*
X16713910Y-16713419D02*
X16742482Y-16713419D01*
X16742482Y-16713419D02*
X16761529Y-16722943D01*
X16761529Y-16722943D02*
X16771053Y-16741991D01*
X16771053Y-16741991D02*
X16771053Y-16846753D01*
X16771053Y-16741991D02*
X16780577Y-16722943D01*
X16780577Y-16722943D02*
X16799625Y-16713419D01*
X16799625Y-16713419D02*
X16828196Y-16713419D01*
X16828196Y-16713419D02*
X16847244Y-16722943D01*
X16847244Y-16722943D02*
X16856768Y-16741991D01*
X16856768Y-16741991D02*
X16856768Y-16846753D01*
X16952006Y-16846753D02*
X16952006Y-16713419D01*
X16952006Y-16732467D02*
X16961530Y-16722943D01*
X16961530Y-16722943D02*
X16980577Y-16713419D01*
X16980577Y-16713419D02*
X17009149Y-16713419D01*
X17009149Y-16713419D02*
X17028196Y-16722943D01*
X17028196Y-16722943D02*
X17037720Y-16741991D01*
X17037720Y-16741991D02*
X17037720Y-16846753D01*
X17037720Y-16741991D02*
X17047244Y-16722943D01*
X17047244Y-16722943D02*
X17066291Y-16713419D01*
X17066291Y-16713419D02*
X17094863Y-16713419D01*
X17094863Y-16713419D02*
X17113911Y-16722943D01*
X17113911Y-16722943D02*
X17123434Y-16741991D01*
X17123434Y-16741991D02*
X17123434Y-16846753D01*
X17513911Y-16637229D02*
X17342482Y-16894372D01*
X17771053Y-16646752D02*
X17790101Y-16646752D01*
X17790101Y-16646752D02*
X17809149Y-16656276D01*
X17809149Y-16656276D02*
X17818673Y-16665800D01*
X17818673Y-16665800D02*
X17828196Y-16684848D01*
X17828196Y-16684848D02*
X17837720Y-16722943D01*
X17837720Y-16722943D02*
X17837720Y-16770562D01*
X17837720Y-16770562D02*
X17828196Y-16808657D01*
X17828196Y-16808657D02*
X17818673Y-16827705D01*
X17818673Y-16827705D02*
X17809149Y-16837229D01*
X17809149Y-16837229D02*
X17790101Y-16846753D01*
X17790101Y-16846753D02*
X17771053Y-16846753D01*
X17771053Y-16846753D02*
X17752006Y-16837229D01*
X17752006Y-16837229D02*
X17742482Y-16827705D01*
X17742482Y-16827705D02*
X17732958Y-16808657D01*
X17732958Y-16808657D02*
X17723434Y-16770562D01*
X17723434Y-16770562D02*
X17723434Y-16722943D01*
X17723434Y-16722943D02*
X17732958Y-16684848D01*
X17732958Y-16684848D02*
X17742482Y-16665800D01*
X17742482Y-16665800D02*
X17752006Y-16656276D01*
X17752006Y-16656276D02*
X17771053Y-16646752D01*
X17923434Y-16827705D02*
X17932958Y-16837229D01*
X17932958Y-16837229D02*
X17923434Y-16846753D01*
X17923434Y-16846753D02*
X17913911Y-16837229D01*
X17913911Y-16837229D02*
X17923434Y-16827705D01*
X17923434Y-16827705D02*
X17923434Y-16846753D01*
X18056768Y-16646752D02*
X18075815Y-16646752D01*
X18075815Y-16646752D02*
X18094863Y-16656276D01*
X18094863Y-16656276D02*
X18104387Y-16665800D01*
X18104387Y-16665800D02*
X18113911Y-16684848D01*
X18113911Y-16684848D02*
X18123434Y-16722943D01*
X18123434Y-16722943D02*
X18123434Y-16770562D01*
X18123434Y-16770562D02*
X18113911Y-16808657D01*
X18113911Y-16808657D02*
X18104387Y-16827705D01*
X18104387Y-16827705D02*
X18094863Y-16837229D01*
X18094863Y-16837229D02*
X18075815Y-16846753D01*
X18075815Y-16846753D02*
X18056768Y-16846753D01*
X18056768Y-16846753D02*
X18037720Y-16837229D01*
X18037720Y-16837229D02*
X18028196Y-16827705D01*
X18028196Y-16827705D02*
X18018673Y-16808657D01*
X18018673Y-16808657D02*
X18009149Y-16770562D01*
X18009149Y-16770562D02*
X18009149Y-16722943D01*
X18009149Y-16722943D02*
X18018673Y-16684848D01*
X18018673Y-16684848D02*
X18028196Y-16665800D01*
X18028196Y-16665800D02*
X18037720Y-16656276D01*
X18037720Y-16656276D02*
X18056768Y-16646752D01*
X18313911Y-16846753D02*
X18199625Y-16846753D01*
X18256768Y-16846753D02*
X18256768Y-16646752D01*
X18256768Y-16646752D02*
X18237720Y-16675324D01*
X18237720Y-16675324D02*
X18218673Y-16694371D01*
X18218673Y-16694371D02*
X18199625Y-16703895D01*
X18494863Y-16646752D02*
X18399625Y-16646752D01*
X18399625Y-16646752D02*
X18390101Y-16741991D01*
X18390101Y-16741991D02*
X18399625Y-16732467D01*
X18399625Y-16732467D02*
X18418673Y-16722943D01*
X18418673Y-16722943D02*
X18466292Y-16722943D01*
X18466292Y-16722943D02*
X18485339Y-16732467D01*
X18485339Y-16732467D02*
X18494863Y-16741991D01*
X18494863Y-16741991D02*
X18504387Y-16761038D01*
X18504387Y-16761038D02*
X18504387Y-16808657D01*
X18504387Y-16808657D02*
X18494863Y-16827705D01*
X18494863Y-16827705D02*
X18485339Y-16837229D01*
X18485339Y-16837229D02*
X18466292Y-16846753D01*
X18466292Y-16846753D02*
X18418673Y-16846753D01*
X18418673Y-16846753D02*
X18399625Y-16837229D01*
X18399625Y-16837229D02*
X18390101Y-16827705D01*
X18571054Y-16646752D02*
X18704387Y-16646752D01*
X18704387Y-16646752D02*
X18618673Y-16846753D01*
X18771054Y-16646752D02*
X18771054Y-16684848D01*
X18847244Y-16646752D02*
X18847244Y-16684848D01*
X19142482Y-16922943D02*
X19132958Y-16913419D01*
X19132958Y-16913419D02*
X19113911Y-16884848D01*
X19113911Y-16884848D02*
X19104387Y-16865800D01*
X19104387Y-16865800D02*
X19094863Y-16837229D01*
X19094863Y-16837229D02*
X19085339Y-16789610D01*
X19085339Y-16789610D02*
X19085339Y-16751514D01*
X19085339Y-16751514D02*
X19094863Y-16703895D01*
X19094863Y-16703895D02*
X19104387Y-16675324D01*
X19104387Y-16675324D02*
X19113911Y-16656276D01*
X19113911Y-16656276D02*
X19132958Y-16627705D01*
X19132958Y-16627705D02*
X19142482Y-16618181D01*
X19323435Y-16846753D02*
X19209149Y-16846753D01*
X19266292Y-16846753D02*
X19266292Y-16646752D01*
X19266292Y-16646752D02*
X19247244Y-16675324D01*
X19247244Y-16675324D02*
X19228196Y-16694371D01*
X19228196Y-16694371D02*
X19209149Y-16703895D01*
X19399625Y-16665800D02*
X19409149Y-16656276D01*
X19409149Y-16656276D02*
X19428196Y-16646752D01*
X19428196Y-16646752D02*
X19475816Y-16646752D01*
X19475816Y-16646752D02*
X19494863Y-16656276D01*
X19494863Y-16656276D02*
X19504387Y-16665800D01*
X19504387Y-16665800D02*
X19513911Y-16684848D01*
X19513911Y-16684848D02*
X19513911Y-16703895D01*
X19513911Y-16703895D02*
X19504387Y-16732467D01*
X19504387Y-16732467D02*
X19390101Y-16846753D01*
X19390101Y-16846753D02*
X19513911Y-16846753D01*
X19752006Y-16846753D02*
X19752006Y-16646752D01*
X19837720Y-16846753D02*
X19837720Y-16741991D01*
X19837720Y-16741991D02*
X19828197Y-16722943D01*
X19828197Y-16722943D02*
X19809149Y-16713419D01*
X19809149Y-16713419D02*
X19780577Y-16713419D01*
X19780577Y-16713419D02*
X19761530Y-16722943D01*
X19761530Y-16722943D02*
X19752006Y-16732467D01*
X19961530Y-16846753D02*
X19942482Y-16837229D01*
X19942482Y-16837229D02*
X19932958Y-16827705D01*
X19932958Y-16827705D02*
X19923435Y-16808657D01*
X19923435Y-16808657D02*
X19923435Y-16751514D01*
X19923435Y-16751514D02*
X19932958Y-16732467D01*
X19932958Y-16732467D02*
X19942482Y-16722943D01*
X19942482Y-16722943D02*
X19961530Y-16713419D01*
X19961530Y-16713419D02*
X19990101Y-16713419D01*
X19990101Y-16713419D02*
X20009149Y-16722943D01*
X20009149Y-16722943D02*
X20018673Y-16732467D01*
X20018673Y-16732467D02*
X20028197Y-16751514D01*
X20028197Y-16751514D02*
X20028197Y-16808657D01*
X20028197Y-16808657D02*
X20018673Y-16827705D01*
X20018673Y-16827705D02*
X20009149Y-16837229D01*
X20009149Y-16837229D02*
X19990101Y-16846753D01*
X19990101Y-16846753D02*
X19961530Y-16846753D01*
X20142482Y-16846753D02*
X20123435Y-16837229D01*
X20123435Y-16837229D02*
X20113911Y-16818181D01*
X20113911Y-16818181D02*
X20113911Y-16646752D01*
X20294863Y-16837229D02*
X20275816Y-16846753D01*
X20275816Y-16846753D02*
X20237720Y-16846753D01*
X20237720Y-16846753D02*
X20218673Y-16837229D01*
X20218673Y-16837229D02*
X20209149Y-16818181D01*
X20209149Y-16818181D02*
X20209149Y-16741991D01*
X20209149Y-16741991D02*
X20218673Y-16722943D01*
X20218673Y-16722943D02*
X20237720Y-16713419D01*
X20237720Y-16713419D02*
X20275816Y-16713419D01*
X20275816Y-16713419D02*
X20294863Y-16722943D01*
X20294863Y-16722943D02*
X20304387Y-16741991D01*
X20304387Y-16741991D02*
X20304387Y-16761038D01*
X20304387Y-16761038D02*
X20209149Y-16780086D01*
X20380578Y-16837229D02*
X20399625Y-16846753D01*
X20399625Y-16846753D02*
X20437720Y-16846753D01*
X20437720Y-16846753D02*
X20456768Y-16837229D01*
X20456768Y-16837229D02*
X20466292Y-16818181D01*
X20466292Y-16818181D02*
X20466292Y-16808657D01*
X20466292Y-16808657D02*
X20456768Y-16789610D01*
X20456768Y-16789610D02*
X20437720Y-16780086D01*
X20437720Y-16780086D02*
X20409149Y-16780086D01*
X20409149Y-16780086D02*
X20390101Y-16770562D01*
X20390101Y-16770562D02*
X20380578Y-16751514D01*
X20380578Y-16751514D02*
X20380578Y-16741991D01*
X20380578Y-16741991D02*
X20390101Y-16722943D01*
X20390101Y-16722943D02*
X20409149Y-16713419D01*
X20409149Y-16713419D02*
X20437720Y-16713419D01*
X20437720Y-16713419D02*
X20456768Y-16722943D01*
X20532959Y-16922943D02*
X20542482Y-16913419D01*
X20542482Y-16913419D02*
X20561530Y-16884848D01*
X20561530Y-16884848D02*
X20571054Y-16865800D01*
X20571054Y-16865800D02*
X20580578Y-16837229D01*
X20580578Y-16837229D02*
X20590101Y-16789610D01*
X20590101Y-16789610D02*
X20590101Y-16751514D01*
X20590101Y-16751514D02*
X20580578Y-16703895D01*
X20580578Y-16703895D02*
X20571054Y-16675324D01*
X20571054Y-16675324D02*
X20561530Y-16656276D01*
X20561530Y-16656276D02*
X20542482Y-16627705D01*
X20542482Y-16627705D02*
X20532959Y-16618181D01*
D13*
X15567419Y-17019269D02*
G75*
G03*
X15567419Y-17019269I-25000J0D01*
G01*
D11*
X15866291Y-16910753D02*
X15885339Y-16910753D01*
X15885339Y-16910753D02*
X15904387Y-16920276D01*
X15904387Y-16920276D02*
X15913910Y-16929800D01*
X15913910Y-16929800D02*
X15923434Y-16948848D01*
X15923434Y-16948848D02*
X15932958Y-16986943D01*
X15932958Y-16986943D02*
X15932958Y-17034562D01*
X15932958Y-17034562D02*
X15923434Y-17072657D01*
X15923434Y-17072657D02*
X15913910Y-17091705D01*
X15913910Y-17091705D02*
X15904387Y-17101229D01*
X15904387Y-17101229D02*
X15885339Y-17110753D01*
X15885339Y-17110753D02*
X15866291Y-17110753D01*
X15866291Y-17110753D02*
X15847244Y-17101229D01*
X15847244Y-17101229D02*
X15837720Y-17091705D01*
X15837720Y-17091705D02*
X15828196Y-17072657D01*
X15828196Y-17072657D02*
X15818672Y-17034562D01*
X15818672Y-17034562D02*
X15818672Y-16986943D01*
X15818672Y-16986943D02*
X15828196Y-16948848D01*
X15828196Y-16948848D02*
X15837720Y-16929800D01*
X15837720Y-16929800D02*
X15847244Y-16920276D01*
X15847244Y-16920276D02*
X15866291Y-16910753D01*
X16018672Y-17091705D02*
X16028196Y-17101229D01*
X16028196Y-17101229D02*
X16018672Y-17110753D01*
X16018672Y-17110753D02*
X16009148Y-17101229D01*
X16009148Y-17101229D02*
X16018672Y-17091705D01*
X16018672Y-17091705D02*
X16018672Y-17110753D01*
X16209148Y-16910753D02*
X16113910Y-16910753D01*
X16113910Y-16910753D02*
X16104387Y-17005991D01*
X16104387Y-17005991D02*
X16113910Y-16996467D01*
X16113910Y-16996467D02*
X16132958Y-16986943D01*
X16132958Y-16986943D02*
X16180577Y-16986943D01*
X16180577Y-16986943D02*
X16199625Y-16996467D01*
X16199625Y-16996467D02*
X16209148Y-17005991D01*
X16209148Y-17005991D02*
X16218672Y-17025038D01*
X16218672Y-17025038D02*
X16218672Y-17072657D01*
X16218672Y-17072657D02*
X16209148Y-17091705D01*
X16209148Y-17091705D02*
X16199625Y-17101229D01*
X16199625Y-17101229D02*
X16180577Y-17110753D01*
X16180577Y-17110753D02*
X16132958Y-17110753D01*
X16132958Y-17110753D02*
X16113910Y-17101229D01*
X16113910Y-17101229D02*
X16104387Y-17091705D01*
X16342482Y-16910753D02*
X16361529Y-16910753D01*
X16361529Y-16910753D02*
X16380577Y-16920276D01*
X16380577Y-16920276D02*
X16390101Y-16929800D01*
X16390101Y-16929800D02*
X16399625Y-16948848D01*
X16399625Y-16948848D02*
X16409148Y-16986943D01*
X16409148Y-16986943D02*
X16409148Y-17034562D01*
X16409148Y-17034562D02*
X16399625Y-17072657D01*
X16399625Y-17072657D02*
X16390101Y-17091705D01*
X16390101Y-17091705D02*
X16380577Y-17101229D01*
X16380577Y-17101229D02*
X16361529Y-17110753D01*
X16361529Y-17110753D02*
X16342482Y-17110753D01*
X16342482Y-17110753D02*
X16323434Y-17101229D01*
X16323434Y-17101229D02*
X16313910Y-17091705D01*
X16313910Y-17091705D02*
X16304387Y-17072657D01*
X16304387Y-17072657D02*
X16294863Y-17034562D01*
X16294863Y-17034562D02*
X16294863Y-16986943D01*
X16294863Y-16986943D02*
X16304387Y-16948848D01*
X16304387Y-16948848D02*
X16313910Y-16929800D01*
X16313910Y-16929800D02*
X16323434Y-16920276D01*
X16323434Y-16920276D02*
X16342482Y-16910753D01*
X16532958Y-16910753D02*
X16552006Y-16910753D01*
X16552006Y-16910753D02*
X16571053Y-16920276D01*
X16571053Y-16920276D02*
X16580577Y-16929800D01*
X16580577Y-16929800D02*
X16590101Y-16948848D01*
X16590101Y-16948848D02*
X16599625Y-16986943D01*
X16599625Y-16986943D02*
X16599625Y-17034562D01*
X16599625Y-17034562D02*
X16590101Y-17072657D01*
X16590101Y-17072657D02*
X16580577Y-17091705D01*
X16580577Y-17091705D02*
X16571053Y-17101229D01*
X16571053Y-17101229D02*
X16552006Y-17110753D01*
X16552006Y-17110753D02*
X16532958Y-17110753D01*
X16532958Y-17110753D02*
X16513910Y-17101229D01*
X16513910Y-17101229D02*
X16504387Y-17091705D01*
X16504387Y-17091705D02*
X16494863Y-17072657D01*
X16494863Y-17072657D02*
X16485339Y-17034562D01*
X16485339Y-17034562D02*
X16485339Y-16986943D01*
X16485339Y-16986943D02*
X16494863Y-16948848D01*
X16494863Y-16948848D02*
X16504387Y-16929800D01*
X16504387Y-16929800D02*
X16513910Y-16920276D01*
X16513910Y-16920276D02*
X16532958Y-16910753D01*
X16685339Y-17110753D02*
X16685339Y-16977419D01*
X16685339Y-16996467D02*
X16694863Y-16986943D01*
X16694863Y-16986943D02*
X16713910Y-16977419D01*
X16713910Y-16977419D02*
X16742482Y-16977419D01*
X16742482Y-16977419D02*
X16761529Y-16986943D01*
X16761529Y-16986943D02*
X16771053Y-17005991D01*
X16771053Y-17005991D02*
X16771053Y-17110753D01*
X16771053Y-17005991D02*
X16780577Y-16986943D01*
X16780577Y-16986943D02*
X16799625Y-16977419D01*
X16799625Y-16977419D02*
X16828196Y-16977419D01*
X16828196Y-16977419D02*
X16847244Y-16986943D01*
X16847244Y-16986943D02*
X16856768Y-17005991D01*
X16856768Y-17005991D02*
X16856768Y-17110753D01*
X16952006Y-17110753D02*
X16952006Y-16977419D01*
X16952006Y-16996467D02*
X16961530Y-16986943D01*
X16961530Y-16986943D02*
X16980577Y-16977419D01*
X16980577Y-16977419D02*
X17009149Y-16977419D01*
X17009149Y-16977419D02*
X17028196Y-16986943D01*
X17028196Y-16986943D02*
X17037720Y-17005991D01*
X17037720Y-17005991D02*
X17037720Y-17110753D01*
X17037720Y-17005991D02*
X17047244Y-16986943D01*
X17047244Y-16986943D02*
X17066291Y-16977419D01*
X17066291Y-16977419D02*
X17094863Y-16977419D01*
X17094863Y-16977419D02*
X17113911Y-16986943D01*
X17113911Y-16986943D02*
X17123434Y-17005991D01*
X17123434Y-17005991D02*
X17123434Y-17110753D01*
X17513911Y-16901229D02*
X17342482Y-17158372D01*
X17771053Y-16910753D02*
X17790101Y-16910753D01*
X17790101Y-16910753D02*
X17809149Y-16920276D01*
X17809149Y-16920276D02*
X17818673Y-16929800D01*
X17818673Y-16929800D02*
X17828196Y-16948848D01*
X17828196Y-16948848D02*
X17837720Y-16986943D01*
X17837720Y-16986943D02*
X17837720Y-17034562D01*
X17837720Y-17034562D02*
X17828196Y-17072657D01*
X17828196Y-17072657D02*
X17818673Y-17091705D01*
X17818673Y-17091705D02*
X17809149Y-17101229D01*
X17809149Y-17101229D02*
X17790101Y-17110753D01*
X17790101Y-17110753D02*
X17771053Y-17110753D01*
X17771053Y-17110753D02*
X17752006Y-17101229D01*
X17752006Y-17101229D02*
X17742482Y-17091705D01*
X17742482Y-17091705D02*
X17732958Y-17072657D01*
X17732958Y-17072657D02*
X17723434Y-17034562D01*
X17723434Y-17034562D02*
X17723434Y-16986943D01*
X17723434Y-16986943D02*
X17732958Y-16948848D01*
X17732958Y-16948848D02*
X17742482Y-16929800D01*
X17742482Y-16929800D02*
X17752006Y-16920276D01*
X17752006Y-16920276D02*
X17771053Y-16910753D01*
X17923434Y-17091705D02*
X17932958Y-17101229D01*
X17932958Y-17101229D02*
X17923434Y-17110753D01*
X17923434Y-17110753D02*
X17913911Y-17101229D01*
X17913911Y-17101229D02*
X17923434Y-17091705D01*
X17923434Y-17091705D02*
X17923434Y-17110753D01*
X18056768Y-16910753D02*
X18075815Y-16910753D01*
X18075815Y-16910753D02*
X18094863Y-16920276D01*
X18094863Y-16920276D02*
X18104387Y-16929800D01*
X18104387Y-16929800D02*
X18113911Y-16948848D01*
X18113911Y-16948848D02*
X18123434Y-16986943D01*
X18123434Y-16986943D02*
X18123434Y-17034562D01*
X18123434Y-17034562D02*
X18113911Y-17072657D01*
X18113911Y-17072657D02*
X18104387Y-17091705D01*
X18104387Y-17091705D02*
X18094863Y-17101229D01*
X18094863Y-17101229D02*
X18075815Y-17110753D01*
X18075815Y-17110753D02*
X18056768Y-17110753D01*
X18056768Y-17110753D02*
X18037720Y-17101229D01*
X18037720Y-17101229D02*
X18028196Y-17091705D01*
X18028196Y-17091705D02*
X18018673Y-17072657D01*
X18018673Y-17072657D02*
X18009149Y-17034562D01*
X18009149Y-17034562D02*
X18009149Y-16986943D01*
X18009149Y-16986943D02*
X18018673Y-16948848D01*
X18018673Y-16948848D02*
X18028196Y-16929800D01*
X18028196Y-16929800D02*
X18037720Y-16920276D01*
X18037720Y-16920276D02*
X18056768Y-16910753D01*
X18313911Y-17110753D02*
X18199625Y-17110753D01*
X18256768Y-17110753D02*
X18256768Y-16910753D01*
X18256768Y-16910753D02*
X18237720Y-16939324D01*
X18237720Y-16939324D02*
X18218673Y-16958372D01*
X18218673Y-16958372D02*
X18199625Y-16967895D01*
X18409149Y-17110753D02*
X18447244Y-17110753D01*
X18447244Y-17110753D02*
X18466292Y-17101229D01*
X18466292Y-17101229D02*
X18475815Y-17091705D01*
X18475815Y-17091705D02*
X18494863Y-17063133D01*
X18494863Y-17063133D02*
X18504387Y-17025038D01*
X18504387Y-17025038D02*
X18504387Y-16948848D01*
X18504387Y-16948848D02*
X18494863Y-16929800D01*
X18494863Y-16929800D02*
X18485339Y-16920276D01*
X18485339Y-16920276D02*
X18466292Y-16910753D01*
X18466292Y-16910753D02*
X18428196Y-16910753D01*
X18428196Y-16910753D02*
X18409149Y-16920276D01*
X18409149Y-16920276D02*
X18399625Y-16929800D01*
X18399625Y-16929800D02*
X18390101Y-16948848D01*
X18390101Y-16948848D02*
X18390101Y-16996467D01*
X18390101Y-16996467D02*
X18399625Y-17015514D01*
X18399625Y-17015514D02*
X18409149Y-17025038D01*
X18409149Y-17025038D02*
X18428196Y-17034562D01*
X18428196Y-17034562D02*
X18466292Y-17034562D01*
X18466292Y-17034562D02*
X18485339Y-17025038D01*
X18485339Y-17025038D02*
X18494863Y-17015514D01*
X18494863Y-17015514D02*
X18504387Y-16996467D01*
X18571054Y-16910753D02*
X18704387Y-16910753D01*
X18704387Y-16910753D02*
X18618673Y-17110753D01*
X18771054Y-16910753D02*
X18771054Y-16948848D01*
X18847244Y-16910753D02*
X18847244Y-16948848D01*
X19142482Y-17186943D02*
X19132958Y-17177419D01*
X19132958Y-17177419D02*
X19113911Y-17148848D01*
X19113911Y-17148848D02*
X19104387Y-17129800D01*
X19104387Y-17129800D02*
X19094863Y-17101229D01*
X19094863Y-17101229D02*
X19085339Y-17053610D01*
X19085339Y-17053610D02*
X19085339Y-17015514D01*
X19085339Y-17015514D02*
X19094863Y-16967895D01*
X19094863Y-16967895D02*
X19104387Y-16939324D01*
X19104387Y-16939324D02*
X19113911Y-16920276D01*
X19113911Y-16920276D02*
X19132958Y-16891705D01*
X19132958Y-16891705D02*
X19142482Y-16882181D01*
X19209149Y-16929800D02*
X19218673Y-16920276D01*
X19218673Y-16920276D02*
X19237720Y-16910753D01*
X19237720Y-16910753D02*
X19285339Y-16910753D01*
X19285339Y-16910753D02*
X19304387Y-16920276D01*
X19304387Y-16920276D02*
X19313911Y-16929800D01*
X19313911Y-16929800D02*
X19323435Y-16948848D01*
X19323435Y-16948848D02*
X19323435Y-16967895D01*
X19323435Y-16967895D02*
X19313911Y-16996467D01*
X19313911Y-16996467D02*
X19199625Y-17110753D01*
X19199625Y-17110753D02*
X19323435Y-17110753D01*
X19561530Y-17110753D02*
X19561530Y-16910753D01*
X19647244Y-17110753D02*
X19647244Y-17005991D01*
X19647244Y-17005991D02*
X19637720Y-16986943D01*
X19637720Y-16986943D02*
X19618673Y-16977419D01*
X19618673Y-16977419D02*
X19590101Y-16977419D01*
X19590101Y-16977419D02*
X19571054Y-16986943D01*
X19571054Y-16986943D02*
X19561530Y-16996467D01*
X19771054Y-17110753D02*
X19752006Y-17101229D01*
X19752006Y-17101229D02*
X19742482Y-17091705D01*
X19742482Y-17091705D02*
X19732958Y-17072657D01*
X19732958Y-17072657D02*
X19732958Y-17015514D01*
X19732958Y-17015514D02*
X19742482Y-16996467D01*
X19742482Y-16996467D02*
X19752006Y-16986943D01*
X19752006Y-16986943D02*
X19771054Y-16977419D01*
X19771054Y-16977419D02*
X19799625Y-16977419D01*
X19799625Y-16977419D02*
X19818673Y-16986943D01*
X19818673Y-16986943D02*
X19828197Y-16996467D01*
X19828197Y-16996467D02*
X19837720Y-17015514D01*
X19837720Y-17015514D02*
X19837720Y-17072657D01*
X19837720Y-17072657D02*
X19828197Y-17091705D01*
X19828197Y-17091705D02*
X19818673Y-17101229D01*
X19818673Y-17101229D02*
X19799625Y-17110753D01*
X19799625Y-17110753D02*
X19771054Y-17110753D01*
X19952006Y-17110753D02*
X19932958Y-17101229D01*
X19932958Y-17101229D02*
X19923435Y-17082181D01*
X19923435Y-17082181D02*
X19923435Y-16910753D01*
X20104387Y-17101229D02*
X20085339Y-17110753D01*
X20085339Y-17110753D02*
X20047244Y-17110753D01*
X20047244Y-17110753D02*
X20028197Y-17101229D01*
X20028197Y-17101229D02*
X20018673Y-17082181D01*
X20018673Y-17082181D02*
X20018673Y-17005991D01*
X20018673Y-17005991D02*
X20028197Y-16986943D01*
X20028197Y-16986943D02*
X20047244Y-16977419D01*
X20047244Y-16977419D02*
X20085339Y-16977419D01*
X20085339Y-16977419D02*
X20104387Y-16986943D01*
X20104387Y-16986943D02*
X20113911Y-17005991D01*
X20113911Y-17005991D02*
X20113911Y-17025038D01*
X20113911Y-17025038D02*
X20018673Y-17044086D01*
X20190101Y-17101229D02*
X20209149Y-17110753D01*
X20209149Y-17110753D02*
X20247244Y-17110753D01*
X20247244Y-17110753D02*
X20266292Y-17101229D01*
X20266292Y-17101229D02*
X20275816Y-17082181D01*
X20275816Y-17082181D02*
X20275816Y-17072657D01*
X20275816Y-17072657D02*
X20266292Y-17053610D01*
X20266292Y-17053610D02*
X20247244Y-17044086D01*
X20247244Y-17044086D02*
X20218673Y-17044086D01*
X20218673Y-17044086D02*
X20199625Y-17034562D01*
X20199625Y-17034562D02*
X20190101Y-17015514D01*
X20190101Y-17015514D02*
X20190101Y-17005991D01*
X20190101Y-17005991D02*
X20199625Y-16986943D01*
X20199625Y-16986943D02*
X20218673Y-16977419D01*
X20218673Y-16977419D02*
X20247244Y-16977419D01*
X20247244Y-16977419D02*
X20266292Y-16986943D01*
X20342482Y-17186943D02*
X20352006Y-17177419D01*
X20352006Y-17177419D02*
X20371054Y-17148848D01*
X20371054Y-17148848D02*
X20380578Y-17129800D01*
X20380578Y-17129800D02*
X20390101Y-17101229D01*
X20390101Y-17101229D02*
X20399625Y-17053610D01*
X20399625Y-17053610D02*
X20399625Y-17015514D01*
X20399625Y-17015514D02*
X20390101Y-16967895D01*
X20390101Y-16967895D02*
X20380578Y-16939324D01*
X20380578Y-16939324D02*
X20371054Y-16920276D01*
X20371054Y-16920276D02*
X20352006Y-16891705D01*
X20352006Y-16891705D02*
X20342482Y-16882181D01*
D14*
X15537419Y-17253269D02*
X15537419Y-17313269D01*
X15507419Y-17283269D02*
X15567419Y-17283269D01*
D11*
X15866291Y-17174753D02*
X15885339Y-17174753D01*
X15885339Y-17174753D02*
X15904387Y-17184276D01*
X15904387Y-17184276D02*
X15913910Y-17193800D01*
X15913910Y-17193800D02*
X15923434Y-17212848D01*
X15923434Y-17212848D02*
X15932958Y-17250943D01*
X15932958Y-17250943D02*
X15932958Y-17298562D01*
X15932958Y-17298562D02*
X15923434Y-17336657D01*
X15923434Y-17336657D02*
X15913910Y-17355705D01*
X15913910Y-17355705D02*
X15904387Y-17365229D01*
X15904387Y-17365229D02*
X15885339Y-17374753D01*
X15885339Y-17374753D02*
X15866291Y-17374753D01*
X15866291Y-17374753D02*
X15847244Y-17365229D01*
X15847244Y-17365229D02*
X15837720Y-17355705D01*
X15837720Y-17355705D02*
X15828196Y-17336657D01*
X15828196Y-17336657D02*
X15818672Y-17298562D01*
X15818672Y-17298562D02*
X15818672Y-17250943D01*
X15818672Y-17250943D02*
X15828196Y-17212848D01*
X15828196Y-17212848D02*
X15837720Y-17193800D01*
X15837720Y-17193800D02*
X15847244Y-17184276D01*
X15847244Y-17184276D02*
X15866291Y-17174753D01*
X16018672Y-17355705D02*
X16028196Y-17365229D01*
X16028196Y-17365229D02*
X16018672Y-17374753D01*
X16018672Y-17374753D02*
X16009148Y-17365229D01*
X16009148Y-17365229D02*
X16018672Y-17355705D01*
X16018672Y-17355705D02*
X16018672Y-17374753D01*
X16199625Y-17174753D02*
X16161529Y-17174753D01*
X16161529Y-17174753D02*
X16142482Y-17184276D01*
X16142482Y-17184276D02*
X16132958Y-17193800D01*
X16132958Y-17193800D02*
X16113910Y-17222372D01*
X16113910Y-17222372D02*
X16104387Y-17260467D01*
X16104387Y-17260467D02*
X16104387Y-17336657D01*
X16104387Y-17336657D02*
X16113910Y-17355705D01*
X16113910Y-17355705D02*
X16123434Y-17365229D01*
X16123434Y-17365229D02*
X16142482Y-17374753D01*
X16142482Y-17374753D02*
X16180577Y-17374753D01*
X16180577Y-17374753D02*
X16199625Y-17365229D01*
X16199625Y-17365229D02*
X16209148Y-17355705D01*
X16209148Y-17355705D02*
X16218672Y-17336657D01*
X16218672Y-17336657D02*
X16218672Y-17289038D01*
X16218672Y-17289038D02*
X16209148Y-17269991D01*
X16209148Y-17269991D02*
X16199625Y-17260467D01*
X16199625Y-17260467D02*
X16180577Y-17250943D01*
X16180577Y-17250943D02*
X16142482Y-17250943D01*
X16142482Y-17250943D02*
X16123434Y-17260467D01*
X16123434Y-17260467D02*
X16113910Y-17269991D01*
X16113910Y-17269991D02*
X16104387Y-17289038D01*
X16342482Y-17174753D02*
X16361529Y-17174753D01*
X16361529Y-17174753D02*
X16380577Y-17184276D01*
X16380577Y-17184276D02*
X16390101Y-17193800D01*
X16390101Y-17193800D02*
X16399625Y-17212848D01*
X16399625Y-17212848D02*
X16409148Y-17250943D01*
X16409148Y-17250943D02*
X16409148Y-17298562D01*
X16409148Y-17298562D02*
X16399625Y-17336657D01*
X16399625Y-17336657D02*
X16390101Y-17355705D01*
X16390101Y-17355705D02*
X16380577Y-17365229D01*
X16380577Y-17365229D02*
X16361529Y-17374753D01*
X16361529Y-17374753D02*
X16342482Y-17374753D01*
X16342482Y-17374753D02*
X16323434Y-17365229D01*
X16323434Y-17365229D02*
X16313910Y-17355705D01*
X16313910Y-17355705D02*
X16304387Y-17336657D01*
X16304387Y-17336657D02*
X16294863Y-17298562D01*
X16294863Y-17298562D02*
X16294863Y-17250943D01*
X16294863Y-17250943D02*
X16304387Y-17212848D01*
X16304387Y-17212848D02*
X16313910Y-17193800D01*
X16313910Y-17193800D02*
X16323434Y-17184276D01*
X16323434Y-17184276D02*
X16342482Y-17174753D01*
X16532958Y-17174753D02*
X16552006Y-17174753D01*
X16552006Y-17174753D02*
X16571053Y-17184276D01*
X16571053Y-17184276D02*
X16580577Y-17193800D01*
X16580577Y-17193800D02*
X16590101Y-17212848D01*
X16590101Y-17212848D02*
X16599625Y-17250943D01*
X16599625Y-17250943D02*
X16599625Y-17298562D01*
X16599625Y-17298562D02*
X16590101Y-17336657D01*
X16590101Y-17336657D02*
X16580577Y-17355705D01*
X16580577Y-17355705D02*
X16571053Y-17365229D01*
X16571053Y-17365229D02*
X16552006Y-17374753D01*
X16552006Y-17374753D02*
X16532958Y-17374753D01*
X16532958Y-17374753D02*
X16513910Y-17365229D01*
X16513910Y-17365229D02*
X16504387Y-17355705D01*
X16504387Y-17355705D02*
X16494863Y-17336657D01*
X16494863Y-17336657D02*
X16485339Y-17298562D01*
X16485339Y-17298562D02*
X16485339Y-17250943D01*
X16485339Y-17250943D02*
X16494863Y-17212848D01*
X16494863Y-17212848D02*
X16504387Y-17193800D01*
X16504387Y-17193800D02*
X16513910Y-17184276D01*
X16513910Y-17184276D02*
X16532958Y-17174753D01*
X16685339Y-17374753D02*
X16685339Y-17241419D01*
X16685339Y-17260467D02*
X16694863Y-17250943D01*
X16694863Y-17250943D02*
X16713910Y-17241419D01*
X16713910Y-17241419D02*
X16742482Y-17241419D01*
X16742482Y-17241419D02*
X16761529Y-17250943D01*
X16761529Y-17250943D02*
X16771053Y-17269991D01*
X16771053Y-17269991D02*
X16771053Y-17374753D01*
X16771053Y-17269991D02*
X16780577Y-17250943D01*
X16780577Y-17250943D02*
X16799625Y-17241419D01*
X16799625Y-17241419D02*
X16828196Y-17241419D01*
X16828196Y-17241419D02*
X16847244Y-17250943D01*
X16847244Y-17250943D02*
X16856768Y-17269991D01*
X16856768Y-17269991D02*
X16856768Y-17374753D01*
X16952006Y-17374753D02*
X16952006Y-17241419D01*
X16952006Y-17260467D02*
X16961530Y-17250943D01*
X16961530Y-17250943D02*
X16980577Y-17241419D01*
X16980577Y-17241419D02*
X17009149Y-17241419D01*
X17009149Y-17241419D02*
X17028196Y-17250943D01*
X17028196Y-17250943D02*
X17037720Y-17269991D01*
X17037720Y-17269991D02*
X17037720Y-17374753D01*
X17037720Y-17269991D02*
X17047244Y-17250943D01*
X17047244Y-17250943D02*
X17066291Y-17241419D01*
X17066291Y-17241419D02*
X17094863Y-17241419D01*
X17094863Y-17241419D02*
X17113911Y-17250943D01*
X17113911Y-17250943D02*
X17123434Y-17269991D01*
X17123434Y-17269991D02*
X17123434Y-17374753D01*
X17513911Y-17165229D02*
X17342482Y-17422372D01*
X17771053Y-17174753D02*
X17790101Y-17174753D01*
X17790101Y-17174753D02*
X17809149Y-17184276D01*
X17809149Y-17184276D02*
X17818673Y-17193800D01*
X17818673Y-17193800D02*
X17828196Y-17212848D01*
X17828196Y-17212848D02*
X17837720Y-17250943D01*
X17837720Y-17250943D02*
X17837720Y-17298562D01*
X17837720Y-17298562D02*
X17828196Y-17336657D01*
X17828196Y-17336657D02*
X17818673Y-17355705D01*
X17818673Y-17355705D02*
X17809149Y-17365229D01*
X17809149Y-17365229D02*
X17790101Y-17374753D01*
X17790101Y-17374753D02*
X17771053Y-17374753D01*
X17771053Y-17374753D02*
X17752006Y-17365229D01*
X17752006Y-17365229D02*
X17742482Y-17355705D01*
X17742482Y-17355705D02*
X17732958Y-17336657D01*
X17732958Y-17336657D02*
X17723434Y-17298562D01*
X17723434Y-17298562D02*
X17723434Y-17250943D01*
X17723434Y-17250943D02*
X17732958Y-17212848D01*
X17732958Y-17212848D02*
X17742482Y-17193800D01*
X17742482Y-17193800D02*
X17752006Y-17184276D01*
X17752006Y-17184276D02*
X17771053Y-17174753D01*
X17923434Y-17355705D02*
X17932958Y-17365229D01*
X17932958Y-17365229D02*
X17923434Y-17374753D01*
X17923434Y-17374753D02*
X17913911Y-17365229D01*
X17913911Y-17365229D02*
X17923434Y-17355705D01*
X17923434Y-17355705D02*
X17923434Y-17374753D01*
X18056768Y-17174753D02*
X18075815Y-17174753D01*
X18075815Y-17174753D02*
X18094863Y-17184276D01*
X18094863Y-17184276D02*
X18104387Y-17193800D01*
X18104387Y-17193800D02*
X18113911Y-17212848D01*
X18113911Y-17212848D02*
X18123434Y-17250943D01*
X18123434Y-17250943D02*
X18123434Y-17298562D01*
X18123434Y-17298562D02*
X18113911Y-17336657D01*
X18113911Y-17336657D02*
X18104387Y-17355705D01*
X18104387Y-17355705D02*
X18094863Y-17365229D01*
X18094863Y-17365229D02*
X18075815Y-17374753D01*
X18075815Y-17374753D02*
X18056768Y-17374753D01*
X18056768Y-17374753D02*
X18037720Y-17365229D01*
X18037720Y-17365229D02*
X18028196Y-17355705D01*
X18028196Y-17355705D02*
X18018673Y-17336657D01*
X18018673Y-17336657D02*
X18009149Y-17298562D01*
X18009149Y-17298562D02*
X18009149Y-17250943D01*
X18009149Y-17250943D02*
X18018673Y-17212848D01*
X18018673Y-17212848D02*
X18028196Y-17193800D01*
X18028196Y-17193800D02*
X18037720Y-17184276D01*
X18037720Y-17184276D02*
X18056768Y-17174753D01*
X18199625Y-17193800D02*
X18209149Y-17184276D01*
X18209149Y-17184276D02*
X18228196Y-17174753D01*
X18228196Y-17174753D02*
X18275815Y-17174753D01*
X18275815Y-17174753D02*
X18294863Y-17184276D01*
X18294863Y-17184276D02*
X18304387Y-17193800D01*
X18304387Y-17193800D02*
X18313911Y-17212848D01*
X18313911Y-17212848D02*
X18313911Y-17231895D01*
X18313911Y-17231895D02*
X18304387Y-17260467D01*
X18304387Y-17260467D02*
X18190101Y-17374753D01*
X18190101Y-17374753D02*
X18313911Y-17374753D01*
X18380577Y-17174753D02*
X18504387Y-17174753D01*
X18504387Y-17174753D02*
X18437720Y-17250943D01*
X18437720Y-17250943D02*
X18466292Y-17250943D01*
X18466292Y-17250943D02*
X18485339Y-17260467D01*
X18485339Y-17260467D02*
X18494863Y-17269991D01*
X18494863Y-17269991D02*
X18504387Y-17289038D01*
X18504387Y-17289038D02*
X18504387Y-17336657D01*
X18504387Y-17336657D02*
X18494863Y-17355705D01*
X18494863Y-17355705D02*
X18485339Y-17365229D01*
X18485339Y-17365229D02*
X18466292Y-17374753D01*
X18466292Y-17374753D02*
X18409149Y-17374753D01*
X18409149Y-17374753D02*
X18390101Y-17365229D01*
X18390101Y-17365229D02*
X18380577Y-17355705D01*
X18675815Y-17174753D02*
X18637720Y-17174753D01*
X18637720Y-17174753D02*
X18618673Y-17184276D01*
X18618673Y-17184276D02*
X18609149Y-17193800D01*
X18609149Y-17193800D02*
X18590101Y-17222372D01*
X18590101Y-17222372D02*
X18580577Y-17260467D01*
X18580577Y-17260467D02*
X18580577Y-17336657D01*
X18580577Y-17336657D02*
X18590101Y-17355705D01*
X18590101Y-17355705D02*
X18599625Y-17365229D01*
X18599625Y-17365229D02*
X18618673Y-17374753D01*
X18618673Y-17374753D02*
X18656768Y-17374753D01*
X18656768Y-17374753D02*
X18675815Y-17365229D01*
X18675815Y-17365229D02*
X18685339Y-17355705D01*
X18685339Y-17355705D02*
X18694863Y-17336657D01*
X18694863Y-17336657D02*
X18694863Y-17289038D01*
X18694863Y-17289038D02*
X18685339Y-17269991D01*
X18685339Y-17269991D02*
X18675815Y-17260467D01*
X18675815Y-17260467D02*
X18656768Y-17250943D01*
X18656768Y-17250943D02*
X18618673Y-17250943D01*
X18618673Y-17250943D02*
X18599625Y-17260467D01*
X18599625Y-17260467D02*
X18590101Y-17269991D01*
X18590101Y-17269991D02*
X18580577Y-17289038D01*
X18771054Y-17174753D02*
X18771054Y-17212848D01*
X18847244Y-17174753D02*
X18847244Y-17212848D01*
X19142482Y-17450943D02*
X19132958Y-17441419D01*
X19132958Y-17441419D02*
X19113911Y-17412848D01*
X19113911Y-17412848D02*
X19104387Y-17393800D01*
X19104387Y-17393800D02*
X19094863Y-17365229D01*
X19094863Y-17365229D02*
X19085339Y-17317610D01*
X19085339Y-17317610D02*
X19085339Y-17279514D01*
X19085339Y-17279514D02*
X19094863Y-17231895D01*
X19094863Y-17231895D02*
X19104387Y-17203324D01*
X19104387Y-17203324D02*
X19113911Y-17184276D01*
X19113911Y-17184276D02*
X19132958Y-17155705D01*
X19132958Y-17155705D02*
X19142482Y-17146181D01*
X19209149Y-17193800D02*
X19218673Y-17184276D01*
X19218673Y-17184276D02*
X19237720Y-17174753D01*
X19237720Y-17174753D02*
X19285339Y-17174753D01*
X19285339Y-17174753D02*
X19304387Y-17184276D01*
X19304387Y-17184276D02*
X19313911Y-17193800D01*
X19313911Y-17193800D02*
X19323435Y-17212848D01*
X19323435Y-17212848D02*
X19323435Y-17231895D01*
X19323435Y-17231895D02*
X19313911Y-17260467D01*
X19313911Y-17260467D02*
X19199625Y-17374753D01*
X19199625Y-17374753D02*
X19323435Y-17374753D01*
X19561530Y-17374753D02*
X19561530Y-17174753D01*
X19647244Y-17374753D02*
X19647244Y-17269991D01*
X19647244Y-17269991D02*
X19637720Y-17250943D01*
X19637720Y-17250943D02*
X19618673Y-17241419D01*
X19618673Y-17241419D02*
X19590101Y-17241419D01*
X19590101Y-17241419D02*
X19571054Y-17250943D01*
X19571054Y-17250943D02*
X19561530Y-17260467D01*
X19771054Y-17374753D02*
X19752006Y-17365229D01*
X19752006Y-17365229D02*
X19742482Y-17355705D01*
X19742482Y-17355705D02*
X19732958Y-17336657D01*
X19732958Y-17336657D02*
X19732958Y-17279514D01*
X19732958Y-17279514D02*
X19742482Y-17260467D01*
X19742482Y-17260467D02*
X19752006Y-17250943D01*
X19752006Y-17250943D02*
X19771054Y-17241419D01*
X19771054Y-17241419D02*
X19799625Y-17241419D01*
X19799625Y-17241419D02*
X19818673Y-17250943D01*
X19818673Y-17250943D02*
X19828197Y-17260467D01*
X19828197Y-17260467D02*
X19837720Y-17279514D01*
X19837720Y-17279514D02*
X19837720Y-17336657D01*
X19837720Y-17336657D02*
X19828197Y-17355705D01*
X19828197Y-17355705D02*
X19818673Y-17365229D01*
X19818673Y-17365229D02*
X19799625Y-17374753D01*
X19799625Y-17374753D02*
X19771054Y-17374753D01*
X19952006Y-17374753D02*
X19932958Y-17365229D01*
X19932958Y-17365229D02*
X19923435Y-17346181D01*
X19923435Y-17346181D02*
X19923435Y-17174753D01*
X20104387Y-17365229D02*
X20085339Y-17374753D01*
X20085339Y-17374753D02*
X20047244Y-17374753D01*
X20047244Y-17374753D02*
X20028197Y-17365229D01*
X20028197Y-17365229D02*
X20018673Y-17346181D01*
X20018673Y-17346181D02*
X20018673Y-17269991D01*
X20018673Y-17269991D02*
X20028197Y-17250943D01*
X20028197Y-17250943D02*
X20047244Y-17241419D01*
X20047244Y-17241419D02*
X20085339Y-17241419D01*
X20085339Y-17241419D02*
X20104387Y-17250943D01*
X20104387Y-17250943D02*
X20113911Y-17269991D01*
X20113911Y-17269991D02*
X20113911Y-17289038D01*
X20113911Y-17289038D02*
X20018673Y-17308086D01*
X20190101Y-17365229D02*
X20209149Y-17374753D01*
X20209149Y-17374753D02*
X20247244Y-17374753D01*
X20247244Y-17374753D02*
X20266292Y-17365229D01*
X20266292Y-17365229D02*
X20275816Y-17346181D01*
X20275816Y-17346181D02*
X20275816Y-17336657D01*
X20275816Y-17336657D02*
X20266292Y-17317610D01*
X20266292Y-17317610D02*
X20247244Y-17308086D01*
X20247244Y-17308086D02*
X20218673Y-17308086D01*
X20218673Y-17308086D02*
X20199625Y-17298562D01*
X20199625Y-17298562D02*
X20190101Y-17279514D01*
X20190101Y-17279514D02*
X20190101Y-17269991D01*
X20190101Y-17269991D02*
X20199625Y-17250943D01*
X20199625Y-17250943D02*
X20218673Y-17241419D01*
X20218673Y-17241419D02*
X20247244Y-17241419D01*
X20247244Y-17241419D02*
X20266292Y-17250943D01*
X20513911Y-17298562D02*
X20666292Y-17298562D01*
X20590101Y-17374753D02*
X20590101Y-17222372D01*
X20904387Y-17193800D02*
X20913911Y-17184276D01*
X20913911Y-17184276D02*
X20932959Y-17174753D01*
X20932959Y-17174753D02*
X20980578Y-17174753D01*
X20980578Y-17174753D02*
X20999625Y-17184276D01*
X20999625Y-17184276D02*
X21009149Y-17193800D01*
X21009149Y-17193800D02*
X21018673Y-17212848D01*
X21018673Y-17212848D02*
X21018673Y-17231895D01*
X21018673Y-17231895D02*
X21009149Y-17260467D01*
X21009149Y-17260467D02*
X20894863Y-17374753D01*
X20894863Y-17374753D02*
X21018673Y-17374753D01*
X21247244Y-17365229D02*
X21266292Y-17374753D01*
X21266292Y-17374753D02*
X21304387Y-17374753D01*
X21304387Y-17374753D02*
X21323435Y-17365229D01*
X21323435Y-17365229D02*
X21332959Y-17346181D01*
X21332959Y-17346181D02*
X21332959Y-17336657D01*
X21332959Y-17336657D02*
X21323435Y-17317610D01*
X21323435Y-17317610D02*
X21304387Y-17308086D01*
X21304387Y-17308086D02*
X21275816Y-17308086D01*
X21275816Y-17308086D02*
X21256768Y-17298562D01*
X21256768Y-17298562D02*
X21247244Y-17279514D01*
X21247244Y-17279514D02*
X21247244Y-17269991D01*
X21247244Y-17269991D02*
X21256768Y-17250943D01*
X21256768Y-17250943D02*
X21275816Y-17241419D01*
X21275816Y-17241419D02*
X21304387Y-17241419D01*
X21304387Y-17241419D02*
X21323435Y-17250943D01*
X21447244Y-17374753D02*
X21428197Y-17365229D01*
X21428197Y-17365229D02*
X21418673Y-17346181D01*
X21418673Y-17346181D02*
X21418673Y-17174753D01*
X21552006Y-17374753D02*
X21532959Y-17365229D01*
X21532959Y-17365229D02*
X21523435Y-17355705D01*
X21523435Y-17355705D02*
X21513911Y-17336657D01*
X21513911Y-17336657D02*
X21513911Y-17279514D01*
X21513911Y-17279514D02*
X21523435Y-17260467D01*
X21523435Y-17260467D02*
X21532959Y-17250943D01*
X21532959Y-17250943D02*
X21552006Y-17241419D01*
X21552006Y-17241419D02*
X21580578Y-17241419D01*
X21580578Y-17241419D02*
X21599625Y-17250943D01*
X21599625Y-17250943D02*
X21609149Y-17260467D01*
X21609149Y-17260467D02*
X21618673Y-17279514D01*
X21618673Y-17279514D02*
X21618673Y-17336657D01*
X21618673Y-17336657D02*
X21609149Y-17355705D01*
X21609149Y-17355705D02*
X21599625Y-17365229D01*
X21599625Y-17365229D02*
X21580578Y-17374753D01*
X21580578Y-17374753D02*
X21552006Y-17374753D01*
X21675816Y-17241419D02*
X21752006Y-17241419D01*
X21704387Y-17174753D02*
X21704387Y-17346181D01*
X21704387Y-17346181D02*
X21713911Y-17365229D01*
X21713911Y-17365229D02*
X21732959Y-17374753D01*
X21732959Y-17374753D02*
X21752006Y-17374753D01*
X21809149Y-17365229D02*
X21828197Y-17374753D01*
X21828197Y-17374753D02*
X21866292Y-17374753D01*
X21866292Y-17374753D02*
X21885340Y-17365229D01*
X21885340Y-17365229D02*
X21894863Y-17346181D01*
X21894863Y-17346181D02*
X21894863Y-17336657D01*
X21894863Y-17336657D02*
X21885340Y-17317610D01*
X21885340Y-17317610D02*
X21866292Y-17308086D01*
X21866292Y-17308086D02*
X21837721Y-17308086D01*
X21837721Y-17308086D02*
X21818673Y-17298562D01*
X21818673Y-17298562D02*
X21809149Y-17279514D01*
X21809149Y-17279514D02*
X21809149Y-17269991D01*
X21809149Y-17269991D02*
X21818673Y-17250943D01*
X21818673Y-17250943D02*
X21837721Y-17241419D01*
X21837721Y-17241419D02*
X21866292Y-17241419D01*
X21866292Y-17241419D02*
X21885340Y-17250943D01*
X21961530Y-17450943D02*
X21971054Y-17441419D01*
X21971054Y-17441419D02*
X21990102Y-17412848D01*
X21990102Y-17412848D02*
X21999625Y-17393800D01*
X21999625Y-17393800D02*
X22009149Y-17365229D01*
X22009149Y-17365229D02*
X22018673Y-17317610D01*
X22018673Y-17317610D02*
X22018673Y-17279514D01*
X22018673Y-17279514D02*
X22009149Y-17231895D01*
X22009149Y-17231895D02*
X21999625Y-17203324D01*
X21999625Y-17203324D02*
X21990102Y-17184276D01*
X21990102Y-17184276D02*
X21971054Y-17155705D01*
X21971054Y-17155705D02*
X21961530Y-17146181D01*
D15*
X15555704Y-17575553D02*
X15555704Y-17518984D01*
X15499135Y-17518984D01*
X15499135Y-17575553D01*
X15555704Y-17575553D01*
D11*
X15866291Y-17438753D02*
X15885339Y-17438753D01*
X15885339Y-17438753D02*
X15904387Y-17448276D01*
X15904387Y-17448276D02*
X15913910Y-17457800D01*
X15913910Y-17457800D02*
X15923434Y-17476848D01*
X15923434Y-17476848D02*
X15932958Y-17514943D01*
X15932958Y-17514943D02*
X15932958Y-17562562D01*
X15932958Y-17562562D02*
X15923434Y-17600657D01*
X15923434Y-17600657D02*
X15913910Y-17619705D01*
X15913910Y-17619705D02*
X15904387Y-17629229D01*
X15904387Y-17629229D02*
X15885339Y-17638753D01*
X15885339Y-17638753D02*
X15866291Y-17638753D01*
X15866291Y-17638753D02*
X15847244Y-17629229D01*
X15847244Y-17629229D02*
X15837720Y-17619705D01*
X15837720Y-17619705D02*
X15828196Y-17600657D01*
X15828196Y-17600657D02*
X15818672Y-17562562D01*
X15818672Y-17562562D02*
X15818672Y-17514943D01*
X15818672Y-17514943D02*
X15828196Y-17476848D01*
X15828196Y-17476848D02*
X15837720Y-17457800D01*
X15837720Y-17457800D02*
X15847244Y-17448276D01*
X15847244Y-17448276D02*
X15866291Y-17438753D01*
X16018672Y-17619705D02*
X16028196Y-17629229D01*
X16028196Y-17629229D02*
X16018672Y-17638753D01*
X16018672Y-17638753D02*
X16009148Y-17629229D01*
X16009148Y-17629229D02*
X16018672Y-17619705D01*
X16018672Y-17619705D02*
X16018672Y-17638753D01*
X16142482Y-17524467D02*
X16123434Y-17514943D01*
X16123434Y-17514943D02*
X16113910Y-17505419D01*
X16113910Y-17505419D02*
X16104387Y-17486372D01*
X16104387Y-17486372D02*
X16104387Y-17476848D01*
X16104387Y-17476848D02*
X16113910Y-17457800D01*
X16113910Y-17457800D02*
X16123434Y-17448276D01*
X16123434Y-17448276D02*
X16142482Y-17438753D01*
X16142482Y-17438753D02*
X16180577Y-17438753D01*
X16180577Y-17438753D02*
X16199625Y-17448276D01*
X16199625Y-17448276D02*
X16209148Y-17457800D01*
X16209148Y-17457800D02*
X16218672Y-17476848D01*
X16218672Y-17476848D02*
X16218672Y-17486372D01*
X16218672Y-17486372D02*
X16209148Y-17505419D01*
X16209148Y-17505419D02*
X16199625Y-17514943D01*
X16199625Y-17514943D02*
X16180577Y-17524467D01*
X16180577Y-17524467D02*
X16142482Y-17524467D01*
X16142482Y-17524467D02*
X16123434Y-17533991D01*
X16123434Y-17533991D02*
X16113910Y-17543514D01*
X16113910Y-17543514D02*
X16104387Y-17562562D01*
X16104387Y-17562562D02*
X16104387Y-17600657D01*
X16104387Y-17600657D02*
X16113910Y-17619705D01*
X16113910Y-17619705D02*
X16123434Y-17629229D01*
X16123434Y-17629229D02*
X16142482Y-17638753D01*
X16142482Y-17638753D02*
X16180577Y-17638753D01*
X16180577Y-17638753D02*
X16199625Y-17629229D01*
X16199625Y-17629229D02*
X16209148Y-17619705D01*
X16209148Y-17619705D02*
X16218672Y-17600657D01*
X16218672Y-17600657D02*
X16218672Y-17562562D01*
X16218672Y-17562562D02*
X16209148Y-17543514D01*
X16209148Y-17543514D02*
X16199625Y-17533991D01*
X16199625Y-17533991D02*
X16180577Y-17524467D01*
X16342482Y-17438753D02*
X16361529Y-17438753D01*
X16361529Y-17438753D02*
X16380577Y-17448276D01*
X16380577Y-17448276D02*
X16390101Y-17457800D01*
X16390101Y-17457800D02*
X16399625Y-17476848D01*
X16399625Y-17476848D02*
X16409148Y-17514943D01*
X16409148Y-17514943D02*
X16409148Y-17562562D01*
X16409148Y-17562562D02*
X16399625Y-17600657D01*
X16399625Y-17600657D02*
X16390101Y-17619705D01*
X16390101Y-17619705D02*
X16380577Y-17629229D01*
X16380577Y-17629229D02*
X16361529Y-17638753D01*
X16361529Y-17638753D02*
X16342482Y-17638753D01*
X16342482Y-17638753D02*
X16323434Y-17629229D01*
X16323434Y-17629229D02*
X16313910Y-17619705D01*
X16313910Y-17619705D02*
X16304387Y-17600657D01*
X16304387Y-17600657D02*
X16294863Y-17562562D01*
X16294863Y-17562562D02*
X16294863Y-17514943D01*
X16294863Y-17514943D02*
X16304387Y-17476848D01*
X16304387Y-17476848D02*
X16313910Y-17457800D01*
X16313910Y-17457800D02*
X16323434Y-17448276D01*
X16323434Y-17448276D02*
X16342482Y-17438753D01*
X16532958Y-17438753D02*
X16552006Y-17438753D01*
X16552006Y-17438753D02*
X16571053Y-17448276D01*
X16571053Y-17448276D02*
X16580577Y-17457800D01*
X16580577Y-17457800D02*
X16590101Y-17476848D01*
X16590101Y-17476848D02*
X16599625Y-17514943D01*
X16599625Y-17514943D02*
X16599625Y-17562562D01*
X16599625Y-17562562D02*
X16590101Y-17600657D01*
X16590101Y-17600657D02*
X16580577Y-17619705D01*
X16580577Y-17619705D02*
X16571053Y-17629229D01*
X16571053Y-17629229D02*
X16552006Y-17638753D01*
X16552006Y-17638753D02*
X16532958Y-17638753D01*
X16532958Y-17638753D02*
X16513910Y-17629229D01*
X16513910Y-17629229D02*
X16504387Y-17619705D01*
X16504387Y-17619705D02*
X16494863Y-17600657D01*
X16494863Y-17600657D02*
X16485339Y-17562562D01*
X16485339Y-17562562D02*
X16485339Y-17514943D01*
X16485339Y-17514943D02*
X16494863Y-17476848D01*
X16494863Y-17476848D02*
X16504387Y-17457800D01*
X16504387Y-17457800D02*
X16513910Y-17448276D01*
X16513910Y-17448276D02*
X16532958Y-17438753D01*
X16685339Y-17638753D02*
X16685339Y-17505419D01*
X16685339Y-17524467D02*
X16694863Y-17514943D01*
X16694863Y-17514943D02*
X16713910Y-17505419D01*
X16713910Y-17505419D02*
X16742482Y-17505419D01*
X16742482Y-17505419D02*
X16761529Y-17514943D01*
X16761529Y-17514943D02*
X16771053Y-17533991D01*
X16771053Y-17533991D02*
X16771053Y-17638753D01*
X16771053Y-17533991D02*
X16780577Y-17514943D01*
X16780577Y-17514943D02*
X16799625Y-17505419D01*
X16799625Y-17505419D02*
X16828196Y-17505419D01*
X16828196Y-17505419D02*
X16847244Y-17514943D01*
X16847244Y-17514943D02*
X16856768Y-17533991D01*
X16856768Y-17533991D02*
X16856768Y-17638753D01*
X16952006Y-17638753D02*
X16952006Y-17505419D01*
X16952006Y-17524467D02*
X16961530Y-17514943D01*
X16961530Y-17514943D02*
X16980577Y-17505419D01*
X16980577Y-17505419D02*
X17009149Y-17505419D01*
X17009149Y-17505419D02*
X17028196Y-17514943D01*
X17028196Y-17514943D02*
X17037720Y-17533991D01*
X17037720Y-17533991D02*
X17037720Y-17638753D01*
X17037720Y-17533991D02*
X17047244Y-17514943D01*
X17047244Y-17514943D02*
X17066291Y-17505419D01*
X17066291Y-17505419D02*
X17094863Y-17505419D01*
X17094863Y-17505419D02*
X17113911Y-17514943D01*
X17113911Y-17514943D02*
X17123434Y-17533991D01*
X17123434Y-17533991D02*
X17123434Y-17638753D01*
X17513911Y-17429229D02*
X17342482Y-17686372D01*
X17771053Y-17438753D02*
X17790101Y-17438753D01*
X17790101Y-17438753D02*
X17809149Y-17448276D01*
X17809149Y-17448276D02*
X17818673Y-17457800D01*
X17818673Y-17457800D02*
X17828196Y-17476848D01*
X17828196Y-17476848D02*
X17837720Y-17514943D01*
X17837720Y-17514943D02*
X17837720Y-17562562D01*
X17837720Y-17562562D02*
X17828196Y-17600657D01*
X17828196Y-17600657D02*
X17818673Y-17619705D01*
X17818673Y-17619705D02*
X17809149Y-17629229D01*
X17809149Y-17629229D02*
X17790101Y-17638753D01*
X17790101Y-17638753D02*
X17771053Y-17638753D01*
X17771053Y-17638753D02*
X17752006Y-17629229D01*
X17752006Y-17629229D02*
X17742482Y-17619705D01*
X17742482Y-17619705D02*
X17732958Y-17600657D01*
X17732958Y-17600657D02*
X17723434Y-17562562D01*
X17723434Y-17562562D02*
X17723434Y-17514943D01*
X17723434Y-17514943D02*
X17732958Y-17476848D01*
X17732958Y-17476848D02*
X17742482Y-17457800D01*
X17742482Y-17457800D02*
X17752006Y-17448276D01*
X17752006Y-17448276D02*
X17771053Y-17438753D01*
X17923434Y-17619705D02*
X17932958Y-17629229D01*
X17932958Y-17629229D02*
X17923434Y-17638753D01*
X17923434Y-17638753D02*
X17913911Y-17629229D01*
X17913911Y-17629229D02*
X17923434Y-17619705D01*
X17923434Y-17619705D02*
X17923434Y-17638753D01*
X18056768Y-17438753D02*
X18075815Y-17438753D01*
X18075815Y-17438753D02*
X18094863Y-17448276D01*
X18094863Y-17448276D02*
X18104387Y-17457800D01*
X18104387Y-17457800D02*
X18113911Y-17476848D01*
X18113911Y-17476848D02*
X18123434Y-17514943D01*
X18123434Y-17514943D02*
X18123434Y-17562562D01*
X18123434Y-17562562D02*
X18113911Y-17600657D01*
X18113911Y-17600657D02*
X18104387Y-17619705D01*
X18104387Y-17619705D02*
X18094863Y-17629229D01*
X18094863Y-17629229D02*
X18075815Y-17638753D01*
X18075815Y-17638753D02*
X18056768Y-17638753D01*
X18056768Y-17638753D02*
X18037720Y-17629229D01*
X18037720Y-17629229D02*
X18028196Y-17619705D01*
X18028196Y-17619705D02*
X18018673Y-17600657D01*
X18018673Y-17600657D02*
X18009149Y-17562562D01*
X18009149Y-17562562D02*
X18009149Y-17514943D01*
X18009149Y-17514943D02*
X18018673Y-17476848D01*
X18018673Y-17476848D02*
X18028196Y-17457800D01*
X18028196Y-17457800D02*
X18037720Y-17448276D01*
X18037720Y-17448276D02*
X18056768Y-17438753D01*
X18190101Y-17438753D02*
X18313911Y-17438753D01*
X18313911Y-17438753D02*
X18247244Y-17514943D01*
X18247244Y-17514943D02*
X18275815Y-17514943D01*
X18275815Y-17514943D02*
X18294863Y-17524467D01*
X18294863Y-17524467D02*
X18304387Y-17533991D01*
X18304387Y-17533991D02*
X18313911Y-17553038D01*
X18313911Y-17553038D02*
X18313911Y-17600657D01*
X18313911Y-17600657D02*
X18304387Y-17619705D01*
X18304387Y-17619705D02*
X18294863Y-17629229D01*
X18294863Y-17629229D02*
X18275815Y-17638753D01*
X18275815Y-17638753D02*
X18218673Y-17638753D01*
X18218673Y-17638753D02*
X18199625Y-17629229D01*
X18199625Y-17629229D02*
X18190101Y-17619705D01*
X18504387Y-17638753D02*
X18390101Y-17638753D01*
X18447244Y-17638753D02*
X18447244Y-17438753D01*
X18447244Y-17438753D02*
X18428196Y-17467324D01*
X18428196Y-17467324D02*
X18409149Y-17486372D01*
X18409149Y-17486372D02*
X18390101Y-17495895D01*
X18685339Y-17438753D02*
X18590101Y-17438753D01*
X18590101Y-17438753D02*
X18580577Y-17533991D01*
X18580577Y-17533991D02*
X18590101Y-17524467D01*
X18590101Y-17524467D02*
X18609149Y-17514943D01*
X18609149Y-17514943D02*
X18656768Y-17514943D01*
X18656768Y-17514943D02*
X18675815Y-17524467D01*
X18675815Y-17524467D02*
X18685339Y-17533991D01*
X18685339Y-17533991D02*
X18694863Y-17553038D01*
X18694863Y-17553038D02*
X18694863Y-17600657D01*
X18694863Y-17600657D02*
X18685339Y-17619705D01*
X18685339Y-17619705D02*
X18675815Y-17629229D01*
X18675815Y-17629229D02*
X18656768Y-17638753D01*
X18656768Y-17638753D02*
X18609149Y-17638753D01*
X18609149Y-17638753D02*
X18590101Y-17629229D01*
X18590101Y-17629229D02*
X18580577Y-17619705D01*
X18771054Y-17438753D02*
X18771054Y-17476848D01*
X18847244Y-17438753D02*
X18847244Y-17476848D01*
X19142482Y-17714943D02*
X19132958Y-17705419D01*
X19132958Y-17705419D02*
X19113911Y-17676848D01*
X19113911Y-17676848D02*
X19104387Y-17657800D01*
X19104387Y-17657800D02*
X19094863Y-17629229D01*
X19094863Y-17629229D02*
X19085339Y-17581610D01*
X19085339Y-17581610D02*
X19085339Y-17543514D01*
X19085339Y-17543514D02*
X19094863Y-17495895D01*
X19094863Y-17495895D02*
X19104387Y-17467324D01*
X19104387Y-17467324D02*
X19113911Y-17448276D01*
X19113911Y-17448276D02*
X19132958Y-17419705D01*
X19132958Y-17419705D02*
X19142482Y-17410181D01*
X19304387Y-17438753D02*
X19266292Y-17438753D01*
X19266292Y-17438753D02*
X19247244Y-17448276D01*
X19247244Y-17448276D02*
X19237720Y-17457800D01*
X19237720Y-17457800D02*
X19218673Y-17486372D01*
X19218673Y-17486372D02*
X19209149Y-17524467D01*
X19209149Y-17524467D02*
X19209149Y-17600657D01*
X19209149Y-17600657D02*
X19218673Y-17619705D01*
X19218673Y-17619705D02*
X19228196Y-17629229D01*
X19228196Y-17629229D02*
X19247244Y-17638753D01*
X19247244Y-17638753D02*
X19285339Y-17638753D01*
X19285339Y-17638753D02*
X19304387Y-17629229D01*
X19304387Y-17629229D02*
X19313911Y-17619705D01*
X19313911Y-17619705D02*
X19323435Y-17600657D01*
X19323435Y-17600657D02*
X19323435Y-17553038D01*
X19323435Y-17553038D02*
X19313911Y-17533991D01*
X19313911Y-17533991D02*
X19304387Y-17524467D01*
X19304387Y-17524467D02*
X19285339Y-17514943D01*
X19285339Y-17514943D02*
X19247244Y-17514943D01*
X19247244Y-17514943D02*
X19228196Y-17524467D01*
X19228196Y-17524467D02*
X19218673Y-17533991D01*
X19218673Y-17533991D02*
X19209149Y-17553038D01*
X19561530Y-17638753D02*
X19561530Y-17438753D01*
X19647244Y-17638753D02*
X19647244Y-17533991D01*
X19647244Y-17533991D02*
X19637720Y-17514943D01*
X19637720Y-17514943D02*
X19618673Y-17505419D01*
X19618673Y-17505419D02*
X19590101Y-17505419D01*
X19590101Y-17505419D02*
X19571054Y-17514943D01*
X19571054Y-17514943D02*
X19561530Y-17524467D01*
X19771054Y-17638753D02*
X19752006Y-17629229D01*
X19752006Y-17629229D02*
X19742482Y-17619705D01*
X19742482Y-17619705D02*
X19732958Y-17600657D01*
X19732958Y-17600657D02*
X19732958Y-17543514D01*
X19732958Y-17543514D02*
X19742482Y-17524467D01*
X19742482Y-17524467D02*
X19752006Y-17514943D01*
X19752006Y-17514943D02*
X19771054Y-17505419D01*
X19771054Y-17505419D02*
X19799625Y-17505419D01*
X19799625Y-17505419D02*
X19818673Y-17514943D01*
X19818673Y-17514943D02*
X19828197Y-17524467D01*
X19828197Y-17524467D02*
X19837720Y-17543514D01*
X19837720Y-17543514D02*
X19837720Y-17600657D01*
X19837720Y-17600657D02*
X19828197Y-17619705D01*
X19828197Y-17619705D02*
X19818673Y-17629229D01*
X19818673Y-17629229D02*
X19799625Y-17638753D01*
X19799625Y-17638753D02*
X19771054Y-17638753D01*
X19952006Y-17638753D02*
X19932958Y-17629229D01*
X19932958Y-17629229D02*
X19923435Y-17610181D01*
X19923435Y-17610181D02*
X19923435Y-17438753D01*
X20104387Y-17629229D02*
X20085339Y-17638753D01*
X20085339Y-17638753D02*
X20047244Y-17638753D01*
X20047244Y-17638753D02*
X20028197Y-17629229D01*
X20028197Y-17629229D02*
X20018673Y-17610181D01*
X20018673Y-17610181D02*
X20018673Y-17533991D01*
X20018673Y-17533991D02*
X20028197Y-17514943D01*
X20028197Y-17514943D02*
X20047244Y-17505419D01*
X20047244Y-17505419D02*
X20085339Y-17505419D01*
X20085339Y-17505419D02*
X20104387Y-17514943D01*
X20104387Y-17514943D02*
X20113911Y-17533991D01*
X20113911Y-17533991D02*
X20113911Y-17553038D01*
X20113911Y-17553038D02*
X20018673Y-17572086D01*
X20190101Y-17629229D02*
X20209149Y-17638753D01*
X20209149Y-17638753D02*
X20247244Y-17638753D01*
X20247244Y-17638753D02*
X20266292Y-17629229D01*
X20266292Y-17629229D02*
X20275816Y-17610181D01*
X20275816Y-17610181D02*
X20275816Y-17600657D01*
X20275816Y-17600657D02*
X20266292Y-17581610D01*
X20266292Y-17581610D02*
X20247244Y-17572086D01*
X20247244Y-17572086D02*
X20218673Y-17572086D01*
X20218673Y-17572086D02*
X20199625Y-17562562D01*
X20199625Y-17562562D02*
X20190101Y-17543514D01*
X20190101Y-17543514D02*
X20190101Y-17533991D01*
X20190101Y-17533991D02*
X20199625Y-17514943D01*
X20199625Y-17514943D02*
X20218673Y-17505419D01*
X20218673Y-17505419D02*
X20247244Y-17505419D01*
X20247244Y-17505419D02*
X20266292Y-17514943D01*
X20513911Y-17562562D02*
X20666292Y-17562562D01*
X20590101Y-17638753D02*
X20590101Y-17486372D01*
X20999625Y-17505419D02*
X20999625Y-17638753D01*
X20952006Y-17429229D02*
X20904387Y-17572086D01*
X20904387Y-17572086D02*
X21028197Y-17572086D01*
X21247244Y-17629229D02*
X21266292Y-17638753D01*
X21266292Y-17638753D02*
X21304387Y-17638753D01*
X21304387Y-17638753D02*
X21323435Y-17629229D01*
X21323435Y-17629229D02*
X21332959Y-17610181D01*
X21332959Y-17610181D02*
X21332959Y-17600657D01*
X21332959Y-17600657D02*
X21323435Y-17581610D01*
X21323435Y-17581610D02*
X21304387Y-17572086D01*
X21304387Y-17572086D02*
X21275816Y-17572086D01*
X21275816Y-17572086D02*
X21256768Y-17562562D01*
X21256768Y-17562562D02*
X21247244Y-17543514D01*
X21247244Y-17543514D02*
X21247244Y-17533991D01*
X21247244Y-17533991D02*
X21256768Y-17514943D01*
X21256768Y-17514943D02*
X21275816Y-17505419D01*
X21275816Y-17505419D02*
X21304387Y-17505419D01*
X21304387Y-17505419D02*
X21323435Y-17514943D01*
X21447244Y-17638753D02*
X21428197Y-17629229D01*
X21428197Y-17629229D02*
X21418673Y-17610181D01*
X21418673Y-17610181D02*
X21418673Y-17438753D01*
X21552006Y-17638753D02*
X21532959Y-17629229D01*
X21532959Y-17629229D02*
X21523435Y-17619705D01*
X21523435Y-17619705D02*
X21513911Y-17600657D01*
X21513911Y-17600657D02*
X21513911Y-17543514D01*
X21513911Y-17543514D02*
X21523435Y-17524467D01*
X21523435Y-17524467D02*
X21532959Y-17514943D01*
X21532959Y-17514943D02*
X21552006Y-17505419D01*
X21552006Y-17505419D02*
X21580578Y-17505419D01*
X21580578Y-17505419D02*
X21599625Y-17514943D01*
X21599625Y-17514943D02*
X21609149Y-17524467D01*
X21609149Y-17524467D02*
X21618673Y-17543514D01*
X21618673Y-17543514D02*
X21618673Y-17600657D01*
X21618673Y-17600657D02*
X21609149Y-17619705D01*
X21609149Y-17619705D02*
X21599625Y-17629229D01*
X21599625Y-17629229D02*
X21580578Y-17638753D01*
X21580578Y-17638753D02*
X21552006Y-17638753D01*
X21675816Y-17505419D02*
X21752006Y-17505419D01*
X21704387Y-17438753D02*
X21704387Y-17610181D01*
X21704387Y-17610181D02*
X21713911Y-17629229D01*
X21713911Y-17629229D02*
X21732959Y-17638753D01*
X21732959Y-17638753D02*
X21752006Y-17638753D01*
X21809149Y-17629229D02*
X21828197Y-17638753D01*
X21828197Y-17638753D02*
X21866292Y-17638753D01*
X21866292Y-17638753D02*
X21885340Y-17629229D01*
X21885340Y-17629229D02*
X21894863Y-17610181D01*
X21894863Y-17610181D02*
X21894863Y-17600657D01*
X21894863Y-17600657D02*
X21885340Y-17581610D01*
X21885340Y-17581610D02*
X21866292Y-17572086D01*
X21866292Y-17572086D02*
X21837721Y-17572086D01*
X21837721Y-17572086D02*
X21818673Y-17562562D01*
X21818673Y-17562562D02*
X21809149Y-17543514D01*
X21809149Y-17543514D02*
X21809149Y-17533991D01*
X21809149Y-17533991D02*
X21818673Y-17514943D01*
X21818673Y-17514943D02*
X21837721Y-17505419D01*
X21837721Y-17505419D02*
X21866292Y-17505419D01*
X21866292Y-17505419D02*
X21885340Y-17514943D01*
X21961530Y-17714943D02*
X21971054Y-17705419D01*
X21971054Y-17705419D02*
X21990102Y-17676848D01*
X21990102Y-17676848D02*
X21999625Y-17657800D01*
X21999625Y-17657800D02*
X22009149Y-17629229D01*
X22009149Y-17629229D02*
X22018673Y-17581610D01*
X22018673Y-17581610D02*
X22018673Y-17543514D01*
X22018673Y-17543514D02*
X22009149Y-17495895D01*
X22009149Y-17495895D02*
X21999625Y-17467324D01*
X21999625Y-17467324D02*
X21990102Y-17448276D01*
X21990102Y-17448276D02*
X21971054Y-17419705D01*
X21971054Y-17419705D02*
X21961530Y-17410181D01*
D16*
X15522419Y-17856269D02*
X15567419Y-17811269D01*
X15522419Y-17766269D01*
X15477419Y-17811269D01*
X15522419Y-17856269D01*
D11*
X15866291Y-17702753D02*
X15885339Y-17702753D01*
X15885339Y-17702753D02*
X15904387Y-17712276D01*
X15904387Y-17712276D02*
X15913910Y-17721800D01*
X15913910Y-17721800D02*
X15923434Y-17740848D01*
X15923434Y-17740848D02*
X15932958Y-17778943D01*
X15932958Y-17778943D02*
X15932958Y-17826562D01*
X15932958Y-17826562D02*
X15923434Y-17864657D01*
X15923434Y-17864657D02*
X15913910Y-17883705D01*
X15913910Y-17883705D02*
X15904387Y-17893229D01*
X15904387Y-17893229D02*
X15885339Y-17902753D01*
X15885339Y-17902753D02*
X15866291Y-17902753D01*
X15866291Y-17902753D02*
X15847244Y-17893229D01*
X15847244Y-17893229D02*
X15837720Y-17883705D01*
X15837720Y-17883705D02*
X15828196Y-17864657D01*
X15828196Y-17864657D02*
X15818672Y-17826562D01*
X15818672Y-17826562D02*
X15818672Y-17778943D01*
X15818672Y-17778943D02*
X15828196Y-17740848D01*
X15828196Y-17740848D02*
X15837720Y-17721800D01*
X15837720Y-17721800D02*
X15847244Y-17712276D01*
X15847244Y-17712276D02*
X15866291Y-17702753D01*
X16018672Y-17883705D02*
X16028196Y-17893229D01*
X16028196Y-17893229D02*
X16018672Y-17902753D01*
X16018672Y-17902753D02*
X16009148Y-17893229D01*
X16009148Y-17893229D02*
X16018672Y-17883705D01*
X16018672Y-17883705D02*
X16018672Y-17902753D01*
X16123434Y-17902753D02*
X16161529Y-17902753D01*
X16161529Y-17902753D02*
X16180577Y-17893229D01*
X16180577Y-17893229D02*
X16190101Y-17883705D01*
X16190101Y-17883705D02*
X16209148Y-17855133D01*
X16209148Y-17855133D02*
X16218672Y-17817038D01*
X16218672Y-17817038D02*
X16218672Y-17740848D01*
X16218672Y-17740848D02*
X16209148Y-17721800D01*
X16209148Y-17721800D02*
X16199625Y-17712276D01*
X16199625Y-17712276D02*
X16180577Y-17702753D01*
X16180577Y-17702753D02*
X16142482Y-17702753D01*
X16142482Y-17702753D02*
X16123434Y-17712276D01*
X16123434Y-17712276D02*
X16113910Y-17721800D01*
X16113910Y-17721800D02*
X16104387Y-17740848D01*
X16104387Y-17740848D02*
X16104387Y-17788467D01*
X16104387Y-17788467D02*
X16113910Y-17807514D01*
X16113910Y-17807514D02*
X16123434Y-17817038D01*
X16123434Y-17817038D02*
X16142482Y-17826562D01*
X16142482Y-17826562D02*
X16180577Y-17826562D01*
X16180577Y-17826562D02*
X16199625Y-17817038D01*
X16199625Y-17817038D02*
X16209148Y-17807514D01*
X16209148Y-17807514D02*
X16218672Y-17788467D01*
X16342482Y-17702753D02*
X16361529Y-17702753D01*
X16361529Y-17702753D02*
X16380577Y-17712276D01*
X16380577Y-17712276D02*
X16390101Y-17721800D01*
X16390101Y-17721800D02*
X16399625Y-17740848D01*
X16399625Y-17740848D02*
X16409148Y-17778943D01*
X16409148Y-17778943D02*
X16409148Y-17826562D01*
X16409148Y-17826562D02*
X16399625Y-17864657D01*
X16399625Y-17864657D02*
X16390101Y-17883705D01*
X16390101Y-17883705D02*
X16380577Y-17893229D01*
X16380577Y-17893229D02*
X16361529Y-17902753D01*
X16361529Y-17902753D02*
X16342482Y-17902753D01*
X16342482Y-17902753D02*
X16323434Y-17893229D01*
X16323434Y-17893229D02*
X16313910Y-17883705D01*
X16313910Y-17883705D02*
X16304387Y-17864657D01*
X16304387Y-17864657D02*
X16294863Y-17826562D01*
X16294863Y-17826562D02*
X16294863Y-17778943D01*
X16294863Y-17778943D02*
X16304387Y-17740848D01*
X16304387Y-17740848D02*
X16313910Y-17721800D01*
X16313910Y-17721800D02*
X16323434Y-17712276D01*
X16323434Y-17712276D02*
X16342482Y-17702753D01*
X16532958Y-17702753D02*
X16552006Y-17702753D01*
X16552006Y-17702753D02*
X16571053Y-17712276D01*
X16571053Y-17712276D02*
X16580577Y-17721800D01*
X16580577Y-17721800D02*
X16590101Y-17740848D01*
X16590101Y-17740848D02*
X16599625Y-17778943D01*
X16599625Y-17778943D02*
X16599625Y-17826562D01*
X16599625Y-17826562D02*
X16590101Y-17864657D01*
X16590101Y-17864657D02*
X16580577Y-17883705D01*
X16580577Y-17883705D02*
X16571053Y-17893229D01*
X16571053Y-17893229D02*
X16552006Y-17902753D01*
X16552006Y-17902753D02*
X16532958Y-17902753D01*
X16532958Y-17902753D02*
X16513910Y-17893229D01*
X16513910Y-17893229D02*
X16504387Y-17883705D01*
X16504387Y-17883705D02*
X16494863Y-17864657D01*
X16494863Y-17864657D02*
X16485339Y-17826562D01*
X16485339Y-17826562D02*
X16485339Y-17778943D01*
X16485339Y-17778943D02*
X16494863Y-17740848D01*
X16494863Y-17740848D02*
X16504387Y-17721800D01*
X16504387Y-17721800D02*
X16513910Y-17712276D01*
X16513910Y-17712276D02*
X16532958Y-17702753D01*
X16685339Y-17902753D02*
X16685339Y-17769419D01*
X16685339Y-17788467D02*
X16694863Y-17778943D01*
X16694863Y-17778943D02*
X16713910Y-17769419D01*
X16713910Y-17769419D02*
X16742482Y-17769419D01*
X16742482Y-17769419D02*
X16761529Y-17778943D01*
X16761529Y-17778943D02*
X16771053Y-17797991D01*
X16771053Y-17797991D02*
X16771053Y-17902753D01*
X16771053Y-17797991D02*
X16780577Y-17778943D01*
X16780577Y-17778943D02*
X16799625Y-17769419D01*
X16799625Y-17769419D02*
X16828196Y-17769419D01*
X16828196Y-17769419D02*
X16847244Y-17778943D01*
X16847244Y-17778943D02*
X16856768Y-17797991D01*
X16856768Y-17797991D02*
X16856768Y-17902753D01*
X16952006Y-17902753D02*
X16952006Y-17769419D01*
X16952006Y-17788467D02*
X16961530Y-17778943D01*
X16961530Y-17778943D02*
X16980577Y-17769419D01*
X16980577Y-17769419D02*
X17009149Y-17769419D01*
X17009149Y-17769419D02*
X17028196Y-17778943D01*
X17028196Y-17778943D02*
X17037720Y-17797991D01*
X17037720Y-17797991D02*
X17037720Y-17902753D01*
X17037720Y-17797991D02*
X17047244Y-17778943D01*
X17047244Y-17778943D02*
X17066291Y-17769419D01*
X17066291Y-17769419D02*
X17094863Y-17769419D01*
X17094863Y-17769419D02*
X17113911Y-17778943D01*
X17113911Y-17778943D02*
X17123434Y-17797991D01*
X17123434Y-17797991D02*
X17123434Y-17902753D01*
X17513911Y-17693229D02*
X17342482Y-17950372D01*
X17771053Y-17702753D02*
X17790101Y-17702753D01*
X17790101Y-17702753D02*
X17809149Y-17712276D01*
X17809149Y-17712276D02*
X17818673Y-17721800D01*
X17818673Y-17721800D02*
X17828196Y-17740848D01*
X17828196Y-17740848D02*
X17837720Y-17778943D01*
X17837720Y-17778943D02*
X17837720Y-17826562D01*
X17837720Y-17826562D02*
X17828196Y-17864657D01*
X17828196Y-17864657D02*
X17818673Y-17883705D01*
X17818673Y-17883705D02*
X17809149Y-17893229D01*
X17809149Y-17893229D02*
X17790101Y-17902753D01*
X17790101Y-17902753D02*
X17771053Y-17902753D01*
X17771053Y-17902753D02*
X17752006Y-17893229D01*
X17752006Y-17893229D02*
X17742482Y-17883705D01*
X17742482Y-17883705D02*
X17732958Y-17864657D01*
X17732958Y-17864657D02*
X17723434Y-17826562D01*
X17723434Y-17826562D02*
X17723434Y-17778943D01*
X17723434Y-17778943D02*
X17732958Y-17740848D01*
X17732958Y-17740848D02*
X17742482Y-17721800D01*
X17742482Y-17721800D02*
X17752006Y-17712276D01*
X17752006Y-17712276D02*
X17771053Y-17702753D01*
X17923434Y-17883705D02*
X17932958Y-17893229D01*
X17932958Y-17893229D02*
X17923434Y-17902753D01*
X17923434Y-17902753D02*
X17913911Y-17893229D01*
X17913911Y-17893229D02*
X17923434Y-17883705D01*
X17923434Y-17883705D02*
X17923434Y-17902753D01*
X18056768Y-17702753D02*
X18075815Y-17702753D01*
X18075815Y-17702753D02*
X18094863Y-17712276D01*
X18094863Y-17712276D02*
X18104387Y-17721800D01*
X18104387Y-17721800D02*
X18113911Y-17740848D01*
X18113911Y-17740848D02*
X18123434Y-17778943D01*
X18123434Y-17778943D02*
X18123434Y-17826562D01*
X18123434Y-17826562D02*
X18113911Y-17864657D01*
X18113911Y-17864657D02*
X18104387Y-17883705D01*
X18104387Y-17883705D02*
X18094863Y-17893229D01*
X18094863Y-17893229D02*
X18075815Y-17902753D01*
X18075815Y-17902753D02*
X18056768Y-17902753D01*
X18056768Y-17902753D02*
X18037720Y-17893229D01*
X18037720Y-17893229D02*
X18028196Y-17883705D01*
X18028196Y-17883705D02*
X18018673Y-17864657D01*
X18018673Y-17864657D02*
X18009149Y-17826562D01*
X18009149Y-17826562D02*
X18009149Y-17778943D01*
X18009149Y-17778943D02*
X18018673Y-17740848D01*
X18018673Y-17740848D02*
X18028196Y-17721800D01*
X18028196Y-17721800D02*
X18037720Y-17712276D01*
X18037720Y-17712276D02*
X18056768Y-17702753D01*
X18190101Y-17702753D02*
X18313911Y-17702753D01*
X18313911Y-17702753D02*
X18247244Y-17778943D01*
X18247244Y-17778943D02*
X18275815Y-17778943D01*
X18275815Y-17778943D02*
X18294863Y-17788467D01*
X18294863Y-17788467D02*
X18304387Y-17797991D01*
X18304387Y-17797991D02*
X18313911Y-17817038D01*
X18313911Y-17817038D02*
X18313911Y-17864657D01*
X18313911Y-17864657D02*
X18304387Y-17883705D01*
X18304387Y-17883705D02*
X18294863Y-17893229D01*
X18294863Y-17893229D02*
X18275815Y-17902753D01*
X18275815Y-17902753D02*
X18218673Y-17902753D01*
X18218673Y-17902753D02*
X18199625Y-17893229D01*
X18199625Y-17893229D02*
X18190101Y-17883705D01*
X18494863Y-17702753D02*
X18399625Y-17702753D01*
X18399625Y-17702753D02*
X18390101Y-17797991D01*
X18390101Y-17797991D02*
X18399625Y-17788467D01*
X18399625Y-17788467D02*
X18418673Y-17778943D01*
X18418673Y-17778943D02*
X18466292Y-17778943D01*
X18466292Y-17778943D02*
X18485339Y-17788467D01*
X18485339Y-17788467D02*
X18494863Y-17797991D01*
X18494863Y-17797991D02*
X18504387Y-17817038D01*
X18504387Y-17817038D02*
X18504387Y-17864657D01*
X18504387Y-17864657D02*
X18494863Y-17883705D01*
X18494863Y-17883705D02*
X18485339Y-17893229D01*
X18485339Y-17893229D02*
X18466292Y-17902753D01*
X18466292Y-17902753D02*
X18418673Y-17902753D01*
X18418673Y-17902753D02*
X18399625Y-17893229D01*
X18399625Y-17893229D02*
X18390101Y-17883705D01*
X18675815Y-17769419D02*
X18675815Y-17902753D01*
X18628196Y-17693229D02*
X18580577Y-17836086D01*
X18580577Y-17836086D02*
X18704387Y-17836086D01*
X18771054Y-17702753D02*
X18771054Y-17740848D01*
X18847244Y-17702753D02*
X18847244Y-17740848D01*
X19142482Y-17978943D02*
X19132958Y-17969419D01*
X19132958Y-17969419D02*
X19113911Y-17940848D01*
X19113911Y-17940848D02*
X19104387Y-17921800D01*
X19104387Y-17921800D02*
X19094863Y-17893229D01*
X19094863Y-17893229D02*
X19085339Y-17845610D01*
X19085339Y-17845610D02*
X19085339Y-17807514D01*
X19085339Y-17807514D02*
X19094863Y-17759895D01*
X19094863Y-17759895D02*
X19104387Y-17731324D01*
X19104387Y-17731324D02*
X19113911Y-17712276D01*
X19113911Y-17712276D02*
X19132958Y-17683705D01*
X19132958Y-17683705D02*
X19142482Y-17674181D01*
X19304387Y-17769419D02*
X19304387Y-17902753D01*
X19256768Y-17693229D02*
X19209149Y-17836086D01*
X19209149Y-17836086D02*
X19332958Y-17836086D01*
X19561530Y-17902753D02*
X19561530Y-17702753D01*
X19647244Y-17902753D02*
X19647244Y-17797991D01*
X19647244Y-17797991D02*
X19637720Y-17778943D01*
X19637720Y-17778943D02*
X19618673Y-17769419D01*
X19618673Y-17769419D02*
X19590101Y-17769419D01*
X19590101Y-17769419D02*
X19571054Y-17778943D01*
X19571054Y-17778943D02*
X19561530Y-17788467D01*
X19771054Y-17902753D02*
X19752006Y-17893229D01*
X19752006Y-17893229D02*
X19742482Y-17883705D01*
X19742482Y-17883705D02*
X19732958Y-17864657D01*
X19732958Y-17864657D02*
X19732958Y-17807514D01*
X19732958Y-17807514D02*
X19742482Y-17788467D01*
X19742482Y-17788467D02*
X19752006Y-17778943D01*
X19752006Y-17778943D02*
X19771054Y-17769419D01*
X19771054Y-17769419D02*
X19799625Y-17769419D01*
X19799625Y-17769419D02*
X19818673Y-17778943D01*
X19818673Y-17778943D02*
X19828197Y-17788467D01*
X19828197Y-17788467D02*
X19837720Y-17807514D01*
X19837720Y-17807514D02*
X19837720Y-17864657D01*
X19837720Y-17864657D02*
X19828197Y-17883705D01*
X19828197Y-17883705D02*
X19818673Y-17893229D01*
X19818673Y-17893229D02*
X19799625Y-17902753D01*
X19799625Y-17902753D02*
X19771054Y-17902753D01*
X19952006Y-17902753D02*
X19932958Y-17893229D01*
X19932958Y-17893229D02*
X19923435Y-17874181D01*
X19923435Y-17874181D02*
X19923435Y-17702753D01*
X20104387Y-17893229D02*
X20085339Y-17902753D01*
X20085339Y-17902753D02*
X20047244Y-17902753D01*
X20047244Y-17902753D02*
X20028197Y-17893229D01*
X20028197Y-17893229D02*
X20018673Y-17874181D01*
X20018673Y-17874181D02*
X20018673Y-17797991D01*
X20018673Y-17797991D02*
X20028197Y-17778943D01*
X20028197Y-17778943D02*
X20047244Y-17769419D01*
X20047244Y-17769419D02*
X20085339Y-17769419D01*
X20085339Y-17769419D02*
X20104387Y-17778943D01*
X20104387Y-17778943D02*
X20113911Y-17797991D01*
X20113911Y-17797991D02*
X20113911Y-17817038D01*
X20113911Y-17817038D02*
X20018673Y-17836086D01*
X20190101Y-17893229D02*
X20209149Y-17902753D01*
X20209149Y-17902753D02*
X20247244Y-17902753D01*
X20247244Y-17902753D02*
X20266292Y-17893229D01*
X20266292Y-17893229D02*
X20275816Y-17874181D01*
X20275816Y-17874181D02*
X20275816Y-17864657D01*
X20275816Y-17864657D02*
X20266292Y-17845610D01*
X20266292Y-17845610D02*
X20247244Y-17836086D01*
X20247244Y-17836086D02*
X20218673Y-17836086D01*
X20218673Y-17836086D02*
X20199625Y-17826562D01*
X20199625Y-17826562D02*
X20190101Y-17807514D01*
X20190101Y-17807514D02*
X20190101Y-17797991D01*
X20190101Y-17797991D02*
X20199625Y-17778943D01*
X20199625Y-17778943D02*
X20218673Y-17769419D01*
X20218673Y-17769419D02*
X20247244Y-17769419D01*
X20247244Y-17769419D02*
X20266292Y-17778943D01*
X20342482Y-17978943D02*
X20352006Y-17969419D01*
X20352006Y-17969419D02*
X20371054Y-17940848D01*
X20371054Y-17940848D02*
X20380578Y-17921800D01*
X20380578Y-17921800D02*
X20390101Y-17893229D01*
X20390101Y-17893229D02*
X20399625Y-17845610D01*
X20399625Y-17845610D02*
X20399625Y-17807514D01*
X20399625Y-17807514D02*
X20390101Y-17759895D01*
X20390101Y-17759895D02*
X20380578Y-17731324D01*
X20380578Y-17731324D02*
X20371054Y-17712276D01*
X20371054Y-17712276D02*
X20352006Y-17683705D01*
X20352006Y-17683705D02*
X20342482Y-17674181D01*
D17*
X15457419Y-18020269D02*
X15567419Y-18130269D01*
X15567419Y-18020269D02*
X15457419Y-18130269D01*
X15567419Y-18075269D02*
G75*
G03*
X15567419Y-18075269I-55000J0D01*
G01*
D11*
X15932958Y-18166753D02*
X15818672Y-18166753D01*
X15875815Y-18166753D02*
X15875815Y-17966753D01*
X15875815Y-17966753D02*
X15856767Y-17995324D01*
X15856767Y-17995324D02*
X15837720Y-18014372D01*
X15837720Y-18014372D02*
X15818672Y-18023895D01*
X16018672Y-18147705D02*
X16028196Y-18157229D01*
X16028196Y-18157229D02*
X16018672Y-18166753D01*
X16018672Y-18166753D02*
X16009148Y-18157229D01*
X16009148Y-18157229D02*
X16018672Y-18147705D01*
X16018672Y-18147705D02*
X16018672Y-18166753D01*
X16218672Y-18166753D02*
X16104387Y-18166753D01*
X16161529Y-18166753D02*
X16161529Y-17966753D01*
X16161529Y-17966753D02*
X16142482Y-17995324D01*
X16142482Y-17995324D02*
X16123434Y-18014372D01*
X16123434Y-18014372D02*
X16104387Y-18023895D01*
X16342482Y-17966753D02*
X16361529Y-17966753D01*
X16361529Y-17966753D02*
X16380577Y-17976276D01*
X16380577Y-17976276D02*
X16390101Y-17985800D01*
X16390101Y-17985800D02*
X16399625Y-18004848D01*
X16399625Y-18004848D02*
X16409148Y-18042943D01*
X16409148Y-18042943D02*
X16409148Y-18090562D01*
X16409148Y-18090562D02*
X16399625Y-18128657D01*
X16399625Y-18128657D02*
X16390101Y-18147705D01*
X16390101Y-18147705D02*
X16380577Y-18157229D01*
X16380577Y-18157229D02*
X16361529Y-18166753D01*
X16361529Y-18166753D02*
X16342482Y-18166753D01*
X16342482Y-18166753D02*
X16323434Y-18157229D01*
X16323434Y-18157229D02*
X16313910Y-18147705D01*
X16313910Y-18147705D02*
X16304387Y-18128657D01*
X16304387Y-18128657D02*
X16294863Y-18090562D01*
X16294863Y-18090562D02*
X16294863Y-18042943D01*
X16294863Y-18042943D02*
X16304387Y-18004848D01*
X16304387Y-18004848D02*
X16313910Y-17985800D01*
X16313910Y-17985800D02*
X16323434Y-17976276D01*
X16323434Y-17976276D02*
X16342482Y-17966753D01*
X16532958Y-17966753D02*
X16552006Y-17966753D01*
X16552006Y-17966753D02*
X16571053Y-17976276D01*
X16571053Y-17976276D02*
X16580577Y-17985800D01*
X16580577Y-17985800D02*
X16590101Y-18004848D01*
X16590101Y-18004848D02*
X16599625Y-18042943D01*
X16599625Y-18042943D02*
X16599625Y-18090562D01*
X16599625Y-18090562D02*
X16590101Y-18128657D01*
X16590101Y-18128657D02*
X16580577Y-18147705D01*
X16580577Y-18147705D02*
X16571053Y-18157229D01*
X16571053Y-18157229D02*
X16552006Y-18166753D01*
X16552006Y-18166753D02*
X16532958Y-18166753D01*
X16532958Y-18166753D02*
X16513910Y-18157229D01*
X16513910Y-18157229D02*
X16504387Y-18147705D01*
X16504387Y-18147705D02*
X16494863Y-18128657D01*
X16494863Y-18128657D02*
X16485339Y-18090562D01*
X16485339Y-18090562D02*
X16485339Y-18042943D01*
X16485339Y-18042943D02*
X16494863Y-18004848D01*
X16494863Y-18004848D02*
X16504387Y-17985800D01*
X16504387Y-17985800D02*
X16513910Y-17976276D01*
X16513910Y-17976276D02*
X16532958Y-17966753D01*
X16685339Y-18166753D02*
X16685339Y-18033419D01*
X16685339Y-18052467D02*
X16694863Y-18042943D01*
X16694863Y-18042943D02*
X16713910Y-18033419D01*
X16713910Y-18033419D02*
X16742482Y-18033419D01*
X16742482Y-18033419D02*
X16761529Y-18042943D01*
X16761529Y-18042943D02*
X16771053Y-18061991D01*
X16771053Y-18061991D02*
X16771053Y-18166753D01*
X16771053Y-18061991D02*
X16780577Y-18042943D01*
X16780577Y-18042943D02*
X16799625Y-18033419D01*
X16799625Y-18033419D02*
X16828196Y-18033419D01*
X16828196Y-18033419D02*
X16847244Y-18042943D01*
X16847244Y-18042943D02*
X16856768Y-18061991D01*
X16856768Y-18061991D02*
X16856768Y-18166753D01*
X16952006Y-18166753D02*
X16952006Y-18033419D01*
X16952006Y-18052467D02*
X16961530Y-18042943D01*
X16961530Y-18042943D02*
X16980577Y-18033419D01*
X16980577Y-18033419D02*
X17009149Y-18033419D01*
X17009149Y-18033419D02*
X17028196Y-18042943D01*
X17028196Y-18042943D02*
X17037720Y-18061991D01*
X17037720Y-18061991D02*
X17037720Y-18166753D01*
X17037720Y-18061991D02*
X17047244Y-18042943D01*
X17047244Y-18042943D02*
X17066291Y-18033419D01*
X17066291Y-18033419D02*
X17094863Y-18033419D01*
X17094863Y-18033419D02*
X17113911Y-18042943D01*
X17113911Y-18042943D02*
X17123434Y-18061991D01*
X17123434Y-18061991D02*
X17123434Y-18166753D01*
X17513911Y-17957229D02*
X17342482Y-18214372D01*
X17771053Y-17966753D02*
X17790101Y-17966753D01*
X17790101Y-17966753D02*
X17809149Y-17976276D01*
X17809149Y-17976276D02*
X17818673Y-17985800D01*
X17818673Y-17985800D02*
X17828196Y-18004848D01*
X17828196Y-18004848D02*
X17837720Y-18042943D01*
X17837720Y-18042943D02*
X17837720Y-18090562D01*
X17837720Y-18090562D02*
X17828196Y-18128657D01*
X17828196Y-18128657D02*
X17818673Y-18147705D01*
X17818673Y-18147705D02*
X17809149Y-18157229D01*
X17809149Y-18157229D02*
X17790101Y-18166753D01*
X17790101Y-18166753D02*
X17771053Y-18166753D01*
X17771053Y-18166753D02*
X17752006Y-18157229D01*
X17752006Y-18157229D02*
X17742482Y-18147705D01*
X17742482Y-18147705D02*
X17732958Y-18128657D01*
X17732958Y-18128657D02*
X17723434Y-18090562D01*
X17723434Y-18090562D02*
X17723434Y-18042943D01*
X17723434Y-18042943D02*
X17732958Y-18004848D01*
X17732958Y-18004848D02*
X17742482Y-17985800D01*
X17742482Y-17985800D02*
X17752006Y-17976276D01*
X17752006Y-17976276D02*
X17771053Y-17966753D01*
X17923434Y-18147705D02*
X17932958Y-18157229D01*
X17932958Y-18157229D02*
X17923434Y-18166753D01*
X17923434Y-18166753D02*
X17913911Y-18157229D01*
X17913911Y-18157229D02*
X17923434Y-18147705D01*
X17923434Y-18147705D02*
X17923434Y-18166753D01*
X18056768Y-17966753D02*
X18075815Y-17966753D01*
X18075815Y-17966753D02*
X18094863Y-17976276D01*
X18094863Y-17976276D02*
X18104387Y-17985800D01*
X18104387Y-17985800D02*
X18113911Y-18004848D01*
X18113911Y-18004848D02*
X18123434Y-18042943D01*
X18123434Y-18042943D02*
X18123434Y-18090562D01*
X18123434Y-18090562D02*
X18113911Y-18128657D01*
X18113911Y-18128657D02*
X18104387Y-18147705D01*
X18104387Y-18147705D02*
X18094863Y-18157229D01*
X18094863Y-18157229D02*
X18075815Y-18166753D01*
X18075815Y-18166753D02*
X18056768Y-18166753D01*
X18056768Y-18166753D02*
X18037720Y-18157229D01*
X18037720Y-18157229D02*
X18028196Y-18147705D01*
X18028196Y-18147705D02*
X18018673Y-18128657D01*
X18018673Y-18128657D02*
X18009149Y-18090562D01*
X18009149Y-18090562D02*
X18009149Y-18042943D01*
X18009149Y-18042943D02*
X18018673Y-18004848D01*
X18018673Y-18004848D02*
X18028196Y-17985800D01*
X18028196Y-17985800D02*
X18037720Y-17976276D01*
X18037720Y-17976276D02*
X18056768Y-17966753D01*
X18294863Y-18033419D02*
X18294863Y-18166753D01*
X18247244Y-17957229D02*
X18199625Y-18100086D01*
X18199625Y-18100086D02*
X18323434Y-18100086D01*
X18380577Y-17966753D02*
X18504387Y-17966753D01*
X18504387Y-17966753D02*
X18437720Y-18042943D01*
X18437720Y-18042943D02*
X18466292Y-18042943D01*
X18466292Y-18042943D02*
X18485339Y-18052467D01*
X18485339Y-18052467D02*
X18494863Y-18061991D01*
X18494863Y-18061991D02*
X18504387Y-18081038D01*
X18504387Y-18081038D02*
X18504387Y-18128657D01*
X18504387Y-18128657D02*
X18494863Y-18147705D01*
X18494863Y-18147705D02*
X18485339Y-18157229D01*
X18485339Y-18157229D02*
X18466292Y-18166753D01*
X18466292Y-18166753D02*
X18409149Y-18166753D01*
X18409149Y-18166753D02*
X18390101Y-18157229D01*
X18390101Y-18157229D02*
X18380577Y-18147705D01*
X18571054Y-17966753D02*
X18694863Y-17966753D01*
X18694863Y-17966753D02*
X18628196Y-18042943D01*
X18628196Y-18042943D02*
X18656768Y-18042943D01*
X18656768Y-18042943D02*
X18675815Y-18052467D01*
X18675815Y-18052467D02*
X18685339Y-18061991D01*
X18685339Y-18061991D02*
X18694863Y-18081038D01*
X18694863Y-18081038D02*
X18694863Y-18128657D01*
X18694863Y-18128657D02*
X18685339Y-18147705D01*
X18685339Y-18147705D02*
X18675815Y-18157229D01*
X18675815Y-18157229D02*
X18656768Y-18166753D01*
X18656768Y-18166753D02*
X18599625Y-18166753D01*
X18599625Y-18166753D02*
X18580577Y-18157229D01*
X18580577Y-18157229D02*
X18571054Y-18147705D01*
X18771054Y-17966753D02*
X18771054Y-18004848D01*
X18847244Y-17966753D02*
X18847244Y-18004848D01*
X19142482Y-18242943D02*
X19132958Y-18233419D01*
X19132958Y-18233419D02*
X19113911Y-18204848D01*
X19113911Y-18204848D02*
X19104387Y-18185800D01*
X19104387Y-18185800D02*
X19094863Y-18157229D01*
X19094863Y-18157229D02*
X19085339Y-18109610D01*
X19085339Y-18109610D02*
X19085339Y-18071514D01*
X19085339Y-18071514D02*
X19094863Y-18023895D01*
X19094863Y-18023895D02*
X19104387Y-17995324D01*
X19104387Y-17995324D02*
X19113911Y-17976276D01*
X19113911Y-17976276D02*
X19132958Y-17947705D01*
X19132958Y-17947705D02*
X19142482Y-17938181D01*
X19304387Y-18033419D02*
X19304387Y-18166753D01*
X19256768Y-17957229D02*
X19209149Y-18100086D01*
X19209149Y-18100086D02*
X19332958Y-18100086D01*
X19561530Y-18166753D02*
X19561530Y-17966753D01*
X19647244Y-18166753D02*
X19647244Y-18061991D01*
X19647244Y-18061991D02*
X19637720Y-18042943D01*
X19637720Y-18042943D02*
X19618673Y-18033419D01*
X19618673Y-18033419D02*
X19590101Y-18033419D01*
X19590101Y-18033419D02*
X19571054Y-18042943D01*
X19571054Y-18042943D02*
X19561530Y-18052467D01*
X19771054Y-18166753D02*
X19752006Y-18157229D01*
X19752006Y-18157229D02*
X19742482Y-18147705D01*
X19742482Y-18147705D02*
X19732958Y-18128657D01*
X19732958Y-18128657D02*
X19732958Y-18071514D01*
X19732958Y-18071514D02*
X19742482Y-18052467D01*
X19742482Y-18052467D02*
X19752006Y-18042943D01*
X19752006Y-18042943D02*
X19771054Y-18033419D01*
X19771054Y-18033419D02*
X19799625Y-18033419D01*
X19799625Y-18033419D02*
X19818673Y-18042943D01*
X19818673Y-18042943D02*
X19828197Y-18052467D01*
X19828197Y-18052467D02*
X19837720Y-18071514D01*
X19837720Y-18071514D02*
X19837720Y-18128657D01*
X19837720Y-18128657D02*
X19828197Y-18147705D01*
X19828197Y-18147705D02*
X19818673Y-18157229D01*
X19818673Y-18157229D02*
X19799625Y-18166753D01*
X19799625Y-18166753D02*
X19771054Y-18166753D01*
X19952006Y-18166753D02*
X19932958Y-18157229D01*
X19932958Y-18157229D02*
X19923435Y-18138181D01*
X19923435Y-18138181D02*
X19923435Y-17966753D01*
X20104387Y-18157229D02*
X20085339Y-18166753D01*
X20085339Y-18166753D02*
X20047244Y-18166753D01*
X20047244Y-18166753D02*
X20028197Y-18157229D01*
X20028197Y-18157229D02*
X20018673Y-18138181D01*
X20018673Y-18138181D02*
X20018673Y-18061991D01*
X20018673Y-18061991D02*
X20028197Y-18042943D01*
X20028197Y-18042943D02*
X20047244Y-18033419D01*
X20047244Y-18033419D02*
X20085339Y-18033419D01*
X20085339Y-18033419D02*
X20104387Y-18042943D01*
X20104387Y-18042943D02*
X20113911Y-18061991D01*
X20113911Y-18061991D02*
X20113911Y-18081038D01*
X20113911Y-18081038D02*
X20018673Y-18100086D01*
X20190101Y-18157229D02*
X20209149Y-18166753D01*
X20209149Y-18166753D02*
X20247244Y-18166753D01*
X20247244Y-18166753D02*
X20266292Y-18157229D01*
X20266292Y-18157229D02*
X20275816Y-18138181D01*
X20275816Y-18138181D02*
X20275816Y-18128657D01*
X20275816Y-18128657D02*
X20266292Y-18109610D01*
X20266292Y-18109610D02*
X20247244Y-18100086D01*
X20247244Y-18100086D02*
X20218673Y-18100086D01*
X20218673Y-18100086D02*
X20199625Y-18090562D01*
X20199625Y-18090562D02*
X20190101Y-18071514D01*
X20190101Y-18071514D02*
X20190101Y-18061991D01*
X20190101Y-18061991D02*
X20199625Y-18042943D01*
X20199625Y-18042943D02*
X20218673Y-18033419D01*
X20218673Y-18033419D02*
X20247244Y-18033419D01*
X20247244Y-18033419D02*
X20266292Y-18042943D01*
X20342482Y-18242943D02*
X20352006Y-18233419D01*
X20352006Y-18233419D02*
X20371054Y-18204848D01*
X20371054Y-18204848D02*
X20380578Y-18185800D01*
X20380578Y-18185800D02*
X20390101Y-18157229D01*
X20390101Y-18157229D02*
X20399625Y-18109610D01*
X20399625Y-18109610D02*
X20399625Y-18071514D01*
X20399625Y-18071514D02*
X20390101Y-18023895D01*
X20390101Y-18023895D02*
X20380578Y-17995324D01*
X20380578Y-17995324D02*
X20371054Y-17976276D01*
X20371054Y-17976276D02*
X20352006Y-17947705D01*
X20352006Y-17947705D02*
X20342482Y-17938181D01*
D18*
X15447419Y-18279269D02*
X15567419Y-18399269D01*
X15567419Y-18279269D02*
X15447419Y-18399269D01*
X15507419Y-18279269D02*
X15507419Y-18399269D01*
X15447419Y-18339269D02*
X15567419Y-18339269D01*
D11*
X15932958Y-18430753D02*
X15818672Y-18430753D01*
X15875815Y-18430753D02*
X15875815Y-18230753D01*
X15875815Y-18230753D02*
X15856767Y-18259324D01*
X15856767Y-18259324D02*
X15837720Y-18278372D01*
X15837720Y-18278372D02*
X15818672Y-18287895D01*
X16018672Y-18411705D02*
X16028196Y-18421229D01*
X16028196Y-18421229D02*
X16018672Y-18430753D01*
X16018672Y-18430753D02*
X16009148Y-18421229D01*
X16009148Y-18421229D02*
X16018672Y-18411705D01*
X16018672Y-18411705D02*
X16018672Y-18430753D01*
X16104387Y-18249800D02*
X16113910Y-18240276D01*
X16113910Y-18240276D02*
X16132958Y-18230753D01*
X16132958Y-18230753D02*
X16180577Y-18230753D01*
X16180577Y-18230753D02*
X16199625Y-18240276D01*
X16199625Y-18240276D02*
X16209148Y-18249800D01*
X16209148Y-18249800D02*
X16218672Y-18268848D01*
X16218672Y-18268848D02*
X16218672Y-18287895D01*
X16218672Y-18287895D02*
X16209148Y-18316467D01*
X16209148Y-18316467D02*
X16094863Y-18430753D01*
X16094863Y-18430753D02*
X16218672Y-18430753D01*
X16342482Y-18230753D02*
X16361529Y-18230753D01*
X16361529Y-18230753D02*
X16380577Y-18240276D01*
X16380577Y-18240276D02*
X16390101Y-18249800D01*
X16390101Y-18249800D02*
X16399625Y-18268848D01*
X16399625Y-18268848D02*
X16409148Y-18306943D01*
X16409148Y-18306943D02*
X16409148Y-18354562D01*
X16409148Y-18354562D02*
X16399625Y-18392657D01*
X16399625Y-18392657D02*
X16390101Y-18411705D01*
X16390101Y-18411705D02*
X16380577Y-18421229D01*
X16380577Y-18421229D02*
X16361529Y-18430753D01*
X16361529Y-18430753D02*
X16342482Y-18430753D01*
X16342482Y-18430753D02*
X16323434Y-18421229D01*
X16323434Y-18421229D02*
X16313910Y-18411705D01*
X16313910Y-18411705D02*
X16304387Y-18392657D01*
X16304387Y-18392657D02*
X16294863Y-18354562D01*
X16294863Y-18354562D02*
X16294863Y-18306943D01*
X16294863Y-18306943D02*
X16304387Y-18268848D01*
X16304387Y-18268848D02*
X16313910Y-18249800D01*
X16313910Y-18249800D02*
X16323434Y-18240276D01*
X16323434Y-18240276D02*
X16342482Y-18230753D01*
X16532958Y-18230753D02*
X16552006Y-18230753D01*
X16552006Y-18230753D02*
X16571053Y-18240276D01*
X16571053Y-18240276D02*
X16580577Y-18249800D01*
X16580577Y-18249800D02*
X16590101Y-18268848D01*
X16590101Y-18268848D02*
X16599625Y-18306943D01*
X16599625Y-18306943D02*
X16599625Y-18354562D01*
X16599625Y-18354562D02*
X16590101Y-18392657D01*
X16590101Y-18392657D02*
X16580577Y-18411705D01*
X16580577Y-18411705D02*
X16571053Y-18421229D01*
X16571053Y-18421229D02*
X16552006Y-18430753D01*
X16552006Y-18430753D02*
X16532958Y-18430753D01*
X16532958Y-18430753D02*
X16513910Y-18421229D01*
X16513910Y-18421229D02*
X16504387Y-18411705D01*
X16504387Y-18411705D02*
X16494863Y-18392657D01*
X16494863Y-18392657D02*
X16485339Y-18354562D01*
X16485339Y-18354562D02*
X16485339Y-18306943D01*
X16485339Y-18306943D02*
X16494863Y-18268848D01*
X16494863Y-18268848D02*
X16504387Y-18249800D01*
X16504387Y-18249800D02*
X16513910Y-18240276D01*
X16513910Y-18240276D02*
X16532958Y-18230753D01*
X16685339Y-18430753D02*
X16685339Y-18297419D01*
X16685339Y-18316467D02*
X16694863Y-18306943D01*
X16694863Y-18306943D02*
X16713910Y-18297419D01*
X16713910Y-18297419D02*
X16742482Y-18297419D01*
X16742482Y-18297419D02*
X16761529Y-18306943D01*
X16761529Y-18306943D02*
X16771053Y-18325991D01*
X16771053Y-18325991D02*
X16771053Y-18430753D01*
X16771053Y-18325991D02*
X16780577Y-18306943D01*
X16780577Y-18306943D02*
X16799625Y-18297419D01*
X16799625Y-18297419D02*
X16828196Y-18297419D01*
X16828196Y-18297419D02*
X16847244Y-18306943D01*
X16847244Y-18306943D02*
X16856768Y-18325991D01*
X16856768Y-18325991D02*
X16856768Y-18430753D01*
X16952006Y-18430753D02*
X16952006Y-18297419D01*
X16952006Y-18316467D02*
X16961530Y-18306943D01*
X16961530Y-18306943D02*
X16980577Y-18297419D01*
X16980577Y-18297419D02*
X17009149Y-18297419D01*
X17009149Y-18297419D02*
X17028196Y-18306943D01*
X17028196Y-18306943D02*
X17037720Y-18325991D01*
X17037720Y-18325991D02*
X17037720Y-18430753D01*
X17037720Y-18325991D02*
X17047244Y-18306943D01*
X17047244Y-18306943D02*
X17066291Y-18297419D01*
X17066291Y-18297419D02*
X17094863Y-18297419D01*
X17094863Y-18297419D02*
X17113911Y-18306943D01*
X17113911Y-18306943D02*
X17123434Y-18325991D01*
X17123434Y-18325991D02*
X17123434Y-18430753D01*
X17513911Y-18221229D02*
X17342482Y-18478372D01*
X17771053Y-18230753D02*
X17790101Y-18230753D01*
X17790101Y-18230753D02*
X17809149Y-18240276D01*
X17809149Y-18240276D02*
X17818673Y-18249800D01*
X17818673Y-18249800D02*
X17828196Y-18268848D01*
X17828196Y-18268848D02*
X17837720Y-18306943D01*
X17837720Y-18306943D02*
X17837720Y-18354562D01*
X17837720Y-18354562D02*
X17828196Y-18392657D01*
X17828196Y-18392657D02*
X17818673Y-18411705D01*
X17818673Y-18411705D02*
X17809149Y-18421229D01*
X17809149Y-18421229D02*
X17790101Y-18430753D01*
X17790101Y-18430753D02*
X17771053Y-18430753D01*
X17771053Y-18430753D02*
X17752006Y-18421229D01*
X17752006Y-18421229D02*
X17742482Y-18411705D01*
X17742482Y-18411705D02*
X17732958Y-18392657D01*
X17732958Y-18392657D02*
X17723434Y-18354562D01*
X17723434Y-18354562D02*
X17723434Y-18306943D01*
X17723434Y-18306943D02*
X17732958Y-18268848D01*
X17732958Y-18268848D02*
X17742482Y-18249800D01*
X17742482Y-18249800D02*
X17752006Y-18240276D01*
X17752006Y-18240276D02*
X17771053Y-18230753D01*
X17923434Y-18411705D02*
X17932958Y-18421229D01*
X17932958Y-18421229D02*
X17923434Y-18430753D01*
X17923434Y-18430753D02*
X17913911Y-18421229D01*
X17913911Y-18421229D02*
X17923434Y-18411705D01*
X17923434Y-18411705D02*
X17923434Y-18430753D01*
X18056768Y-18230753D02*
X18075815Y-18230753D01*
X18075815Y-18230753D02*
X18094863Y-18240276D01*
X18094863Y-18240276D02*
X18104387Y-18249800D01*
X18104387Y-18249800D02*
X18113911Y-18268848D01*
X18113911Y-18268848D02*
X18123434Y-18306943D01*
X18123434Y-18306943D02*
X18123434Y-18354562D01*
X18123434Y-18354562D02*
X18113911Y-18392657D01*
X18113911Y-18392657D02*
X18104387Y-18411705D01*
X18104387Y-18411705D02*
X18094863Y-18421229D01*
X18094863Y-18421229D02*
X18075815Y-18430753D01*
X18075815Y-18430753D02*
X18056768Y-18430753D01*
X18056768Y-18430753D02*
X18037720Y-18421229D01*
X18037720Y-18421229D02*
X18028196Y-18411705D01*
X18028196Y-18411705D02*
X18018673Y-18392657D01*
X18018673Y-18392657D02*
X18009149Y-18354562D01*
X18009149Y-18354562D02*
X18009149Y-18306943D01*
X18009149Y-18306943D02*
X18018673Y-18268848D01*
X18018673Y-18268848D02*
X18028196Y-18249800D01*
X18028196Y-18249800D02*
X18037720Y-18240276D01*
X18037720Y-18240276D02*
X18056768Y-18230753D01*
X18294863Y-18297419D02*
X18294863Y-18430753D01*
X18247244Y-18221229D02*
X18199625Y-18364086D01*
X18199625Y-18364086D02*
X18323434Y-18364086D01*
X18380577Y-18230753D02*
X18513911Y-18230753D01*
X18513911Y-18230753D02*
X18428196Y-18430753D01*
X18580577Y-18249800D02*
X18590101Y-18240276D01*
X18590101Y-18240276D02*
X18609149Y-18230753D01*
X18609149Y-18230753D02*
X18656768Y-18230753D01*
X18656768Y-18230753D02*
X18675815Y-18240276D01*
X18675815Y-18240276D02*
X18685339Y-18249800D01*
X18685339Y-18249800D02*
X18694863Y-18268848D01*
X18694863Y-18268848D02*
X18694863Y-18287895D01*
X18694863Y-18287895D02*
X18685339Y-18316467D01*
X18685339Y-18316467D02*
X18571054Y-18430753D01*
X18571054Y-18430753D02*
X18694863Y-18430753D01*
X18771054Y-18230753D02*
X18771054Y-18268848D01*
X18847244Y-18230753D02*
X18847244Y-18268848D01*
X19142482Y-18506943D02*
X19132958Y-18497419D01*
X19132958Y-18497419D02*
X19113911Y-18468848D01*
X19113911Y-18468848D02*
X19104387Y-18449800D01*
X19104387Y-18449800D02*
X19094863Y-18421229D01*
X19094863Y-18421229D02*
X19085339Y-18373610D01*
X19085339Y-18373610D02*
X19085339Y-18335514D01*
X19085339Y-18335514D02*
X19094863Y-18287895D01*
X19094863Y-18287895D02*
X19104387Y-18259324D01*
X19104387Y-18259324D02*
X19113911Y-18240276D01*
X19113911Y-18240276D02*
X19132958Y-18211705D01*
X19132958Y-18211705D02*
X19142482Y-18202181D01*
X19304387Y-18297419D02*
X19304387Y-18430753D01*
X19256768Y-18221229D02*
X19209149Y-18364086D01*
X19209149Y-18364086D02*
X19332958Y-18364086D01*
X19561530Y-18430753D02*
X19561530Y-18230753D01*
X19647244Y-18430753D02*
X19647244Y-18325991D01*
X19647244Y-18325991D02*
X19637720Y-18306943D01*
X19637720Y-18306943D02*
X19618673Y-18297419D01*
X19618673Y-18297419D02*
X19590101Y-18297419D01*
X19590101Y-18297419D02*
X19571054Y-18306943D01*
X19571054Y-18306943D02*
X19561530Y-18316467D01*
X19771054Y-18430753D02*
X19752006Y-18421229D01*
X19752006Y-18421229D02*
X19742482Y-18411705D01*
X19742482Y-18411705D02*
X19732958Y-18392657D01*
X19732958Y-18392657D02*
X19732958Y-18335514D01*
X19732958Y-18335514D02*
X19742482Y-18316467D01*
X19742482Y-18316467D02*
X19752006Y-18306943D01*
X19752006Y-18306943D02*
X19771054Y-18297419D01*
X19771054Y-18297419D02*
X19799625Y-18297419D01*
X19799625Y-18297419D02*
X19818673Y-18306943D01*
X19818673Y-18306943D02*
X19828197Y-18316467D01*
X19828197Y-18316467D02*
X19837720Y-18335514D01*
X19837720Y-18335514D02*
X19837720Y-18392657D01*
X19837720Y-18392657D02*
X19828197Y-18411705D01*
X19828197Y-18411705D02*
X19818673Y-18421229D01*
X19818673Y-18421229D02*
X19799625Y-18430753D01*
X19799625Y-18430753D02*
X19771054Y-18430753D01*
X19952006Y-18430753D02*
X19932958Y-18421229D01*
X19932958Y-18421229D02*
X19923435Y-18402181D01*
X19923435Y-18402181D02*
X19923435Y-18230753D01*
X20104387Y-18421229D02*
X20085339Y-18430753D01*
X20085339Y-18430753D02*
X20047244Y-18430753D01*
X20047244Y-18430753D02*
X20028197Y-18421229D01*
X20028197Y-18421229D02*
X20018673Y-18402181D01*
X20018673Y-18402181D02*
X20018673Y-18325991D01*
X20018673Y-18325991D02*
X20028197Y-18306943D01*
X20028197Y-18306943D02*
X20047244Y-18297419D01*
X20047244Y-18297419D02*
X20085339Y-18297419D01*
X20085339Y-18297419D02*
X20104387Y-18306943D01*
X20104387Y-18306943D02*
X20113911Y-18325991D01*
X20113911Y-18325991D02*
X20113911Y-18345038D01*
X20113911Y-18345038D02*
X20018673Y-18364086D01*
X20190101Y-18421229D02*
X20209149Y-18430753D01*
X20209149Y-18430753D02*
X20247244Y-18430753D01*
X20247244Y-18430753D02*
X20266292Y-18421229D01*
X20266292Y-18421229D02*
X20275816Y-18402181D01*
X20275816Y-18402181D02*
X20275816Y-18392657D01*
X20275816Y-18392657D02*
X20266292Y-18373610D01*
X20266292Y-18373610D02*
X20247244Y-18364086D01*
X20247244Y-18364086D02*
X20218673Y-18364086D01*
X20218673Y-18364086D02*
X20199625Y-18354562D01*
X20199625Y-18354562D02*
X20190101Y-18335514D01*
X20190101Y-18335514D02*
X20190101Y-18325991D01*
X20190101Y-18325991D02*
X20199625Y-18306943D01*
X20199625Y-18306943D02*
X20218673Y-18297419D01*
X20218673Y-18297419D02*
X20247244Y-18297419D01*
X20247244Y-18297419D02*
X20266292Y-18306943D01*
X20342482Y-18506943D02*
X20352006Y-18497419D01*
X20352006Y-18497419D02*
X20371054Y-18468848D01*
X20371054Y-18468848D02*
X20380578Y-18449800D01*
X20380578Y-18449800D02*
X20390101Y-18421229D01*
X20390101Y-18421229D02*
X20399625Y-18373610D01*
X20399625Y-18373610D02*
X20399625Y-18335514D01*
X20399625Y-18335514D02*
X20390101Y-18287895D01*
X20390101Y-18287895D02*
X20380578Y-18259324D01*
X20380578Y-18259324D02*
X20371054Y-18240276D01*
X20371054Y-18240276D02*
X20352006Y-18211705D01*
X20352006Y-18211705D02*
X20342482Y-18202181D01*
D19*
X15417419Y-18528269D02*
X15567419Y-18678269D01*
X15567419Y-18528269D02*
X15417419Y-18678269D01*
X15545453Y-18656302D02*
X15545453Y-18550235D01*
X15439386Y-18550235D01*
X15439386Y-18656302D01*
X15545453Y-18656302D01*
D11*
X15932958Y-18694753D02*
X15818672Y-18694753D01*
X15875815Y-18694753D02*
X15875815Y-18494753D01*
X15875815Y-18494753D02*
X15856767Y-18523324D01*
X15856767Y-18523324D02*
X15837720Y-18542372D01*
X15837720Y-18542372D02*
X15818672Y-18551895D01*
X16018672Y-18675705D02*
X16028196Y-18685229D01*
X16028196Y-18685229D02*
X16018672Y-18694753D01*
X16018672Y-18694753D02*
X16009148Y-18685229D01*
X16009148Y-18685229D02*
X16018672Y-18675705D01*
X16018672Y-18675705D02*
X16018672Y-18694753D01*
X16209148Y-18494753D02*
X16113910Y-18494753D01*
X16113910Y-18494753D02*
X16104387Y-18589991D01*
X16104387Y-18589991D02*
X16113910Y-18580467D01*
X16113910Y-18580467D02*
X16132958Y-18570943D01*
X16132958Y-18570943D02*
X16180577Y-18570943D01*
X16180577Y-18570943D02*
X16199625Y-18580467D01*
X16199625Y-18580467D02*
X16209148Y-18589991D01*
X16209148Y-18589991D02*
X16218672Y-18609038D01*
X16218672Y-18609038D02*
X16218672Y-18656657D01*
X16218672Y-18656657D02*
X16209148Y-18675705D01*
X16209148Y-18675705D02*
X16199625Y-18685229D01*
X16199625Y-18685229D02*
X16180577Y-18694753D01*
X16180577Y-18694753D02*
X16132958Y-18694753D01*
X16132958Y-18694753D02*
X16113910Y-18685229D01*
X16113910Y-18685229D02*
X16104387Y-18675705D01*
X16342482Y-18494753D02*
X16361529Y-18494753D01*
X16361529Y-18494753D02*
X16380577Y-18504276D01*
X16380577Y-18504276D02*
X16390101Y-18513800D01*
X16390101Y-18513800D02*
X16399625Y-18532848D01*
X16399625Y-18532848D02*
X16409148Y-18570943D01*
X16409148Y-18570943D02*
X16409148Y-18618562D01*
X16409148Y-18618562D02*
X16399625Y-18656657D01*
X16399625Y-18656657D02*
X16390101Y-18675705D01*
X16390101Y-18675705D02*
X16380577Y-18685229D01*
X16380577Y-18685229D02*
X16361529Y-18694753D01*
X16361529Y-18694753D02*
X16342482Y-18694753D01*
X16342482Y-18694753D02*
X16323434Y-18685229D01*
X16323434Y-18685229D02*
X16313910Y-18675705D01*
X16313910Y-18675705D02*
X16304387Y-18656657D01*
X16304387Y-18656657D02*
X16294863Y-18618562D01*
X16294863Y-18618562D02*
X16294863Y-18570943D01*
X16294863Y-18570943D02*
X16304387Y-18532848D01*
X16304387Y-18532848D02*
X16313910Y-18513800D01*
X16313910Y-18513800D02*
X16323434Y-18504276D01*
X16323434Y-18504276D02*
X16342482Y-18494753D01*
X16532958Y-18494753D02*
X16552006Y-18494753D01*
X16552006Y-18494753D02*
X16571053Y-18504276D01*
X16571053Y-18504276D02*
X16580577Y-18513800D01*
X16580577Y-18513800D02*
X16590101Y-18532848D01*
X16590101Y-18532848D02*
X16599625Y-18570943D01*
X16599625Y-18570943D02*
X16599625Y-18618562D01*
X16599625Y-18618562D02*
X16590101Y-18656657D01*
X16590101Y-18656657D02*
X16580577Y-18675705D01*
X16580577Y-18675705D02*
X16571053Y-18685229D01*
X16571053Y-18685229D02*
X16552006Y-18694753D01*
X16552006Y-18694753D02*
X16532958Y-18694753D01*
X16532958Y-18694753D02*
X16513910Y-18685229D01*
X16513910Y-18685229D02*
X16504387Y-18675705D01*
X16504387Y-18675705D02*
X16494863Y-18656657D01*
X16494863Y-18656657D02*
X16485339Y-18618562D01*
X16485339Y-18618562D02*
X16485339Y-18570943D01*
X16485339Y-18570943D02*
X16494863Y-18532848D01*
X16494863Y-18532848D02*
X16504387Y-18513800D01*
X16504387Y-18513800D02*
X16513910Y-18504276D01*
X16513910Y-18504276D02*
X16532958Y-18494753D01*
X16685339Y-18694753D02*
X16685339Y-18561419D01*
X16685339Y-18580467D02*
X16694863Y-18570943D01*
X16694863Y-18570943D02*
X16713910Y-18561419D01*
X16713910Y-18561419D02*
X16742482Y-18561419D01*
X16742482Y-18561419D02*
X16761529Y-18570943D01*
X16761529Y-18570943D02*
X16771053Y-18589991D01*
X16771053Y-18589991D02*
X16771053Y-18694753D01*
X16771053Y-18589991D02*
X16780577Y-18570943D01*
X16780577Y-18570943D02*
X16799625Y-18561419D01*
X16799625Y-18561419D02*
X16828196Y-18561419D01*
X16828196Y-18561419D02*
X16847244Y-18570943D01*
X16847244Y-18570943D02*
X16856768Y-18589991D01*
X16856768Y-18589991D02*
X16856768Y-18694753D01*
X16952006Y-18694753D02*
X16952006Y-18561419D01*
X16952006Y-18580467D02*
X16961530Y-18570943D01*
X16961530Y-18570943D02*
X16980577Y-18561419D01*
X16980577Y-18561419D02*
X17009149Y-18561419D01*
X17009149Y-18561419D02*
X17028196Y-18570943D01*
X17028196Y-18570943D02*
X17037720Y-18589991D01*
X17037720Y-18589991D02*
X17037720Y-18694753D01*
X17037720Y-18589991D02*
X17047244Y-18570943D01*
X17047244Y-18570943D02*
X17066291Y-18561419D01*
X17066291Y-18561419D02*
X17094863Y-18561419D01*
X17094863Y-18561419D02*
X17113911Y-18570943D01*
X17113911Y-18570943D02*
X17123434Y-18589991D01*
X17123434Y-18589991D02*
X17123434Y-18694753D01*
X17513911Y-18485229D02*
X17342482Y-18742372D01*
X17771053Y-18494753D02*
X17790101Y-18494753D01*
X17790101Y-18494753D02*
X17809149Y-18504276D01*
X17809149Y-18504276D02*
X17818673Y-18513800D01*
X17818673Y-18513800D02*
X17828196Y-18532848D01*
X17828196Y-18532848D02*
X17837720Y-18570943D01*
X17837720Y-18570943D02*
X17837720Y-18618562D01*
X17837720Y-18618562D02*
X17828196Y-18656657D01*
X17828196Y-18656657D02*
X17818673Y-18675705D01*
X17818673Y-18675705D02*
X17809149Y-18685229D01*
X17809149Y-18685229D02*
X17790101Y-18694753D01*
X17790101Y-18694753D02*
X17771053Y-18694753D01*
X17771053Y-18694753D02*
X17752006Y-18685229D01*
X17752006Y-18685229D02*
X17742482Y-18675705D01*
X17742482Y-18675705D02*
X17732958Y-18656657D01*
X17732958Y-18656657D02*
X17723434Y-18618562D01*
X17723434Y-18618562D02*
X17723434Y-18570943D01*
X17723434Y-18570943D02*
X17732958Y-18532848D01*
X17732958Y-18532848D02*
X17742482Y-18513800D01*
X17742482Y-18513800D02*
X17752006Y-18504276D01*
X17752006Y-18504276D02*
X17771053Y-18494753D01*
X17923434Y-18675705D02*
X17932958Y-18685229D01*
X17932958Y-18685229D02*
X17923434Y-18694753D01*
X17923434Y-18694753D02*
X17913911Y-18685229D01*
X17913911Y-18685229D02*
X17923434Y-18675705D01*
X17923434Y-18675705D02*
X17923434Y-18694753D01*
X18056768Y-18494753D02*
X18075815Y-18494753D01*
X18075815Y-18494753D02*
X18094863Y-18504276D01*
X18094863Y-18504276D02*
X18104387Y-18513800D01*
X18104387Y-18513800D02*
X18113911Y-18532848D01*
X18113911Y-18532848D02*
X18123434Y-18570943D01*
X18123434Y-18570943D02*
X18123434Y-18618562D01*
X18123434Y-18618562D02*
X18113911Y-18656657D01*
X18113911Y-18656657D02*
X18104387Y-18675705D01*
X18104387Y-18675705D02*
X18094863Y-18685229D01*
X18094863Y-18685229D02*
X18075815Y-18694753D01*
X18075815Y-18694753D02*
X18056768Y-18694753D01*
X18056768Y-18694753D02*
X18037720Y-18685229D01*
X18037720Y-18685229D02*
X18028196Y-18675705D01*
X18028196Y-18675705D02*
X18018673Y-18656657D01*
X18018673Y-18656657D02*
X18009149Y-18618562D01*
X18009149Y-18618562D02*
X18009149Y-18570943D01*
X18009149Y-18570943D02*
X18018673Y-18532848D01*
X18018673Y-18532848D02*
X18028196Y-18513800D01*
X18028196Y-18513800D02*
X18037720Y-18504276D01*
X18037720Y-18504276D02*
X18056768Y-18494753D01*
X18304387Y-18494753D02*
X18209149Y-18494753D01*
X18209149Y-18494753D02*
X18199625Y-18589991D01*
X18199625Y-18589991D02*
X18209149Y-18580467D01*
X18209149Y-18580467D02*
X18228196Y-18570943D01*
X18228196Y-18570943D02*
X18275815Y-18570943D01*
X18275815Y-18570943D02*
X18294863Y-18580467D01*
X18294863Y-18580467D02*
X18304387Y-18589991D01*
X18304387Y-18589991D02*
X18313911Y-18609038D01*
X18313911Y-18609038D02*
X18313911Y-18656657D01*
X18313911Y-18656657D02*
X18304387Y-18675705D01*
X18304387Y-18675705D02*
X18294863Y-18685229D01*
X18294863Y-18685229D02*
X18275815Y-18694753D01*
X18275815Y-18694753D02*
X18228196Y-18694753D01*
X18228196Y-18694753D02*
X18209149Y-18685229D01*
X18209149Y-18685229D02*
X18199625Y-18675705D01*
X18409149Y-18694753D02*
X18447244Y-18694753D01*
X18447244Y-18694753D02*
X18466292Y-18685229D01*
X18466292Y-18685229D02*
X18475815Y-18675705D01*
X18475815Y-18675705D02*
X18494863Y-18647133D01*
X18494863Y-18647133D02*
X18504387Y-18609038D01*
X18504387Y-18609038D02*
X18504387Y-18532848D01*
X18504387Y-18532848D02*
X18494863Y-18513800D01*
X18494863Y-18513800D02*
X18485339Y-18504276D01*
X18485339Y-18504276D02*
X18466292Y-18494753D01*
X18466292Y-18494753D02*
X18428196Y-18494753D01*
X18428196Y-18494753D02*
X18409149Y-18504276D01*
X18409149Y-18504276D02*
X18399625Y-18513800D01*
X18399625Y-18513800D02*
X18390101Y-18532848D01*
X18390101Y-18532848D02*
X18390101Y-18580467D01*
X18390101Y-18580467D02*
X18399625Y-18599514D01*
X18399625Y-18599514D02*
X18409149Y-18609038D01*
X18409149Y-18609038D02*
X18428196Y-18618562D01*
X18428196Y-18618562D02*
X18466292Y-18618562D01*
X18466292Y-18618562D02*
X18485339Y-18609038D01*
X18485339Y-18609038D02*
X18494863Y-18599514D01*
X18494863Y-18599514D02*
X18504387Y-18580467D01*
X18694863Y-18694753D02*
X18580577Y-18694753D01*
X18637720Y-18694753D02*
X18637720Y-18494753D01*
X18637720Y-18494753D02*
X18618673Y-18523324D01*
X18618673Y-18523324D02*
X18599625Y-18542372D01*
X18599625Y-18542372D02*
X18580577Y-18551895D01*
X18771054Y-18494753D02*
X18771054Y-18532848D01*
X18847244Y-18494753D02*
X18847244Y-18532848D01*
X19142482Y-18770943D02*
X19132958Y-18761419D01*
X19132958Y-18761419D02*
X19113911Y-18732848D01*
X19113911Y-18732848D02*
X19104387Y-18713800D01*
X19104387Y-18713800D02*
X19094863Y-18685229D01*
X19094863Y-18685229D02*
X19085339Y-18637610D01*
X19085339Y-18637610D02*
X19085339Y-18599514D01*
X19085339Y-18599514D02*
X19094863Y-18551895D01*
X19094863Y-18551895D02*
X19104387Y-18523324D01*
X19104387Y-18523324D02*
X19113911Y-18504276D01*
X19113911Y-18504276D02*
X19132958Y-18475705D01*
X19132958Y-18475705D02*
X19142482Y-18466181D01*
X19304387Y-18561419D02*
X19304387Y-18694753D01*
X19256768Y-18485229D02*
X19209149Y-18628086D01*
X19209149Y-18628086D02*
X19332958Y-18628086D01*
X19561530Y-18694753D02*
X19561530Y-18494753D01*
X19647244Y-18694753D02*
X19647244Y-18589991D01*
X19647244Y-18589991D02*
X19637720Y-18570943D01*
X19637720Y-18570943D02*
X19618673Y-18561419D01*
X19618673Y-18561419D02*
X19590101Y-18561419D01*
X19590101Y-18561419D02*
X19571054Y-18570943D01*
X19571054Y-18570943D02*
X19561530Y-18580467D01*
X19771054Y-18694753D02*
X19752006Y-18685229D01*
X19752006Y-18685229D02*
X19742482Y-18675705D01*
X19742482Y-18675705D02*
X19732958Y-18656657D01*
X19732958Y-18656657D02*
X19732958Y-18599514D01*
X19732958Y-18599514D02*
X19742482Y-18580467D01*
X19742482Y-18580467D02*
X19752006Y-18570943D01*
X19752006Y-18570943D02*
X19771054Y-18561419D01*
X19771054Y-18561419D02*
X19799625Y-18561419D01*
X19799625Y-18561419D02*
X19818673Y-18570943D01*
X19818673Y-18570943D02*
X19828197Y-18580467D01*
X19828197Y-18580467D02*
X19837720Y-18599514D01*
X19837720Y-18599514D02*
X19837720Y-18656657D01*
X19837720Y-18656657D02*
X19828197Y-18675705D01*
X19828197Y-18675705D02*
X19818673Y-18685229D01*
X19818673Y-18685229D02*
X19799625Y-18694753D01*
X19799625Y-18694753D02*
X19771054Y-18694753D01*
X19952006Y-18694753D02*
X19932958Y-18685229D01*
X19932958Y-18685229D02*
X19923435Y-18666181D01*
X19923435Y-18666181D02*
X19923435Y-18494753D01*
X20104387Y-18685229D02*
X20085339Y-18694753D01*
X20085339Y-18694753D02*
X20047244Y-18694753D01*
X20047244Y-18694753D02*
X20028197Y-18685229D01*
X20028197Y-18685229D02*
X20018673Y-18666181D01*
X20018673Y-18666181D02*
X20018673Y-18589991D01*
X20018673Y-18589991D02*
X20028197Y-18570943D01*
X20028197Y-18570943D02*
X20047244Y-18561419D01*
X20047244Y-18561419D02*
X20085339Y-18561419D01*
X20085339Y-18561419D02*
X20104387Y-18570943D01*
X20104387Y-18570943D02*
X20113911Y-18589991D01*
X20113911Y-18589991D02*
X20113911Y-18609038D01*
X20113911Y-18609038D02*
X20018673Y-18628086D01*
X20190101Y-18685229D02*
X20209149Y-18694753D01*
X20209149Y-18694753D02*
X20247244Y-18694753D01*
X20247244Y-18694753D02*
X20266292Y-18685229D01*
X20266292Y-18685229D02*
X20275816Y-18666181D01*
X20275816Y-18666181D02*
X20275816Y-18656657D01*
X20275816Y-18656657D02*
X20266292Y-18637610D01*
X20266292Y-18637610D02*
X20247244Y-18628086D01*
X20247244Y-18628086D02*
X20218673Y-18628086D01*
X20218673Y-18628086D02*
X20199625Y-18618562D01*
X20199625Y-18618562D02*
X20190101Y-18599514D01*
X20190101Y-18599514D02*
X20190101Y-18589991D01*
X20190101Y-18589991D02*
X20199625Y-18570943D01*
X20199625Y-18570943D02*
X20218673Y-18561419D01*
X20218673Y-18561419D02*
X20247244Y-18561419D01*
X20247244Y-18561419D02*
X20266292Y-18570943D01*
X20342482Y-18770943D02*
X20352006Y-18761419D01*
X20352006Y-18761419D02*
X20371054Y-18732848D01*
X20371054Y-18732848D02*
X20380578Y-18713800D01*
X20380578Y-18713800D02*
X20390101Y-18685229D01*
X20390101Y-18685229D02*
X20399625Y-18637610D01*
X20399625Y-18637610D02*
X20399625Y-18599514D01*
X20399625Y-18599514D02*
X20390101Y-18551895D01*
X20390101Y-18551895D02*
X20380578Y-18523324D01*
X20380578Y-18523324D02*
X20371054Y-18504276D01*
X20371054Y-18504276D02*
X20352006Y-18475705D01*
X20352006Y-18475705D02*
X20342482Y-18466181D01*
M02*
