%TF.GenerationSoftware,KiCad,Pcbnew,7.0.6*%
%TF.CreationDate,2023-11-30T14:41:14-08:00*%
%TF.ProjectId,UGC_Trigger,5547435f-5472-4696-9767-65722e6b6963,rev?*%
%TF.SameCoordinates,Original*%
%TF.FileFunction,Copper,L2,Bot*%
%TF.FilePolarity,Positive*%
%FSLAX46Y46*%
G04 Gerber Fmt 4.6, Leading zero omitted, Abs format (unit mm)*
G04 Created by KiCad (PCBNEW 7.0.6) date 2023-11-30 14:41:14*
%MOMM*%
%LPD*%
G01*
G04 APERTURE LIST*
%TA.AperFunction,ComponentPad*%
%ADD10R,1.350000X1.350000*%
%TD*%
%TA.AperFunction,ViaPad*%
%ADD11C,0.800000*%
%TD*%
%TA.AperFunction,Conductor*%
%ADD12C,0.250000*%
%TD*%
G04 APERTURE END LIST*
D10*
%TO.P,J1,1,Pin_1*%
%TO.N,Net-(J1-Pin_1)*%
X276535963Y-147415545D03*
%TD*%
%TO.P,J2,1,Pin_1*%
%TO.N,Net-(J2-Pin_1)*%
X279135963Y-147415545D03*
%TD*%
D11*
%TO.N,Net-(J2-Pin_1)*%
X280619200Y-163423600D03*
%TD*%
D12*
%TO.N,Net-(J2-Pin_1)*%
X279135963Y-161940363D02*
X280619200Y-163423600D01*
X279135963Y-147415545D02*
X279135963Y-161940363D01*
%TD*%
%TA.AperFunction,NonConductor*%
G36*
X275720928Y-146324185D02*
G01*
X275766683Y-146376989D01*
X275776627Y-146446147D01*
X275747602Y-146509703D01*
X275722782Y-146531600D01*
X275687247Y-146555344D01*
X275680362Y-146559944D01*
X275624996Y-146642805D01*
X275624995Y-146642809D01*
X275610463Y-146715866D01*
X275610463Y-148115223D01*
X275624995Y-148188280D01*
X275624996Y-148188284D01*
X275624997Y-148188285D01*
X275680362Y-148271146D01*
X275763222Y-148326510D01*
X275763223Y-148326511D01*
X275763227Y-148326512D01*
X275836284Y-148341044D01*
X275836287Y-148341045D01*
X275836289Y-148341045D01*
X277235639Y-148341045D01*
X277235640Y-148341044D01*
X277308703Y-148326511D01*
X277391564Y-148271146D01*
X277446929Y-148188285D01*
X277461463Y-148115219D01*
X277461463Y-146715871D01*
X277461463Y-146715868D01*
X277461462Y-146715866D01*
X277446930Y-146642809D01*
X277446929Y-146642805D01*
X277446929Y-146642804D01*
X277391564Y-146559944D01*
X277349145Y-146531601D01*
X277304341Y-146477991D01*
X277295634Y-146408666D01*
X277325788Y-146345638D01*
X277385231Y-146308918D01*
X277418037Y-146304500D01*
X278253889Y-146304500D01*
X278320928Y-146324185D01*
X278366683Y-146376989D01*
X278376627Y-146446147D01*
X278347602Y-146509703D01*
X278322782Y-146531600D01*
X278287247Y-146555344D01*
X278280362Y-146559944D01*
X278224996Y-146642805D01*
X278224995Y-146642809D01*
X278210463Y-146715866D01*
X278210463Y-148115223D01*
X278224995Y-148188280D01*
X278224996Y-148188284D01*
X278224997Y-148188285D01*
X278280362Y-148271146D01*
X278363222Y-148326510D01*
X278363223Y-148326511D01*
X278363227Y-148326512D01*
X278436284Y-148341044D01*
X278436287Y-148341045D01*
X278436289Y-148341045D01*
X278636463Y-148341045D01*
X278703502Y-148360730D01*
X278749257Y-148413534D01*
X278760463Y-148465045D01*
X278760463Y-161888559D01*
X278757825Y-161913997D01*
X278755596Y-161924631D01*
X278755596Y-161924632D01*
X278755596Y-161924634D01*
X278759986Y-161959854D01*
X278760463Y-161967530D01*
X278760463Y-161971479D01*
X278764305Y-161994504D01*
X278771097Y-162048990D01*
X278773336Y-162056510D01*
X278775897Y-162063971D01*
X278775898Y-162063973D01*
X278802017Y-162112240D01*
X278802018Y-162112240D01*
X278826137Y-162161574D01*
X278830705Y-162167972D01*
X278835545Y-162174190D01*
X278875933Y-162211371D01*
X279934681Y-163270118D01*
X279968166Y-163331441D01*
X279970096Y-163372743D01*
X279963922Y-163423597D01*
X279963922Y-163423600D01*
X279982963Y-163580418D01*
X280038980Y-163728123D01*
X280128717Y-163858130D01*
X280246960Y-163962883D01*
X280246962Y-163962884D01*
X280386834Y-164036296D01*
X280540214Y-164074100D01*
X280540215Y-164074100D01*
X280698185Y-164074100D01*
X280851565Y-164036296D01*
X280851564Y-164036295D01*
X280991440Y-163962883D01*
X281109683Y-163858130D01*
X281199420Y-163728123D01*
X281255437Y-163580418D01*
X281274478Y-163423600D01*
X281255437Y-163266782D01*
X281199420Y-163119077D01*
X281109683Y-162989070D01*
X280991440Y-162884317D01*
X280991438Y-162884316D01*
X280991437Y-162884315D01*
X280851565Y-162810903D01*
X280698186Y-162773100D01*
X280698185Y-162773100D01*
X280551100Y-162773100D01*
X280484061Y-162753415D01*
X280463419Y-162736781D01*
X279547782Y-161821144D01*
X279514297Y-161759821D01*
X279511463Y-161733463D01*
X279511463Y-148465045D01*
X279531148Y-148398006D01*
X279583952Y-148352251D01*
X279635463Y-148341045D01*
X279835639Y-148341045D01*
X279835640Y-148341044D01*
X279908703Y-148326511D01*
X279991564Y-148271146D01*
X280046929Y-148188285D01*
X280061463Y-148115219D01*
X280061463Y-147034297D01*
X280081148Y-146967258D01*
X280133952Y-146921503D01*
X280203110Y-146911559D01*
X280266666Y-146940584D01*
X280285422Y-146960920D01*
X280303985Y-146986208D01*
X280309398Y-147001148D01*
X280320775Y-147012116D01*
X280334672Y-147028011D01*
X280360991Y-147063864D01*
X280412620Y-147107632D01*
X280422158Y-147122127D01*
X280434125Y-147128843D01*
X280453623Y-147142392D01*
X280466127Y-147152992D01*
X280478336Y-147163342D01*
X280545307Y-147197258D01*
X280547045Y-147198138D01*
X280560743Y-147211011D01*
X280572140Y-147213991D01*
X280596801Y-147223336D01*
X280615576Y-147232844D01*
X280615577Y-147232845D01*
X280699212Y-147252815D01*
X280716667Y-147262809D01*
X280726465Y-147262809D01*
X280755265Y-147266200D01*
X280765198Y-147268572D01*
X280765201Y-147268572D01*
X280765204Y-147268573D01*
X280765206Y-147268573D01*
X280772427Y-147269423D01*
X280772414Y-147269527D01*
X280794293Y-147272340D01*
X280794560Y-147272185D01*
X280824272Y-147268573D01*
X280859971Y-147268573D01*
X280880385Y-147274567D01*
X280887892Y-147272605D01*
X280911829Y-147269527D01*
X280911817Y-147269423D01*
X280919037Y-147268573D01*
X280919040Y-147268573D01*
X280919043Y-147268572D01*
X280919045Y-147268572D01*
X280928979Y-147266200D01*
X280957779Y-147262809D01*
X280958536Y-147262809D01*
X280985028Y-147252815D01*
X281068668Y-147232844D01*
X281087442Y-147223335D01*
X281112103Y-147213990D01*
X281115250Y-147213167D01*
X281137199Y-147198138D01*
X281138937Y-147197258D01*
X281205908Y-147163342D01*
X281230620Y-147142392D01*
X281250119Y-147128843D01*
X281255140Y-147126024D01*
X281271620Y-147107635D01*
X281323252Y-147063865D01*
X281349576Y-147028005D01*
X281363471Y-147012114D01*
X281369532Y-147006270D01*
X281380255Y-146986212D01*
X281414285Y-146939856D01*
X281436666Y-146886747D01*
X281445086Y-146870312D01*
X281451302Y-146860127D01*
X281456627Y-146839380D01*
X281474027Y-146798095D01*
X281486088Y-146725787D01*
X281487688Y-146718751D01*
X281488522Y-146715871D01*
X281492555Y-146701929D01*
X281520491Y-146613210D01*
X281530904Y-146589286D01*
X281548417Y-146558413D01*
X281550671Y-146554746D01*
X281587382Y-146499476D01*
X281599955Y-146483552D01*
X281628107Y-146453356D01*
X281633327Y-146448376D01*
X281685288Y-146404322D01*
X281691077Y-146399970D01*
X281725447Y-146377153D01*
X281743221Y-146367350D01*
X281803762Y-146340169D01*
X281807730Y-146338553D01*
X281841014Y-146326341D01*
X281866364Y-146319975D01*
X281960447Y-146306683D01*
X281972450Y-146305268D01*
X281975362Y-146304926D01*
X281982619Y-146304500D01*
X283311366Y-146304500D01*
X283330758Y-146306026D01*
X283333466Y-146306456D01*
X283389851Y-146317676D01*
X283421942Y-146328807D01*
X283433341Y-146334616D01*
X283439637Y-146338307D01*
X283472509Y-146360274D01*
X283491299Y-146375696D01*
X283499422Y-146383820D01*
X283514838Y-146402607D01*
X283536797Y-146435472D01*
X283540492Y-146441776D01*
X283546310Y-146453196D01*
X283557436Y-146485269D01*
X283568567Y-146541164D01*
X283569095Y-146544501D01*
X283570623Y-146563901D01*
X283570623Y-149544241D01*
X283569102Y-149563602D01*
X283568669Y-149566334D01*
X283557450Y-149622735D01*
X283546321Y-149654831D01*
X283540516Y-149666225D01*
X283536821Y-149672529D01*
X283514857Y-149705404D01*
X283499444Y-149724187D01*
X283491317Y-149732316D01*
X283472520Y-149747745D01*
X283439657Y-149769706D01*
X283433360Y-149773398D01*
X283421984Y-149779196D01*
X283389844Y-149790341D01*
X283335605Y-149801121D01*
X283311433Y-149803500D01*
X282595883Y-149803500D01*
X282595677Y-149803459D01*
X282571123Y-149803459D01*
X282571024Y-149803500D01*
X282570740Y-149803616D01*
X282570738Y-149803618D01*
X282570582Y-149803999D01*
X282570599Y-149828616D01*
X282570594Y-149828616D01*
X282570623Y-149828759D01*
X282570623Y-164082510D01*
X282570291Y-164088917D01*
X282561725Y-164171431D01*
X282552486Y-164207181D01*
X282493519Y-164345748D01*
X282468154Y-164383811D01*
X282375836Y-164478385D01*
X282345514Y-164501149D01*
X282157891Y-164601341D01*
X282138883Y-164610924D01*
X281974321Y-164688855D01*
X281974321Y-164688856D01*
X281807889Y-164762721D01*
X281639633Y-164832506D01*
X281469729Y-164898143D01*
X281298322Y-164959584D01*
X281125390Y-165016835D01*
X281073903Y-165032491D01*
X280951166Y-165069812D01*
X280775773Y-165118479D01*
X280599198Y-165162826D01*
X280421706Y-165202779D01*
X280243284Y-165238325D01*
X280064061Y-165269418D01*
X280037470Y-165273349D01*
X279884224Y-165296008D01*
X279856388Y-165299411D01*
X279829144Y-165302741D01*
X279821614Y-165303200D01*
X278006391Y-165303200D01*
X277999097Y-165302770D01*
X277998852Y-165302741D01*
X277987198Y-165301361D01*
X277859951Y-165284073D01*
X277733060Y-165264614D01*
X277606450Y-165242973D01*
X277480285Y-165219183D01*
X277354472Y-165193227D01*
X277229171Y-165165139D01*
X277104364Y-165134917D01*
X277104364Y-165134916D01*
X276980055Y-165102557D01*
X276856342Y-165068087D01*
X276733257Y-165031513D01*
X276610790Y-164992827D01*
X276488981Y-164952039D01*
X276368024Y-164909211D01*
X276247734Y-164864273D01*
X276128235Y-164817263D01*
X276009654Y-164768224D01*
X275891959Y-164717141D01*
X275775193Y-164664020D01*
X275659341Y-164608847D01*
X275651779Y-164605080D01*
X275649044Y-164603631D01*
X275477412Y-164507154D01*
X275443042Y-164478597D01*
X275347303Y-164364086D01*
X275324807Y-164323790D01*
X275282688Y-164197534D01*
X275276316Y-164158346D01*
X275271623Y-151185893D01*
X275271623Y-149828759D01*
X275271651Y-149828616D01*
X275271647Y-149828616D01*
X275271662Y-149804002D01*
X275271664Y-149804000D01*
X275271585Y-149803808D01*
X275271507Y-149803618D01*
X275271505Y-149803616D01*
X275271222Y-149803500D01*
X275271123Y-149803459D01*
X275246569Y-149803459D01*
X275246363Y-149803500D01*
X274530877Y-149803500D01*
X274511496Y-149801976D01*
X274508800Y-149801549D01*
X274479107Y-149795645D01*
X274452389Y-149790333D01*
X274420289Y-149779205D01*
X274408887Y-149773397D01*
X274402589Y-149769706D01*
X274369709Y-149747740D01*
X274350917Y-149732317D01*
X274342788Y-149724188D01*
X274327371Y-149705404D01*
X274324957Y-149701792D01*
X274305398Y-149672522D01*
X274301721Y-149666249D01*
X274295915Y-149654854D01*
X274284778Y-149622729D01*
X274273999Y-149568479D01*
X274271623Y-149544319D01*
X274271623Y-146563752D01*
X274273152Y-146544342D01*
X274273577Y-146541659D01*
X274284796Y-146485265D01*
X274295923Y-146453179D01*
X274301740Y-146441763D01*
X274305417Y-146435491D01*
X274327399Y-146402595D01*
X274342800Y-146383829D01*
X274350939Y-146375691D01*
X274369715Y-146360283D01*
X274402610Y-146338306D01*
X274408878Y-146334632D01*
X274420320Y-146328804D01*
X274452382Y-146317684D01*
X274508291Y-146306554D01*
X274511649Y-146306022D01*
X274531019Y-146304500D01*
X275653889Y-146304500D01*
X275720928Y-146324185D01*
G37*
%TD.AperFunction*%
M02*
