%TF.GenerationSoftware,KiCad,Pcbnew,7.0.6*%
%TF.CreationDate,2023-11-08T19:32:33-08:00*%
%TF.ProjectId,UGC_Trigger,5547435f-5472-4696-9767-65722e6b6963,rev?*%
%TF.SameCoordinates,Original*%
%TF.FileFunction,Drillmap*%
%TF.FilePolarity,Positive*%
%FSLAX45Y45*%
G04 Gerber Fmt 4.5, Leading zero omitted, Abs format (unit mm)*
G04 Created by KiCad (PCBNEW 7.0.6) date 2023-11-08 19:32:33*
%MOMM*%
%LPD*%
G01*
G04 APERTURE LIST*
%ADD10C,0.100000*%
%ADD11C,0.200000*%
G04 APERTURE END LIST*
D10*
X28016998Y-14683692D02*
G75*
G03*
X27966998Y-14633692I-49998J2D01*
G01*
X27640280Y-16464280D02*
X27650740Y-16468838D01*
X27661422Y-16472876D01*
X27672295Y-16476349D01*
X27683325Y-16479210D01*
X28216998Y-14633688D02*
G75*
G03*
X28166998Y-14683692I2J-50002D01*
G01*
X27501410Y-16317270D02*
X27505930Y-16328122D01*
X27511047Y-16338874D01*
X27516744Y-16349496D01*
X27523000Y-16359957D01*
X27529798Y-16370227D01*
X27537117Y-16380276D01*
X27544938Y-16390072D01*
X27553242Y-16399588D01*
X28131607Y-16470311D02*
X28142459Y-16465792D01*
X28153211Y-16460674D01*
X28163833Y-16454977D01*
X28174294Y-16448721D01*
X28184564Y-16441924D01*
X28194612Y-16434605D01*
X28204409Y-16426783D01*
X28213924Y-16418479D01*
X28351875Y-14633692D02*
X28216998Y-14633692D01*
X27488029Y-16250347D02*
X27488359Y-16260431D01*
X27489346Y-16270692D01*
X27490987Y-16281103D01*
X27493279Y-16291638D01*
X27496217Y-16302271D01*
X27499798Y-16312975D01*
X27501410Y-16317270D01*
X27683325Y-16479210D02*
X27693917Y-16481318D01*
X27704619Y-16482791D01*
X27715384Y-16483574D01*
X27721374Y-16483692D01*
X28213924Y-16418479D02*
X28221525Y-16411292D01*
X28228845Y-16403855D01*
X28235870Y-16396186D01*
X28242588Y-16388301D01*
X28248986Y-16380216D01*
X28255054Y-16371949D01*
X28260777Y-16363515D01*
X28266143Y-16354933D01*
X28271141Y-16346217D01*
X28277209Y-16334419D01*
X28278617Y-16331441D01*
X27488029Y-15003692D02*
X27488029Y-16250347D01*
X28064684Y-16483692D02*
X28074768Y-16483362D01*
X28085028Y-16482375D01*
X28095440Y-16480734D01*
X28105975Y-16478442D01*
X28116608Y-16475504D01*
X28127312Y-16471923D01*
X28131607Y-16470311D01*
X28106998Y-14783692D02*
X28076998Y-14783692D01*
X28016998Y-14723692D02*
X28016998Y-14683692D01*
X28351875Y-15003692D02*
X28351875Y-14633692D01*
X28166998Y-14683692D02*
X28166998Y-14723692D01*
X28106998Y-14783688D02*
G75*
G03*
X28166998Y-14723692I2J59998D01*
G01*
X28278617Y-16331441D02*
X28283174Y-16320982D01*
X28287213Y-16310299D01*
X28290686Y-16299426D01*
X28293547Y-16288396D01*
X27434184Y-15003692D02*
X27488029Y-15003692D01*
X27966998Y-14633692D02*
X27434184Y-14633692D01*
X27721374Y-16483692D02*
X28064684Y-16483692D01*
X27434184Y-14633692D02*
X27434184Y-15003692D01*
X28016998Y-14723692D02*
G75*
G03*
X28076998Y-14783692I60002J2D01*
G01*
X27553242Y-16399588D02*
X27560430Y-16407189D01*
X27567866Y-16414508D01*
X27575535Y-16421533D01*
X27583420Y-16428251D01*
X27591505Y-16434650D01*
X27599772Y-16440717D01*
X27608206Y-16446440D01*
X27616789Y-16451807D01*
X27625504Y-16456804D01*
X27637303Y-16462872D01*
X27640280Y-16464280D01*
X28298029Y-15003692D02*
X28351875Y-15003692D01*
X28293547Y-16288396D02*
X28295655Y-16277804D01*
X28297128Y-16267102D01*
X28297911Y-16256337D01*
X28298029Y-16250347D01*
X28298029Y-16250347D02*
X28298029Y-15003692D01*
D11*
X27689960Y-16800176D02*
X27689960Y-16600176D01*
X27689960Y-16600176D02*
X27737579Y-16600176D01*
X27737579Y-16600176D02*
X27766151Y-16609700D01*
X27766151Y-16609700D02*
X27785198Y-16628747D01*
X27785198Y-16628747D02*
X27794722Y-16647795D01*
X27794722Y-16647795D02*
X27804246Y-16685890D01*
X27804246Y-16685890D02*
X27804246Y-16714462D01*
X27804246Y-16714462D02*
X27794722Y-16752557D01*
X27794722Y-16752557D02*
X27785198Y-16771605D01*
X27785198Y-16771605D02*
X27766151Y-16790652D01*
X27766151Y-16790652D02*
X27737579Y-16800176D01*
X27737579Y-16800176D02*
X27689960Y-16800176D01*
X27889960Y-16800176D02*
X27889960Y-16666843D01*
X27889960Y-16704938D02*
X27899484Y-16685890D01*
X27899484Y-16685890D02*
X27909008Y-16676366D01*
X27909008Y-16676366D02*
X27928056Y-16666843D01*
X27928056Y-16666843D02*
X27947103Y-16666843D01*
X28013770Y-16800176D02*
X28013770Y-16666843D01*
X28013770Y-16600176D02*
X28004246Y-16609700D01*
X28004246Y-16609700D02*
X28013770Y-16619224D01*
X28013770Y-16619224D02*
X28023294Y-16609700D01*
X28023294Y-16609700D02*
X28013770Y-16600176D01*
X28013770Y-16600176D02*
X28013770Y-16619224D01*
X28137579Y-16800176D02*
X28118532Y-16790652D01*
X28118532Y-16790652D02*
X28109008Y-16771605D01*
X28109008Y-16771605D02*
X28109008Y-16600176D01*
X28242341Y-16800176D02*
X28223294Y-16790652D01*
X28223294Y-16790652D02*
X28213770Y-16771605D01*
X28213770Y-16771605D02*
X28213770Y-16600176D01*
X28470913Y-16800176D02*
X28470913Y-16600176D01*
X28470913Y-16600176D02*
X28537579Y-16743033D01*
X28537579Y-16743033D02*
X28604246Y-16600176D01*
X28604246Y-16600176D02*
X28604246Y-16800176D01*
X28785198Y-16800176D02*
X28785198Y-16695414D01*
X28785198Y-16695414D02*
X28775675Y-16676366D01*
X28775675Y-16676366D02*
X28756627Y-16666843D01*
X28756627Y-16666843D02*
X28718532Y-16666843D01*
X28718532Y-16666843D02*
X28699484Y-16676366D01*
X28785198Y-16790652D02*
X28766151Y-16800176D01*
X28766151Y-16800176D02*
X28718532Y-16800176D01*
X28718532Y-16800176D02*
X28699484Y-16790652D01*
X28699484Y-16790652D02*
X28689960Y-16771605D01*
X28689960Y-16771605D02*
X28689960Y-16752557D01*
X28689960Y-16752557D02*
X28699484Y-16733509D01*
X28699484Y-16733509D02*
X28718532Y-16723986D01*
X28718532Y-16723986D02*
X28766151Y-16723986D01*
X28766151Y-16723986D02*
X28785198Y-16714462D01*
X28880437Y-16666843D02*
X28880437Y-16866843D01*
X28880437Y-16676366D02*
X28899484Y-16666843D01*
X28899484Y-16666843D02*
X28937579Y-16666843D01*
X28937579Y-16666843D02*
X28956627Y-16676366D01*
X28956627Y-16676366D02*
X28966151Y-16685890D01*
X28966151Y-16685890D02*
X28975675Y-16704938D01*
X28975675Y-16704938D02*
X28975675Y-16762081D01*
X28975675Y-16762081D02*
X28966151Y-16781128D01*
X28966151Y-16781128D02*
X28956627Y-16790652D01*
X28956627Y-16790652D02*
X28937579Y-16800176D01*
X28937579Y-16800176D02*
X28899484Y-16800176D01*
X28899484Y-16800176D02*
X28880437Y-16790652D01*
X29061389Y-16781128D02*
X29070913Y-16790652D01*
X29070913Y-16790652D02*
X29061389Y-16800176D01*
X29061389Y-16800176D02*
X29051865Y-16790652D01*
X29051865Y-16790652D02*
X29061389Y-16781128D01*
X29061389Y-16781128D02*
X29061389Y-16800176D01*
X29061389Y-16676366D02*
X29070913Y-16685890D01*
X29070913Y-16685890D02*
X29061389Y-16695414D01*
X29061389Y-16695414D02*
X29051865Y-16685890D01*
X29051865Y-16685890D02*
X29061389Y-16676366D01*
X29061389Y-16676366D02*
X29061389Y-16695414D01*
M02*
