%TF.GenerationSoftware,KiCad,Pcbnew,7.0.6*%
%TF.CreationDate,2023-11-30T14:41:14-08:00*%
%TF.ProjectId,UGC_Trigger,5547435f-5472-4696-9767-65722e6b6963,rev?*%
%TF.SameCoordinates,Original*%
%TF.FileFunction,Copper,L1,Top*%
%TF.FilePolarity,Positive*%
%FSLAX46Y46*%
G04 Gerber Fmt 4.6, Leading zero omitted, Abs format (unit mm)*
G04 Created by KiCad (PCBNEW 7.0.6) date 2023-11-30 14:41:14*
%MOMM*%
%LPD*%
G01*
G04 APERTURE LIST*
%TA.AperFunction,EtchedComponent*%
%ADD10C,0.100000*%
%TD*%
%TA.AperFunction,EtchedComponent*%
%ADD11C,0.001000*%
%TD*%
%TA.AperFunction,ComponentPad*%
%ADD12R,1.350000X1.350000*%
%TD*%
%TA.AperFunction,TestPad*%
%ADD13C,0.500000*%
%TD*%
%TA.AperFunction,ViaPad*%
%ADD14C,0.800000*%
%TD*%
%TA.AperFunction,Conductor*%
%ADD15C,0.250000*%
%TD*%
G04 APERTURE END LIST*
D10*
%TO.C,SW1*%
X278721123Y-156954000D02*
X278721123Y-160954000D01*
X279121123Y-156954000D02*
X279121123Y-160954000D01*
X278721123Y-156954000D02*
G75*
G03*
X278721123Y-160954000I219035J-2000000D01*
G01*
X279121123Y-160954000D02*
G75*
G03*
X279121123Y-156954000I-219035J2000000D01*
G01*
D11*
X278719733Y-160950650D02*
X278026781Y-160747027D01*
X277570878Y-160438811D01*
X277217714Y-159982908D01*
X276986552Y-159417846D01*
X276932059Y-158645850D01*
X277126126Y-158147103D01*
X277425280Y-157688824D01*
X277724434Y-157376940D01*
X278259333Y-157071050D01*
X278719733Y-156950650D01*
X278719733Y-160950650D01*
%TA.AperFunction,EtchedComponent*%
G36*
X278719733Y-160950650D02*
G01*
X278026781Y-160747027D01*
X277570878Y-160438811D01*
X277217714Y-159982908D01*
X276986552Y-159417846D01*
X276932059Y-158645850D01*
X277126126Y-158147103D01*
X277425280Y-157688824D01*
X277724434Y-157376940D01*
X278259333Y-157071050D01*
X278719733Y-156950650D01*
X278719733Y-160950650D01*
G37*
%TD.AperFunction*%
X279756255Y-157144785D02*
X280139067Y-157384077D01*
X280489142Y-157746881D01*
X280754600Y-158184271D01*
X280900995Y-158718930D01*
X280863763Y-159207041D01*
X280685543Y-159849905D01*
X280373659Y-160289089D01*
X279813540Y-160741003D01*
X279121123Y-160954000D01*
X279121123Y-156954000D01*
X279756255Y-157144785D01*
%TA.AperFunction,EtchedComponent*%
G36*
X279756255Y-157144785D02*
G01*
X280139067Y-157384077D01*
X280489142Y-157746881D01*
X280754600Y-158184271D01*
X280900995Y-158718930D01*
X280863763Y-159207041D01*
X280685543Y-159849905D01*
X280373659Y-160289089D01*
X279813540Y-160741003D01*
X279121123Y-160954000D01*
X279121123Y-156954000D01*
X279756255Y-157144785D01*
G37*
%TD.AperFunction*%
%TD*%
D12*
%TO.P,J1,1,Pin_1*%
%TO.N,Net-(J1-Pin_1)*%
X276535963Y-147415545D03*
%TD*%
%TO.P,J2,1,Pin_1*%
%TO.N,Net-(J2-Pin_1)*%
X279135963Y-147415545D03*
%TD*%
D13*
%TO.P,SW1,1,1*%
%TO.N,Net-(J2-Pin_1)*%
X278421123Y-158954000D03*
%TO.P,SW1,2,2*%
%TO.N,Net-(J1-Pin_1)*%
X279421123Y-158954000D03*
%TD*%
D14*
%TO.N,Net-(J2-Pin_1)*%
X280619200Y-163423600D03*
%TD*%
D15*
%TO.N,Net-(J1-Pin_1)*%
X279421123Y-156332723D02*
X279421123Y-158954000D01*
X277825200Y-152806400D02*
X277825200Y-154736800D01*
X276535963Y-147415545D02*
X276535963Y-151517163D01*
X277825200Y-154736800D02*
X279421123Y-156332723D01*
X276535963Y-151517163D02*
X277825200Y-152806400D01*
%TO.N,Net-(J2-Pin_1)*%
X279450800Y-163423600D02*
X278421123Y-162393923D01*
X278421123Y-162393923D02*
X278421123Y-158954000D01*
X280619200Y-163423600D02*
X279450800Y-163423600D01*
%TD*%
%TA.AperFunction,NonConductor*%
G36*
X275720928Y-146324185D02*
G01*
X275766683Y-146376989D01*
X275776627Y-146446147D01*
X275747602Y-146509703D01*
X275722782Y-146531600D01*
X275687247Y-146555344D01*
X275680362Y-146559944D01*
X275624996Y-146642805D01*
X275624995Y-146642809D01*
X275610463Y-146715866D01*
X275610463Y-148115223D01*
X275624995Y-148188280D01*
X275624996Y-148188284D01*
X275624997Y-148188285D01*
X275680362Y-148271146D01*
X275763222Y-148326510D01*
X275763223Y-148326511D01*
X275763227Y-148326512D01*
X275836284Y-148341044D01*
X275836287Y-148341045D01*
X275836289Y-148341045D01*
X276036463Y-148341045D01*
X276103502Y-148360730D01*
X276149257Y-148413534D01*
X276160463Y-148465045D01*
X276160463Y-151465359D01*
X276157825Y-151490797D01*
X276155596Y-151501431D01*
X276155596Y-151501432D01*
X276155596Y-151501434D01*
X276159986Y-151536654D01*
X276160463Y-151544330D01*
X276160463Y-151548279D01*
X276164305Y-151571304D01*
X276171097Y-151625790D01*
X276173336Y-151633310D01*
X276175897Y-151640771D01*
X276175898Y-151640773D01*
X276202017Y-151689040D01*
X276202018Y-151689040D01*
X276226137Y-151738374D01*
X276230705Y-151744772D01*
X276235545Y-151750990D01*
X276275934Y-151788172D01*
X277413381Y-152925618D01*
X277446866Y-152986941D01*
X277449700Y-153013299D01*
X277449700Y-154684996D01*
X277447062Y-154710434D01*
X277444833Y-154721068D01*
X277444833Y-154721069D01*
X277444833Y-154721071D01*
X277449223Y-154756291D01*
X277449700Y-154763967D01*
X277449700Y-154767916D01*
X277453542Y-154790941D01*
X277460334Y-154845427D01*
X277462573Y-154852947D01*
X277465134Y-154860408D01*
X277465135Y-154860410D01*
X277491255Y-154908677D01*
X277515374Y-154958011D01*
X277519942Y-154964409D01*
X277524782Y-154970627D01*
X277565170Y-155007808D01*
X279009304Y-156451941D01*
X279042789Y-156513264D01*
X279045623Y-156539622D01*
X279045623Y-156573807D01*
X279025938Y-156640846D01*
X278973134Y-156686601D01*
X278903976Y-156696545D01*
X278866355Y-156684809D01*
X278857386Y-156680343D01*
X278852996Y-156679094D01*
X278838082Y-156672820D01*
X278838036Y-156672944D01*
X278828912Y-156669488D01*
X278828910Y-156669487D01*
X278828909Y-156669487D01*
X278795101Y-156662455D01*
X278790787Y-156661394D01*
X278749330Y-156649599D01*
X278749327Y-156649599D01*
X278745429Y-156649960D01*
X278736732Y-156650153D01*
X278735715Y-156650104D01*
X278735714Y-156650104D01*
X278730940Y-156650627D01*
X278690900Y-156655013D01*
X278633030Y-156660375D01*
X278622069Y-156662515D01*
X278542109Y-156671228D01*
X278542102Y-156671229D01*
X278360676Y-156714898D01*
X278255947Y-156740107D01*
X278255945Y-156740107D01*
X278255944Y-156740108D01*
X278255940Y-156740109D01*
X277980821Y-156844707D01*
X277721197Y-156983326D01*
X277721184Y-156983334D01*
X277481217Y-157153752D01*
X277264786Y-157353214D01*
X277075376Y-157578515D01*
X276916068Y-157825987D01*
X276916066Y-157825991D01*
X276789406Y-158091673D01*
X276789402Y-158091681D01*
X276697449Y-158371256D01*
X276697445Y-158371269D01*
X276641672Y-158660255D01*
X276641670Y-158660265D01*
X276622977Y-158954000D01*
X276641670Y-159247735D01*
X276641671Y-159247740D01*
X276697445Y-159536730D01*
X276697449Y-159536743D01*
X276789402Y-159816318D01*
X276789406Y-159816326D01*
X276916066Y-160082008D01*
X276916068Y-160082012D01*
X277075376Y-160329484D01*
X277075379Y-160329488D01*
X277075382Y-160329492D01*
X277264785Y-160554784D01*
X277481219Y-160754249D01*
X277721191Y-160924670D01*
X277832375Y-160984033D01*
X277980026Y-161062867D01*
X278029893Y-161111806D01*
X278045623Y-161172252D01*
X278045623Y-162342119D01*
X278042985Y-162367557D01*
X278040756Y-162378191D01*
X278040756Y-162378192D01*
X278040756Y-162378194D01*
X278045146Y-162413414D01*
X278045623Y-162421090D01*
X278045623Y-162425039D01*
X278049465Y-162448064D01*
X278056257Y-162502550D01*
X278058496Y-162510070D01*
X278061057Y-162517531D01*
X278061058Y-162517533D01*
X278087177Y-162565800D01*
X278087178Y-162565800D01*
X278111297Y-162615134D01*
X278115865Y-162621532D01*
X278120705Y-162627750D01*
X278161094Y-162664932D01*
X279148649Y-163652486D01*
X279164777Y-163672345D01*
X279170716Y-163681436D01*
X279198732Y-163703241D01*
X279204493Y-163708330D01*
X279207282Y-163711119D01*
X279226283Y-163724685D01*
X279269610Y-163758409D01*
X279269611Y-163758409D01*
X279276504Y-163762139D01*
X279283596Y-163765606D01*
X279283601Y-163765610D01*
X279336202Y-163781270D01*
X279336203Y-163781270D01*
X279388138Y-163799100D01*
X279395872Y-163800390D01*
X279403710Y-163801367D01*
X279403712Y-163801368D01*
X279403713Y-163801367D01*
X279403714Y-163801368D01*
X279458556Y-163799100D01*
X280022892Y-163799100D01*
X280089931Y-163818785D01*
X280124942Y-163852661D01*
X280127363Y-163856169D01*
X280128715Y-163858128D01*
X280128717Y-163858130D01*
X280246960Y-163962883D01*
X280246962Y-163962884D01*
X280386834Y-164036296D01*
X280540214Y-164074100D01*
X280540215Y-164074100D01*
X280698185Y-164074100D01*
X280851565Y-164036296D01*
X280851564Y-164036295D01*
X280991440Y-163962883D01*
X281109683Y-163858130D01*
X281199420Y-163728123D01*
X281255437Y-163580418D01*
X281274478Y-163423600D01*
X281255437Y-163266782D01*
X281199420Y-163119077D01*
X281109683Y-162989070D01*
X280991440Y-162884317D01*
X280991438Y-162884316D01*
X280991437Y-162884315D01*
X280851565Y-162810903D01*
X280698186Y-162773100D01*
X280698185Y-162773100D01*
X280540215Y-162773100D01*
X280540214Y-162773100D01*
X280386834Y-162810903D01*
X280246962Y-162884315D01*
X280128716Y-162989070D01*
X280126289Y-162992587D01*
X280124942Y-162994538D01*
X280070663Y-163038529D01*
X280022892Y-163048100D01*
X279657699Y-163048100D01*
X279590660Y-163028415D01*
X279570018Y-163011781D01*
X278832942Y-162274704D01*
X278799457Y-162213381D01*
X278796623Y-162187023D01*
X278796623Y-161334192D01*
X278816308Y-161267153D01*
X278869112Y-161221398D01*
X278938270Y-161211454D01*
X278975895Y-161223192D01*
X278984855Y-161227653D01*
X278984859Y-161227656D01*
X278989231Y-161228899D01*
X279004152Y-161235178D01*
X279004201Y-161235051D01*
X279013324Y-161238507D01*
X279013330Y-161238510D01*
X279047132Y-161245540D01*
X279051446Y-161246601D01*
X279087406Y-161256833D01*
X279091137Y-161257895D01*
X279092916Y-161258401D01*
X279096814Y-161258039D01*
X279105507Y-161257847D01*
X279106518Y-161257894D01*
X279106524Y-161257896D01*
X279151349Y-161252986D01*
X279204783Y-161248035D01*
X279204783Y-161248034D01*
X279209250Y-161247621D01*
X279220169Y-161245486D01*
X279300137Y-161236776D01*
X279586300Y-161167904D01*
X279861424Y-161063312D01*
X280121070Y-160924688D01*
X280361049Y-160754269D01*
X280577489Y-160554803D01*
X280766898Y-160329511D01*
X280766899Y-160329508D01*
X280766904Y-160329503D01*
X280926214Y-160082033D01*
X280926214Y-160082031D01*
X280926219Y-160082025D01*
X281052884Y-159816339D01*
X281144847Y-159536741D01*
X281200625Y-159247740D01*
X281219318Y-158954000D01*
X281200625Y-158660260D01*
X281144847Y-158371259D01*
X281052884Y-158091661D01*
X280926219Y-157825975D01*
X280926216Y-157825971D01*
X280926214Y-157825966D01*
X280766904Y-157578496D01*
X280766896Y-157578486D01*
X280577493Y-157353201D01*
X280577490Y-157353198D01*
X280577489Y-157353197D01*
X280361049Y-157153731D01*
X280361046Y-157153728D01*
X280361044Y-157153727D01*
X280268051Y-157087689D01*
X280121070Y-156983312D01*
X280121061Y-156983307D01*
X279862222Y-156845113D01*
X279812354Y-156796174D01*
X279796623Y-156735727D01*
X279796623Y-156384527D01*
X279799262Y-156359082D01*
X279799908Y-156355998D01*
X279801490Y-156348455D01*
X279799621Y-156333463D01*
X279797100Y-156313229D01*
X279796623Y-156305553D01*
X279796623Y-156301612D01*
X279796621Y-156301599D01*
X279792780Y-156278582D01*
X279785989Y-156224099D01*
X279785989Y-156224097D01*
X279785987Y-156224093D01*
X279783745Y-156216563D01*
X279781188Y-156209115D01*
X279781188Y-156209113D01*
X279755067Y-156160845D01*
X279730949Y-156111512D01*
X279730947Y-156111510D01*
X279730947Y-156111509D01*
X279726399Y-156105139D01*
X279721543Y-156098899D01*
X279721542Y-156098897D01*
X279681152Y-156061715D01*
X278237019Y-154617581D01*
X278203534Y-154556258D01*
X278200700Y-154529900D01*
X278200700Y-152858203D01*
X278203339Y-152832758D01*
X278203985Y-152829674D01*
X278205567Y-152822131D01*
X278203487Y-152805451D01*
X278201177Y-152786908D01*
X278200700Y-152779232D01*
X278200700Y-152775289D01*
X278200699Y-152775283D01*
X278196855Y-152752246D01*
X278190065Y-152697773D01*
X278187817Y-152690227D01*
X278185265Y-152682790D01*
X278159142Y-152634519D01*
X278159141Y-152634519D01*
X278135026Y-152585188D01*
X278135023Y-152585185D01*
X278135023Y-152585184D01*
X278130467Y-152578802D01*
X278125623Y-152572578D01*
X278125619Y-152572574D01*
X278085241Y-152535403D01*
X276947782Y-151397944D01*
X276914297Y-151336621D01*
X276911463Y-151310263D01*
X276911463Y-148465045D01*
X276931148Y-148398006D01*
X276983952Y-148352251D01*
X277035463Y-148341045D01*
X277235639Y-148341045D01*
X277235640Y-148341044D01*
X277308703Y-148326511D01*
X277391564Y-148271146D01*
X277446929Y-148188285D01*
X277461463Y-148115219D01*
X277461463Y-146715871D01*
X277461463Y-146715868D01*
X277461462Y-146715866D01*
X277446930Y-146642809D01*
X277446929Y-146642805D01*
X277446929Y-146642804D01*
X277391564Y-146559944D01*
X277349145Y-146531601D01*
X277304341Y-146477991D01*
X277295634Y-146408666D01*
X277325788Y-146345638D01*
X277385231Y-146308918D01*
X277418037Y-146304500D01*
X278253889Y-146304500D01*
X278320928Y-146324185D01*
X278366683Y-146376989D01*
X278376627Y-146446147D01*
X278347602Y-146509703D01*
X278322782Y-146531600D01*
X278287247Y-146555344D01*
X278280362Y-146559944D01*
X278224996Y-146642805D01*
X278224995Y-146642809D01*
X278210463Y-146715866D01*
X278210463Y-148115223D01*
X278224995Y-148188280D01*
X278224996Y-148188284D01*
X278224997Y-148188285D01*
X278280362Y-148271146D01*
X278363222Y-148326510D01*
X278363223Y-148326511D01*
X278363227Y-148326512D01*
X278436284Y-148341044D01*
X278436287Y-148341045D01*
X278436289Y-148341045D01*
X279835639Y-148341045D01*
X279835640Y-148341044D01*
X279908703Y-148326511D01*
X279991564Y-148271146D01*
X280046929Y-148188285D01*
X280061463Y-148115219D01*
X280061463Y-147034297D01*
X280081148Y-146967258D01*
X280133952Y-146921503D01*
X280203110Y-146911559D01*
X280266666Y-146940584D01*
X280285422Y-146960920D01*
X280303985Y-146986208D01*
X280309398Y-147001148D01*
X280320775Y-147012116D01*
X280334672Y-147028011D01*
X280360991Y-147063864D01*
X280412620Y-147107632D01*
X280422158Y-147122127D01*
X280434125Y-147128843D01*
X280453623Y-147142392D01*
X280466127Y-147152992D01*
X280478336Y-147163342D01*
X280545307Y-147197258D01*
X280547045Y-147198138D01*
X280560743Y-147211011D01*
X280572140Y-147213991D01*
X280596801Y-147223336D01*
X280615576Y-147232844D01*
X280615577Y-147232845D01*
X280699212Y-147252815D01*
X280716667Y-147262809D01*
X280726465Y-147262809D01*
X280755265Y-147266200D01*
X280765198Y-147268572D01*
X280765201Y-147268572D01*
X280765204Y-147268573D01*
X280765206Y-147268573D01*
X280772427Y-147269423D01*
X280772414Y-147269527D01*
X280794293Y-147272340D01*
X280794560Y-147272185D01*
X280824272Y-147268573D01*
X280859971Y-147268573D01*
X280880385Y-147274567D01*
X280887892Y-147272605D01*
X280911829Y-147269527D01*
X280911817Y-147269423D01*
X280919037Y-147268573D01*
X280919040Y-147268573D01*
X280919043Y-147268572D01*
X280919045Y-147268572D01*
X280928979Y-147266200D01*
X280957779Y-147262809D01*
X280958536Y-147262809D01*
X280985028Y-147252815D01*
X281068668Y-147232844D01*
X281087442Y-147223335D01*
X281112103Y-147213990D01*
X281115250Y-147213167D01*
X281137199Y-147198138D01*
X281138937Y-147197258D01*
X281205908Y-147163342D01*
X281230620Y-147142392D01*
X281250119Y-147128843D01*
X281255140Y-147126024D01*
X281271620Y-147107635D01*
X281323252Y-147063865D01*
X281349576Y-147028005D01*
X281363471Y-147012114D01*
X281369532Y-147006270D01*
X281380255Y-146986212D01*
X281414285Y-146939856D01*
X281436666Y-146886747D01*
X281445086Y-146870312D01*
X281451302Y-146860127D01*
X281456627Y-146839380D01*
X281474027Y-146798095D01*
X281486088Y-146725787D01*
X281487688Y-146718751D01*
X281488522Y-146715871D01*
X281492555Y-146701929D01*
X281520491Y-146613210D01*
X281530904Y-146589286D01*
X281548417Y-146558413D01*
X281550671Y-146554746D01*
X281587382Y-146499476D01*
X281599955Y-146483552D01*
X281628107Y-146453356D01*
X281633327Y-146448376D01*
X281685288Y-146404322D01*
X281691077Y-146399970D01*
X281725447Y-146377153D01*
X281743221Y-146367350D01*
X281803762Y-146340169D01*
X281807730Y-146338553D01*
X281841014Y-146326341D01*
X281866364Y-146319975D01*
X281960447Y-146306683D01*
X281972450Y-146305268D01*
X281975362Y-146304926D01*
X281982619Y-146304500D01*
X283311366Y-146304500D01*
X283330758Y-146306026D01*
X283333466Y-146306456D01*
X283389851Y-146317676D01*
X283421942Y-146328807D01*
X283433341Y-146334616D01*
X283439637Y-146338307D01*
X283472509Y-146360274D01*
X283491299Y-146375696D01*
X283499422Y-146383820D01*
X283514838Y-146402607D01*
X283536797Y-146435472D01*
X283540492Y-146441776D01*
X283546310Y-146453196D01*
X283557436Y-146485269D01*
X283568567Y-146541164D01*
X283569095Y-146544501D01*
X283570623Y-146563901D01*
X283570623Y-149544241D01*
X283569102Y-149563602D01*
X283568669Y-149566334D01*
X283557450Y-149622735D01*
X283546321Y-149654831D01*
X283540516Y-149666225D01*
X283536821Y-149672529D01*
X283514857Y-149705404D01*
X283499444Y-149724187D01*
X283491317Y-149732316D01*
X283472520Y-149747745D01*
X283439657Y-149769706D01*
X283433360Y-149773398D01*
X283421984Y-149779196D01*
X283389844Y-149790341D01*
X283335605Y-149801121D01*
X283311433Y-149803500D01*
X282595883Y-149803500D01*
X282595677Y-149803459D01*
X282571123Y-149803459D01*
X282571024Y-149803500D01*
X282570740Y-149803616D01*
X282570738Y-149803618D01*
X282570582Y-149803999D01*
X282570599Y-149828616D01*
X282570594Y-149828616D01*
X282570623Y-149828759D01*
X282570623Y-164082510D01*
X282570291Y-164088917D01*
X282561725Y-164171431D01*
X282552486Y-164207181D01*
X282493519Y-164345748D01*
X282468154Y-164383811D01*
X282375836Y-164478385D01*
X282345514Y-164501149D01*
X282157891Y-164601341D01*
X282138883Y-164610924D01*
X281974321Y-164688855D01*
X281974321Y-164688856D01*
X281807889Y-164762721D01*
X281639633Y-164832506D01*
X281469729Y-164898143D01*
X281298322Y-164959584D01*
X281125390Y-165016835D01*
X281073903Y-165032491D01*
X280951166Y-165069812D01*
X280775773Y-165118479D01*
X280599198Y-165162826D01*
X280421706Y-165202779D01*
X280243284Y-165238325D01*
X280064061Y-165269418D01*
X280037470Y-165273349D01*
X279884224Y-165296008D01*
X279856388Y-165299411D01*
X279829144Y-165302741D01*
X279821614Y-165303200D01*
X278006391Y-165303200D01*
X277999097Y-165302770D01*
X277998852Y-165302741D01*
X277987198Y-165301361D01*
X277859951Y-165284073D01*
X277733060Y-165264614D01*
X277606450Y-165242973D01*
X277480285Y-165219183D01*
X277354472Y-165193227D01*
X277229171Y-165165139D01*
X277104364Y-165134917D01*
X277104364Y-165134916D01*
X276980055Y-165102557D01*
X276856342Y-165068087D01*
X276733257Y-165031513D01*
X276610790Y-164992827D01*
X276488981Y-164952039D01*
X276368024Y-164909211D01*
X276247734Y-164864273D01*
X276128235Y-164817263D01*
X276009654Y-164768224D01*
X275891959Y-164717141D01*
X275775193Y-164664020D01*
X275659341Y-164608847D01*
X275651779Y-164605080D01*
X275649044Y-164603631D01*
X275477412Y-164507154D01*
X275443042Y-164478597D01*
X275347303Y-164364086D01*
X275324807Y-164323790D01*
X275282688Y-164197534D01*
X275276316Y-164158346D01*
X275271623Y-151185893D01*
X275271623Y-149828759D01*
X275271651Y-149828616D01*
X275271647Y-149828616D01*
X275271662Y-149804002D01*
X275271664Y-149804000D01*
X275271585Y-149803808D01*
X275271507Y-149803618D01*
X275271505Y-149803616D01*
X275271222Y-149803500D01*
X275271123Y-149803459D01*
X275246569Y-149803459D01*
X275246363Y-149803500D01*
X274530877Y-149803500D01*
X274511496Y-149801976D01*
X274508800Y-149801549D01*
X274479107Y-149795645D01*
X274452389Y-149790333D01*
X274420289Y-149779205D01*
X274408887Y-149773397D01*
X274402589Y-149769706D01*
X274369709Y-149747740D01*
X274350917Y-149732317D01*
X274342788Y-149724188D01*
X274327371Y-149705404D01*
X274324957Y-149701792D01*
X274305398Y-149672522D01*
X274301721Y-149666249D01*
X274295915Y-149654854D01*
X274284778Y-149622729D01*
X274273999Y-149568479D01*
X274271623Y-149544319D01*
X274271623Y-146563752D01*
X274273152Y-146544342D01*
X274273577Y-146541659D01*
X274284796Y-146485265D01*
X274295923Y-146453179D01*
X274301740Y-146441763D01*
X274305417Y-146435491D01*
X274327399Y-146402595D01*
X274342800Y-146383829D01*
X274350939Y-146375691D01*
X274369715Y-146360283D01*
X274402610Y-146338306D01*
X274408878Y-146334632D01*
X274420320Y-146328804D01*
X274452382Y-146317684D01*
X274508291Y-146306554D01*
X274511649Y-146306022D01*
X274531019Y-146304500D01*
X275653889Y-146304500D01*
X275720928Y-146324185D01*
G37*
%TD.AperFunction*%
M02*
