%TF.GenerationSoftware,KiCad,Pcbnew,7.0.6*%
%TF.CreationDate,2023-11-08T19:32:33-08:00*%
%TF.ProjectId,UGC_Trigger,5547435f-5472-4696-9767-65722e6b6963,rev?*%
%TF.SameCoordinates,Original*%
%TF.FileFunction,Drillmap*%
%TF.FilePolarity,Positive*%
%FSLAX45Y45*%
G04 Gerber Fmt 4.5, Leading zero omitted, Abs format (unit mm)*
G04 Created by KiCad (PCBNEW 7.0.6) date 2023-11-08 19:32:33*
%MOMM*%
%LPD*%
G01*
G04 APERTURE LIST*
%ADD10C,0.100000*%
%ADD11C,0.200000*%
%ADD12C,0.040000*%
%ADD13C,0.080000*%
G04 APERTURE END LIST*
D10*
X28016998Y-14683692D02*
G75*
G03*
X27966998Y-14633692I-49998J2D01*
G01*
X27640280Y-16464280D02*
X27650740Y-16468838D01*
X27661422Y-16472876D01*
X27672295Y-16476349D01*
X27683325Y-16479210D01*
X28216998Y-14633688D02*
G75*
G03*
X28166998Y-14683692I2J-50002D01*
G01*
X27501410Y-16317270D02*
X27505930Y-16328122D01*
X27511047Y-16338874D01*
X27516744Y-16349496D01*
X27523000Y-16359957D01*
X27529798Y-16370227D01*
X27537117Y-16380276D01*
X27544938Y-16390072D01*
X27553242Y-16399588D01*
X28131607Y-16470311D02*
X28142459Y-16465792D01*
X28153211Y-16460674D01*
X28163833Y-16454977D01*
X28174294Y-16448721D01*
X28184564Y-16441924D01*
X28194612Y-16434605D01*
X28204409Y-16426783D01*
X28213924Y-16418479D01*
X28351875Y-14633692D02*
X28216998Y-14633692D01*
X27488029Y-16250347D02*
X27488359Y-16260431D01*
X27489346Y-16270692D01*
X27490987Y-16281103D01*
X27493279Y-16291638D01*
X27496217Y-16302271D01*
X27499798Y-16312975D01*
X27501410Y-16317270D01*
X27683325Y-16479210D02*
X27693917Y-16481318D01*
X27704619Y-16482791D01*
X27715384Y-16483574D01*
X27721374Y-16483692D01*
X28213924Y-16418479D02*
X28221525Y-16411292D01*
X28228845Y-16403855D01*
X28235870Y-16396186D01*
X28242588Y-16388301D01*
X28248986Y-16380216D01*
X28255054Y-16371949D01*
X28260777Y-16363515D01*
X28266143Y-16354933D01*
X28271141Y-16346217D01*
X28277209Y-16334419D01*
X28278617Y-16331441D01*
X27488029Y-15003692D02*
X27488029Y-16250347D01*
X28064684Y-16483692D02*
X28074768Y-16483362D01*
X28085028Y-16482375D01*
X28095440Y-16480734D01*
X28105975Y-16478442D01*
X28116608Y-16475504D01*
X28127312Y-16471923D01*
X28131607Y-16470311D01*
X28106998Y-14783692D02*
X28076998Y-14783692D01*
X28016998Y-14723692D02*
X28016998Y-14683692D01*
X28351875Y-15003692D02*
X28351875Y-14633692D01*
X28166998Y-14683692D02*
X28166998Y-14723692D01*
X28106998Y-14783688D02*
G75*
G03*
X28166998Y-14723692I2J59998D01*
G01*
X28278617Y-16331441D02*
X28283174Y-16320982D01*
X28287213Y-16310299D01*
X28290686Y-16299426D01*
X28293547Y-16288396D01*
X27434184Y-15003692D02*
X27488029Y-15003692D01*
X27966998Y-14633692D02*
X27434184Y-14633692D01*
X27721374Y-16483692D02*
X28064684Y-16483692D01*
X27434184Y-14633692D02*
X27434184Y-15003692D01*
X28016998Y-14723692D02*
G75*
G03*
X28076998Y-14783692I60002J2D01*
G01*
X27553242Y-16399588D02*
X27560430Y-16407189D01*
X27567866Y-16414508D01*
X27575535Y-16421533D01*
X27583420Y-16428251D01*
X27591505Y-16434650D01*
X27599772Y-16440717D01*
X27608206Y-16446440D01*
X27616789Y-16451807D01*
X27625504Y-16456804D01*
X27637303Y-16462872D01*
X27640280Y-16464280D01*
X28298029Y-15003692D02*
X28351875Y-15003692D01*
X28293547Y-16288396D02*
X28295655Y-16277804D01*
X28297128Y-16267102D01*
X28297911Y-16256337D01*
X28298029Y-16250347D01*
X28298029Y-16250347D02*
X28298029Y-15003692D01*
D11*
D12*
X28041920Y-16322360D02*
X28081920Y-16362360D01*
X28081920Y-16322360D02*
X28041920Y-16362360D01*
D13*
X27693596Y-14741554D02*
G75*
G03*
X27693596Y-14741554I-40000J0D01*
G01*
X27953596Y-14741554D02*
G75*
G03*
X27953596Y-14741554I-40000J0D01*
G01*
D11*
X27689960Y-16800176D02*
X27689960Y-16600176D01*
X27689960Y-16600176D02*
X27737579Y-16600176D01*
X27737579Y-16600176D02*
X27766151Y-16609700D01*
X27766151Y-16609700D02*
X27785198Y-16628747D01*
X27785198Y-16628747D02*
X27794722Y-16647795D01*
X27794722Y-16647795D02*
X27804246Y-16685890D01*
X27804246Y-16685890D02*
X27804246Y-16714462D01*
X27804246Y-16714462D02*
X27794722Y-16752557D01*
X27794722Y-16752557D02*
X27785198Y-16771605D01*
X27785198Y-16771605D02*
X27766151Y-16790652D01*
X27766151Y-16790652D02*
X27737579Y-16800176D01*
X27737579Y-16800176D02*
X27689960Y-16800176D01*
X27889960Y-16800176D02*
X27889960Y-16666843D01*
X27889960Y-16704938D02*
X27899484Y-16685890D01*
X27899484Y-16685890D02*
X27909008Y-16676366D01*
X27909008Y-16676366D02*
X27928056Y-16666843D01*
X27928056Y-16666843D02*
X27947103Y-16666843D01*
X28013770Y-16800176D02*
X28013770Y-16666843D01*
X28013770Y-16600176D02*
X28004246Y-16609700D01*
X28004246Y-16609700D02*
X28013770Y-16619224D01*
X28013770Y-16619224D02*
X28023294Y-16609700D01*
X28023294Y-16609700D02*
X28013770Y-16600176D01*
X28013770Y-16600176D02*
X28013770Y-16619224D01*
X28137579Y-16800176D02*
X28118532Y-16790652D01*
X28118532Y-16790652D02*
X28109008Y-16771605D01*
X28109008Y-16771605D02*
X28109008Y-16600176D01*
X28242341Y-16800176D02*
X28223294Y-16790652D01*
X28223294Y-16790652D02*
X28213770Y-16771605D01*
X28213770Y-16771605D02*
X28213770Y-16600176D01*
X28470913Y-16800176D02*
X28470913Y-16600176D01*
X28470913Y-16600176D02*
X28537579Y-16743033D01*
X28537579Y-16743033D02*
X28604246Y-16600176D01*
X28604246Y-16600176D02*
X28604246Y-16800176D01*
X28785198Y-16800176D02*
X28785198Y-16695414D01*
X28785198Y-16695414D02*
X28775675Y-16676366D01*
X28775675Y-16676366D02*
X28756627Y-16666843D01*
X28756627Y-16666843D02*
X28718532Y-16666843D01*
X28718532Y-16666843D02*
X28699484Y-16676366D01*
X28785198Y-16790652D02*
X28766151Y-16800176D01*
X28766151Y-16800176D02*
X28718532Y-16800176D01*
X28718532Y-16800176D02*
X28699484Y-16790652D01*
X28699484Y-16790652D02*
X28689960Y-16771605D01*
X28689960Y-16771605D02*
X28689960Y-16752557D01*
X28689960Y-16752557D02*
X28699484Y-16733509D01*
X28699484Y-16733509D02*
X28718532Y-16723986D01*
X28718532Y-16723986D02*
X28766151Y-16723986D01*
X28766151Y-16723986D02*
X28785198Y-16714462D01*
X28880437Y-16666843D02*
X28880437Y-16866843D01*
X28880437Y-16676366D02*
X28899484Y-16666843D01*
X28899484Y-16666843D02*
X28937579Y-16666843D01*
X28937579Y-16666843D02*
X28956627Y-16676366D01*
X28956627Y-16676366D02*
X28966151Y-16685890D01*
X28966151Y-16685890D02*
X28975675Y-16704938D01*
X28975675Y-16704938D02*
X28975675Y-16762081D01*
X28975675Y-16762081D02*
X28966151Y-16781128D01*
X28966151Y-16781128D02*
X28956627Y-16790652D01*
X28956627Y-16790652D02*
X28937579Y-16800176D01*
X28937579Y-16800176D02*
X28899484Y-16800176D01*
X28899484Y-16800176D02*
X28880437Y-16790652D01*
X29061389Y-16781128D02*
X29070913Y-16790652D01*
X29070913Y-16790652D02*
X29061389Y-16800176D01*
X29061389Y-16800176D02*
X29051865Y-16790652D01*
X29051865Y-16790652D02*
X29061389Y-16781128D01*
X29061389Y-16781128D02*
X29061389Y-16800176D01*
X29061389Y-16676366D02*
X29070913Y-16685890D01*
X29070913Y-16685890D02*
X29061389Y-16695414D01*
X29061389Y-16695414D02*
X29051865Y-16685890D01*
X29051865Y-16685890D02*
X29061389Y-16676366D01*
X29061389Y-16676366D02*
X29061389Y-16695414D01*
D12*
X27389184Y-17108692D02*
X27429184Y-17148692D01*
X27429184Y-17108692D02*
X27389184Y-17148692D01*
D11*
X27728056Y-17020176D02*
X27747103Y-17020176D01*
X27747103Y-17020176D02*
X27766151Y-17029700D01*
X27766151Y-17029700D02*
X27775675Y-17039224D01*
X27775675Y-17039224D02*
X27785198Y-17058271D01*
X27785198Y-17058271D02*
X27794722Y-17096367D01*
X27794722Y-17096367D02*
X27794722Y-17143986D01*
X27794722Y-17143986D02*
X27785198Y-17182081D01*
X27785198Y-17182081D02*
X27775675Y-17201128D01*
X27775675Y-17201128D02*
X27766151Y-17210652D01*
X27766151Y-17210652D02*
X27747103Y-17220176D01*
X27747103Y-17220176D02*
X27728056Y-17220176D01*
X27728056Y-17220176D02*
X27709008Y-17210652D01*
X27709008Y-17210652D02*
X27699484Y-17201128D01*
X27699484Y-17201128D02*
X27689960Y-17182081D01*
X27689960Y-17182081D02*
X27680437Y-17143986D01*
X27680437Y-17143986D02*
X27680437Y-17096367D01*
X27680437Y-17096367D02*
X27689960Y-17058271D01*
X27689960Y-17058271D02*
X27699484Y-17039224D01*
X27699484Y-17039224D02*
X27709008Y-17029700D01*
X27709008Y-17029700D02*
X27728056Y-17020176D01*
X27880437Y-17201128D02*
X27889960Y-17210652D01*
X27889960Y-17210652D02*
X27880437Y-17220176D01*
X27880437Y-17220176D02*
X27870913Y-17210652D01*
X27870913Y-17210652D02*
X27880437Y-17201128D01*
X27880437Y-17201128D02*
X27880437Y-17220176D01*
X28061389Y-17086843D02*
X28061389Y-17220176D01*
X28013770Y-17010652D02*
X27966151Y-17153509D01*
X27966151Y-17153509D02*
X28089960Y-17153509D01*
X28204246Y-17020176D02*
X28223294Y-17020176D01*
X28223294Y-17020176D02*
X28242341Y-17029700D01*
X28242341Y-17029700D02*
X28251865Y-17039224D01*
X28251865Y-17039224D02*
X28261389Y-17058271D01*
X28261389Y-17058271D02*
X28270913Y-17096367D01*
X28270913Y-17096367D02*
X28270913Y-17143986D01*
X28270913Y-17143986D02*
X28261389Y-17182081D01*
X28261389Y-17182081D02*
X28251865Y-17201128D01*
X28251865Y-17201128D02*
X28242341Y-17210652D01*
X28242341Y-17210652D02*
X28223294Y-17220176D01*
X28223294Y-17220176D02*
X28204246Y-17220176D01*
X28204246Y-17220176D02*
X28185198Y-17210652D01*
X28185198Y-17210652D02*
X28175675Y-17201128D01*
X28175675Y-17201128D02*
X28166151Y-17182081D01*
X28166151Y-17182081D02*
X28156627Y-17143986D01*
X28156627Y-17143986D02*
X28156627Y-17096367D01*
X28156627Y-17096367D02*
X28166151Y-17058271D01*
X28166151Y-17058271D02*
X28175675Y-17039224D01*
X28175675Y-17039224D02*
X28185198Y-17029700D01*
X28185198Y-17029700D02*
X28204246Y-17020176D01*
X28394722Y-17020176D02*
X28413770Y-17020176D01*
X28413770Y-17020176D02*
X28432818Y-17029700D01*
X28432818Y-17029700D02*
X28442341Y-17039224D01*
X28442341Y-17039224D02*
X28451865Y-17058271D01*
X28451865Y-17058271D02*
X28461389Y-17096367D01*
X28461389Y-17096367D02*
X28461389Y-17143986D01*
X28461389Y-17143986D02*
X28451865Y-17182081D01*
X28451865Y-17182081D02*
X28442341Y-17201128D01*
X28442341Y-17201128D02*
X28432818Y-17210652D01*
X28432818Y-17210652D02*
X28413770Y-17220176D01*
X28413770Y-17220176D02*
X28394722Y-17220176D01*
X28394722Y-17220176D02*
X28375675Y-17210652D01*
X28375675Y-17210652D02*
X28366151Y-17201128D01*
X28366151Y-17201128D02*
X28356627Y-17182081D01*
X28356627Y-17182081D02*
X28347103Y-17143986D01*
X28347103Y-17143986D02*
X28347103Y-17096367D01*
X28347103Y-17096367D02*
X28356627Y-17058271D01*
X28356627Y-17058271D02*
X28366151Y-17039224D01*
X28366151Y-17039224D02*
X28375675Y-17029700D01*
X28375675Y-17029700D02*
X28394722Y-17020176D01*
X28547103Y-17220176D02*
X28547103Y-17086843D01*
X28547103Y-17105890D02*
X28556627Y-17096367D01*
X28556627Y-17096367D02*
X28575675Y-17086843D01*
X28575675Y-17086843D02*
X28604246Y-17086843D01*
X28604246Y-17086843D02*
X28623294Y-17096367D01*
X28623294Y-17096367D02*
X28632818Y-17115414D01*
X28632818Y-17115414D02*
X28632818Y-17220176D01*
X28632818Y-17115414D02*
X28642341Y-17096367D01*
X28642341Y-17096367D02*
X28661389Y-17086843D01*
X28661389Y-17086843D02*
X28689960Y-17086843D01*
X28689960Y-17086843D02*
X28709008Y-17096367D01*
X28709008Y-17096367D02*
X28718532Y-17115414D01*
X28718532Y-17115414D02*
X28718532Y-17220176D01*
X28813770Y-17220176D02*
X28813770Y-17086843D01*
X28813770Y-17105890D02*
X28823294Y-17096367D01*
X28823294Y-17096367D02*
X28842341Y-17086843D01*
X28842341Y-17086843D02*
X28870913Y-17086843D01*
X28870913Y-17086843D02*
X28889960Y-17096367D01*
X28889960Y-17096367D02*
X28899484Y-17115414D01*
X28899484Y-17115414D02*
X28899484Y-17220176D01*
X28899484Y-17115414D02*
X28909008Y-17096367D01*
X28909008Y-17096367D02*
X28928056Y-17086843D01*
X28928056Y-17086843D02*
X28956627Y-17086843D01*
X28956627Y-17086843D02*
X28975675Y-17096367D01*
X28975675Y-17096367D02*
X28985199Y-17115414D01*
X28985199Y-17115414D02*
X28985199Y-17220176D01*
X29375675Y-17010652D02*
X29204246Y-17267795D01*
X29632818Y-17020176D02*
X29651865Y-17020176D01*
X29651865Y-17020176D02*
X29670913Y-17029700D01*
X29670913Y-17029700D02*
X29680437Y-17039224D01*
X29680437Y-17039224D02*
X29689961Y-17058271D01*
X29689961Y-17058271D02*
X29699484Y-17096367D01*
X29699484Y-17096367D02*
X29699484Y-17143986D01*
X29699484Y-17143986D02*
X29689961Y-17182081D01*
X29689961Y-17182081D02*
X29680437Y-17201128D01*
X29680437Y-17201128D02*
X29670913Y-17210652D01*
X29670913Y-17210652D02*
X29651865Y-17220176D01*
X29651865Y-17220176D02*
X29632818Y-17220176D01*
X29632818Y-17220176D02*
X29613770Y-17210652D01*
X29613770Y-17210652D02*
X29604246Y-17201128D01*
X29604246Y-17201128D02*
X29594722Y-17182081D01*
X29594722Y-17182081D02*
X29585199Y-17143986D01*
X29585199Y-17143986D02*
X29585199Y-17096367D01*
X29585199Y-17096367D02*
X29594722Y-17058271D01*
X29594722Y-17058271D02*
X29604246Y-17039224D01*
X29604246Y-17039224D02*
X29613770Y-17029700D01*
X29613770Y-17029700D02*
X29632818Y-17020176D01*
X29785199Y-17201128D02*
X29794722Y-17210652D01*
X29794722Y-17210652D02*
X29785199Y-17220176D01*
X29785199Y-17220176D02*
X29775675Y-17210652D01*
X29775675Y-17210652D02*
X29785199Y-17201128D01*
X29785199Y-17201128D02*
X29785199Y-17220176D01*
X29918532Y-17020176D02*
X29937580Y-17020176D01*
X29937580Y-17020176D02*
X29956627Y-17029700D01*
X29956627Y-17029700D02*
X29966151Y-17039224D01*
X29966151Y-17039224D02*
X29975675Y-17058271D01*
X29975675Y-17058271D02*
X29985199Y-17096367D01*
X29985199Y-17096367D02*
X29985199Y-17143986D01*
X29985199Y-17143986D02*
X29975675Y-17182081D01*
X29975675Y-17182081D02*
X29966151Y-17201128D01*
X29966151Y-17201128D02*
X29956627Y-17210652D01*
X29956627Y-17210652D02*
X29937580Y-17220176D01*
X29937580Y-17220176D02*
X29918532Y-17220176D01*
X29918532Y-17220176D02*
X29899484Y-17210652D01*
X29899484Y-17210652D02*
X29889961Y-17201128D01*
X29889961Y-17201128D02*
X29880437Y-17182081D01*
X29880437Y-17182081D02*
X29870913Y-17143986D01*
X29870913Y-17143986D02*
X29870913Y-17096367D01*
X29870913Y-17096367D02*
X29880437Y-17058271D01*
X29880437Y-17058271D02*
X29889961Y-17039224D01*
X29889961Y-17039224D02*
X29899484Y-17029700D01*
X29899484Y-17029700D02*
X29918532Y-17020176D01*
X30175675Y-17220176D02*
X30061389Y-17220176D01*
X30118532Y-17220176D02*
X30118532Y-17020176D01*
X30118532Y-17020176D02*
X30099484Y-17048748D01*
X30099484Y-17048748D02*
X30080437Y-17067795D01*
X30080437Y-17067795D02*
X30061389Y-17077319D01*
X30356627Y-17020176D02*
X30261389Y-17020176D01*
X30261389Y-17020176D02*
X30251865Y-17115414D01*
X30251865Y-17115414D02*
X30261389Y-17105890D01*
X30261389Y-17105890D02*
X30280437Y-17096367D01*
X30280437Y-17096367D02*
X30328056Y-17096367D01*
X30328056Y-17096367D02*
X30347103Y-17105890D01*
X30347103Y-17105890D02*
X30356627Y-17115414D01*
X30356627Y-17115414D02*
X30366151Y-17134462D01*
X30366151Y-17134462D02*
X30366151Y-17182081D01*
X30366151Y-17182081D02*
X30356627Y-17201128D01*
X30356627Y-17201128D02*
X30347103Y-17210652D01*
X30347103Y-17210652D02*
X30328056Y-17220176D01*
X30328056Y-17220176D02*
X30280437Y-17220176D01*
X30280437Y-17220176D02*
X30261389Y-17210652D01*
X30261389Y-17210652D02*
X30251865Y-17201128D01*
X30432818Y-17020176D02*
X30566151Y-17020176D01*
X30566151Y-17020176D02*
X30480437Y-17220176D01*
X30632818Y-17020176D02*
X30632818Y-17058271D01*
X30709008Y-17020176D02*
X30709008Y-17058271D01*
X31004246Y-17296367D02*
X30994723Y-17286843D01*
X30994723Y-17286843D02*
X30975675Y-17258271D01*
X30975675Y-17258271D02*
X30966151Y-17239224D01*
X30966151Y-17239224D02*
X30956627Y-17210652D01*
X30956627Y-17210652D02*
X30947104Y-17163033D01*
X30947104Y-17163033D02*
X30947104Y-17124938D01*
X30947104Y-17124938D02*
X30956627Y-17077319D01*
X30956627Y-17077319D02*
X30966151Y-17048748D01*
X30966151Y-17048748D02*
X30975675Y-17029700D01*
X30975675Y-17029700D02*
X30994723Y-17001128D01*
X30994723Y-17001128D02*
X31004246Y-16991605D01*
X31185199Y-17220176D02*
X31070913Y-17220176D01*
X31128056Y-17220176D02*
X31128056Y-17020176D01*
X31128056Y-17020176D02*
X31109008Y-17048748D01*
X31109008Y-17048748D02*
X31089961Y-17067795D01*
X31089961Y-17067795D02*
X31070913Y-17077319D01*
X31423294Y-17220176D02*
X31423294Y-17020176D01*
X31509008Y-17220176D02*
X31509008Y-17115414D01*
X31509008Y-17115414D02*
X31499485Y-17096367D01*
X31499485Y-17096367D02*
X31480437Y-17086843D01*
X31480437Y-17086843D02*
X31451865Y-17086843D01*
X31451865Y-17086843D02*
X31432818Y-17096367D01*
X31432818Y-17096367D02*
X31423294Y-17105890D01*
X31632818Y-17220176D02*
X31613770Y-17210652D01*
X31613770Y-17210652D02*
X31604246Y-17201128D01*
X31604246Y-17201128D02*
X31594723Y-17182081D01*
X31594723Y-17182081D02*
X31594723Y-17124938D01*
X31594723Y-17124938D02*
X31604246Y-17105890D01*
X31604246Y-17105890D02*
X31613770Y-17096367D01*
X31613770Y-17096367D02*
X31632818Y-17086843D01*
X31632818Y-17086843D02*
X31661389Y-17086843D01*
X31661389Y-17086843D02*
X31680437Y-17096367D01*
X31680437Y-17096367D02*
X31689961Y-17105890D01*
X31689961Y-17105890D02*
X31699485Y-17124938D01*
X31699485Y-17124938D02*
X31699485Y-17182081D01*
X31699485Y-17182081D02*
X31689961Y-17201128D01*
X31689961Y-17201128D02*
X31680437Y-17210652D01*
X31680437Y-17210652D02*
X31661389Y-17220176D01*
X31661389Y-17220176D02*
X31632818Y-17220176D01*
X31813770Y-17220176D02*
X31794723Y-17210652D01*
X31794723Y-17210652D02*
X31785199Y-17191605D01*
X31785199Y-17191605D02*
X31785199Y-17020176D01*
X31966151Y-17210652D02*
X31947104Y-17220176D01*
X31947104Y-17220176D02*
X31909008Y-17220176D01*
X31909008Y-17220176D02*
X31889961Y-17210652D01*
X31889961Y-17210652D02*
X31880437Y-17191605D01*
X31880437Y-17191605D02*
X31880437Y-17115414D01*
X31880437Y-17115414D02*
X31889961Y-17096367D01*
X31889961Y-17096367D02*
X31909008Y-17086843D01*
X31909008Y-17086843D02*
X31947104Y-17086843D01*
X31947104Y-17086843D02*
X31966151Y-17096367D01*
X31966151Y-17096367D02*
X31975675Y-17115414D01*
X31975675Y-17115414D02*
X31975675Y-17134462D01*
X31975675Y-17134462D02*
X31880437Y-17153509D01*
X32042342Y-17296367D02*
X32051866Y-17286843D01*
X32051866Y-17286843D02*
X32070913Y-17258271D01*
X32070913Y-17258271D02*
X32080437Y-17239224D01*
X32080437Y-17239224D02*
X32089961Y-17210652D01*
X32089961Y-17210652D02*
X32099485Y-17163033D01*
X32099485Y-17163033D02*
X32099485Y-17124938D01*
X32099485Y-17124938D02*
X32089961Y-17077319D01*
X32089961Y-17077319D02*
X32080437Y-17048748D01*
X32080437Y-17048748D02*
X32070913Y-17029700D01*
X32070913Y-17029700D02*
X32051866Y-17001128D01*
X32051866Y-17001128D02*
X32042342Y-16991605D01*
D13*
X27429184Y-17392692D02*
G75*
G03*
X27429184Y-17392692I-40000J0D01*
G01*
D11*
X27728056Y-17284176D02*
X27747103Y-17284176D01*
X27747103Y-17284176D02*
X27766151Y-17293700D01*
X27766151Y-17293700D02*
X27775675Y-17303224D01*
X27775675Y-17303224D02*
X27785198Y-17322271D01*
X27785198Y-17322271D02*
X27794722Y-17360367D01*
X27794722Y-17360367D02*
X27794722Y-17407986D01*
X27794722Y-17407986D02*
X27785198Y-17446081D01*
X27785198Y-17446081D02*
X27775675Y-17465128D01*
X27775675Y-17465128D02*
X27766151Y-17474652D01*
X27766151Y-17474652D02*
X27747103Y-17484176D01*
X27747103Y-17484176D02*
X27728056Y-17484176D01*
X27728056Y-17484176D02*
X27709008Y-17474652D01*
X27709008Y-17474652D02*
X27699484Y-17465128D01*
X27699484Y-17465128D02*
X27689960Y-17446081D01*
X27689960Y-17446081D02*
X27680437Y-17407986D01*
X27680437Y-17407986D02*
X27680437Y-17360367D01*
X27680437Y-17360367D02*
X27689960Y-17322271D01*
X27689960Y-17322271D02*
X27699484Y-17303224D01*
X27699484Y-17303224D02*
X27709008Y-17293700D01*
X27709008Y-17293700D02*
X27728056Y-17284176D01*
X27880437Y-17465128D02*
X27889960Y-17474652D01*
X27889960Y-17474652D02*
X27880437Y-17484176D01*
X27880437Y-17484176D02*
X27870913Y-17474652D01*
X27870913Y-17474652D02*
X27880437Y-17465128D01*
X27880437Y-17465128D02*
X27880437Y-17484176D01*
X28004246Y-17369890D02*
X27985198Y-17360367D01*
X27985198Y-17360367D02*
X27975675Y-17350843D01*
X27975675Y-17350843D02*
X27966151Y-17331795D01*
X27966151Y-17331795D02*
X27966151Y-17322271D01*
X27966151Y-17322271D02*
X27975675Y-17303224D01*
X27975675Y-17303224D02*
X27985198Y-17293700D01*
X27985198Y-17293700D02*
X28004246Y-17284176D01*
X28004246Y-17284176D02*
X28042341Y-17284176D01*
X28042341Y-17284176D02*
X28061389Y-17293700D01*
X28061389Y-17293700D02*
X28070913Y-17303224D01*
X28070913Y-17303224D02*
X28080437Y-17322271D01*
X28080437Y-17322271D02*
X28080437Y-17331795D01*
X28080437Y-17331795D02*
X28070913Y-17350843D01*
X28070913Y-17350843D02*
X28061389Y-17360367D01*
X28061389Y-17360367D02*
X28042341Y-17369890D01*
X28042341Y-17369890D02*
X28004246Y-17369890D01*
X28004246Y-17369890D02*
X27985198Y-17379414D01*
X27985198Y-17379414D02*
X27975675Y-17388938D01*
X27975675Y-17388938D02*
X27966151Y-17407986D01*
X27966151Y-17407986D02*
X27966151Y-17446081D01*
X27966151Y-17446081D02*
X27975675Y-17465128D01*
X27975675Y-17465128D02*
X27985198Y-17474652D01*
X27985198Y-17474652D02*
X28004246Y-17484176D01*
X28004246Y-17484176D02*
X28042341Y-17484176D01*
X28042341Y-17484176D02*
X28061389Y-17474652D01*
X28061389Y-17474652D02*
X28070913Y-17465128D01*
X28070913Y-17465128D02*
X28080437Y-17446081D01*
X28080437Y-17446081D02*
X28080437Y-17407986D01*
X28080437Y-17407986D02*
X28070913Y-17388938D01*
X28070913Y-17388938D02*
X28061389Y-17379414D01*
X28061389Y-17379414D02*
X28042341Y-17369890D01*
X28204246Y-17284176D02*
X28223294Y-17284176D01*
X28223294Y-17284176D02*
X28242341Y-17293700D01*
X28242341Y-17293700D02*
X28251865Y-17303224D01*
X28251865Y-17303224D02*
X28261389Y-17322271D01*
X28261389Y-17322271D02*
X28270913Y-17360367D01*
X28270913Y-17360367D02*
X28270913Y-17407986D01*
X28270913Y-17407986D02*
X28261389Y-17446081D01*
X28261389Y-17446081D02*
X28251865Y-17465128D01*
X28251865Y-17465128D02*
X28242341Y-17474652D01*
X28242341Y-17474652D02*
X28223294Y-17484176D01*
X28223294Y-17484176D02*
X28204246Y-17484176D01*
X28204246Y-17484176D02*
X28185198Y-17474652D01*
X28185198Y-17474652D02*
X28175675Y-17465128D01*
X28175675Y-17465128D02*
X28166151Y-17446081D01*
X28166151Y-17446081D02*
X28156627Y-17407986D01*
X28156627Y-17407986D02*
X28156627Y-17360367D01*
X28156627Y-17360367D02*
X28166151Y-17322271D01*
X28166151Y-17322271D02*
X28175675Y-17303224D01*
X28175675Y-17303224D02*
X28185198Y-17293700D01*
X28185198Y-17293700D02*
X28204246Y-17284176D01*
X28394722Y-17284176D02*
X28413770Y-17284176D01*
X28413770Y-17284176D02*
X28432818Y-17293700D01*
X28432818Y-17293700D02*
X28442341Y-17303224D01*
X28442341Y-17303224D02*
X28451865Y-17322271D01*
X28451865Y-17322271D02*
X28461389Y-17360367D01*
X28461389Y-17360367D02*
X28461389Y-17407986D01*
X28461389Y-17407986D02*
X28451865Y-17446081D01*
X28451865Y-17446081D02*
X28442341Y-17465128D01*
X28442341Y-17465128D02*
X28432818Y-17474652D01*
X28432818Y-17474652D02*
X28413770Y-17484176D01*
X28413770Y-17484176D02*
X28394722Y-17484176D01*
X28394722Y-17484176D02*
X28375675Y-17474652D01*
X28375675Y-17474652D02*
X28366151Y-17465128D01*
X28366151Y-17465128D02*
X28356627Y-17446081D01*
X28356627Y-17446081D02*
X28347103Y-17407986D01*
X28347103Y-17407986D02*
X28347103Y-17360367D01*
X28347103Y-17360367D02*
X28356627Y-17322271D01*
X28356627Y-17322271D02*
X28366151Y-17303224D01*
X28366151Y-17303224D02*
X28375675Y-17293700D01*
X28375675Y-17293700D02*
X28394722Y-17284176D01*
X28547103Y-17484176D02*
X28547103Y-17350843D01*
X28547103Y-17369890D02*
X28556627Y-17360367D01*
X28556627Y-17360367D02*
X28575675Y-17350843D01*
X28575675Y-17350843D02*
X28604246Y-17350843D01*
X28604246Y-17350843D02*
X28623294Y-17360367D01*
X28623294Y-17360367D02*
X28632818Y-17379414D01*
X28632818Y-17379414D02*
X28632818Y-17484176D01*
X28632818Y-17379414D02*
X28642341Y-17360367D01*
X28642341Y-17360367D02*
X28661389Y-17350843D01*
X28661389Y-17350843D02*
X28689960Y-17350843D01*
X28689960Y-17350843D02*
X28709008Y-17360367D01*
X28709008Y-17360367D02*
X28718532Y-17379414D01*
X28718532Y-17379414D02*
X28718532Y-17484176D01*
X28813770Y-17484176D02*
X28813770Y-17350843D01*
X28813770Y-17369890D02*
X28823294Y-17360367D01*
X28823294Y-17360367D02*
X28842341Y-17350843D01*
X28842341Y-17350843D02*
X28870913Y-17350843D01*
X28870913Y-17350843D02*
X28889960Y-17360367D01*
X28889960Y-17360367D02*
X28899484Y-17379414D01*
X28899484Y-17379414D02*
X28899484Y-17484176D01*
X28899484Y-17379414D02*
X28909008Y-17360367D01*
X28909008Y-17360367D02*
X28928056Y-17350843D01*
X28928056Y-17350843D02*
X28956627Y-17350843D01*
X28956627Y-17350843D02*
X28975675Y-17360367D01*
X28975675Y-17360367D02*
X28985199Y-17379414D01*
X28985199Y-17379414D02*
X28985199Y-17484176D01*
X29375675Y-17274652D02*
X29204246Y-17531795D01*
X29632818Y-17284176D02*
X29651865Y-17284176D01*
X29651865Y-17284176D02*
X29670913Y-17293700D01*
X29670913Y-17293700D02*
X29680437Y-17303224D01*
X29680437Y-17303224D02*
X29689961Y-17322271D01*
X29689961Y-17322271D02*
X29699484Y-17360367D01*
X29699484Y-17360367D02*
X29699484Y-17407986D01*
X29699484Y-17407986D02*
X29689961Y-17446081D01*
X29689961Y-17446081D02*
X29680437Y-17465128D01*
X29680437Y-17465128D02*
X29670913Y-17474652D01*
X29670913Y-17474652D02*
X29651865Y-17484176D01*
X29651865Y-17484176D02*
X29632818Y-17484176D01*
X29632818Y-17484176D02*
X29613770Y-17474652D01*
X29613770Y-17474652D02*
X29604246Y-17465128D01*
X29604246Y-17465128D02*
X29594722Y-17446081D01*
X29594722Y-17446081D02*
X29585199Y-17407986D01*
X29585199Y-17407986D02*
X29585199Y-17360367D01*
X29585199Y-17360367D02*
X29594722Y-17322271D01*
X29594722Y-17322271D02*
X29604246Y-17303224D01*
X29604246Y-17303224D02*
X29613770Y-17293700D01*
X29613770Y-17293700D02*
X29632818Y-17284176D01*
X29785199Y-17465128D02*
X29794722Y-17474652D01*
X29794722Y-17474652D02*
X29785199Y-17484176D01*
X29785199Y-17484176D02*
X29775675Y-17474652D01*
X29775675Y-17474652D02*
X29785199Y-17465128D01*
X29785199Y-17465128D02*
X29785199Y-17484176D01*
X29918532Y-17284176D02*
X29937580Y-17284176D01*
X29937580Y-17284176D02*
X29956627Y-17293700D01*
X29956627Y-17293700D02*
X29966151Y-17303224D01*
X29966151Y-17303224D02*
X29975675Y-17322271D01*
X29975675Y-17322271D02*
X29985199Y-17360367D01*
X29985199Y-17360367D02*
X29985199Y-17407986D01*
X29985199Y-17407986D02*
X29975675Y-17446081D01*
X29975675Y-17446081D02*
X29966151Y-17465128D01*
X29966151Y-17465128D02*
X29956627Y-17474652D01*
X29956627Y-17474652D02*
X29937580Y-17484176D01*
X29937580Y-17484176D02*
X29918532Y-17484176D01*
X29918532Y-17484176D02*
X29899484Y-17474652D01*
X29899484Y-17474652D02*
X29889961Y-17465128D01*
X29889961Y-17465128D02*
X29880437Y-17446081D01*
X29880437Y-17446081D02*
X29870913Y-17407986D01*
X29870913Y-17407986D02*
X29870913Y-17360367D01*
X29870913Y-17360367D02*
X29880437Y-17322271D01*
X29880437Y-17322271D02*
X29889961Y-17303224D01*
X29889961Y-17303224D02*
X29899484Y-17293700D01*
X29899484Y-17293700D02*
X29918532Y-17284176D01*
X30051865Y-17284176D02*
X30175675Y-17284176D01*
X30175675Y-17284176D02*
X30109008Y-17360367D01*
X30109008Y-17360367D02*
X30137580Y-17360367D01*
X30137580Y-17360367D02*
X30156627Y-17369890D01*
X30156627Y-17369890D02*
X30166151Y-17379414D01*
X30166151Y-17379414D02*
X30175675Y-17398462D01*
X30175675Y-17398462D02*
X30175675Y-17446081D01*
X30175675Y-17446081D02*
X30166151Y-17465128D01*
X30166151Y-17465128D02*
X30156627Y-17474652D01*
X30156627Y-17474652D02*
X30137580Y-17484176D01*
X30137580Y-17484176D02*
X30080437Y-17484176D01*
X30080437Y-17484176D02*
X30061389Y-17474652D01*
X30061389Y-17474652D02*
X30051865Y-17465128D01*
X30366151Y-17484176D02*
X30251865Y-17484176D01*
X30309008Y-17484176D02*
X30309008Y-17284176D01*
X30309008Y-17284176D02*
X30289961Y-17312748D01*
X30289961Y-17312748D02*
X30270913Y-17331795D01*
X30270913Y-17331795D02*
X30251865Y-17341319D01*
X30547103Y-17284176D02*
X30451865Y-17284176D01*
X30451865Y-17284176D02*
X30442342Y-17379414D01*
X30442342Y-17379414D02*
X30451865Y-17369890D01*
X30451865Y-17369890D02*
X30470913Y-17360367D01*
X30470913Y-17360367D02*
X30518532Y-17360367D01*
X30518532Y-17360367D02*
X30537580Y-17369890D01*
X30537580Y-17369890D02*
X30547103Y-17379414D01*
X30547103Y-17379414D02*
X30556627Y-17398462D01*
X30556627Y-17398462D02*
X30556627Y-17446081D01*
X30556627Y-17446081D02*
X30547103Y-17465128D01*
X30547103Y-17465128D02*
X30537580Y-17474652D01*
X30537580Y-17474652D02*
X30518532Y-17484176D01*
X30518532Y-17484176D02*
X30470913Y-17484176D01*
X30470913Y-17484176D02*
X30451865Y-17474652D01*
X30451865Y-17474652D02*
X30442342Y-17465128D01*
X30632818Y-17284176D02*
X30632818Y-17322271D01*
X30709008Y-17284176D02*
X30709008Y-17322271D01*
X31004246Y-17560367D02*
X30994723Y-17550843D01*
X30994723Y-17550843D02*
X30975675Y-17522271D01*
X30975675Y-17522271D02*
X30966151Y-17503224D01*
X30966151Y-17503224D02*
X30956627Y-17474652D01*
X30956627Y-17474652D02*
X30947104Y-17427033D01*
X30947104Y-17427033D02*
X30947104Y-17388938D01*
X30947104Y-17388938D02*
X30956627Y-17341319D01*
X30956627Y-17341319D02*
X30966151Y-17312748D01*
X30966151Y-17312748D02*
X30975675Y-17293700D01*
X30975675Y-17293700D02*
X30994723Y-17265128D01*
X30994723Y-17265128D02*
X31004246Y-17255605D01*
X31070913Y-17303224D02*
X31080437Y-17293700D01*
X31080437Y-17293700D02*
X31099484Y-17284176D01*
X31099484Y-17284176D02*
X31147104Y-17284176D01*
X31147104Y-17284176D02*
X31166151Y-17293700D01*
X31166151Y-17293700D02*
X31175675Y-17303224D01*
X31175675Y-17303224D02*
X31185199Y-17322271D01*
X31185199Y-17322271D02*
X31185199Y-17341319D01*
X31185199Y-17341319D02*
X31175675Y-17369890D01*
X31175675Y-17369890D02*
X31061389Y-17484176D01*
X31061389Y-17484176D02*
X31185199Y-17484176D01*
X31423294Y-17484176D02*
X31423294Y-17284176D01*
X31509008Y-17484176D02*
X31509008Y-17379414D01*
X31509008Y-17379414D02*
X31499485Y-17360367D01*
X31499485Y-17360367D02*
X31480437Y-17350843D01*
X31480437Y-17350843D02*
X31451865Y-17350843D01*
X31451865Y-17350843D02*
X31432818Y-17360367D01*
X31432818Y-17360367D02*
X31423294Y-17369890D01*
X31632818Y-17484176D02*
X31613770Y-17474652D01*
X31613770Y-17474652D02*
X31604246Y-17465128D01*
X31604246Y-17465128D02*
X31594723Y-17446081D01*
X31594723Y-17446081D02*
X31594723Y-17388938D01*
X31594723Y-17388938D02*
X31604246Y-17369890D01*
X31604246Y-17369890D02*
X31613770Y-17360367D01*
X31613770Y-17360367D02*
X31632818Y-17350843D01*
X31632818Y-17350843D02*
X31661389Y-17350843D01*
X31661389Y-17350843D02*
X31680437Y-17360367D01*
X31680437Y-17360367D02*
X31689961Y-17369890D01*
X31689961Y-17369890D02*
X31699485Y-17388938D01*
X31699485Y-17388938D02*
X31699485Y-17446081D01*
X31699485Y-17446081D02*
X31689961Y-17465128D01*
X31689961Y-17465128D02*
X31680437Y-17474652D01*
X31680437Y-17474652D02*
X31661389Y-17484176D01*
X31661389Y-17484176D02*
X31632818Y-17484176D01*
X31813770Y-17484176D02*
X31794723Y-17474652D01*
X31794723Y-17474652D02*
X31785199Y-17455605D01*
X31785199Y-17455605D02*
X31785199Y-17284176D01*
X31966151Y-17474652D02*
X31947104Y-17484176D01*
X31947104Y-17484176D02*
X31909008Y-17484176D01*
X31909008Y-17484176D02*
X31889961Y-17474652D01*
X31889961Y-17474652D02*
X31880437Y-17455605D01*
X31880437Y-17455605D02*
X31880437Y-17379414D01*
X31880437Y-17379414D02*
X31889961Y-17360367D01*
X31889961Y-17360367D02*
X31909008Y-17350843D01*
X31909008Y-17350843D02*
X31947104Y-17350843D01*
X31947104Y-17350843D02*
X31966151Y-17360367D01*
X31966151Y-17360367D02*
X31975675Y-17379414D01*
X31975675Y-17379414D02*
X31975675Y-17398462D01*
X31975675Y-17398462D02*
X31880437Y-17417509D01*
X32051866Y-17474652D02*
X32070913Y-17484176D01*
X32070913Y-17484176D02*
X32109008Y-17484176D01*
X32109008Y-17484176D02*
X32128056Y-17474652D01*
X32128056Y-17474652D02*
X32137580Y-17455605D01*
X32137580Y-17455605D02*
X32137580Y-17446081D01*
X32137580Y-17446081D02*
X32128056Y-17427033D01*
X32128056Y-17427033D02*
X32109008Y-17417509D01*
X32109008Y-17417509D02*
X32080437Y-17417509D01*
X32080437Y-17417509D02*
X32061389Y-17407986D01*
X32061389Y-17407986D02*
X32051866Y-17388938D01*
X32051866Y-17388938D02*
X32051866Y-17379414D01*
X32051866Y-17379414D02*
X32061389Y-17360367D01*
X32061389Y-17360367D02*
X32080437Y-17350843D01*
X32080437Y-17350843D02*
X32109008Y-17350843D01*
X32109008Y-17350843D02*
X32128056Y-17360367D01*
X32204247Y-17560367D02*
X32213770Y-17550843D01*
X32213770Y-17550843D02*
X32232818Y-17522271D01*
X32232818Y-17522271D02*
X32242342Y-17503224D01*
X32242342Y-17503224D02*
X32251866Y-17474652D01*
X32251866Y-17474652D02*
X32261389Y-17427033D01*
X32261389Y-17427033D02*
X32261389Y-17388938D01*
X32261389Y-17388938D02*
X32251866Y-17341319D01*
X32251866Y-17341319D02*
X32242342Y-17312748D01*
X32242342Y-17312748D02*
X32232818Y-17293700D01*
X32232818Y-17293700D02*
X32213770Y-17265128D01*
X32213770Y-17265128D02*
X32204247Y-17255605D01*
M02*
