%TF.GenerationSoftware,KiCad,Pcbnew,7.0.6*%
%TF.CreationDate,2023-11-30T13:43:46-08:00*%
%TF.ProjectId,UGC_USBC,5547435f-5553-4424-932e-6b696361645f,rev?*%
%TF.SameCoordinates,Original*%
%TF.FileFunction,Copper,L2,Bot*%
%TF.FilePolarity,Positive*%
%FSLAX46Y46*%
G04 Gerber Fmt 4.6, Leading zero omitted, Abs format (unit mm)*
G04 Created by KiCad (PCBNEW 7.0.6) date 2023-11-30 13:43:46*
%MOMM*%
%LPD*%
G01*
G04 APERTURE LIST*
%TA.AperFunction,ComponentPad*%
%ADD10C,0.600000*%
%TD*%
%TA.AperFunction,ComponentPad*%
%ADD11O,1.000000X2.000000*%
%TD*%
%TA.AperFunction,ComponentPad*%
%ADD12C,0.900000*%
%TD*%
%TA.AperFunction,ViaPad*%
%ADD13C,0.800000*%
%TD*%
%TA.AperFunction,ViaPad*%
%ADD14C,0.600000*%
%TD*%
%TA.AperFunction,ViaPad*%
%ADD15C,0.700000*%
%TD*%
%TA.AperFunction,ViaPad*%
%ADD16C,2.000000*%
%TD*%
%TA.AperFunction,Conductor*%
%ADD17C,0.200000*%
%TD*%
%TA.AperFunction,Conductor*%
%ADD18C,0.350000*%
%TD*%
G04 APERTURE END LIST*
D10*
%TO.P,J1,B1,GND*%
%TO.N,GND*%
X225866178Y-152812400D03*
%TO.P,J1,B2,SSTXP2*%
%TO.N,+3.3V_PRE*%
X226516178Y-152112400D03*
%TO.P,J1,B3,SSTXN2*%
%TO.N,N_CLOCK*%
X227316178Y-152112400D03*
%TO.P,J1,B4,VBUS*%
%TO.N,+5V_PRE*%
X227716178Y-152812400D03*
%TO.P,J1,B5,CC2*%
%TO.N,CC2*%
X228116178Y-152112400D03*
%TO.P,J1,B6,DP2*%
%TO.N,D+*%
X228516178Y-152812400D03*
%TO.P,J1,B7,DN2*%
%TO.N,D-*%
X229316178Y-152812400D03*
%TO.P,J1,B8,SBU2*%
%TO.N,unconnected-(J1-SBU2-PadB8)*%
X229716178Y-152112400D03*
%TO.P,J1,B9,VBUS*%
%TO.N,+5V_PRE*%
X230116178Y-152812400D03*
%TO.P,J1,B10,SSRXN1*%
%TO.N,N_LATCH*%
X230516178Y-152112400D03*
%TO.P,J1,B11,SSRXP1*%
%TO.N,N_DATA*%
X231316178Y-152112400D03*
%TO.P,J1,B12,GND*%
%TO.N,GND*%
X231966178Y-152812400D03*
D11*
%TO.P,J1,SH1,SHIELD*%
X233416178Y-148012400D03*
D12*
%TO.P,J1,SH2,SHIELD*%
X232966178Y-153212400D03*
D11*
%TO.P,J1,SH3,SHIELD*%
X233416178Y-153762400D03*
%TO.P,J1,SH4,SHIELD*%
X224416178Y-148012400D03*
D12*
%TO.P,J1,SH5,SHIELD*%
X224866178Y-153212400D03*
D11*
%TO.P,J1,SH6,SHIELD*%
X224416178Y-153762400D03*
%TD*%
D13*
%TO.N,GND*%
X221742000Y-158445200D03*
X226618800Y-157073600D03*
%TO.N,N_LATCH*%
X228142800Y-149504400D03*
D14*
%TO.N,+5V_PRE*%
X227685600Y-157327600D03*
%TO.N,N_CLOCK*%
X231599102Y-155449984D03*
D15*
%TO.N,+3.3V_PRE*%
X232460800Y-155092400D03*
%TO.N,+5V_PRE*%
X232811415Y-156107776D03*
D14*
%TO.N,D+*%
X229463600Y-155752800D03*
%TO.N,CC1*%
X235211839Y-158136958D03*
X233788651Y-156056353D03*
%TO.N,D-*%
X229472830Y-156616400D03*
%TO.N,+3.3V_PRE*%
X226161600Y-156159200D03*
D13*
%TO.N,N_DATA*%
X228904800Y-148691600D03*
%TO.N,N_CLOCK*%
X225856800Y-147828000D03*
D14*
%TO.N,CC2*%
X223316800Y-158445200D03*
D16*
%TO.N,N_CLOCK*%
X221691200Y-148862400D03*
%TO.N,+5V_PRE*%
X236141200Y-156362400D03*
%TO.N,D-*%
X236141200Y-153862400D03*
%TO.N,D+*%
X236141200Y-151362400D03*
%TO.N,GND*%
X236141200Y-148862400D03*
%TO.N,+3.3V_PRE*%
X221691200Y-156362400D03*
%TO.N,N_LATCH*%
X221691200Y-153862400D03*
%TO.N,N_DATA*%
X221691200Y-151362400D03*
%TD*%
D17*
%TO.N,+5V_PRE*%
X234340400Y-158750000D02*
X234543600Y-158750000D01*
X232811415Y-157221015D02*
X234340400Y-158750000D01*
X232811415Y-156107776D02*
X232811415Y-157221015D01*
%TO.N,+3.3V_PRE*%
X229006400Y-157632400D02*
X227533200Y-156159200D01*
X232460800Y-155498800D02*
X230327200Y-157632400D01*
X230327200Y-157632400D02*
X229006400Y-157632400D01*
X232460800Y-155092400D02*
X232460800Y-155498800D01*
X227533200Y-156159200D02*
X226161600Y-156159200D01*
%TO.N,N_DATA*%
X222838000Y-150215600D02*
X221691200Y-151362400D01*
X226872800Y-148691600D02*
X225348800Y-150215600D01*
X228904800Y-148691600D02*
X226872800Y-148691600D01*
X225348800Y-150215600D02*
X222838000Y-150215600D01*
%TO.N,N_LATCH*%
X226720400Y-149504400D02*
X228142800Y-149504400D01*
X224078800Y-150774400D02*
X225450400Y-150774400D01*
X225450400Y-150774400D02*
X226720400Y-149504400D01*
X221691200Y-153517600D02*
X223062800Y-152146000D01*
X221691200Y-153862400D02*
X221691200Y-153517600D01*
X223062800Y-152146000D02*
X223062800Y-151790400D01*
X223062800Y-151790400D02*
X224078800Y-150774400D01*
%TO.N,CC1*%
X233788651Y-156056353D02*
X233788651Y-156713770D01*
X233788651Y-156713770D02*
X235211839Y-158136958D01*
%TO.N,N_CLOCK*%
X227076000Y-155092400D02*
X227076000Y-154736800D01*
X229200000Y-157216400D02*
X227076000Y-155092400D01*
X229778000Y-157216400D02*
X229200000Y-157216400D01*
X231544416Y-155449984D02*
X229778000Y-157216400D01*
X231599102Y-155449984D02*
X231544416Y-155449984D01*
X227076000Y-152352578D02*
X227076000Y-154736800D01*
%TO.N,+5V_PRE*%
X227685600Y-157429200D02*
X229006400Y-158750000D01*
X229006400Y-158750000D02*
X234543600Y-158750000D01*
X227685600Y-157327600D02*
X227685600Y-157429200D01*
X234543600Y-158750000D02*
X235458000Y-158750000D01*
%TO.N,D-*%
X229171769Y-154382855D02*
X229171769Y-152956809D01*
X229171769Y-152956809D02*
X229316178Y-152812400D01*
X230202904Y-155413990D02*
X229171769Y-154382855D01*
X230202904Y-155886326D02*
X230202904Y-155413990D01*
X229472830Y-156616400D02*
X230202904Y-155886326D01*
D18*
%TO.N,N_DATA*%
X221916000Y-151362400D02*
X221691200Y-151362400D01*
%TO.N,N_CLOCK*%
X222725600Y-148862400D02*
X221691200Y-148862400D01*
X223520000Y-149656800D02*
X222725600Y-148862400D01*
X225856800Y-148844000D02*
X225044000Y-149656800D01*
X225044000Y-149656800D02*
X223520000Y-149656800D01*
X225856800Y-147828000D02*
X225856800Y-148844000D01*
D17*
%TO.N,+5V_PRE*%
X235458000Y-158750000D02*
X236141200Y-158066800D01*
X236141200Y-158066800D02*
X236141200Y-156362400D01*
%TO.N,D+*%
X228667491Y-154550291D02*
X228667491Y-152963713D01*
X228667491Y-152963713D02*
X228516178Y-152812400D01*
X229463600Y-155346400D02*
X228667491Y-154550291D01*
X229463600Y-155752800D02*
X229463600Y-155346400D01*
%TO.N,+3.3V_PRE*%
X226161600Y-156157156D02*
X226161600Y-156159200D01*
X226516178Y-155802578D02*
X226161600Y-156157156D01*
%TO.N,CC2*%
X227939600Y-151333200D02*
X224434400Y-151333200D01*
X223520000Y-158242000D02*
X223316800Y-158445200D01*
X228116178Y-151509778D02*
X227939600Y-151333200D01*
X224434400Y-151333200D02*
X223520000Y-152247600D01*
X228116178Y-152112400D02*
X228116178Y-151509778D01*
X223520000Y-152247600D02*
X223520000Y-158242000D01*
%TO.N,N_CLOCK*%
X227316178Y-152112400D02*
X227076000Y-152352578D01*
%TO.N,+3.3V_PRE*%
X226516178Y-152112400D02*
X226516178Y-155802578D01*
%TD*%
%TA.AperFunction,Conductor*%
%TO.N,GND*%
G36*
X221065248Y-147557808D02*
G01*
X221114171Y-147607691D01*
X221128360Y-147676104D01*
X221103310Y-147741329D01*
X221066776Y-147773441D01*
X221063568Y-147775293D01*
X220884321Y-147900802D01*
X220729602Y-148055521D01*
X220604100Y-148234757D01*
X220604098Y-148234761D01*
X220511626Y-148433068D01*
X220511622Y-148433077D01*
X220454993Y-148644420D01*
X220454993Y-148644423D01*
X220450866Y-148691599D01*
X220435923Y-148862397D01*
X220435923Y-148862402D01*
X220454993Y-149080375D01*
X220454993Y-149080379D01*
X220511622Y-149291722D01*
X220511624Y-149291726D01*
X220511625Y-149291730D01*
X220545986Y-149365418D01*
X220604097Y-149490038D01*
X220629198Y-149525886D01*
X220729602Y-149669277D01*
X220884323Y-149823998D01*
X221030571Y-149926402D01*
X221063561Y-149949502D01*
X221171893Y-150000018D01*
X221224332Y-150046190D01*
X221243484Y-150113384D01*
X221223268Y-150180265D01*
X221171893Y-150224782D01*
X221063562Y-150275298D01*
X221063557Y-150275300D01*
X220884321Y-150400802D01*
X220729602Y-150555521D01*
X220604100Y-150734757D01*
X220604098Y-150734761D01*
X220511626Y-150933068D01*
X220511622Y-150933077D01*
X220454993Y-151144420D01*
X220454993Y-151144424D01*
X220435923Y-151362397D01*
X220435923Y-151362402D01*
X220454993Y-151580375D01*
X220454993Y-151580379D01*
X220511622Y-151791722D01*
X220511624Y-151791726D01*
X220511625Y-151791730D01*
X220531698Y-151834777D01*
X220604097Y-151990038D01*
X220621775Y-152015284D01*
X220729602Y-152169277D01*
X220884323Y-152323998D01*
X221063561Y-152449502D01*
X221167033Y-152497752D01*
X221171893Y-152500018D01*
X221224332Y-152546190D01*
X221243484Y-152613384D01*
X221223268Y-152680265D01*
X221171893Y-152724782D01*
X221063562Y-152775298D01*
X221063557Y-152775300D01*
X220884321Y-152900802D01*
X220729602Y-153055521D01*
X220604100Y-153234757D01*
X220604098Y-153234761D01*
X220511626Y-153433068D01*
X220511622Y-153433077D01*
X220454993Y-153644420D01*
X220454993Y-153644424D01*
X220437365Y-153845921D01*
X220435923Y-153862400D01*
X220454897Y-154079284D01*
X220454993Y-154080375D01*
X220454993Y-154080379D01*
X220511622Y-154291722D01*
X220511624Y-154291726D01*
X220511625Y-154291730D01*
X220521597Y-154313115D01*
X220604097Y-154490038D01*
X220617152Y-154508682D01*
X220729602Y-154669277D01*
X220884323Y-154823998D01*
X221043761Y-154935638D01*
X221063561Y-154949502D01*
X221171893Y-155000018D01*
X221224332Y-155046190D01*
X221243484Y-155113384D01*
X221223268Y-155180265D01*
X221171893Y-155224782D01*
X221063562Y-155275298D01*
X221063557Y-155275300D01*
X220884321Y-155400802D01*
X220729602Y-155555521D01*
X220604100Y-155734757D01*
X220604098Y-155734761D01*
X220569620Y-155808700D01*
X220512927Y-155930279D01*
X220511626Y-155933068D01*
X220511622Y-155933077D01*
X220454993Y-156144420D01*
X220454993Y-156144424D01*
X220436484Y-156355992D01*
X220435923Y-156362400D01*
X220453080Y-156558515D01*
X220454993Y-156580375D01*
X220454993Y-156580379D01*
X220511622Y-156791722D01*
X220511624Y-156791726D01*
X220511625Y-156791730D01*
X220522552Y-156815163D01*
X220604097Y-156990038D01*
X220604098Y-156990039D01*
X220729602Y-157169277D01*
X220884323Y-157323998D01*
X221063561Y-157449502D01*
X221261870Y-157541975D01*
X221473223Y-157598607D01*
X221656126Y-157614608D01*
X221691198Y-157617677D01*
X221691200Y-157617677D01*
X221691202Y-157617677D01*
X221719454Y-157615205D01*
X221909177Y-157598607D01*
X222120530Y-157541975D01*
X222318839Y-157449502D01*
X222498077Y-157323998D01*
X222652798Y-157169277D01*
X222778302Y-156990039D01*
X222870775Y-156791730D01*
X222925725Y-156586651D01*
X222962090Y-156526992D01*
X223024937Y-156496463D01*
X223094312Y-156504758D01*
X223148190Y-156549243D01*
X223169465Y-156615795D01*
X223169500Y-156618746D01*
X223169500Y-157827502D01*
X223149815Y-157894541D01*
X223097011Y-157940296D01*
X223092954Y-157942063D01*
X223039175Y-157964339D01*
X222924179Y-158052579D01*
X222835937Y-158167577D01*
X222780471Y-158301487D01*
X222780470Y-158301491D01*
X222761550Y-158445199D01*
X222761550Y-158445200D01*
X222780470Y-158588908D01*
X222780471Y-158588912D01*
X222835937Y-158722822D01*
X222835938Y-158722824D01*
X222835939Y-158722825D01*
X222924179Y-158837821D01*
X222924180Y-158837822D01*
X222960465Y-158865664D01*
X223001668Y-158922092D01*
X223005823Y-158991838D01*
X222971611Y-159052758D01*
X222909893Y-159085511D01*
X222884979Y-159088040D01*
X217917729Y-159088040D01*
X217914686Y-159087965D01*
X217541923Y-159069652D01*
X217535865Y-159069056D01*
X217168209Y-159014519D01*
X217162239Y-159013332D01*
X216801704Y-158923023D01*
X216795878Y-158921256D01*
X216445919Y-158796039D01*
X216440294Y-158793709D01*
X216104307Y-158634800D01*
X216098938Y-158631931D01*
X215780138Y-158440852D01*
X215775075Y-158437469D01*
X215476535Y-158216057D01*
X215471829Y-158212195D01*
X215429417Y-158173755D01*
X215196430Y-157962590D01*
X215192135Y-157958295D01*
X214942515Y-157682886D01*
X214938670Y-157678200D01*
X214717247Y-157379649D01*
X214713875Y-157374602D01*
X214613012Y-157206326D01*
X214522781Y-157055787D01*
X214519920Y-157050433D01*
X214360998Y-156714426D01*
X214358677Y-156708823D01*
X214324176Y-156612400D01*
X216052878Y-156612400D01*
X216072677Y-156813431D01*
X216131318Y-157006745D01*
X216226538Y-157184888D01*
X216226543Y-157184895D01*
X216354692Y-157341047D01*
X216401715Y-157379637D01*
X216510846Y-157469198D01*
X216510849Y-157469199D01*
X216510851Y-157469201D01*
X216688994Y-157564421D01*
X216688996Y-157564421D01*
X216688999Y-157564423D01*
X216882307Y-157623062D01*
X217083340Y-157642862D01*
X217284373Y-157623062D01*
X217477681Y-157564423D01*
X217519675Y-157541977D01*
X217608198Y-157494660D01*
X217655834Y-157469198D01*
X217811987Y-157341047D01*
X217940138Y-157184894D01*
X218035363Y-157006741D01*
X218094002Y-156813433D01*
X218113802Y-156612400D01*
X218094002Y-156411367D01*
X218035363Y-156218059D01*
X218035361Y-156218056D01*
X218035361Y-156218054D01*
X217940141Y-156039911D01*
X217940139Y-156039909D01*
X217940138Y-156039906D01*
X217862723Y-155945575D01*
X217811987Y-155883752D01*
X217669865Y-155767117D01*
X217655834Y-155755602D01*
X217655832Y-155755601D01*
X217655828Y-155755598D01*
X217477685Y-155660378D01*
X217284371Y-155601737D01*
X217083340Y-155581938D01*
X216882308Y-155601737D01*
X216688994Y-155660378D01*
X216510851Y-155755598D01*
X216510844Y-155755603D01*
X216354692Y-155883752D01*
X216226543Y-156039904D01*
X216226538Y-156039911D01*
X216131318Y-156218054D01*
X216072677Y-156411368D01*
X216052878Y-156612400D01*
X214324176Y-156612400D01*
X214233453Y-156358853D01*
X214231690Y-156353042D01*
X214231686Y-156353028D01*
X214141373Y-155992490D01*
X214140186Y-155986524D01*
X214140185Y-155986519D01*
X214113807Y-155808700D01*
X214085648Y-155618872D01*
X214085051Y-155612814D01*
X214066775Y-155240863D01*
X214066700Y-155237820D01*
X214066700Y-152612401D01*
X215853158Y-152612401D01*
X215871847Y-152826013D01*
X215871849Y-152826024D01*
X215927345Y-153033139D01*
X215927347Y-153033143D01*
X215927348Y-153033147D01*
X215945601Y-153072290D01*
X216017971Y-153227490D01*
X216102864Y-153348729D01*
X216140967Y-153403145D01*
X216292595Y-153554773D01*
X216468249Y-153677768D01*
X216662593Y-153768392D01*
X216869721Y-153823892D01*
X217022305Y-153837241D01*
X217083338Y-153842581D01*
X217083340Y-153842581D01*
X217083342Y-153842581D01*
X217136744Y-153837908D01*
X217296959Y-153823892D01*
X217504087Y-153768392D01*
X217698431Y-153677768D01*
X217874085Y-153554773D01*
X218025713Y-153403145D01*
X218148708Y-153227491D01*
X218239332Y-153033147D01*
X218294832Y-152826019D01*
X218313521Y-152612400D01*
X218311846Y-152593259D01*
X218306748Y-152534982D01*
X218294832Y-152398781D01*
X218239332Y-152191653D01*
X218148708Y-151997310D01*
X218147331Y-151995344D01*
X218025716Y-151821659D01*
X218025711Y-151821653D01*
X217874085Y-151670027D01*
X217698430Y-151547031D01*
X217571877Y-151488019D01*
X217504087Y-151456408D01*
X217504083Y-151456407D01*
X217504079Y-151456405D01*
X217296964Y-151400909D01*
X217296960Y-151400908D01*
X217296959Y-151400908D01*
X217296958Y-151400907D01*
X217296953Y-151400907D01*
X217083342Y-151382219D01*
X217083338Y-151382219D01*
X216869726Y-151400907D01*
X216869715Y-151400909D01*
X216662600Y-151456405D01*
X216662591Y-151456409D01*
X216468250Y-151547031D01*
X216468248Y-151547032D01*
X216292599Y-151670023D01*
X216292593Y-151670028D01*
X216140968Y-151821653D01*
X216140963Y-151821659D01*
X216017972Y-151997308D01*
X216017971Y-151997310D01*
X215927349Y-152191651D01*
X215927345Y-152191660D01*
X215871849Y-152398775D01*
X215871847Y-152398786D01*
X215853158Y-152612398D01*
X215853158Y-152612401D01*
X214066700Y-152612401D01*
X214066700Y-148467755D01*
X214086385Y-148400716D01*
X214139189Y-148354961D01*
X214168770Y-148345710D01*
X214226768Y-148335288D01*
X214368294Y-148310209D01*
X214510022Y-148285454D01*
X214651906Y-148261032D01*
X214793175Y-148237076D01*
X214934537Y-148213467D01*
X215076364Y-148190148D01*
X215218091Y-148167212D01*
X215259393Y-148160636D01*
X215359609Y-148144680D01*
X215501512Y-148122457D01*
X215643302Y-148100623D01*
X215669314Y-148096686D01*
X215785409Y-148079115D01*
X215927668Y-148057958D01*
X216069595Y-148037226D01*
X216212325Y-148016754D01*
X216233659Y-148013755D01*
X216375563Y-147993807D01*
X216537767Y-147971509D01*
X216699690Y-147949750D01*
X216861401Y-147928515D01*
X217023031Y-147907788D01*
X217184000Y-147887638D01*
X217345116Y-147867960D01*
X217505855Y-147848813D01*
X217666461Y-147830164D01*
X217826961Y-147812007D01*
X217987504Y-147794318D01*
X218148060Y-147777097D01*
X218308272Y-147760376D01*
X218469331Y-147744028D01*
X218629920Y-147728183D01*
X218790985Y-147712739D01*
X218952012Y-147697742D01*
X219113481Y-147683141D01*
X219275505Y-147668922D01*
X219437536Y-147655128D01*
X219514914Y-147648739D01*
X219599838Y-147641727D01*
X219762538Y-147628704D01*
X219926190Y-147616010D01*
X220090253Y-147603681D01*
X220255007Y-147591691D01*
X220420056Y-147580062D01*
X220585867Y-147568753D01*
X220752057Y-147557785D01*
X220794488Y-147555075D01*
X220919605Y-147547084D01*
X220997124Y-147542295D01*
X221065248Y-147557808D01*
G37*
%TD.AperFunction*%
%TA.AperFunction,Conductor*%
G36*
X225384911Y-153381594D02*
G01*
X225405571Y-153398240D01*
X225691307Y-153683976D01*
X225695121Y-153676841D01*
X225744083Y-153626997D01*
X225812221Y-153611536D01*
X225818366Y-153612074D01*
X225866178Y-153617462D01*
X225866180Y-153617462D01*
X226027794Y-153599252D01*
X226096616Y-153611306D01*
X226147995Y-153658655D01*
X226165678Y-153722472D01*
X226165678Y-155494668D01*
X226145993Y-155561707D01*
X226093189Y-155607462D01*
X226057865Y-155617607D01*
X226017891Y-155622870D01*
X226017887Y-155622871D01*
X225883977Y-155678337D01*
X225768979Y-155766579D01*
X225680737Y-155881577D01*
X225625271Y-156015487D01*
X225625270Y-156015491D01*
X225606350Y-156159200D01*
X225624630Y-156298051D01*
X225625270Y-156302908D01*
X225625271Y-156302912D01*
X225680737Y-156436822D01*
X225680738Y-156436824D01*
X225680739Y-156436825D01*
X225768979Y-156551821D01*
X225883975Y-156640061D01*
X226017891Y-156695530D01*
X226144880Y-156712248D01*
X226161599Y-156714450D01*
X226161600Y-156714450D01*
X226161601Y-156714450D01*
X226176577Y-156712478D01*
X226305309Y-156695530D01*
X226439225Y-156640061D01*
X226554221Y-156551821D01*
X226554223Y-156551817D01*
X226554227Y-156551815D01*
X226559972Y-156546071D01*
X226562488Y-156548587D01*
X226605783Y-156516997D01*
X226647692Y-156509700D01*
X227336656Y-156509700D01*
X227403695Y-156529385D01*
X227424337Y-156546019D01*
X227500962Y-156622644D01*
X227534447Y-156683967D01*
X227529463Y-156753659D01*
X227487591Y-156809592D01*
X227460733Y-156824886D01*
X227407977Y-156846737D01*
X227292979Y-156934979D01*
X227204737Y-157049977D01*
X227149271Y-157183887D01*
X227149270Y-157183891D01*
X227131034Y-157322408D01*
X227130350Y-157327600D01*
X227148992Y-157469201D01*
X227149270Y-157471308D01*
X227149271Y-157471312D01*
X227204737Y-157605222D01*
X227204738Y-157605224D01*
X227204739Y-157605225D01*
X227292979Y-157720221D01*
X227407975Y-157808461D01*
X227541891Y-157863930D01*
X227595462Y-157870982D01*
X227659358Y-157899248D01*
X227666958Y-157906240D01*
X228637077Y-158876359D01*
X228670562Y-158937682D01*
X228665578Y-159007374D01*
X228623706Y-159063307D01*
X228558242Y-159087724D01*
X228549396Y-159088040D01*
X223748621Y-159088040D01*
X223681582Y-159068355D01*
X223635827Y-159015551D01*
X223625883Y-158946393D01*
X223654908Y-158882837D01*
X223673135Y-158865664D01*
X223709421Y-158837821D01*
X223797661Y-158722825D01*
X223853130Y-158588909D01*
X223872050Y-158445200D01*
X223861652Y-158366224D01*
X223867310Y-158309778D01*
X223870500Y-158300488D01*
X223870500Y-158300479D01*
X223871706Y-158293256D01*
X223872617Y-158285952D01*
X223870500Y-158234770D01*
X223870500Y-155307499D01*
X223890185Y-155240460D01*
X223942989Y-155194705D01*
X224012147Y-155184761D01*
X224049110Y-155196172D01*
X224067083Y-155204988D01*
X224166178Y-155230644D01*
X224166178Y-154523404D01*
X224185863Y-154456365D01*
X224238667Y-154410610D01*
X224307825Y-154400666D01*
X224322260Y-154403626D01*
X224356869Y-154412900D01*
X224356872Y-154412900D01*
X224475483Y-154412900D01*
X224475487Y-154412900D01*
X224510086Y-154403629D01*
X224579932Y-154405292D01*
X224637795Y-154444454D01*
X224665300Y-154508682D01*
X224666177Y-154523404D01*
X224666177Y-155235766D01*
X224668122Y-155235469D01*
X224668123Y-155235469D01*
X224858838Y-155164836D01*
X224858842Y-155164834D01*
X225031445Y-155057250D01*
X225178846Y-154917135D01*
X225178847Y-154917133D01*
X225295034Y-154750204D01*
X225375237Y-154563307D01*
X225416178Y-154364090D01*
X225416178Y-154062471D01*
X225347665Y-154034092D01*
X225307437Y-154007212D01*
X225049578Y-153749353D01*
X225016093Y-153688030D01*
X225021077Y-153618338D01*
X225062949Y-153562405D01*
X225070198Y-153557371D01*
X225131154Y-153518203D01*
X225206579Y-153431164D01*
X225206580Y-153431160D01*
X225211376Y-153423700D01*
X225213305Y-153424940D01*
X225250832Y-153381618D01*
X225317868Y-153361921D01*
X225384911Y-153381594D01*
G37*
%TD.AperFunction*%
%TA.AperFunction,Conductor*%
G36*
X229032357Y-147347646D02*
G01*
X229147248Y-147347710D01*
X229262849Y-147347821D01*
X229379689Y-147347981D01*
X229493339Y-147348185D01*
X229611852Y-147348448D01*
X229727092Y-147348759D01*
X229843600Y-147349125D01*
X229958367Y-147349543D01*
X230076396Y-147350031D01*
X230190935Y-147350562D01*
X230308114Y-147351169D01*
X230422957Y-147351826D01*
X230538538Y-147352550D01*
X230538538Y-147352551D01*
X230655951Y-147353354D01*
X230770848Y-147354209D01*
X230886750Y-147355140D01*
X231004350Y-147356158D01*
X231119336Y-147357227D01*
X231236793Y-147358395D01*
X231351637Y-147359613D01*
X231467089Y-147360915D01*
X231467090Y-147360916D01*
X231584534Y-147362324D01*
X231699593Y-147363785D01*
X231814929Y-147365333D01*
X231931000Y-147366978D01*
X232047224Y-147368713D01*
X232162787Y-147370529D01*
X232278560Y-147372438D01*
X232294324Y-147372711D01*
X232361013Y-147393553D01*
X232405847Y-147447140D01*
X232416178Y-147496692D01*
X232416178Y-147762400D01*
X233116178Y-147762400D01*
X233116178Y-148262400D01*
X232416178Y-148262400D01*
X232416178Y-148563113D01*
X232431596Y-148714738D01*
X232492477Y-148908781D01*
X232492482Y-148908791D01*
X232591183Y-149086615D01*
X232591183Y-149086616D01*
X232723656Y-149240930D01*
X232723657Y-149240931D01*
X232884482Y-149365418D01*
X233067085Y-149454989D01*
X233166177Y-149480644D01*
X233166177Y-148628510D01*
X233190635Y-148668010D01*
X233280140Y-148735601D01*
X233388018Y-148766295D01*
X233499699Y-148755946D01*
X233600100Y-148705952D01*
X233666178Y-148633469D01*
X233666178Y-149485765D01*
X233668122Y-149485469D01*
X233668123Y-149485469D01*
X233858838Y-149414836D01*
X233858842Y-149414834D01*
X234031445Y-149307250D01*
X234178846Y-149167135D01*
X234178847Y-149167133D01*
X234295034Y-149000204D01*
X234375237Y-148813307D01*
X234416178Y-148614090D01*
X234416178Y-148262400D01*
X233716178Y-148262400D01*
X233716178Y-147762400D01*
X234416178Y-147762400D01*
X234416178Y-147555075D01*
X234435863Y-147488036D01*
X234488667Y-147442281D01*
X234544682Y-147431157D01*
X234636946Y-147434510D01*
X234754828Y-147438933D01*
X234873352Y-147443523D01*
X234991379Y-147448239D01*
X235109785Y-147453116D01*
X235228016Y-147458135D01*
X235345708Y-147463283D01*
X235463848Y-147468604D01*
X235581860Y-147474073D01*
X235699391Y-147479678D01*
X235817186Y-147485454D01*
X235935583Y-147491422D01*
X236052944Y-147497503D01*
X236170355Y-147503750D01*
X236288399Y-147510201D01*
X236406546Y-147516829D01*
X236575773Y-147526607D01*
X236744852Y-147536709D01*
X236744853Y-147536710D01*
X236912759Y-147547082D01*
X237080371Y-147557787D01*
X237246534Y-147568754D01*
X237412287Y-147580058D01*
X237577366Y-147591690D01*
X237742120Y-147603679D01*
X237906208Y-147616010D01*
X238069885Y-147628706D01*
X238232559Y-147641727D01*
X238317485Y-147648739D01*
X238394865Y-147655128D01*
X238556893Y-147668922D01*
X238718914Y-147683141D01*
X238880420Y-147697745D01*
X239041414Y-147712739D01*
X239202475Y-147728183D01*
X239202506Y-147728186D01*
X239363096Y-147744031D01*
X239524122Y-147760376D01*
X239684649Y-147777129D01*
X239844893Y-147794318D01*
X240005432Y-147812006D01*
X240165937Y-147830164D01*
X240326543Y-147848813D01*
X240487282Y-147867960D01*
X240648398Y-147887638D01*
X240809659Y-147907825D01*
X240971002Y-147928515D01*
X241132708Y-147949750D01*
X241294631Y-147971509D01*
X241456843Y-147993809D01*
X241620029Y-148016747D01*
X241762797Y-148037225D01*
X241904679Y-148057951D01*
X242046996Y-148079116D01*
X242189096Y-148100623D01*
X242330885Y-148122457D01*
X242472796Y-148144681D01*
X242614246Y-148167202D01*
X242756089Y-148190157D01*
X242897796Y-148213456D01*
X243039288Y-148237087D01*
X243180492Y-148261032D01*
X243322376Y-148285454D01*
X243464104Y-148310209D01*
X243605630Y-148335288D01*
X243614959Y-148336964D01*
X243663631Y-148345710D01*
X243726131Y-148376940D01*
X243761826Y-148437003D01*
X243765700Y-148467755D01*
X243765700Y-155237006D01*
X243765625Y-155240050D01*
X243747308Y-155612810D01*
X243746711Y-155618869D01*
X243692172Y-155986519D01*
X243690984Y-155992490D01*
X243600672Y-156353028D01*
X243598905Y-156358854D01*
X243473690Y-156708796D01*
X243471360Y-156714421D01*
X243312446Y-157050410D01*
X243309579Y-157055774D01*
X243304578Y-157064118D01*
X243118494Y-157374575D01*
X243115112Y-157379637D01*
X242893707Y-157678164D01*
X242889845Y-157682870D01*
X242640241Y-157958262D01*
X242635936Y-157962567D01*
X242360541Y-158212168D01*
X242355835Y-158216030D01*
X242057306Y-158437432D01*
X242052244Y-158440815D01*
X241733442Y-158631896D01*
X241728073Y-158634765D01*
X241392090Y-158793672D01*
X241386465Y-158796002D01*
X241036509Y-158921218D01*
X241030683Y-158922985D01*
X240670152Y-159013293D01*
X240664181Y-159014480D01*
X240296530Y-159069016D01*
X240290472Y-159069612D01*
X239945845Y-159086543D01*
X239916909Y-159087965D01*
X239913872Y-159088040D01*
X235915003Y-159088040D01*
X235847964Y-159068355D01*
X235802209Y-159015551D01*
X235792265Y-158946393D01*
X235821290Y-158882837D01*
X235827322Y-158876359D01*
X236071785Y-158631896D01*
X236354246Y-158349434D01*
X236374102Y-158333311D01*
X236381869Y-158328237D01*
X236402073Y-158302277D01*
X236407141Y-158296539D01*
X236409576Y-158294106D01*
X236415396Y-158285954D01*
X236422248Y-158276358D01*
X236453713Y-158235931D01*
X236453712Y-158235931D01*
X236453717Y-158235926D01*
X236453719Y-158235919D01*
X236457182Y-158229518D01*
X236457221Y-158229440D01*
X236457263Y-158229361D01*
X236460435Y-158222872D01*
X236460440Y-158222866D01*
X236470874Y-158187819D01*
X236475061Y-158173755D01*
X236479409Y-158161086D01*
X236491700Y-158125288D01*
X236491700Y-158125279D01*
X236492906Y-158118058D01*
X236493817Y-158110751D01*
X236491700Y-158059558D01*
X236491700Y-157657492D01*
X236511385Y-157590453D01*
X236564189Y-157544698D01*
X236568305Y-157543011D01*
X236570522Y-157541977D01*
X236570530Y-157541975D01*
X236768839Y-157449502D01*
X236948077Y-157323998D01*
X237102798Y-157169277D01*
X237228302Y-156990039D01*
X237320775Y-156791730D01*
X237368826Y-156612400D01*
X239718598Y-156612400D01*
X239738397Y-156813431D01*
X239797038Y-157006745D01*
X239892258Y-157184888D01*
X239892263Y-157184895D01*
X240020412Y-157341047D01*
X240067435Y-157379637D01*
X240176566Y-157469198D01*
X240176569Y-157469199D01*
X240176571Y-157469201D01*
X240354714Y-157564421D01*
X240354716Y-157564421D01*
X240354719Y-157564423D01*
X240548027Y-157623062D01*
X240749060Y-157642862D01*
X240950093Y-157623062D01*
X241143401Y-157564423D01*
X241185395Y-157541977D01*
X241273918Y-157494660D01*
X241321554Y-157469198D01*
X241477707Y-157341047D01*
X241605858Y-157184894D01*
X241701083Y-157006741D01*
X241759722Y-156813433D01*
X241779522Y-156612400D01*
X241759722Y-156411367D01*
X241701083Y-156218059D01*
X241701081Y-156218056D01*
X241701081Y-156218054D01*
X241605861Y-156039911D01*
X241605859Y-156039909D01*
X241605858Y-156039906D01*
X241528443Y-155945575D01*
X241477707Y-155883752D01*
X241335585Y-155767117D01*
X241321554Y-155755602D01*
X241321552Y-155755601D01*
X241321548Y-155755598D01*
X241143405Y-155660378D01*
X240950091Y-155601737D01*
X240749060Y-155581938D01*
X240548028Y-155601737D01*
X240354714Y-155660378D01*
X240176571Y-155755598D01*
X240176564Y-155755603D01*
X240020412Y-155883752D01*
X239892263Y-156039904D01*
X239892258Y-156039911D01*
X239797038Y-156218054D01*
X239738397Y-156411368D01*
X239718598Y-156612400D01*
X237368826Y-156612400D01*
X237377407Y-156580377D01*
X237396477Y-156362400D01*
X237395916Y-156355992D01*
X237385161Y-156233055D01*
X237377407Y-156144423D01*
X237320775Y-155933070D01*
X237228302Y-155734762D01*
X237228300Y-155734759D01*
X237228299Y-155734757D01*
X237102799Y-155555524D01*
X237032643Y-155485368D01*
X236948077Y-155400802D01*
X236768839Y-155275298D01*
X236713536Y-155249510D01*
X236660507Y-155224782D01*
X236608067Y-155178610D01*
X236588915Y-155111416D01*
X236609131Y-155044535D01*
X236660507Y-155000018D01*
X236768839Y-154949502D01*
X236948077Y-154823998D01*
X237102798Y-154669277D01*
X237228302Y-154490039D01*
X237320775Y-154291730D01*
X237377407Y-154080377D01*
X237396477Y-153862400D01*
X237377407Y-153644423D01*
X237320775Y-153433070D01*
X237228302Y-153234762D01*
X237228300Y-153234759D01*
X237228299Y-153234757D01*
X237102799Y-153055524D01*
X237026966Y-152979691D01*
X236948077Y-152900802D01*
X236768839Y-152775298D01*
X236748929Y-152766014D01*
X236660507Y-152724782D01*
X236608067Y-152678610D01*
X236589196Y-152612401D01*
X239518878Y-152612401D01*
X239537567Y-152826013D01*
X239537569Y-152826024D01*
X239593065Y-153033139D01*
X239593067Y-153033143D01*
X239593068Y-153033147D01*
X239611321Y-153072290D01*
X239683691Y-153227490D01*
X239768584Y-153348729D01*
X239806687Y-153403145D01*
X239958315Y-153554773D01*
X240133969Y-153677768D01*
X240328313Y-153768392D01*
X240535441Y-153823892D01*
X240688026Y-153837241D01*
X240749058Y-153842581D01*
X240749060Y-153842581D01*
X240749062Y-153842581D01*
X240802464Y-153837908D01*
X240962679Y-153823892D01*
X241169807Y-153768392D01*
X241364151Y-153677768D01*
X241539805Y-153554773D01*
X241691433Y-153403145D01*
X241814428Y-153227491D01*
X241905052Y-153033147D01*
X241960552Y-152826019D01*
X241979241Y-152612400D01*
X241977566Y-152593259D01*
X241972468Y-152534982D01*
X241960552Y-152398781D01*
X241905052Y-152191653D01*
X241814428Y-151997310D01*
X241813051Y-151995344D01*
X241691436Y-151821659D01*
X241691431Y-151821653D01*
X241539805Y-151670027D01*
X241364150Y-151547031D01*
X241237597Y-151488019D01*
X241169807Y-151456408D01*
X241169803Y-151456407D01*
X241169799Y-151456405D01*
X240962684Y-151400909D01*
X240962680Y-151400908D01*
X240962679Y-151400908D01*
X240962678Y-151400907D01*
X240962673Y-151400907D01*
X240749062Y-151382219D01*
X240749058Y-151382219D01*
X240535446Y-151400907D01*
X240535435Y-151400909D01*
X240328320Y-151456405D01*
X240328311Y-151456409D01*
X240133970Y-151547031D01*
X240133968Y-151547032D01*
X239958319Y-151670023D01*
X239958313Y-151670028D01*
X239806688Y-151821653D01*
X239806683Y-151821659D01*
X239683692Y-151997308D01*
X239683691Y-151997310D01*
X239593069Y-152191651D01*
X239593065Y-152191660D01*
X239537569Y-152398775D01*
X239537567Y-152398786D01*
X239518878Y-152612398D01*
X239518878Y-152612401D01*
X236589196Y-152612401D01*
X236588915Y-152611416D01*
X236609131Y-152544535D01*
X236660507Y-152500018D01*
X236768839Y-152449502D01*
X236948077Y-152323998D01*
X237102798Y-152169277D01*
X237228302Y-151990039D01*
X237320775Y-151791730D01*
X237377407Y-151580377D01*
X237396477Y-151362400D01*
X237377407Y-151144423D01*
X237342449Y-151013960D01*
X237320777Y-150933077D01*
X237320776Y-150933076D01*
X237320775Y-150933070D01*
X237228302Y-150734762D01*
X237228300Y-150734759D01*
X237228299Y-150734757D01*
X237102799Y-150555524D01*
X237102796Y-150555521D01*
X236948077Y-150400802D01*
X236768839Y-150275298D01*
X236768840Y-150275298D01*
X236768838Y-150275297D01*
X236660507Y-150224782D01*
X236570530Y-150182825D01*
X236570526Y-150182824D01*
X236570522Y-150182822D01*
X236359177Y-150126193D01*
X236141202Y-150107123D01*
X236141198Y-150107123D01*
X236027205Y-150117096D01*
X235923223Y-150126193D01*
X235923220Y-150126193D01*
X235711877Y-150182822D01*
X235711868Y-150182826D01*
X235513561Y-150275298D01*
X235513557Y-150275300D01*
X235334321Y-150400802D01*
X235179602Y-150555521D01*
X235054100Y-150734757D01*
X235054098Y-150734761D01*
X234961626Y-150933068D01*
X234961622Y-150933077D01*
X234904993Y-151144420D01*
X234904993Y-151144424D01*
X234885923Y-151362397D01*
X234885923Y-151362402D01*
X234904993Y-151580375D01*
X234904993Y-151580379D01*
X234961622Y-151791722D01*
X234961624Y-151791726D01*
X234961625Y-151791730D01*
X234981698Y-151834777D01*
X235054097Y-151990038D01*
X235071775Y-152015284D01*
X235179602Y-152169277D01*
X235334323Y-152323998D01*
X235513561Y-152449502D01*
X235617033Y-152497752D01*
X235621893Y-152500018D01*
X235674332Y-152546190D01*
X235693484Y-152613384D01*
X235673268Y-152680265D01*
X235621893Y-152724782D01*
X235513562Y-152775298D01*
X235513557Y-152775300D01*
X235334321Y-152900802D01*
X235179602Y-153055521D01*
X235054100Y-153234757D01*
X235054098Y-153234761D01*
X234961626Y-153433068D01*
X234961622Y-153433077D01*
X234904993Y-153644420D01*
X234904993Y-153644424D01*
X234887365Y-153845921D01*
X234885923Y-153862400D01*
X234904897Y-154079284D01*
X234904993Y-154080375D01*
X234904993Y-154080379D01*
X234961622Y-154291722D01*
X234961624Y-154291726D01*
X234961625Y-154291730D01*
X234971597Y-154313115D01*
X235054097Y-154490038D01*
X235067152Y-154508682D01*
X235179602Y-154669277D01*
X235334323Y-154823998D01*
X235493761Y-154935638D01*
X235513561Y-154949502D01*
X235621893Y-155000018D01*
X235674332Y-155046190D01*
X235693484Y-155113384D01*
X235673268Y-155180265D01*
X235621893Y-155224782D01*
X235513562Y-155275298D01*
X235513557Y-155275300D01*
X235334321Y-155400802D01*
X235179602Y-155555521D01*
X235054100Y-155734757D01*
X235054098Y-155734761D01*
X235019620Y-155808700D01*
X234962927Y-155930279D01*
X234961626Y-155933068D01*
X234961622Y-155933077D01*
X234904993Y-156144420D01*
X234904993Y-156144424D01*
X234886484Y-156355992D01*
X234885923Y-156362400D01*
X234903080Y-156558515D01*
X234904993Y-156580375D01*
X234904993Y-156580379D01*
X234961622Y-156791722D01*
X234961624Y-156791726D01*
X234961625Y-156791730D01*
X234972552Y-156815163D01*
X235054097Y-156990038D01*
X235054098Y-156990039D01*
X235179602Y-157169277D01*
X235334323Y-157323998D01*
X235400857Y-157370586D01*
X235444481Y-157425161D01*
X235451673Y-157494660D01*
X235420151Y-157557014D01*
X235359921Y-157592428D01*
X235313547Y-157595098D01*
X235211841Y-157581708D01*
X235203712Y-157581708D01*
X235203712Y-157578201D01*
X235150452Y-157569730D01*
X235115961Y-157545398D01*
X234187945Y-156617381D01*
X234154460Y-156556058D01*
X234159444Y-156486366D01*
X234177251Y-156454213D01*
X234181269Y-156448975D01*
X234181272Y-156448974D01*
X234269512Y-156333978D01*
X234324981Y-156200062D01*
X234343901Y-156056353D01*
X234324981Y-155912644D01*
X234269512Y-155778728D01*
X234181272Y-155663732D01*
X234066276Y-155575492D01*
X234066275Y-155575491D01*
X234066273Y-155575490D01*
X233932363Y-155520024D01*
X233932361Y-155520023D01*
X233932360Y-155520023D01*
X233860505Y-155510563D01*
X233788652Y-155501103D01*
X233788650Y-155501103D01*
X233644942Y-155520023D01*
X233644938Y-155520024D01*
X233511028Y-155575490D01*
X233500927Y-155583241D01*
X233396030Y-155663732D01*
X233396028Y-155663734D01*
X233389583Y-155668680D01*
X233388788Y-155667645D01*
X233334785Y-155697121D01*
X233265094Y-155692124D01*
X233232962Y-155674326D01*
X233114257Y-155583241D01*
X233114256Y-155583240D01*
X233062271Y-155561707D01*
X233052308Y-155557580D01*
X232997905Y-155513738D01*
X232975841Y-155447444D01*
X232985201Y-155395567D01*
X232986581Y-155392236D01*
X233023165Y-155303911D01*
X233067004Y-155249510D01*
X233133298Y-155227445D01*
X233165733Y-155230989D01*
X233166178Y-155230645D01*
X233166178Y-154523404D01*
X233185863Y-154456365D01*
X233238667Y-154410610D01*
X233307825Y-154400666D01*
X233322260Y-154403626D01*
X233356869Y-154412900D01*
X233356872Y-154412900D01*
X233475484Y-154412900D01*
X233475487Y-154412900D01*
X233510086Y-154403629D01*
X233579934Y-154405292D01*
X233637797Y-154444454D01*
X233665301Y-154508683D01*
X233666178Y-154523404D01*
X233666178Y-155235765D01*
X233668122Y-155235469D01*
X233668123Y-155235469D01*
X233858838Y-155164836D01*
X233858842Y-155164834D01*
X234031445Y-155057250D01*
X234178846Y-154917135D01*
X234178847Y-154917133D01*
X234295034Y-154750204D01*
X234375237Y-154563307D01*
X234416178Y-154364090D01*
X234416178Y-154012400D01*
X233990677Y-154012400D01*
X233923638Y-153992715D01*
X233877883Y-153939911D01*
X233866677Y-153888400D01*
X233866678Y-153636400D01*
X233886363Y-153569360D01*
X233939167Y-153523605D01*
X233990678Y-153512400D01*
X234416178Y-153512400D01*
X234416178Y-153211686D01*
X234400759Y-153060061D01*
X234339878Y-152866018D01*
X234339873Y-152866008D01*
X234241172Y-152688184D01*
X234241172Y-152688183D01*
X234108699Y-152533869D01*
X234108698Y-152533868D01*
X233947873Y-152409381D01*
X233765271Y-152319811D01*
X233666178Y-152294153D01*
X233666178Y-152696053D01*
X233646493Y-152763092D01*
X233593689Y-152808847D01*
X233524531Y-152818791D01*
X233521069Y-152818243D01*
X233487259Y-152812402D01*
X233458480Y-152807430D01*
X233458479Y-152807430D01*
X233434592Y-152809603D01*
X233412146Y-152811645D01*
X233406529Y-152811900D01*
X233290178Y-152811900D01*
X233223139Y-152792215D01*
X233177384Y-152739411D01*
X233166178Y-152687900D01*
X233166178Y-152280319D01*
X233164506Y-152278065D01*
X233140379Y-152212494D01*
X233141364Y-152186543D01*
X233141678Y-152184359D01*
X233141678Y-152040438D01*
X233141677Y-152040436D01*
X233101132Y-151902349D01*
X233083389Y-151874740D01*
X233023321Y-151781272D01*
X232914551Y-151687023D01*
X232907275Y-151683700D01*
X232783634Y-151627234D01*
X232703789Y-151615755D01*
X232676977Y-151611900D01*
X232605379Y-151611900D01*
X232591972Y-151613827D01*
X232498721Y-151627234D01*
X232367806Y-151687022D01*
X232367804Y-151687023D01*
X232259034Y-151781273D01*
X232181226Y-151902344D01*
X232181225Y-151902346D01*
X232181225Y-151902347D01*
X232173844Y-151927484D01*
X232136069Y-151986260D01*
X232072513Y-152015284D01*
X232040985Y-152015766D01*
X231966182Y-152007338D01*
X231966173Y-152007338D01*
X231965596Y-152007403D01*
X231965225Y-152007338D01*
X231959215Y-152007338D01*
X231959215Y-152006284D01*
X231896775Y-151995344D01*
X231845398Y-151947992D01*
X231837159Y-151931634D01*
X231797040Y-151834777D01*
X231797039Y-151834776D01*
X231797039Y-151834775D01*
X231708799Y-151719779D01*
X231593803Y-151631539D01*
X231593802Y-151631538D01*
X231593800Y-151631537D01*
X231459890Y-151576071D01*
X231459888Y-151576070D01*
X231459887Y-151576070D01*
X231388032Y-151566610D01*
X231316179Y-151557150D01*
X231316177Y-151557150D01*
X231172469Y-151576070D01*
X231172465Y-151576071D01*
X231038554Y-151631538D01*
X231038552Y-151631539D01*
X230991664Y-151667518D01*
X230926495Y-151692712D01*
X230858050Y-151678674D01*
X230840692Y-151667518D01*
X230793803Y-151631539D01*
X230793801Y-151631538D01*
X230659890Y-151576071D01*
X230659888Y-151576070D01*
X230659887Y-151576070D01*
X230588032Y-151566610D01*
X230516179Y-151557150D01*
X230516177Y-151557150D01*
X230372469Y-151576070D01*
X230372465Y-151576071D01*
X230238554Y-151631538D01*
X230238552Y-151631539D01*
X230191664Y-151667518D01*
X230126495Y-151692712D01*
X230058050Y-151678674D01*
X230040692Y-151667518D01*
X229993803Y-151631539D01*
X229993801Y-151631538D01*
X229859890Y-151576071D01*
X229859888Y-151576070D01*
X229859887Y-151576070D01*
X229788032Y-151566610D01*
X229716179Y-151557150D01*
X229716177Y-151557150D01*
X229572469Y-151576070D01*
X229572465Y-151576071D01*
X229438555Y-151631537D01*
X229323557Y-151719779D01*
X229235315Y-151834777D01*
X229179849Y-151968687D01*
X229179848Y-151968691D01*
X229160928Y-152112399D01*
X229160928Y-152112402D01*
X229169538Y-152177804D01*
X229158772Y-152246840D01*
X229112392Y-152299095D01*
X229094053Y-152308550D01*
X229038551Y-152331539D01*
X228991664Y-152367518D01*
X228926495Y-152392712D01*
X228858050Y-152378674D01*
X228840692Y-152367518D01*
X228793803Y-152331539D01*
X228738303Y-152308550D01*
X228683900Y-152264709D01*
X228661835Y-152198414D01*
X228662817Y-152177803D01*
X228671428Y-152112400D01*
X228671428Y-152112399D01*
X228661954Y-152040439D01*
X228652508Y-151968691D01*
X228597039Y-151834775D01*
X228508799Y-151719779D01*
X228508797Y-151719777D01*
X228508793Y-151719772D01*
X228503049Y-151714028D01*
X228505565Y-151711511D01*
X228473975Y-151668217D01*
X228466678Y-151626308D01*
X228466678Y-151558989D01*
X228469317Y-151533542D01*
X228471221Y-151524463D01*
X228469448Y-151510241D01*
X228467155Y-151491839D01*
X228466678Y-151484163D01*
X228466678Y-151480738D01*
X228463090Y-151459236D01*
X228457663Y-151415704D01*
X228456751Y-151408385D01*
X228456749Y-151408381D01*
X228454680Y-151401431D01*
X228454648Y-151401337D01*
X228454622Y-151401250D01*
X228452269Y-151394395D01*
X228427882Y-151349333D01*
X228405377Y-151303296D01*
X228401097Y-151297302D01*
X228396597Y-151291521D01*
X228358902Y-151256819D01*
X228290569Y-151188487D01*
X228222232Y-151120150D01*
X228206111Y-151100298D01*
X228201037Y-151092531D01*
X228175087Y-151072333D01*
X228169341Y-151067259D01*
X228166907Y-151064825D01*
X228166906Y-151064824D01*
X228166905Y-151064823D01*
X228160448Y-151060213D01*
X228149161Y-151052155D01*
X228108726Y-151020683D01*
X228108722Y-151020681D01*
X228102248Y-151017177D01*
X228095669Y-151013960D01*
X228046554Y-150999338D01*
X227998086Y-150982698D01*
X227990869Y-150981494D01*
X227983553Y-150980582D01*
X227934325Y-150982619D01*
X227932369Y-150982700D01*
X226037144Y-150982700D01*
X225970105Y-150963015D01*
X225924350Y-150910211D01*
X225914406Y-150841053D01*
X225943431Y-150777497D01*
X225949463Y-150771019D01*
X226829263Y-149891219D01*
X226890586Y-149857734D01*
X226916944Y-149854900D01*
X227529236Y-149854900D01*
X227596275Y-149874585D01*
X227631287Y-149908462D01*
X227652315Y-149938928D01*
X227652316Y-149938929D01*
X227652317Y-149938930D01*
X227770560Y-150043683D01*
X227770562Y-150043684D01*
X227910434Y-150117096D01*
X228063814Y-150154900D01*
X228063815Y-150154900D01*
X228221785Y-150154900D01*
X228375165Y-150117096D01*
X228375164Y-150117096D01*
X228515040Y-150043683D01*
X228633283Y-149938930D01*
X228723020Y-149808923D01*
X228779037Y-149661218D01*
X228798078Y-149504400D01*
X228795242Y-149481045D01*
X228806702Y-149412124D01*
X228853605Y-149360338D01*
X228918338Y-149342100D01*
X228983785Y-149342100D01*
X229137165Y-149304296D01*
X229161122Y-149291722D01*
X229277040Y-149230883D01*
X229395283Y-149126130D01*
X229485020Y-148996123D01*
X229541037Y-148848418D01*
X229560078Y-148691600D01*
X229541037Y-148534782D01*
X229534854Y-148518480D01*
X229517536Y-148472814D01*
X229485020Y-148387077D01*
X229395283Y-148257070D01*
X229277040Y-148152317D01*
X229277038Y-148152316D01*
X229277037Y-148152315D01*
X229137165Y-148078903D01*
X228983786Y-148041100D01*
X228983785Y-148041100D01*
X228825815Y-148041100D01*
X228825814Y-148041100D01*
X228672434Y-148078903D01*
X228532562Y-148152315D01*
X228414315Y-148257071D01*
X228393287Y-148287538D01*
X228339005Y-148331530D01*
X228291236Y-148341100D01*
X226922006Y-148341100D01*
X226896561Y-148338461D01*
X226887485Y-148336558D01*
X226887482Y-148336558D01*
X226854868Y-148340623D01*
X226847192Y-148341100D01*
X226843760Y-148341100D01*
X226829419Y-148343492D01*
X226822248Y-148344689D01*
X226805421Y-148346786D01*
X226771407Y-148351027D01*
X226771406Y-148351027D01*
X226771401Y-148351028D01*
X226764375Y-148353119D01*
X226757423Y-148355506D01*
X226712355Y-148379895D01*
X226666312Y-148402403D01*
X226660366Y-148406648D01*
X226654542Y-148411181D01*
X226619842Y-148448875D01*
X226493981Y-148574736D01*
X226432658Y-148608221D01*
X226362966Y-148603237D01*
X226307033Y-148561365D01*
X226282616Y-148495901D01*
X226282300Y-148487055D01*
X226282300Y-148375907D01*
X226301985Y-148308868D01*
X226324070Y-148283094D01*
X226347283Y-148262530D01*
X226437020Y-148132523D01*
X226493037Y-147984818D01*
X226512078Y-147828000D01*
X226505454Y-147773441D01*
X226493037Y-147671181D01*
X226449004Y-147555076D01*
X226438283Y-147526809D01*
X226432917Y-147457148D01*
X226466064Y-147395642D01*
X226527202Y-147361820D01*
X226552904Y-147358847D01*
X226595007Y-147358401D01*
X226595608Y-147358395D01*
X226713064Y-147357227D01*
X226828048Y-147356158D01*
X226945633Y-147355140D01*
X227061566Y-147354209D01*
X227176437Y-147353354D01*
X227293871Y-147352551D01*
X227409431Y-147351826D01*
X227524284Y-147351169D01*
X227641472Y-147350562D01*
X227756002Y-147350031D01*
X227874031Y-147349543D01*
X227988797Y-147349125D01*
X228105312Y-147348759D01*
X228220542Y-147348448D01*
X228339054Y-147348185D01*
X228452709Y-147347981D01*
X228569549Y-147347821D01*
X228685150Y-147347710D01*
X228800041Y-147347646D01*
X228916199Y-147347624D01*
X229032357Y-147347646D01*
G37*
%TD.AperFunction*%
%TA.AperFunction,Conductor*%
G36*
X232009512Y-152518027D02*
G01*
X232053859Y-152546528D01*
X232232049Y-152724718D01*
X232265534Y-152786041D01*
X232260550Y-152855733D01*
X232232049Y-152900080D01*
X231603069Y-153529060D01*
X231616875Y-153537735D01*
X231616879Y-153537737D01*
X231787036Y-153597277D01*
X231787039Y-153597278D01*
X231966175Y-153617462D01*
X231966177Y-153617462D01*
X232013988Y-153612074D01*
X232082810Y-153624127D01*
X232134190Y-153671475D01*
X232137232Y-153676840D01*
X232141046Y-153683977D01*
X232426811Y-153398212D01*
X232488134Y-153364727D01*
X232557825Y-153369711D01*
X232613759Y-153411582D01*
X232620956Y-153423713D01*
X232621011Y-153423679D01*
X232625807Y-153431143D01*
X232701217Y-153518177D01*
X232701218Y-153518178D01*
X232701257Y-153518203D01*
X232758152Y-153554772D01*
X232762156Y-153557345D01*
X232807908Y-153610151D01*
X232817848Y-153679310D01*
X232788820Y-153742865D01*
X232782792Y-153749338D01*
X232524921Y-154007209D01*
X232484693Y-154034089D01*
X232416177Y-154062469D01*
X232416177Y-154313115D01*
X232422008Y-154370453D01*
X232409206Y-154439139D01*
X232361301Y-154490001D01*
X232314832Y-154505935D01*
X232304038Y-154507356D01*
X232304037Y-154507356D01*
X232157960Y-154567863D01*
X232032518Y-154664118D01*
X231936264Y-154789559D01*
X231911511Y-154849317D01*
X231867669Y-154903720D01*
X231801374Y-154925784D01*
X231749496Y-154916423D01*
X231742814Y-154913655D01*
X231742812Y-154913654D01*
X231742811Y-154913654D01*
X231667356Y-154903720D01*
X231599103Y-154894734D01*
X231599101Y-154894734D01*
X231455393Y-154913654D01*
X231455389Y-154913655D01*
X231321479Y-154969121D01*
X231206481Y-155057363D01*
X231118239Y-155172361D01*
X231062773Y-155306271D01*
X231062772Y-155306276D01*
X231048606Y-155413873D01*
X231020339Y-155477769D01*
X231013348Y-155485368D01*
X230765085Y-155733632D01*
X230703762Y-155767117D01*
X230634071Y-155762133D01*
X230578137Y-155720262D01*
X230553720Y-155654797D01*
X230553404Y-155645951D01*
X230553404Y-155463196D01*
X230556043Y-155437750D01*
X230557946Y-155428675D01*
X230554472Y-155400802D01*
X230553881Y-155396058D01*
X230553404Y-155388381D01*
X230553404Y-155384953D01*
X230553402Y-155384940D01*
X230549814Y-155363439D01*
X230546395Y-155336010D01*
X230543477Y-155312597D01*
X230543476Y-155312594D01*
X230541422Y-155305694D01*
X230541379Y-155305569D01*
X230541341Y-155305443D01*
X230538996Y-155298608D01*
X230514608Y-155253545D01*
X230492103Y-155207508D01*
X230487823Y-155201514D01*
X230483323Y-155195733D01*
X230445628Y-155161031D01*
X229558588Y-154273991D01*
X229525103Y-154212668D01*
X229522269Y-154186310D01*
X229522269Y-153405745D01*
X229541954Y-153338706D01*
X229587745Y-153299027D01*
X229586763Y-153297326D01*
X229593798Y-153293263D01*
X229593797Y-153293263D01*
X229593803Y-153293261D01*
X229640693Y-153257280D01*
X229705859Y-153232087D01*
X229774304Y-153246125D01*
X229791661Y-153257280D01*
X229838553Y-153293261D01*
X229972469Y-153348730D01*
X230093976Y-153364727D01*
X230116177Y-153367650D01*
X230116178Y-153367650D01*
X230116179Y-153367650D01*
X230131155Y-153365678D01*
X230259887Y-153348730D01*
X230393803Y-153293261D01*
X230508799Y-153205021D01*
X230597039Y-153090025D01*
X230652508Y-152956109D01*
X230671428Y-152812400D01*
X230671427Y-152812396D01*
X230664936Y-152763092D01*
X230662817Y-152746995D01*
X230673582Y-152677961D01*
X230719962Y-152625705D01*
X230738293Y-152616253D01*
X230793803Y-152593261D01*
X230840692Y-152557281D01*
X230905860Y-152532087D01*
X230974305Y-152546125D01*
X230991661Y-152557280D01*
X231038553Y-152593261D01*
X231093025Y-152615823D01*
X231147427Y-152659663D01*
X231169493Y-152725957D01*
X231168792Y-152744267D01*
X231161116Y-152812396D01*
X231161116Y-152812402D01*
X231181299Y-152991538D01*
X231181300Y-152991541D01*
X231240840Y-153161698D01*
X231240845Y-153161708D01*
X231249516Y-153175508D01*
X231566976Y-152858049D01*
X231766178Y-152858049D01*
X231805791Y-152940305D01*
X231877170Y-152997227D01*
X231943646Y-153012400D01*
X231988710Y-153012400D01*
X232055186Y-152997227D01*
X232126565Y-152940305D01*
X232166178Y-152858049D01*
X232166178Y-152766751D01*
X232126565Y-152684495D01*
X232055186Y-152627573D01*
X231988710Y-152612400D01*
X231943646Y-152612400D01*
X231877170Y-152627573D01*
X231805791Y-152684495D01*
X231766178Y-152766751D01*
X231766178Y-152858049D01*
X231566976Y-152858049D01*
X231878497Y-152546528D01*
X231939820Y-152513043D01*
X232009512Y-152518027D01*
G37*
%TD.AperFunction*%
%TA.AperFunction,Conductor*%
G36*
X224711691Y-151703385D02*
G01*
X224757446Y-151756189D01*
X224767390Y-151825347D01*
X224748967Y-151874740D01*
X224731223Y-151902348D01*
X224731223Y-151902349D01*
X224690678Y-152040436D01*
X224690678Y-152184365D01*
X224690993Y-152186558D01*
X224690678Y-152188747D01*
X224690678Y-152193229D01*
X224690033Y-152193229D01*
X224681045Y-152255716D01*
X224667853Y-152278061D01*
X224666178Y-152280319D01*
X224666178Y-152687900D01*
X224646493Y-152754939D01*
X224593689Y-152800694D01*
X224542178Y-152811900D01*
X224426071Y-152811900D01*
X224420459Y-152811646D01*
X224373852Y-152807412D01*
X224311302Y-152818227D01*
X224241890Y-152810251D01*
X224187808Y-152766014D01*
X224166228Y-152699560D01*
X224166178Y-152696040D01*
X224166177Y-152289032D01*
X224164428Y-152287530D01*
X224126383Y-152228927D01*
X224126061Y-152159058D01*
X224157515Y-152105765D01*
X224543262Y-151720018D01*
X224604585Y-151686534D01*
X224630943Y-151683700D01*
X224644652Y-151683700D01*
X224711691Y-151703385D01*
G37*
%TD.AperFunction*%
%TA.AperFunction,Conductor*%
G36*
X223355384Y-147448394D02*
G01*
X223403027Y-147499501D01*
X223416178Y-147555076D01*
X223416178Y-147762400D01*
X224116178Y-147762400D01*
X224116178Y-148262400D01*
X223416178Y-148262400D01*
X223416178Y-148563113D01*
X223424877Y-148648658D01*
X223412075Y-148717345D01*
X223364171Y-148768207D01*
X223296374Y-148785096D01*
X223230208Y-148762650D01*
X223213832Y-148748884D01*
X222978818Y-148513870D01*
X222957303Y-148502908D01*
X222940710Y-148492740D01*
X222921181Y-148478550D01*
X222920924Y-148478420D01*
X222920668Y-148478178D01*
X222913285Y-148472814D01*
X222913978Y-148471859D01*
X222870129Y-148430444D01*
X222864839Y-148420341D01*
X222858454Y-148406648D01*
X222778302Y-148234762D01*
X222778300Y-148234759D01*
X222778299Y-148234757D01*
X222652799Y-148055524D01*
X222582093Y-147984818D01*
X222498077Y-147900802D01*
X222331874Y-147784425D01*
X222318838Y-147775297D01*
X222181758Y-147711376D01*
X222129319Y-147665204D01*
X222110167Y-147598010D01*
X222130383Y-147531129D01*
X222183548Y-147485794D01*
X222228257Y-147475135D01*
X222246152Y-147474282D01*
X222250539Y-147474073D01*
X222368550Y-147468604D01*
X222486690Y-147463283D01*
X222604387Y-147458135D01*
X222722617Y-147453116D01*
X222840986Y-147448240D01*
X222959019Y-147443524D01*
X223077606Y-147438932D01*
X223195420Y-147434511D01*
X223287673Y-147431158D01*
X223355384Y-147448394D01*
G37*
%TD.AperFunction*%
%TD*%
M02*
