M48
; DRILL file {KiCad 7.0.6} date Thu Nov 30 13:43:51 2023
; FORMAT={-:-/ absolute / inch / decimal}
; #@! TF.CreationDate,2023-11-30T13:43:51-08:00
; #@! TF.GenerationSoftware,Kicad,Pcbnew,7.0.6
; #@! TF.FileFunction,Plated,1,2,PTH
FMAT,2
INCH
; #@! TA.AperFunction,Plated,PTH,ViaDrill
T1C0.0157
; #@! TA.AperFunction,Plated,PTH,ComponentDrill
T2C0.0157
; #@! TA.AperFunction,Plated,PTH,ViaDrill
T3C0.0177
; #@! TA.AperFunction,Plated,PTH,ComponentDrill
T4C0.0197
; #@! TA.AperFunction,Plated,PTH,ComponentDrill
T5C0.0236
; #@! TA.AperFunction,Plated,PTH,ViaDrill
T6C0.0295
%
G90
G05
T1
X8.73Y-6.238
X8.792Y-6.238
X8.892Y-5.82
X8.904Y-6.148
X8.922Y-6.184
X8.964Y-6.194
X8.982Y-5.886
X9.012Y-5.854
X9.034Y-6.132
X9.0344Y-6.166
X9.1181Y-6.1201
X9.2043Y-6.144
X9.2603Y-6.2259
T2
X8.8924Y-6.0162
X8.918Y-5.9887
X8.9495Y-5.9887
X8.9652Y-6.0162
X8.981Y-5.9887
X8.9967Y-6.0162
X9.0282Y-6.0162
X9.0439Y-5.9887
X9.0597Y-6.0162
X9.0754Y-5.9887
X9.1069Y-5.9887
X9.1325Y-6.0162
T3
X9.152Y-6.106
X9.1658Y-6.146
T4
X8.853Y-6.032
X9.1719Y-6.032
T5
X8.8353Y-6.0536
X9.1896Y-6.0536
T6
X8.728Y-5.8607
X8.728Y-5.9591
X8.728Y-6.0576
X8.728Y-6.156
X9.2969Y-5.8607
X9.2969Y-5.9591
X9.2969Y-6.0576
X9.2969Y-6.156
T5
G00X8.8353Y-5.845
M15
G01X8.8353Y-5.8095
M16
G05
G00X9.1896Y-5.845
M15
G01X9.1896Y-5.8095
M16
G05
T0
M30
